<svg xmlns="http://www.w3.org/2000/svg" viewBox="0 0 674.5 85.2"><defs><style>.cls-1{fill:none;stroke:#b3b3b3;stroke-dasharray:5;}.cls-1,.cls-4{stroke-miterlimit:10;}.cls-2{fill:#606060;}.cls-3{fill:#b3b3b3;}.cls-4{fill:#2e65ff;stroke:#000;}</style></defs><title>Asset 3one-d-chess</title><g id="Layer_2" data-name="Layer 2"><g id="Layer_1-2" data-name="Layer 1"><line class="cls-1" x1="43.66" y1="51.51" x2="630.3" y2="51.51"/><path class="cls-2" d="M8.77,85H0V71.85H3.2V82.38H8.77Z"/><path class="cls-2" d="M13.79,85H10.58V71.85h3.21Z"/><path class="cls-2" d="M22.88,77.82h6v4.41a6.09,6.09,0,0,1-2.37,2.11,7.45,7.45,0,0,1-3.64.86,7.39,7.39,0,0,1-3.51-.8A5.8,5.8,0,0,1,17,82.09a7.15,7.15,0,0,1-.88-3.67A7,7,0,0,1,17,74.78a6.24,6.24,0,0,1,2.45-2.33,7.08,7.08,0,0,1,3.39-.82,7.74,7.74,0,0,1,2.32.32,6.32,6.32,0,0,1,1.67.77,6.19,6.19,0,0,1,1.09.93l-2,2.21a4.69,4.69,0,0,0-1.15-.9,4.31,4.31,0,0,0-2.05-.39,4.1,4.1,0,0,0-1.77.38,2.86,2.86,0,0,0-1.24,1.22,4.41,4.41,0,0,0-.45,2.12,5.47,5.47,0,0,0,.47,2.39A3.19,3.19,0,0,0,21,82.11a3.9,3.9,0,0,0,1.92.47,4.67,4.67,0,0,0,1.92-.36,2.17,2.17,0,0,0,1.11-1V80.4H22.88Z"/><path class="cls-2" d="M42.32,85H39.11V79.88H34.33V85H31.12V71.85h3.21v5.33h4.78V71.85h3.21Z"/><path class="cls-2" d="M54.59,74.49H50.83V85h-3.2V74.49H44V71.85H54.59Z"/><path class="cls-2" d="M65.1,85H56.25V71.85h8.51v2.59H59.4v2.81h5v2.48h-5V82.4h5.7Z"/><path class="cls-2" d="M71.85,85.2a10,10,0,0,1-3.1-.43,7.09,7.09,0,0,1-2.24-1.17l1.66-2.54a6.45,6.45,0,0,0,1.58,1,5,5,0,0,0,2.25.49,2.09,2.09,0,0,0,1.14-.27.86.86,0,0,0,.42-.77,1.09,1.09,0,0,0-.42-.86,6.67,6.67,0,0,0-1.81-.87,14.45,14.45,0,0,1-2.57-1.17,3.55,3.55,0,0,1-1.37-1.35,4.1,4.1,0,0,1-.41-2,3.17,3.17,0,0,1,1.34-2.71,5.86,5.86,0,0,1,3.53-1,7.07,7.07,0,0,1,2.85.5,8.88,8.88,0,0,1,1.78,1L75,75.74a9.93,9.93,0,0,0-1.57-.95,3.9,3.9,0,0,0-1.72-.4,2.12,2.12,0,0,0-1.12.24.8.8,0,0,0-.38.71,1.05,1.05,0,0,0,.62.9,14.11,14.11,0,0,0,2.09.92A9.66,9.66,0,0,1,76,78.79a3.28,3.28,0,0,1,1,2.56,3.21,3.21,0,0,1-1.52,2.86A6.44,6.44,0,0,1,71.85,85.2Z"/><path class="cls-2" d="M88.58,74.49H84.81V85h-3.2V74.49H78V71.85H88.58Z"/><path class="cls-2" d="M299.13,85V71.85H304a6.63,6.63,0,0,1,5,1.78,6.48,6.48,0,0,1,1.71,4.68A6.67,6.67,0,0,1,309,83,6.89,6.89,0,0,1,303.67,85Zm3.2-2.47h1.34a3.21,3.21,0,0,0,2.88-1.28,4.94,4.94,0,0,0,.88-2.89,4.62,4.62,0,0,0-.88-2.92,3.17,3.17,0,0,0-2.63-1.12h-1.59Z"/><path class="cls-2" d="M321.83,85H313V71.85h8.52v2.59h-5.37v2.81h5v2.48h-5V82.4h5.71Z"/><path class="cls-2" d="M332.32,74.44h-4.91v2.81h4.64v2.57h-4.64V85H324.2V71.85h8.12Z"/><path class="cls-2" d="M345.52,85h-3.41l-.81-2h-4.44l-.76,2h-3.17l5.33-13.16h2.13Zm-4.88-4.27-1.57-4.17-1.55,4.17Z"/><path class="cls-2" d="M358.13,71.85V80.2a4.61,4.61,0,0,1-.78,2.69,5,5,0,0,1-2.08,1.72,6.58,6.58,0,0,1-2.81.59,6.81,6.81,0,0,1-2.78-.57,5,5,0,0,1-2.07-1.69,4.68,4.68,0,0,1-.78-2.74V71.85h3.11V80a2.16,2.16,0,0,0,.73,1.74,2.68,2.68,0,0,0,1.78.62,2.81,2.81,0,0,0,1.82-.6A2.1,2.1,0,0,0,355,80V71.85Z"/><path class="cls-2" d="M369.8,85H361V71.85h3.21V82.38h5.56Z"/><path class="cls-2" d="M380.85,74.49h-3.76V85h-3.21V74.49h-3.65V71.85h10.62Z"/><path class="cls-2" d="M590.84,85V71.85h5.4a4.44,4.44,0,0,1,2.85.83,3.19,3.19,0,0,1,.34,4.37,3.27,3.27,0,0,1-1.82,1,4.75,4.75,0,0,1,2.22.88,2.79,2.79,0,0,1,1,2.42,3.11,3.11,0,0,1-.69,2.06,4,4,0,0,1-1.79,1.21,7,7,0,0,1-2.4.4Zm3-7.76h1.68a1.33,1.33,0,0,0,1.17-.51,1.83,1.83,0,0,0,.36-1.07,1.29,1.29,0,0,0-.42-1,1.66,1.66,0,0,0-1.13-.38h-1.66Zm.06,5.33h2a1.55,1.55,0,0,0,1.31-.5,1.85,1.85,0,0,0,.36-1.12,1.37,1.37,0,0,0-.4-1,1.65,1.65,0,0,0-1.27-.43h-2Z"/><path class="cls-2" d="M609,85.2a6.88,6.88,0,0,1-3.6-.91A6.29,6.29,0,0,1,603,81.81a7.22,7.22,0,0,1-.83-3.48,6.67,6.67,0,0,1,.9-3.49,6.39,6.39,0,0,1,2.4-2.36,6.64,6.64,0,0,1,3.34-.85,7.14,7.14,0,0,1,3.52.85,6.17,6.17,0,0,1,2.42,2.36,6.78,6.78,0,0,1,.88,3.51,7,7,0,0,1-.92,3.64,6.5,6.5,0,0,1-2.45,2.38A6.86,6.86,0,0,1,609,85.2Zm.06-2.77a3.44,3.44,0,0,0,1.74-.44A3.12,3.12,0,0,0,612,80.66a4.93,4.93,0,0,0,.45-2.24,4.1,4.1,0,0,0-.49-2.06A3.43,3.43,0,0,0,610.65,75a3.72,3.72,0,0,0-1.88-.47A3.52,3.52,0,0,0,607,75a3.05,3.05,0,0,0-1.22,1.27,4.3,4.3,0,0,0-.45,2.06,4.84,4.84,0,0,0,.46,2.21,3.45,3.45,0,0,0,1.3,1.42A3.65,3.65,0,0,0,609,82.43Z"/><path class="cls-2" d="M626.6,85h-8.76V71.85H621V82.38h5.56Z"/><path class="cls-2" d="M628.33,85V71.85h4.9a6.67,6.67,0,0,1,5,1.78,6.52,6.52,0,0,1,1.7,4.68A6.67,6.67,0,0,1,638.16,83,6.89,6.89,0,0,1,632.87,85Zm3.21-2.47h1.33a3.24,3.24,0,0,0,2.89-1.28,5,5,0,0,0,.87-2.89,4.56,4.56,0,0,0-.88-2.92,3.17,3.17,0,0,0-2.63-1.12h-1.58Z"/><path class="cls-2" d="M651,85h-8.86V71.85h8.52v2.59h-5.37v2.81h5v2.48h-5V82.4H651Z"/><path class="cls-2" d="M657.78,85.2a10,10,0,0,1-3.11-.43,7.2,7.2,0,0,1-2.24-1.17l1.66-2.54a6.45,6.45,0,0,0,1.58,1,5.08,5.08,0,0,0,2.25.49,2.15,2.15,0,0,0,1.15-.27.86.86,0,0,0,.42-.77,1.09,1.09,0,0,0-.42-.86,7,7,0,0,0-1.81-.87,14.59,14.59,0,0,1-2.58-1.17,3.52,3.52,0,0,1-1.36-1.35,4.1,4.1,0,0,1-.42-2,3.19,3.19,0,0,1,1.34-2.71,5.91,5.91,0,0,1,3.54-1,7,7,0,0,1,2.84.5,9,9,0,0,1,1.79,1L661,75.74a10,10,0,0,0-1.58-.95,3.9,3.9,0,0,0-1.72-.4,2.08,2.08,0,0,0-1.11.24.8.8,0,0,0-.38.71,1,1,0,0,0,.61.9,15.17,15.17,0,0,0,2.09.92,9.66,9.66,0,0,1,3.06,1.63,3.24,3.24,0,0,1,1,2.56,3.19,3.19,0,0,1-1.52,2.86A6.38,6.38,0,0,1,657.78,85.2Z"/><path class="cls-2" d="M674.5,74.49h-3.76V85h-3.2V74.49h-3.66V71.85H674.5Z"/><circle class="cls-3" cx="43.41" cy="51.14" r="6.67"/><circle class="cls-3" cx="630.41" cy="51.14" r="6.67"/><circle class="cls-4" cx="340.82" cy="51.16" r="6.67"/><path d="M20.71,34.26l4.49-.33,4.16-11.39L37.42,0h1.84l7.8,22.47,4.09,11.46,5.1.33v1.18H43.77l0-1.18,5.41-.35L45.32,22.84,38.2,2.23,30.75,23.05,26.87,33.93l5.45.33v1.18H20.71Zm9.62-12h8.13l7.59,0,.42,1.31-16.61.05Z"/><path d="M60.3,24.19q3.21-2.28,11.2-3.65l.07,1Q65,22.63,62,24.62T58.9,29.4a4.71,4.71,0,0,0,1.41,3.66,5.74,5.74,0,0,0,4,1.3,7.91,7.91,0,0,0,4.77-1.57c1.44-1,2.24-2.05,2.4-3l.21.07c0,1.29-.82,2.6-2.38,4a8.67,8.67,0,0,1-5.89,2A6.26,6.26,0,0,1,58.7,34.1a6.27,6.27,0,0,1-1.61-4.49Q57.09,26.49,60.3,24.19ZM61,12.37a10.29,10.29,0,0,1,4.65-.93A6.9,6.9,0,0,1,71,13.57Q73,15.7,73,20.84l0,13.07,4.45.52v1H71.59L71.47,35l-.14-3.67,0-10.38q0-4.43-1.65-6.21a6,6,0,0,0-4.65-1.79,9.93,9.93,0,0,0-3.73.62A6.86,6.86,0,0,0,59,14.92l-.63-.63A7.38,7.38,0,0,1,61,12.37Z"/><path d="M116.08,33.75l4.44-.57,4-10.55L132.81,0h2.28l8.07,22,4.2,11.21,4.7.57v1.69H139.35V33.75l4.89-.52-3.51-10L133.61,4l-7.12,19.31L123,33.25l4.86.5v1.69H116.08Zm9.78-11.54,8.2.12,7.78-.15.56,2-17.25,0Z"/><path d="M156.08,24.09q3.4-2.32,11.35-3.72l.14,1.39q-6,1-9,2.82t-3,4.58A4.2,4.2,0,0,0,157,32.62a5.89,5.89,0,0,0,3.87,1.2,7.48,7.48,0,0,0,4.5-1.47,5,5,0,0,0,2.27-2.83l.47,0c0,1.4-.83,2.78-2.49,4.16a9.21,9.21,0,0,1-6.09,2.07A6.91,6.91,0,0,1,154.41,34a6.28,6.28,0,0,1-1.74-4.61Q152.67,26.42,156.08,24.09Zm.46-11.6a10.7,10.7,0,0,1,5-1.05,8,8,0,0,1,6,2.23q2.17,2.22,2.22,7.64l.07,12.08,4,.66v1.39H168l-.59-.9-.3-3.1,0-10.2q0-4.29-1.63-6a6.15,6.15,0,0,0-4.71-1.73,10.16,10.16,0,0,0-3.71.6,8.11,8.11,0,0,0-2.4,1.37l-.87-.89A7.1,7.1,0,0,1,156.54,12.49Z"/><path d="M211.44,33.23l4.42-.78,3.85-9.73L228.22,0H231l8.27,21.48,4.37,11,4.28.78v2.21H234.94V33.23l4.35-.71-3.13-8.88L229,5.76l-6.81,17.79-3,9,4.3.68v2.21H211.44Zm9.94-11.09,8.3.21,8-.24.71,2.66H220.46Z"/><path d="M251.85,24q3.6-2.37,11.52-3.76l.21,1.77a24.33,24.33,0,0,0-8.42,2.57q-3,1.72-2.95,4.36a3.77,3.77,0,0,0,1.48,3.25,6.09,6.09,0,0,0,3.71,1.1,7,7,0,0,0,4.25-1.38,4.72,4.72,0,0,0,2.12-2.62l.73,0c0,1.52-.85,3-2.61,4.39a9.71,9.71,0,0,1-6.25,2.1A7.6,7.6,0,0,1,250.12,34a6.29,6.29,0,0,1-1.88-4.7C248.24,27.33,249.44,25.58,251.85,24Zm.23-11.39a11.1,11.1,0,0,1,5.44-1.18,9.13,9.13,0,0,1,6.62,2.32q2.4,2.31,2.48,8l.11,11.12,3.58.77v1.79H264.5l-1.08-1.32L263,31.58l0-10q0-4.2-1.62-5.87A6.32,6.32,0,0,0,256.68,14a10.32,10.32,0,0,0-3.72.6A9.94,9.94,0,0,0,250.43,16l-1.09-1.12A6.81,6.81,0,0,1,252.08,12.6Z"/><path d="M400.91,33.09l3.71-.82,3.6-9.85L415.74,0h7.09L430,20.75l4.26,11.52,3.55.82v2.35H422.17V33.09l3.6-.73-2.87-9.21L416.84,6.46,411,22.94l-2.89,9.44,3.55.71v2.35H400.91Zm8.76-11,8,.24,8.08-.26.68,2.82H408.8Z"/><path d="M442,23.36q3.92-2.41,12.5-3.76l.21,1.81a15.68,15.68,0,0,0-7,2.63,5.7,5.7,0,0,0-2.41,4.7,4.09,4.09,0,0,0,1.22,3.33,4.69,4.69,0,0,0,3.06,1,5.53,5.53,0,0,0,3.47-1.15,3.84,3.84,0,0,0,1.67-2.68h1a5.68,5.68,0,0,1-2.52,4.54,10.77,10.77,0,0,1-6.84,2q-4.2,0-6.27-1.91A6.36,6.36,0,0,1,438.06,29C438.06,26.84,439.37,25,442,23.36ZM444,12a16.22,16.22,0,0,1,6.63-1.16c3.4,0,6.06.77,8,2.32s2.92,4.07,3,7.6l.11,11.94,3,.82v1.88H455.8L454.58,34l-.45-2.4.05-11.14q0-3.87-1.51-5.37a6.18,6.18,0,0,0-4.5-1.49,10.41,10.41,0,0,0-3.64.58,9.09,9.09,0,0,0-2.73,1.54l-1.37-1.2A8.75,8.75,0,0,1,444,12Z"/><path d="M495.55,33.09l3.31-.82,3.48-10.06L509.27,0h9.54l6.53,20.4,4.16,11.87,3.18.82v2.35H515.54V33.09l3.25-.73L516,22.79l-5.5-16.16-5.39,15.93-2.84,9.82,3.2.71v2.35h-9.94Zm8.08-11,7.83.24,8.13-.26.65,2.82H502.86Z"/><path d="M537,23Q541,20.56,550,19.27l.19,1.79A12,12,0,0,0,544,23.73a6.48,6.48,0,0,0-2.11,4.94,4.41,4.41,0,0,0,1.07,3.38,3.85,3.85,0,0,0,2.69,1A4.74,4.74,0,0,0,548.69,32a3.7,3.7,0,0,0,1.42-2.74h1.18a5.65,5.65,0,0,1-2.43,4.6c-1.64,1.28-4,1.91-7.14,1.91s-5.25-.64-6.68-1.92a6.41,6.41,0,0,1-2.15-5Q532.89,25.48,537,23Zm3-11.33a19.49,19.49,0,0,1,7.28-1.14q5.52,0,8.67,2.3c2.1,1.54,3.15,4,3.17,7.34l.12,12.55,2.75.82v1.88H551.33L550.14,34l-.47-2.39,0-11.75q0-3.76-1.44-5.16a6.11,6.11,0,0,0-4.36-1.4,10.64,10.64,0,0,0-3.58.56,9.05,9.05,0,0,0-2.84,1.67L536,14.31A9.69,9.69,0,0,1,540,11.69Z"/><path d="M590.19,33.09l2.91-.82L596.46,22l6.32-22h12l5.88,20.05,4.09,12.22,2.8.82v2.35H608.87V33.09l2.91-.73-2.68-9.89-4.91-15.7-4.88,15.39-2.85,10.22,2.87.71v2.35h-9.14Zm7.38-11,7.66.24,8.15-.26.64,2.82H596.86Z"/><path d="M631.92,22.67q4.23-2.49,13.59-3.73l.18,1.74a9.49,9.49,0,0,0-5.5,2.75,7.54,7.54,0,0,0-1.8,5.17c0,1.69.3,2.84.91,3.45a3.16,3.16,0,0,0,2.35.92,4,4,0,0,0,2.66-.93,3.76,3.76,0,0,0,1.2-2.81h1.29a5.6,5.6,0,0,1-2.36,4.65q-2.38,1.84-7.44,1.84c-3.21,0-5.57-.65-7.06-1.95a6.43,6.43,0,0,1-2.25-5.1Q627.69,25.15,631.92,22.67Zm4-11.31a23.3,23.3,0,0,1,7.9-1.11q6,0,9.38,2.29c2.25,1.52,3.39,3.87,3.4,7l.12,13.16,2.47.82v1.88H646.87L645.65,34l-.45-2.39,0-12.41q0-3.6-1.41-4.9a6,6,0,0,0-4.21-1.3,10.59,10.59,0,0,0-3.53.55,9,9,0,0,0-2.93,1.75l-1.6-1.22A10.61,10.61,0,0,1,636,11.36Z"/><path d="M306.27,33.09l4.11-.82,3.71-9.66L322.2,0h4.7l7.85,21.1,4.32,11.17,3.9.82v2.35H328.85V33.09l3.95-.73-3-8.88L323.16,6.32l-6.37,17-2.89,9,3.91.71v2.35H306.27Zm9.47-11,8.18.24,8-.26.73,2.82H314.8Z"/><path d="M347,23.71q3.77-2.4,12-3.78l.21,1.85a20.1,20.1,0,0,0-7.72,2.54,5.23,5.23,0,0,0-2.71,4.51,3.83,3.83,0,0,0,1.37,3.24,5.54,5.54,0,0,0,3.42,1,6.32,6.32,0,0,0,3.86-1.27,4.18,4.18,0,0,0,1.9-2.61h.92q0,2.43-2.59,4.48a10.24,10.24,0,0,1-6.53,2.06c-2.62,0-4.58-.62-5.9-1.86a6.3,6.3,0,0,1-2-4.82C343.26,27.1,344.51,25.31,347,23.71Zm1-11.34a13.2,13.2,0,0,1,6-1.18,10.73,10.73,0,0,1,7.3,2.32c1.78,1.55,2.68,4.19,2.71,7.9l.12,11.33,3.29.82v1.88h-7.12L359.07,34l-.47-2.4,0-10.48q0-4-1.56-5.63a6.33,6.33,0,0,0-4.67-1.58,10.43,10.43,0,0,0-3.67.58A9.57,9.57,0,0,0,346.12,16l-1.24-1.2A7.8,7.8,0,0,1,348,12.37Z"/></g></g></svg>