<svg xmlns="http://www.w3.org/2000/svg" viewBox="0 0 931.19 370.07"><defs><style>.cls-1{fill:none;stroke-dasharray:5;}.cls-1,.cls-4{stroke:#b3b3b3;}.cls-1,.cls-4,.cls-5{stroke-miterlimit:10;}.cls-2{fill:#666;}.cls-3{fill:#b3b3b3;}.cls-4{fill:#f2f2f2;}.cls-5{fill:#2e65ff;stroke:#000;}.cls-6{fill:#606060;}</style></defs><title>Asset 2two-d-chess</title><g id="Layer_2" data-name="Layer 2"><g id="Layer_1-2" data-name="Layer 1"><path class="cls-1" d="M305.48,336.84l588.88.29c-.47,0-293-293-293-293L12.46,43.83S310.69,336.84,305.48,336.84Z"/><line class="cls-1" x1="306.9" y1="41.78" x2="601.34" y2="336.22"/><line class="cls-1" x1="164.66" y1="188.01" x2="447.97" y2="188.01"/><line class="cls-1" x1="458.66" y1="188.01" x2="741.98" y2="188.01"/><circle class="cls-2" cx="888.36" cy="336.39" r="3.5"/><circle class="cls-3" cx="12.79" cy="44.46" r="6.67"/><circle class="cls-4" cx="307" cy="44.46" r="6.67"/><circle class="cls-3" cx="599.18" cy="44.46" r="6.67"/><circle class="cls-4" cx="155.54" cy="187.28" r="6.67"/><circle class="cls-4" cx="742.95" cy="187.28" r="6.67"/><circle class="cls-4" cx="452.5" cy="189.73" r="6.67"/><path d="M0,34.38,3,34,5.69,22.65,10.6,0h2.32l4.89,23.22L20.26,34l3.78.35v1.06H14.76l0-1.06,4.14-.4L16.1,21.9,11.82,2.37,7.1,22.14,4.25,34l4.12.35v1.06H0ZM6.49,22.3h5.24l5.07,0,.26,1.2-10.69,0Z"/><path d="M27.05,24.15c1.42-1.52,4.12-2.77,8.08-3.78l-.05.87q-4.74,1.32-6.75,3.34a6.87,6.87,0,0,0-2,5.05,6.09,6.09,0,0,0,.85,3.72,3.32,3.32,0,0,0,2.75,1,5,5,0,0,0,3.31-1.27,4.53,4.53,0,0,0,1.62-3.28l.33.07a6,6,0,0,1-1.67,4,5.41,5.41,0,0,1-4.23,1.79A3.72,3.72,0,0,1,26,34.11a7.89,7.89,0,0,1-1.1-4.48A7.68,7.68,0,0,1,27.05,24.15Zm1.47-11.87a5.71,5.71,0,0,1,3.2-.84,4,4,0,0,1,3.42,1.65c.79,1.1,1.19,2.91,1.19,5.45l0,15.42,3.51.56v.92H35.11v-.33L35,31.49l0-12.06c0-2.64-.34-4.41-1-5.29a3.4,3.4,0,0,0-2.85-1.33,5.44,5.44,0,0,0-2.45.51,4.09,4.09,0,0,0-1.64,1.53l-.63-.54A6.77,6.77,0,0,1,28.52,12.28Z"/><path d="M94.74,33.86l2.91-.58,2.59-10.53L105.36,0h2.78l5.14,22.72,2.56,10.56,3.39.58v1.58h-9.52V33.86l3.62-.56-2.45-11L106.61,4.14l-4.4,18.26-2.42,11,3.53.51v1.58H94.74Zm6.65-11.65,5.31.12,5.27-.15.39,1.88-11.32,0Z"/><path d="M122.2,24q2.34-2.29,8.24-3.83l0,1.29a14.19,14.19,0,0,0-6.17,3.05,6.42,6.42,0,0,0-2,4.85,5.23,5.23,0,0,0,.89,3.5,3.37,3.37,0,0,0,2.59,1,4.51,4.51,0,0,0,3-1.17,4.32,4.32,0,0,0,1.49-3.08l.59.05a6.15,6.15,0,0,1-6.2,6.06A4.21,4.21,0,0,1,121.1,34a7.56,7.56,0,0,1-1.24-4.59A7.36,7.36,0,0,1,122.2,24Zm1.22-11.64a6.32,6.32,0,0,1,3.61-1,4.94,4.94,0,0,1,4,1.74c1,1.16,1.44,3.11,1.46,5.83l0,14.43,3.08.71v1.29h-4.72l-.47-.75-.24-3.06.05-11.87c0-2.57-.34-4.27-1-5.12a3.5,3.5,0,0,0-2.9-1.27,5.5,5.5,0,0,0-2.45.51,4.49,4.49,0,0,0-1.74,1.51l-.87-.8A6.51,6.51,0,0,1,123.42,12.4Z"/><path d="M189.46,33.35l2.89-.8,2.42-9.71L200.13,0h3.24l5.36,22.23,2.72,10.32,3,.8v2.09h-9.75V33.35l3.08-.76-2.07-9.89L201.4,5.9l-4.09,16.73-2,10,3,.71v2.09h-8.83Zm6.81-11.21,5.41.21,5.45-.24.54,2.54h-12Z"/><path d="M217.35,24q2.53-2.36,8.41-3.88l.1,1.67a13.55,13.55,0,0,0-5.57,2.79,6,6,0,0,0-1.9,4.63c0,1.63.3,2.73.91,3.31a3.4,3.4,0,0,0,2.42.85,4.08,4.08,0,0,0,2.79-1.08,4.15,4.15,0,0,0,1.35-2.86l.84,0a5.89,5.89,0,0,1-1.89,4.45,6.32,6.32,0,0,1-4.59,1.87,4.8,4.8,0,0,1-4-1.75,7.37,7.37,0,0,1-1.38-4.69A7.1,7.1,0,0,1,217.35,24Zm1-11.45a6.9,6.9,0,0,1,4-1.08A6,6,0,0,1,227,13.25c1.11,1.23,1.68,3.29,1.72,6.21l.09,13.46,2.63.83v1.69h-4.68l-1-1.18-.35-2.49,0-11.68c0-2.5-.34-4.16-1-5a3.62,3.62,0,0,0-2.93-1.21,5.59,5.59,0,0,0-2.45.51,5.46,5.46,0,0,0-1.88,1.51l-1.08-1A6.41,6.41,0,0,1,218.35,12.5Z"/><path d="M377.68,33.21l2.19-.85L382,22.54,386.4,0H394l4.28,21.5,2.61,10.86,2.23.85v2.23H390.65V33.21l2.33-.78-1.81-10.22L388,6.6,384.8,22,383,32.48l2.2.73v2.23h-7.47Zm5.64-11.1,5.12.24,5.57-.26.52,2.7H382.8Z"/><path d="M406.22,23.31q2.85-2.4,9.39-3.88l.09,1.72A8.2,8.2,0,0,0,411.57,24a8.29,8.29,0,0,0-1.36,5c0,1.73.21,2.86.65,3.37a2.22,2.22,0,0,0,1.77.76,2.68,2.68,0,0,0,2-.86,4.44,4.44,0,0,0,.89-2.92h1.15a6,6,0,0,1-1.8,4.6,7.12,7.12,0,0,1-5.18,1.77,6,6,0,0,1-4.78-1.82,7.29,7.29,0,0,1-1.56-4.9A7.21,7.21,0,0,1,406.22,23.31ZM409,12a11,11,0,0,1,5.19-1.07,9.06,9.06,0,0,1,6,1.83c1.44,1.23,2.17,3.15,2.19,5.78l.09,14.29,2.07.87v1.79h-7.73l-1.11-1.27-.37-2.35L415.38,19c0-2.29-.31-3.77-.91-4.46a3.38,3.38,0,0,0-2.69-1,5.69,5.69,0,0,0-2.36.48,6.26,6.26,0,0,0-2.08,1.68L406,14.57A7.72,7.72,0,0,1,409,12Z"/><path d="M471.69,33.21l1.79-.85,2-10L479.31,0h10L493,21.15l2.52,11.21,1.85.85v2.23H483.4V33.21l2-.78-1.71-10.58L481,6.77l-2.66,14.87-1.8,10.84,1.85.73v2.23h-6.7Zm5-11.1,4.94.24,5.61-.26.5,2.7H476.23Z"/><path d="M500.57,23q3-2.43,9.94-3.86l.08,1.69a6.27,6.27,0,0,0-3.39,2.9,11.11,11.11,0,0,0-1.06,5.2,7.16,7.16,0,0,0,.51,3.44,1.62,1.62,0,0,0,1.4.72,2,2,0,0,0,1.61-.75,5,5,0,0,0,.64-3h1.3A6.12,6.12,0,0,1,509.88,34q-1.74,1.68-5.47,1.68-3.56,0-5.2-1.84a7.28,7.28,0,0,1-1.64-5A7.32,7.32,0,0,1,500.57,23Zm3.78-11.37a13.74,13.74,0,0,1,5.84-1,11,11,0,0,1,6.71,1.82,6.48,6.48,0,0,1,2.4,5.51l.1,14.9,1.81.87v1.79h-9.5l-1.08-1.29-.4-2.35,0-13.42c0-2.21-.26-3.63-.83-4.26a3.33,3.33,0,0,0-2.55-.94,5.76,5.76,0,0,0-2.32.47,6.28,6.28,0,0,0-2.17,1.81l-1.48-1.13A8.52,8.52,0,0,1,504.35,11.6Z"/><path d="M565.71,33.21l1.38-.85L569,22.14,572.19,0h12.46l3,20.8,2.44,11.56,1.48.85v2.23H576.09V33.21l1.65-.78-1.62-10.9L574.05,6.91l-2.16,14.33-1.81,11.24,1.52.73v2.23h-5.89ZM570,22.11l4.77.24,5.64-.26.47,2.7H569.61Z"/><path d="M594.9,22.62q3.17-2.46,10.47-3.84l.07,1.64a5.11,5.11,0,0,0-2.64,3,16.09,16.09,0,0,0-.76,5.44,10.05,10.05,0,0,0,.35,3.51,1.13,1.13,0,0,0,1.06.68,1.34,1.34,0,0,0,1.19-.64,6.54,6.54,0,0,0,.43-3.05h1.41A6.2,6.2,0,0,1,604.83,34q-1.67,1.6-5.78,1.61-3.82,0-5.57-1.87a7.16,7.16,0,0,1-1.74-5.09A7.45,7.45,0,0,1,594.9,22.62Zm4.81-11.35a17,17,0,0,1,6.46-1q4.77,0,7.42,1.81a5.92,5.92,0,0,1,2.64,5.21l.09,15.51,1.53.87v1.79H606.62l-1.11-1.29-.37-2.35.05-14.08c0-2.1-.27-3.43-.8-4a3.19,3.19,0,0,0-2.4-.84,5.67,5.67,0,0,0-2.26.46,6.39,6.39,0,0,0-2.28,1.89l-1.59-1.13A9.25,9.25,0,0,1,599.71,11.27Z"/><path d="M66.43,104.75l3.34-.33,3.08-11.37,5.71-22.63h2.21l5.59,23,2.87,11,4.11.33v1.11H83.26l0-1.11,4.45-.37L84.65,92.56l-5-19.79-5.41,20-3.1,11.63,4.44.33v1.11H66.43Zm7.27-12h5.94l5.71,0,.31,1.22L73.48,94Z"/><path d="M96.62,94.58c1.61-1.52,4.55-2.77,8.85-3.76v.91c-3.48.85-6,1.94-7.49,3.28a6.41,6.41,0,0,0-2.26,5,5.55,5.55,0,0,0,1,3.7,3.93,3.93,0,0,0,3.07,1.11,5.69,5.69,0,0,0,3.68-1.35,4.6,4.6,0,0,0,1.82-3.23l.3.07a5.84,5.84,0,0,1-1.84,4,6.18,6.18,0,0,1-4.64,1.84,4.28,4.28,0,0,1-3.65-1.63,7.92,7.92,0,0,1,1.17-10ZM97.9,82.72a6.79,6.79,0,0,1,3.57-.86,4.63,4.63,0,0,1,3.9,1.78q1.36,1.77,1.37,5.91l0,14.8,3.74.57v.94h-5l0-.38-.1-3.62,0-11.63q0-4.1-1.19-5.52a4,4,0,0,0-3.3-1.44,6.61,6.61,0,0,0-2.77.53,4.15,4.15,0,0,0-1.79,1.5l-.63-.57A6.75,6.75,0,0,1,97.9,82.72Z"/><path d="M161.17,104.24l3.29-.57,2.94-10.52,5.92-22.73H176L181.83,93l3,10.71,3.71.57v1.62H178.21v-1.62l3.93-.54L179.43,93l-5-18.43-5.07,18.52-2.68,10.69,3.85.5v1.62h-9.38Zm7.43-11.61,6,.12,5.9-.15.44,1.91-12.81,0Z"/><path d="M191.77,94.47q2.61-2.31,9-3.82l.07,1.34A16.64,16.64,0,0,0,194,95a6,6,0,0,0-2.23,4.79,4.74,4.74,0,0,0,1.05,3.49,4,4,0,0,0,2.9,1,5.26,5.26,0,0,0,3.41-1.25,4.35,4.35,0,0,0,1.69-3l.57,0a5.77,5.77,0,0,1-2,4.22,6.72,6.72,0,0,1-4.85,1.89,4.8,4.8,0,0,1-4-1.7,7.15,7.15,0,0,1-1.37-4.59A7,7,0,0,1,191.77,94.47Zm1-11.63a7.32,7.32,0,0,1,4-1,5.66,5.66,0,0,1,4.52,1.87c1.07,1.25,1.62,3.34,1.63,6.29l.07,13.82,3.32.7v1.32h-5l-.49-.8-.26-3.06.05-11.44q0-4-1.18-5.35a4.19,4.19,0,0,0-3.36-1.37,6.7,6.7,0,0,0-2.76.52,4.69,4.69,0,0,0-1.89,1.48l-.87-.83A6.57,6.57,0,0,1,192.81,82.84Z"/><path d="M255.9,103.72l3.27-.78,2.77-9.7,6.16-22.82h3.13l6.06,22,3.15,10.48,3.29.78v2.14H273.18v-2.14l3.38-.73-2.33-9.63-5-17.06-4.77,17L262.25,103l3.29.68v2.14H255.9Zm7.59-11.16,6.11.21,6.09-.24.59,2.57H262.84Z"/><path d="M286.91,94.38c1.87-1.58,4.93-2.86,9.18-3.87l.14,1.72a15.82,15.82,0,0,0-6.3,2.74,5.59,5.59,0,0,0-2.16,4.57,4.19,4.19,0,0,0,1.07,3.29,4,4,0,0,0,2.74.91,4.76,4.76,0,0,0,3.15-1.16,4.13,4.13,0,0,0,1.55-2.81l.82,0a5.82,5.82,0,0,1-2.07,4.44,7.13,7.13,0,0,1-5,1.92,5.47,5.47,0,0,1-4.42-1.77,7,7,0,0,1-1.51-4.69A6.88,6.88,0,0,1,286.91,94.38ZM287.72,83a7.85,7.85,0,0,1,4.37-1.11,6.74,6.74,0,0,1,5.14,2q1.84,2,1.89,6.67l.12,12.85,2.86.82v1.72h-5l-1-1.22-.38-2.49.05-11.26q0-3.89-1.16-5.19a4.3,4.3,0,0,0-3.4-1.32,6.76,6.76,0,0,0-2.76.52,5.52,5.52,0,0,0-2,1.48l-1.08-1.06A6.34,6.34,0,0,1,287.72,83Z"/><path d="M350.09,103.58l3-.82,2.64-9.64,5.75-22.7h5.08l5.64,21.67,3.1,10.67,2.91.82v2.28H366.45v-2.28l3-.75-2.16-9.64-4.53-16.33-4.33,16.21-2.11,9.8,2.89.71v2.28h-9.1Zm7.12-11,6,.24,6.15-.26.61,2.73H356.53Z"/><path d="M381.45,94.1q3-2.38,9.63-3.89l.14,1.81a12.64,12.64,0,0,0-5.6,2.7,6.14,6.14,0,0,0-1.92,4.72q0,2.4,1,3.27a3.51,3.51,0,0,0,2.44.87,4.07,4.07,0,0,0,2.77-1.06,3.88,3.88,0,0,0,1.32-2.79h1a5.8,5.8,0,0,1-2,4.53,7.58,7.58,0,0,1-5.29,1.88,6.06,6.06,0,0,1-4.79-1.8,7.06,7.06,0,0,1,1.37-10.24ZM383,82.72a9.64,9.64,0,0,1,4.92-1.11,8.14,8.14,0,0,1,5.82,2c1.4,1.32,2.11,3.49,2.13,6.53l.11,13.07,2.59.87v1.81h-6.28l-1.1-1.32-.42-2.35,0-11.72q0-3.72-1.1-5a4.27,4.27,0,0,0-3.31-1.23,6.84,6.84,0,0,0-2.72.5,6,6,0,0,0-2.12,1.56l-1.25-1.12A7.24,7.24,0,0,1,383,82.72Z"/><path d="M444.12,103.58l2.56-.82,2.51-9.83,5.17-22.51h7.47l5,21.31,3,11,2.56.82v2.28H459.16v-2.28l2.63-.75-2.07-10L455.8,77,452,92.67l-2.12,10.2,2.54.71v2.28h-8.27Zm6.41-11,5.83.24,6.2-.26.57,2.73H449.92Z"/><path d="M475.79,93.74q3.13-2.4,10.16-3.86l.14,1.76a9.65,9.65,0,0,0-4.87,2.8,7.25,7.25,0,0,0-1.62,4.91q0,2.54.81,3.36a2.8,2.8,0,0,0,2.08.82,3.35,3.35,0,0,0,2.39-.94A4,4,0,0,0,486,99.73h1.13a5.87,5.87,0,0,1-2,4.59,8,8,0,0,1-5.59,1.82,6.68,6.68,0,0,1-5.17-1.84,7.18,7.18,0,0,1,1.43-10.56Zm2.55-11.35a12.3,12.3,0,0,1,5.56-1.09,9.89,9.89,0,0,1,6.52,2q2.34,2,2.36,6.24l.12,13.68,2.31.87v1.81h-8l-1.13-1.32-.4-2.35,0-12.38c0-2.37-.35-3.93-1.06-4.69A4.08,4.08,0,0,0,481.5,84a6.9,6.9,0,0,0-2.67.49,6.22,6.22,0,0,0-2.24,1.65L475.23,85A8,8,0,0,1,478.34,82.39Z"/><path d="M538.12,103.58l2.16-.82,2.4-10,4.58-22.3h9.92l4.32,21,2.94,11.38,2.18.82v2.28H551.89v-2.28l2.28-.75-2-10.32-3.36-15.34L545.5,92.3l-2.07,10.57,2.18.71v2.28h-7.49Zm5.73-11,5.64.24,6.25-.26.54,2.73H543.33Z"/><path d="M570.14,93.4q3.27-2.45,10.7-3.85l.12,1.74a7.37,7.37,0,0,0-4.12,2.84,9.19,9.19,0,0,0-1.31,5.15q0,2.63.66,3.42a2.14,2.14,0,0,0,1.71.78,2.62,2.62,0,0,0,2-.83,4.36,4.36,0,0,0,.84-2.92H582a5.88,5.88,0,0,1-1.89,4.65q-1.92,1.74-5.89,1.74c-2.54,0-4.4-.63-5.58-1.87a7,7,0,0,1-1.77-5A7.14,7.14,0,0,1,570.14,93.4ZM573.72,82a15.18,15.18,0,0,1,6.2-1.07,11.7,11.7,0,0,1,7.19,2q2.6,2,2.59,6l.12,14.29,2,.87v1.81h-9.77L581,104.52l-.42-2.35,0-13c0-2.28-.31-3.78-1-4.47a4,4,0,0,0-3-1,7,7,0,0,0-2.63.48,6.29,6.29,0,0,0-2.33,1.78l-1.48-1.15A8.68,8.68,0,0,1,573.72,82Z"/><path d="M632.14,103.58l1.76-.82,2.28-10.23,4-22.11h12.34L656.16,91,659,102.76l1.8.82v2.28H644.6v-2.28l1.95-.75-1.88-10.65-2.78-14.87L639.05,91.9l-2.07,11,1.86.71v2.28h-6.7Zm5-11,5.48.24,6.27-.26.52,2.73H636.72Z"/><path d="M664.48,93.05q3.42-2.46,11.23-3.83l.12,1.69a5.77,5.77,0,0,0-3.37,2.92,12,12,0,0,0-1,5.38,7.39,7.39,0,0,0,.51,3.49,1.57,1.57,0,0,0,1.37.74,1.94,1.94,0,0,0,1.57-.72,5.19,5.19,0,0,0,.62-3h1.38a5.91,5.91,0,0,1-1.82,4.69c-1.23,1.12-3.29,1.67-6.19,1.67q-4.08,0-6-1.89a7,7,0,0,1-1.86-5.09A7.28,7.28,0,0,1,664.48,93.05Zm4.61-11.34a18.68,18.68,0,0,1,6.83-1q5.08,0,7.9,1.93a6.47,6.47,0,0,1,2.82,5.68l.11,14.9,1.77.87v1.81H677l-1.13-1.34-.4-2.35,0-13.65c0-2.18-.31-3.59-.95-4.22a3.86,3.86,0,0,0-2.86-1,6.94,6.94,0,0,0-2.57.47,6.45,6.45,0,0,0-2.43,1.85l-1.6-1.15A9.68,9.68,0,0,1,669.09,81.71Z"/><path d="M233.79,173.43l3.69-.56,3.31-10.53,6.68-22.7H250L256.61,162,260,172.87l4,.56v1.65H252.92v-1.65l4.25-.51-3-10.51-5.69-18.7-5.76,18.8-2.93,10.43,4.2.49v1.65H233.79ZM242,161.85l6.75.11,6.53-.14.5,1.93-14.32,0Z"/><path d="M267.52,163.7q2.88-2.3,9.79-3.78l.1,1.34a19.07,19.07,0,0,0-7.61,2.94,5.71,5.71,0,0,0-2.47,4.72,4,4,0,0,0,4.39,4.56,6,6,0,0,0,3.78-1.32,4.36,4.36,0,0,0,1.88-3l.54.05a5.76,5.76,0,0,1-2.15,4.21,7.47,7.47,0,0,1-5.25,1.95,5.47,5.47,0,0,1-4.38-1.73,7,7,0,0,1,1.38-10Zm.85-11.62a8.48,8.48,0,0,1,4.31-1,6.46,6.46,0,0,1,5,2c1.2,1.32,1.81,3.57,1.82,6.73l.08,13.26,3.54.68v1.34h-5.28l-.52-.82-.28-3.08,0-11q0-4.09-1.32-5.59a4.87,4.87,0,0,0-3.82-1.49,7.88,7.88,0,0,0-3.07.54,5.69,5.69,0,0,0-2.08,1.44l-.84-.85A6.57,6.57,0,0,1,268.37,152.08Z"/><path d="M327.27,172.92l3.67-.78,3.14-9.71L341,139.64h3l6.82,21.85,3.54,10.65,3.62.78v2.16H346.63v-2.16l3.72-.71-2.61-9.4-5.69-17.34-5.45,17.27-2.49,9.49,3.64.69v2.16H327.27Zm8.39-11.14,6.84.21,6.72-.24.63,2.59H334.91Z"/><path d="M361.44,163.61q3.07-2.36,10-3.83l.16,1.71a18.38,18.38,0,0,0-7,2.7,5.32,5.32,0,0,0-2.42,4.5,4,4,0,0,0,1.2,3.27,4.7,4.7,0,0,0,3.06,1,5.56,5.56,0,0,0,3.52-1.22,4.21,4.21,0,0,0,1.74-2.75l.8,0a5.82,5.82,0,0,1-2.27,4.43,7.92,7.92,0,0,1-5.42,2,6.13,6.13,0,0,1-4.78-1.8,6.73,6.73,0,0,1-1.63-4.71C358.36,166.94,359.38,165.18,361.44,163.61Zm.62-11.42a8.93,8.93,0,0,1,4.71-1.13,7.52,7.52,0,0,1,5.65,2.08q2,2.09,2.08,7.11l.12,12.29,3.1.8v1.74h-5.24l-1-1.25-.4-2.51.05-10.84q0-4-1.32-5.42a4.94,4.94,0,0,0-3.85-1.44,8,8,0,0,0-3.07.54,6.87,6.87,0,0,0-2.22,1.44l-1.06-1.08A6.39,6.39,0,0,1,362.06,152.19Z"/><path d="M420.24,172.77l3.36-.82,3-9.63,6.51-22.68h5l6.39,21.48L448,172l3.25.82v2.31H438.69v-2.31l3.31-.72-2.44-9.4L434.32,146l-5,16.5-2.37,9.54,3.24.7v2.31h-9.94Zm7.92-11,6.72.24,6.8-.26.65,2.75H427.39Z"/><path d="M454.74,163.33q3.24-2.37,10.41-3.86l.17,1.81a14.64,14.64,0,0,0-6.3,2.66,5.72,5.72,0,0,0-2.19,4.65,3.56,3.56,0,0,0,3.86,4.18,4.83,4.83,0,0,0,3.13-1.11,3.89,3.89,0,0,0,1.52-2.74h1a5.82,5.82,0,0,1-2.25,4.52,8.35,8.35,0,0,1-5.7,1.94,6.75,6.75,0,0,1-5.15-1.82,6.68,6.68,0,0,1-1.73-4.83Q451.5,165.7,454.74,163.33ZM456.08,152a10.73,10.73,0,0,1,5.26-1.14,9,9,0,0,1,6.34,2.09c1.52,1.39,2.3,3.72,2.31,7l.12,12.5,2.82.84v1.84h-6.56l-1.13-1.34-.44-2.38.05-11.3q0-3.83-1.26-5.18a5,5,0,0,0-3.77-1.35,7.83,7.83,0,0,0-3,.53,7.1,7.1,0,0,0-2.32,1.51l-1.22-1.15A7.28,7.28,0,0,1,456.08,152Z"/><path d="M513,172.77l3-.82,2.89-9.82,5.92-22.49h7.36l5.73,21.13L541.31,172l2.89.82v2.31H530.15v-2.31l3-.72-2.35-9.73-4.63-16.15-4.51,16-2.38,9.94,2.9.7v2.31H513Zm7.21-11,6.56.24,6.84-.26.61,2.75H519.53Z"/><path d="M547.83,163q3.4-2.4,10.94-3.84l.17,1.77a11.35,11.35,0,0,0-5.57,2.75,6.51,6.51,0,0,0-1.88,4.84c0,1.64.31,2.76.94,3.35a3.37,3.37,0,0,0,2.39.88,4.06,4.06,0,0,0,2.76-1,3.81,3.81,0,0,0,1.28-2.81H560a5.86,5.86,0,0,1-2.17,4.58,8.87,8.87,0,0,1-6,1.88c-2.47,0-4.32-.62-5.53-1.87a6.71,6.71,0,0,1-1.82-4.92C544.44,166.45,545.57,164.57,547.83,163Zm2.36-11.34a13.38,13.38,0,0,1,5.9-1.12,10.75,10.75,0,0,1,7,2.08q2.52,2.09,2.55,6.69l.12,13.11,2.54.84v1.84H560l-1.15-1.34-.42-2.38,0-12q0-3.66-1.21-4.92a4.79,4.79,0,0,0-3.61-1.26,8.2,8.2,0,0,0-3,.52,7.19,7.19,0,0,0-2.42,1.6L547,154.19A8,8,0,0,1,550.19,151.64Z"/><path d="M605.79,172.77l2.56-.82,2.78-10,5.33-22.28h9.8l5.08,20.77L634.67,172l2.52.82v2.31H621.65v-2.31l2.61-.72L622,162l-4.07-15.62-4,15.41-2.32,10.32,2.53.7v2.31h-8.34Zm6.53-11,6.37.24,6.89-.26.59,2.75H611.71Z"/><path d="M641,162.63q3.54-2.43,11.49-3.81l.14,1.73a8.71,8.71,0,0,0-4.82,2.8,7.9,7.9,0,0,0-1.57,5.08c0,1.7.26,2.84.78,3.4a2.66,2.66,0,0,0,2,.85,3.37,3.37,0,0,0,2.35-.89,4,4,0,0,0,1-2.87h1.25a5.84,5.84,0,0,1-2.09,4.64q-2.1,1.8-6.3,1.8t-6-1.89a6.76,6.76,0,0,1-1.9-5C637.4,166.19,638.58,164.26,641,162.63Zm3.39-11.35a16.71,16.71,0,0,1,6.55-1.09q4.93,0,7.71,2.07c1.84,1.38,2.77,3.52,2.77,6.41l.12,13.73,2.28.84v1.84H653.71l-1.13-1.37-.45-2.37,0-12.57q0-3.56-1.14-4.71a4.7,4.7,0,0,0-3.47-1.17,8,8,0,0,0-2.93.51,7.13,7.13,0,0,0-2.52,1.73L640.67,154A8.86,8.86,0,0,1,644.34,151.28Z"/><path d="M212.23,247.7l4.12-.33,3.8-11.4,7.27-22.56h2l7.05,22.65,3.69,11.31,4.77.33v1.15H233.22l0-1.15,5.08-.36L234.72,236l-6.41-20.33-6.77,20.54-3.62,11.14,5.12.33v1.15H212.23Zm8.84-12h7.4l7,0,.4,1.29-15.14.05Z"/><path d="M248.71,237.59q2.92-2.28,10.41-3.69l0,.94c-4.07.79-7,1.84-8.9,3.18a5.83,5.83,0,0,0-2.8,4.86,4.91,4.91,0,0,0,1.28,3.68,5.18,5.18,0,0,0,3.73,1.23,7.21,7.21,0,0,0,4.39-1.49,4.9,4.9,0,0,0,2.21-3.11l.23.07a5.7,5.7,0,0,1-2.19,4,7.85,7.85,0,0,1-5.47,2,5.57,5.57,0,0,1-4.39-1.67,6.5,6.5,0,0,1-1.48-4.49A6.72,6.72,0,0,1,248.71,237.59Zm.89-11.83a9,9,0,0,1,4.28-.91,6.11,6.11,0,0,1,4.88,2q1.74,2,1.77,6.83l0,13.63,4.21.54v1h-5.59l-.1-.45-.11-3.64L259,234q0-4.3-1.49-6a5.37,5.37,0,0,0-4.2-1.67,8.85,8.85,0,0,0-3.42.59,5.68,5.68,0,0,0-2.12,1.41l-.64-.61A7.36,7.36,0,0,1,249.6,225.76Z"/><path d="M305.61,247.18l4.07-.56,3.66-10.56,7.47-22.65h2.43l7.3,22.16,3.81,11.05,4.37.56v1.67H326.81v-1.67l4.56-.52-3.22-10.24-6.42-19-6.44,19-3.19,10.2,4.53.49v1.67h-11Zm9-11.56,7.47.12,7.15-.15.54,2-15.77,0Z"/><path d="M342.49,237.49q3.15-2.33,10.57-3.75l.11,1.36a22,22,0,0,0-8.31,2.88,5.49,5.49,0,0,0-2.75,4.66,4.33,4.33,0,0,0,1.32,3.47,5.3,5.3,0,0,0,3.56,1.14,6.75,6.75,0,0,0,4.13-1.4,4.65,4.65,0,0,0,2.08-2.9l.49.05a5.65,5.65,0,0,1-2.3,4.17,8.31,8.31,0,0,1-5.66,2,6.17,6.17,0,0,1-4.76-1.74,6.49,6.49,0,0,1-1.61-4.61Q339.36,239.8,342.49,237.49Zm.65-11.61a9.54,9.54,0,0,1,4.68-1,7.23,7.23,0,0,1,5.51,2.11q2,2.1,2,7.2l.07,12.64,3.78.69v1.36h-5.56l-.57-.87-.28-3.08.05-10.62q0-4.18-1.49-5.79a5.45,5.45,0,0,0-4.25-1.61,9.11,9.11,0,0,0-3.41.57,6.77,6.77,0,0,0-2.23,1.4l-.87-.87A7.1,7.1,0,0,1,343.14,225.88Z"/><path d="M399,246.66l4-.77,3.5-9.73,7.71-22.75h2.89l7.52,21.67,4,10.81,3.95.77v2.19H420.41v-2.19l4-.7-2.85-9.14-6.41-17.6L409,236.72,406.28,246l4,.68v2.19H399Zm9.16-11.11,7.57.21,7.33-.24.68,2.64h-16.4Z"/><path d="M436.27,237.39Q439.6,235,447,233.6l.19,1.74a21.1,21.1,0,0,0-7.72,2.63,5.14,5.14,0,0,0-2.69,4.44,3.86,3.86,0,0,0,1.35,3.27,5.41,5.41,0,0,0,3.39,1,6.25,6.25,0,0,0,3.87-1.3,4.42,4.42,0,0,0,1.94-2.69l.75,0a5.67,5.67,0,0,1-2.42,4.39,8.76,8.76,0,0,1-5.83,2.05,6.89,6.89,0,0,1-5.16-1.81,6.51,6.51,0,0,1-1.75-4.7Q432.93,239.76,436.27,237.39Zm.42-11.41a10.08,10.08,0,0,1,5.08-1.15,8.3,8.3,0,0,1,6.12,2.2q2.22,2.19,2.29,7.58l.12,11.68,3.34.8v1.76h-5.53l-1.05-1.29-.4-2.52,0-10.43q0-4.1-1.46-5.64a5.61,5.61,0,0,0-4.29-1.55,9.19,9.19,0,0,0-3.41.57,8.16,8.16,0,0,0-2.37,1.4l-1.09-1.1A6.92,6.92,0,0,1,436.69,226Z"/><path d="M491.8,246.52l3.74-.82L498.9,236l7.31-22.63h4.84l7.09,21.29,3.93,11,3.57.82v2.33H512.32v-2.33l3.62-.73-2.68-9.14-6-16.87-5.69,16.73L499,245.82l3.57.7v2.33H491.8Zm8.7-11,7.45.24,7.4-.26.7,2.8h-16.4Z"/><path d="M529.45,237.11q3.49-2.38,11.18-3.82l.19,1.83a17.23,17.23,0,0,0-7,2.6,5.44,5.44,0,0,0-2.46,4.6,3.9,3.9,0,0,0,1.25,3.24,4.82,4.82,0,0,0,3.1,1,5.57,5.57,0,0,0,3.48-1.2,4,4,0,0,0,1.71-2.68h.94a5.69,5.69,0,0,1-2.39,4.49,9.32,9.32,0,0,1-6.12,2q-3.69,0-5.53-1.83A6.49,6.49,0,0,1,526,242.5C526,240.5,527.11,238.7,529.45,237.11Zm1.14-11.35a11.83,11.83,0,0,1,5.63-1.16,9.82,9.82,0,0,1,6.8,2.21q2.47,2.2,2.52,7.45l.12,11.89,3.06.84v1.86h-6.84l-1.18-1.39-.44-2.37,0-10.91q0-3.92-1.41-5.39a5.59,5.59,0,0,0-4.2-1.47,9,9,0,0,0-3.36.57,8.08,8.08,0,0,0-2.47,1.48l-1.25-1.18A7.91,7.91,0,0,1,530.59,225.76Z"/><path d="M584.46,246.52l3.34-.82,3.24-9.85,6.72-22.44H605l6.44,20.94,3.85,11.35,3.22.82v2.33H603.66v-2.33l3.27-.73-2.59-9.47L599,219.92l-5.19,16.19-2.63,9.71,3.22.7v2.33h-9.92Zm8-11,7.29.24,7.45-.26.65,2.8H591.67Z"/><path d="M622.42,236.76q3.66-2.41,11.72-3.8l.19,1.79a13.45,13.45,0,0,0-6.29,2.69,6.07,6.07,0,0,0-2.15,4.78,4.24,4.24,0,0,0,1.09,3.34,4,4,0,0,0,2.74.94,4.78,4.78,0,0,0,3.1-1.08,3.79,3.79,0,0,0,1.48-2.75h1.06a5.7,5.7,0,0,1-2.32,4.55,9.82,9.82,0,0,1-6.42,1.93c-2.65,0-4.62-.62-5.91-1.88a6.54,6.54,0,0,1-1.94-4.91Q618.77,239.16,622.42,236.76Zm2.17-11.33a14.69,14.69,0,0,1,6.26-1.14c3.19,0,5.7.73,7.51,2.2s2.73,3.85,2.76,7.15l.12,12.51L644,247v1.86h-8.58l-1.2-1.39-.42-2.37.05-11.56q0-3.76-1.37-5.14a5.46,5.46,0,0,0-4-1.37,9.21,9.21,0,0,0-3.32.55,8.36,8.36,0,0,0-2.58,1.56L621.19,228A8.53,8.53,0,0,1,624.59,225.43Z"/><path d="M677.1,246.52l2.94-.82,3.12-10.06,6.13-22.23H699L704.76,234l3.76,11.7,2.84.82v2.33H695v-2.33l2.91-.73L695.45,236l-4.79-15.89L686,235.74l-2.59,10.08,2.87.7v2.33H677.1Zm7.31-11,7.09.24,7.5-.26.63,2.8h-15.9Z"/><path d="M715.4,236.42q3.81-2.44,12.27-3.79l.16,1.77a10.31,10.31,0,0,0-5.53,2.73,7,7,0,0,0-1.84,5c0,1.66.31,2.79.94,3.4a3.27,3.27,0,0,0,2.37.9,4,4,0,0,0,2.69-1,3.76,3.76,0,0,0,1.23-2.81h1.2a5.63,5.63,0,0,1-2.24,4.6q-2.26,1.86-6.71,1.86t-6.32-1.9a6.56,6.56,0,0,1-2-5Q711.6,238.86,715.4,236.42Zm3.2-11.34a17.81,17.81,0,0,1,6.91-1.12c3.48,0,6.2.73,8.18,2.19s3,3.75,3,6.88l.12,13.12,2.51.84v1.86H729l-1.17-1.41-.45-2.38,0-12.17q0-3.64-1.29-4.92a5.42,5.42,0,0,0-3.91-1.28,9.27,9.27,0,0,0-3.27.54,7.78,7.78,0,0,0-2.67,1.69l-1.48-1.2A9.35,9.35,0,0,1,718.6,225.08Z"/><path d="M769.76,246.52l2.54-.82,3-10.25,5.53-22h12.1l5.12,20.23,3.69,12.06,2.47.82v2.33H786.37v-2.33l2.59-.73-2.4-10.15-4.21-15.41-4.2,15.11-2.59,10.48,2.54.7v2.33h-8.34Zm6.6-11,6.93.24,7.52-.26.62,2.8H775.75Z"/><path d="M808.38,236.06q4-2.46,12.8-3.76l.16,1.72a8,8,0,0,0-4.79,2.81,8.44,8.44,0,0,0-1.55,5.25c0,1.74.26,2.9.78,3.47a2.64,2.64,0,0,0,2,.85,3.27,3.27,0,0,0,2.28-.85,4,4,0,0,0,1-2.88h1.31a5.64,5.64,0,0,1-2.17,4.65q-2.21,1.78-7,1.79c-3.05,0-5.28-.65-6.69-1.93a6.56,6.56,0,0,1-2.12-5.1Q804.42,238.54,808.38,236.06Zm4.23-11.31a21.42,21.42,0,0,1,7.53-1.09q5.68,0,8.88,2.17a7.45,7.45,0,0,1,3.22,6.59l.12,13.73,2.24.84v1.86H822.52l-1.2-1.41-.43-2.38.05-12.83c0-2.31-.42-3.87-1.26-4.66a5.25,5.25,0,0,0-3.74-1.19,9.41,9.41,0,0,0-3.22.53,8,8,0,0,0-2.78,1.78l-1.59-1.2A10.37,10.37,0,0,1,812.61,224.75Z"/><path d="M140.29,174l3.73-.33,3.46-11.37,6.46-22.61H156l6.35,22.84,3.26,11.14,4.45.33v1.13H159.2l0-1.13,4.77-.35L160.64,162,155,141.94l-6.09,20.31-3.36,11.37,4.8.33v1.13h-10Zm8.06-12H155l6.35,0,.35,1.24-13.68.05Z"/><path d="M173.61,163.81q2.69-2.26,9.63-3.73l0,.92c-3.78.82-6.51,1.89-8.19,3.23a6.07,6.07,0,0,0-2.53,4.93,5.21,5.21,0,0,0,1.13,3.69,4.49,4.49,0,0,0,3.38,1.17,6.49,6.49,0,0,0,4.06-1.41,4.71,4.71,0,0,0,2-3.17l.28.07a5.85,5.85,0,0,1-2,4,7,7,0,0,1-5.05,1.91,4.92,4.92,0,0,1-4-1.66,7.35,7.35,0,0,1,1.32-9.94ZM174.7,152a7.87,7.87,0,0,1,3.92-.89A5.35,5.35,0,0,1,183,153c1,1.26,1.55,3.38,1.55,6.35l0,14.24,4,.54v1h-5.31l0-.4-.11-3.64,0-11.21q0-4.22-1.34-5.76a4.68,4.68,0,0,0-3.76-1.55,7.68,7.68,0,0,0-3.08.55,5,5,0,0,0-2,1.45l-.61-.59A6.75,6.75,0,0,1,174.7,152Z"/><path d="M283.66,33.21l2.58-.85,2.28-9.64,5-22.72h5.19l4.94,21.85,2.68,10.51,2.58.85v2.23H297.94V33.21l2.68-.78-1.9-9.89L294.89,6.46l-3.64,16-1.86,10.06,2.56.73v2.23h-8.29ZM290,22.11l5.29.24,5.52-.26.57,2.7h-12Z"/><path d="M311.9,23.66q2.72-2.37,8.86-3.9l.1,1.77A10.67,10.67,0,0,0,316,24.29a6.76,6.76,0,0,0-1.67,4.78c0,1.64.27,2.74.82,3.28a2.86,2.86,0,0,0,2.12.81,3.4,3.4,0,0,0,2.4-1,4.05,4.05,0,0,0,1.13-2.85h1A6,6,0,0,1,320,33.88a6.74,6.74,0,0,1-4.87,1.82,5.38,5.38,0,0,1-4.41-1.78,7.28,7.28,0,0,1-1.47-4.8A7.12,7.12,0,0,1,311.9,23.66Zm1.72-11.38a8.51,8.51,0,0,1,4.56-1.09A7.38,7.38,0,0,1,323.51,13q1.94,1.85,1.95,6.08l.1,13.67,2.35.87v1.79h-6l-1.08-1.27-.4-2.35.05-12.15c0-2.4-.3-4-1-4.72a3.55,3.55,0,0,0-2.86-1.13,5.55,5.55,0,0,0-2.39.49,5.71,5.71,0,0,0-2,1.6l-1.24-1.1A7,7,0,0,1,313.62,12.28Z"/><path d="M698.57,172.77l2.16-.82,2.65-10.22,4.73-22.09h12.22l4.42,20.42L728,172l2.14.82v2.31h-17v-2.31l2.28-.72-2.16-10.41-3.48-15.16-3.52,14.87-2.33,10.72,2.21.7v2.31h-7.54Zm5.82-11,6.21.24,6.91-.26.56,2.75H703.85Z"/><path d="M734,162.28q3.71-2.44,12-3.79l.14,1.69a6.75,6.75,0,0,0-4.08,2.87,9.94,9.94,0,0,0-1.28,5.31c0,1.78.21,2.94.64,3.47a2,2,0,0,0,1.69.8,2.6,2.6,0,0,0,1.94-.77,4.37,4.37,0,0,0,.81-2.94h1.36a5.84,5.84,0,0,1-2,4.69q-2,1.72-6.6,1.73c-2.89,0-5-.64-6.32-1.92a6.73,6.73,0,0,1-2-5.11Q730.34,164.74,734,162.28ZM738.47,151a19.84,19.84,0,0,1,7.17-1.07q5.4,0,8.41,2.05a6.94,6.94,0,0,1,3,6.12l.11,14.34,2,.84v1.84H747.38l-1.16-1.37-.42-2.37.05-13.23c0-2.26-.37-3.74-1.11-4.45a4.55,4.55,0,0,0-3.31-1.07,8.22,8.22,0,0,0-2.88.49,7.34,7.34,0,0,0-2.62,1.81l-1.57-1.17A9.71,9.71,0,0,1,738.47,151Z"/><circle class="cls-3" cx="303.94" cy="336.21" r="6.67"/><circle class="cls-3" cx="890.93" cy="336.21" r="6.67"/><circle class="cls-5" cx="601.34" cy="336.22" r="6.67"/><path d="M281.24,322.06l4.49-.33,4.16-11.39L298,287.8h1.83l7.8,22.47,4.09,11.46,5.1.33v1.18H304.29l0-1.18,5.4-.35-3.88-11.07L298.72,290l-7.45,20.82-3.87,10.88,5.45.33v1.18H281.24Zm9.61-12H299l7.59,0,.42,1.31-16.61.05Z"/><path d="M320.82,312q3.21-2.28,11.2-3.65l.07,1c-4.37.76-7.57,1.79-9.61,3.12s-3.05,2.91-3.05,4.78a4.75,4.75,0,0,0,1.41,3.67,5.77,5.77,0,0,0,4,1.29,8,8,0,0,0,4.77-1.56c1.44-1.05,2.24-2.06,2.4-3.05l.21.07c0,1.29-.83,2.6-2.39,3.95a8.67,8.67,0,0,1-5.89,2,5.73,5.73,0,0,1-6.36-6.18Q317.62,314.29,320.82,312Zm.71-11.82a10.28,10.28,0,0,1,4.64-.92,6.88,6.88,0,0,1,5.38,2.12c1.29,1.42,1.94,3.84,1.95,7.28l.05,13.06,4.44.52v1h-5.87l-.12-.47-.14-3.67,0-10.38q0-4.43-1.64-6.21a6,6,0,0,0-4.66-1.78,9.92,9.92,0,0,0-3.72.61,6.76,6.76,0,0,0-2.29,1.38l-.64-.63A7.44,7.44,0,0,1,321.53,300.17Z"/><path d="M376.61,321.55l4.44-.57,4-10.55,8.27-22.63h2.28l8.06,22L407.89,321l4.7.57v1.69H399.87v-1.69l4.89-.52-3.5-10-7.12-19.24L387,311.11l-3.46,9.94,4.87.5v1.69H376.61ZM386.38,310l8.21.12,7.77-.15.57,2-17.25,0Z"/><path d="M416.6,311.89q3.42-2.33,11.35-3.71l.15,1.38a25.2,25.2,0,0,0-9,2.82c-2,1.24-3,2.77-3,4.58a4.23,4.23,0,0,0,1.46,3.46,5.9,5.9,0,0,0,3.88,1.2,7.53,7.53,0,0,0,4.5-1.47,5,5,0,0,0,2.27-2.83l.47,0q0,2.1-2.49,4.16a9.23,9.23,0,0,1-6.09,2.07,6.9,6.9,0,0,1-5.12-1.76,6.28,6.28,0,0,1-1.74-4.61Q413.2,314.22,416.6,311.89Zm.46-11.6a10.76,10.76,0,0,1,5-1,8,8,0,0,1,6,2.22q2.17,2.22,2.22,7.65l.07,12.07,4,.66v1.39h-5.85l-.59-.89-.31-3.11.05-10.2q0-4.29-1.63-6a6.19,6.19,0,0,0-4.72-1.73,10.19,10.19,0,0,0-3.71.6,8.11,8.11,0,0,0-2.4,1.37l-.86-.89A7.13,7.13,0,0,1,417.06,300.29Z"/><path d="M472,321l4.42-.78,3.86-9.72,8.5-22.73h2.75l8.27,21.48,4.38,11,4.27.78v2.21h-13V321l4.35-.71-3.12-8.88-7.12-17.88-6.82,17.79-3,9,4.3.68v2.21H472Zm9.94-11.09,8.3.21,8-.24.7,2.66H481Z"/><path d="M512.37,311.79Q516,309.42,523.9,308l.21,1.77a24.26,24.26,0,0,0-8.42,2.57q-3,1.72-3,4.36a3.76,3.76,0,0,0,1.48,3.25,6,6,0,0,0,3.71,1.1,7,7,0,0,0,4.24-1.38,4.76,4.76,0,0,0,2.13-2.62l.73,0q0,2.28-2.61,4.38a9.73,9.73,0,0,1-6.25,2.1,7.64,7.64,0,0,1-5.53-1.83,6.29,6.29,0,0,1-1.88-4.7C508.76,315.13,510,313.38,512.37,311.79Zm.24-11.39a11.07,11.07,0,0,1,5.44-1.18,9.11,9.11,0,0,1,6.61,2.32c1.61,1.54,2.43,4.21,2.48,8l.12,11.12,3.57.77v1.79H525L524,321.92l-.43-2.54.05-10q0-4.2-1.62-5.87a6.35,6.35,0,0,0-4.75-1.67,10.27,10.27,0,0,0-3.71.6A10,10,0,0,0,511,303.8l-1.08-1.12A6.81,6.81,0,0,1,512.61,300.4Z"/><path d="M661.43,320.89l3.72-.82,3.59-9.85,7.52-22.42h7.1l7.19,20.75,4.25,11.52,3.55.82v2.35H682.7v-2.35l3.59-.73L683.43,311l-6.07-16.69-5.87,16.48-2.89,9.44,3.55.71v2.35H661.43Zm8.77-11,8,.24,8.08-.26.69,2.82H669.33Z"/><path d="M702.51,311.16q3.93-2.42,12.5-3.76l.21,1.81a15.78,15.78,0,0,0-7,2.63,5.73,5.73,0,0,0-2.41,4.7,4.07,4.07,0,0,0,1.23,3.33,4.68,4.68,0,0,0,3.05,1,5.55,5.55,0,0,0,3.48-1.16,3.88,3.88,0,0,0,1.67-2.68h1a5.64,5.64,0,0,1-2.51,4.54,10.79,10.79,0,0,1-6.84,2q-4.21,0-6.28-1.91a6.34,6.34,0,0,1-2.06-4.91C698.59,314.64,699.89,312.77,702.51,311.16Zm2-11.32a16.25,16.25,0,0,1,6.63-1.16q5.1,0,8,2.32t2.95,7.6l.12,11.94,3,.82v1.88h-8.86l-1.22-1.41-.45-2.4.05-11.14q0-3.87-1.52-5.37a6.18,6.18,0,0,0-4.5-1.49,10.32,10.32,0,0,0-3.63.58,9.14,9.14,0,0,0-2.74,1.54l-1.36-1.2A8.71,8.71,0,0,1,704.48,299.84Z"/><path d="M756.07,320.89l3.32-.82L762.86,310l6.94-22.21h9.54l6.53,20.4L790,320.07l3.17.82v2.35H776.07v-2.35l3.24-.73-2.77-9.56L771,294.43l-5.38,15.93-2.84,9.82,3.19.71v2.35h-9.94Zm8.09-11,7.82.24,8.13-.26.66,2.82H763.38Z"/><path d="M797.49,310.82q4.08-2.46,13-3.75l.19,1.79a12,12,0,0,0-6.24,2.68,6.43,6.43,0,0,0-2.1,4.93,4.41,4.41,0,0,0,1.07,3.38,3.83,3.83,0,0,0,2.69,1,4.76,4.76,0,0,0,3.07-1.05,3.68,3.68,0,0,0,1.42-2.74h1.17a5.6,5.6,0,0,1-2.43,4.6c-1.64,1.28-4,1.91-7.13,1.91s-5.25-.64-6.69-1.92a6.44,6.44,0,0,1-2.15-5Q793.41,313.28,797.49,310.82Zm3-11.33a19.44,19.44,0,0,1,7.27-1.14q5.52,0,8.67,2.31t3.17,7.33l.12,12.55,2.75.82v1.88H811.86l-1.2-1.43-.47-2.4,0-11.75q0-3.77-1.45-5.16a6.11,6.11,0,0,0-4.36-1.4,10.42,10.42,0,0,0-3.58.57,8.79,8.79,0,0,0-2.83,1.66l-1.48-1.22A9.65,9.65,0,0,1,800.5,299.49Z"/><path d="M850.71,320.89l2.92-.82L857,309.82l6.32-22h12l5.87,20.05,4.09,12.22,2.8.82v2.35H869.39v-2.35l2.92-.73-2.68-9.89-4.91-15.7L859.83,310,857,320.18l2.86.71v2.35h-9.14Zm7.38-11,7.66.24,8.16-.26.63,2.82H857.39Z"/><path d="M892.45,310.47q4.23-2.49,13.58-3.73l.19,1.74a9.49,9.49,0,0,0-5.5,2.75,7.5,7.5,0,0,0-1.81,5.17c0,1.69.3,2.84.92,3.45a3.14,3.14,0,0,0,2.35.92,4,4,0,0,0,2.65-.93A3.69,3.69,0,0,0,906,317h1.29a5.57,5.57,0,0,1-2.36,4.65q-2.38,1.85-7.44,1.84-4.82,0-7.06-1.95a6.42,6.42,0,0,1-2.24-5.1Q888.22,312.95,892.45,310.47Zm4-11.31a23.26,23.26,0,0,1,7.9-1.11c4,0,7.12.76,9.37,2.29s3.39,3.87,3.41,7l.12,13.16,2.46.82v1.88H907.39l-1.22-1.43-.45-2.4,0-12.41q0-3.6-1.41-4.9a6,6,0,0,0-4.2-1.3,10.55,10.55,0,0,0-3.53.55,8.92,8.92,0,0,0-2.94,1.75l-1.6-1.22A10.65,10.65,0,0,1,896.49,299.16Z"/><path d="M566.79,320.89l4.11-.82,3.72-9.66,8.1-22.61h4.7l7.85,21.1,4.33,11.17,3.9.82v2.35H589.38v-2.35l3.94-.73-3-8.88-6.67-17.16-6.37,17-2.89,9,3.9.71v2.35H566.79Zm9.47-11,8.18.24,8-.26.73,2.82H575.32Z"/><path d="M607.55,311.51q3.78-2.4,12-3.78l.21,1.86a19.88,19.88,0,0,0-7.72,2.53,5.25,5.25,0,0,0-2.72,4.52,3.8,3.8,0,0,0,1.38,3.23,5.5,5.5,0,0,0,3.42,1,6.29,6.29,0,0,0,3.85-1.27,4.14,4.14,0,0,0,1.9-2.61h.92c0,1.62-.85,3.11-2.58,4.48a10.25,10.25,0,0,1-6.54,2.06q-3.92,0-5.9-1.86a6.33,6.33,0,0,1-2-4.82Q603.78,313.9,607.55,311.51Zm1-11.34a13.21,13.21,0,0,1,6-1.18,10.72,10.72,0,0,1,7.29,2.32c1.78,1.55,2.69,4.19,2.72,7.9l.11,11.33,3.3.82v1.88h-7.13l-1.19-1.41-.47-2.4,0-10.48q0-4-1.56-5.63a6.35,6.35,0,0,0-4.66-1.58,10.39,10.39,0,0,0-3.67.58,9.84,9.84,0,0,0-2.63,1.46l-1.25-1.2A7.87,7.87,0,0,1,608.5,300.17Z"/><path class="cls-6" d="M650.05,46.51h-2l-5.39-6.85v6.85H640V34.83h2.16l5.26,6.67V34.83h2.61Z"/><path class="cls-6" d="M662.47,46.51h-3l-.72-1.81h-4l-.67,1.81h-2.82L656,34.81h1.89Zm-4.34-3.8L656.74,39l-1.38,3.71Z"/><path class="cls-6" d="M663.68,46.51V34.83h4.67a4.55,4.55,0,0,1,1.84.37,3.37,3.37,0,0,1,1.41,1.11,3,3,0,0,1,.55,1.83,3,3,0,0,1-.78,2.25,3.15,3.15,0,0,1-1.62.93l0,.08,3.65,5.11H670.1l-2.82-4.28h-.77v4.28ZM666.45,40h1.39a1.54,1.54,0,0,0,1-.37,1.45,1.45,0,0,0,.45-1.2,1.36,1.36,0,0,0-.47-1.16,1.61,1.61,0,0,0-1-.34h-1.39Z"/><path class="cls-6" d="M674.58,46.51V34.83h4.67a4.58,4.58,0,0,1,1.84.37,3.37,3.37,0,0,1,1.41,1.11,3,3,0,0,1,.54,1.83,3.05,3.05,0,0,1-.77,2.25,3.14,3.14,0,0,1-1.63.93v.08l3.64,5.11H681l-2.81-4.28h-.77v4.28ZM677.35,40h1.39a1.5,1.5,0,0,0,1-.37,1.42,1.42,0,0,0,.46-1.2,1.36,1.36,0,0,0-.47-1.16,1.64,1.64,0,0,0-1-.34h-1.39Z"/><path class="cls-6" d="M690.83,46.7a6.07,6.07,0,0,1-3.2-.82,5.6,5.6,0,0,1-2.09-2.2,6.47,6.47,0,0,1-.74-3.09,6,6,0,0,1,.8-3.11,5.79,5.79,0,0,1,2.14-2.09,5.86,5.86,0,0,1,3-.76,6.27,6.27,0,0,1,3.12.76A5.56,5.56,0,0,1,696,37.48a6.72,6.72,0,0,1,0,6.36A5.73,5.73,0,0,1,693.77,46,6,6,0,0,1,690.83,46.7Zm0-2.47a3.1,3.1,0,0,0,1.55-.39,2.78,2.78,0,0,0,1.12-1.18,4.35,4.35,0,0,0,.4-2,3.61,3.61,0,0,0-.44-1.84,3.07,3.07,0,0,0-1.18-1.19,3.33,3.33,0,0,0-1.67-.41,3,3,0,0,0-1.55.38A2.7,2.7,0,0,0,688,38.74a3.75,3.75,0,0,0-.4,1.83,4.41,4.41,0,0,0,.41,2,3.05,3.05,0,0,0,1.16,1.25A3.16,3.16,0,0,0,690.88,44.23Z"/><path class="cls-6" d="M712.61,34.83,709,46.54h-1.65l-2.29-7-2.38,7H701l-3.55-11.71h2.94l1.94,6.6,2-6.6H706l2.1,6.62L710,34.83Z"/><path class="cls-6" d="M721.84,46.51H714V34.83h7.57v2.3h-4.77v2.5h4.42v2.2h-4.42V44.2h5.07Z"/><path class="cls-6" d="M727.84,46.7a8.84,8.84,0,0,1-2.76-.39,6.05,6.05,0,0,1-2-1L724.56,43a5.93,5.93,0,0,0,1.41.92,4.52,4.52,0,0,0,2,.44,1.88,1.88,0,0,0,1-.24.77.77,0,0,0,.37-.69,1,1,0,0,0-.37-.77,6.13,6.13,0,0,0-1.61-.77,13.73,13.73,0,0,1-2.29-1,3.2,3.2,0,0,1-1.22-1.2,3.77,3.77,0,0,1-.36-1.76,2.79,2.79,0,0,1,1.19-2.4,5.13,5.13,0,0,1,3.14-.88,6.31,6.31,0,0,1,2.53.44A8.22,8.22,0,0,1,732,36l-1.29,2.32a9.44,9.44,0,0,0-1.4-.84,3.5,3.5,0,0,0-1.53-.36,1.77,1.77,0,0,0-1,.22.69.69,0,0,0-.34.63.92.92,0,0,0,.55.8,15,15,0,0,0,1.85.82A8.5,8.5,0,0,1,731.52,41a2.9,2.9,0,0,1,.85,2.28A2.87,2.87,0,0,1,731,45.82,5.75,5.75,0,0,1,727.84,46.7Z"/><path class="cls-6" d="M742.71,37.18h-3.35v9.33h-2.85V37.18h-3.24V34.83h9.44Z"/><path class="cls-6" d="M274.31,369.88h-7.8V358.2h2.85v9.36h4.95Z"/><path class="cls-6" d="M278.77,369.88h-2.85V358.2h2.85Z"/><path class="cls-6" d="M286.85,363.51h5.33v3.92a5.41,5.41,0,0,1-2.11,1.87,6.58,6.58,0,0,1-3.24.77,6.7,6.7,0,0,1-3.12-.71,5.21,5.21,0,0,1-2.13-2.06,6.37,6.37,0,0,1-.78-3.26,6.12,6.12,0,0,1,.81-3.23,5.43,5.43,0,0,1,2.18-2.07,6.23,6.23,0,0,1,3-.73,6.75,6.75,0,0,1,2.06.28,5.28,5.28,0,0,1,1.49.69,4.76,4.76,0,0,1,1,.82l-1.77,2a3.87,3.87,0,0,0-1-.8,3.69,3.69,0,0,0-1.82-.35,3.51,3.51,0,0,0-1.57.34A2.49,2.49,0,0,0,284,362a3.9,3.9,0,0,0-.4,1.89,5,5,0,0,0,.41,2.12,2.88,2.88,0,0,0,1.16,1.27,3.44,3.44,0,0,0,1.71.42,4.16,4.16,0,0,0,1.7-.32,1.92,1.92,0,0,0,1-.9v-.72h-2.74Z"/><path class="cls-6" d="M304.13,369.88h-2.85v-4.54H297v4.54h-2.85V358.2H297v4.74h4.25V358.2h2.85Z"/><path class="cls-6" d="M315,360.55H311.7v9.33h-2.85v-9.33H305.6V358.2H315Z"/><path class="cls-6" d="M324.39,369.88h-7.88V358.2h7.57v2.3h-4.77V363h4.42v2.21h-4.42v2.37h5.08Z"/><path class="cls-6" d="M330.39,370.07a9.07,9.07,0,0,1-2.76-.38,6.3,6.3,0,0,1-2-1l1.48-2.26a5.75,5.75,0,0,0,1.4.92,4.41,4.41,0,0,0,2,.44,1.88,1.88,0,0,0,1-.24.78.78,0,0,0,.38-.69,1,1,0,0,0-.38-.76,5.82,5.82,0,0,0-1.61-.77,13.73,13.73,0,0,1-2.29-1,3.16,3.16,0,0,1-1.21-1.2,3.67,3.67,0,0,1-.37-1.76,2.82,2.82,0,0,1,1.19-2.41,5.25,5.25,0,0,1,3.15-.87,6.29,6.29,0,0,1,2.52.44,7.83,7.83,0,0,1,1.59.89l-1.3,2.32a8.51,8.51,0,0,0-1.4-.84,3.44,3.44,0,0,0-1.53-.36,1.92,1.92,0,0,0-1,.21.72.72,0,0,0-.33.63.92.92,0,0,0,.54.8,12.18,12.18,0,0,0,1.86.82,8.72,8.72,0,0,1,2.72,1.45,2.92,2.92,0,0,1,.84,2.28,2.84,2.84,0,0,1-1.35,2.54A5.65,5.65,0,0,1,330.39,370.07Z"/><path class="cls-6" d="M345.25,360.55h-3.34v9.33h-2.85v-9.33h-3.25V358.2h9.44Z"/><path class="cls-6" d="M571.51,369.88V358.2h4.35a6,6,0,0,1,4.49,1.58,5.78,5.78,0,0,1,1.51,4.16,5.92,5.92,0,0,1-1.62,4.21,6.12,6.12,0,0,1-4.7,1.73Zm2.85-2.19h1.18a2.89,2.89,0,0,0,2.57-1.14,4.5,4.5,0,0,0,.77-2.57,4.11,4.11,0,0,0-.78-2.6,2.8,2.8,0,0,0-2.34-1h-1.4Z"/><path class="cls-6" d="M591.68,369.88h-7.87V358.2h7.57v2.3h-4.77V363H591v2.21h-4.42v2.37h5.07Z"/><path class="cls-6" d="M601,360.5h-4.37V363h4.13v2.29h-4.13v4.59H593.8V358.2H601Z"/><path class="cls-6" d="M612.74,369.88h-3l-.73-1.81h-4l-.67,1.81h-2.82l4.74-11.7h1.89Zm-4.34-3.79L607,362.38l-1.38,3.71Z"/><path class="cls-6" d="M624,358.2v7.42a4.14,4.14,0,0,1-.69,2.4,4.52,4.52,0,0,1-1.85,1.52,5.81,5.81,0,0,1-2.5.53,6,6,0,0,1-2.47-.51,4.44,4.44,0,0,1-1.84-1.5,4.2,4.2,0,0,1-.69-2.44V358.2h2.76v7.28a1.92,1.92,0,0,0,.65,1.55,2.39,2.39,0,0,0,1.58.55,2.52,2.52,0,0,0,1.62-.53,1.87,1.87,0,0,0,.67-1.57V358.2Z"/><path class="cls-6" d="M634.32,369.88h-7.79V358.2h2.85v9.36h4.94Z"/><path class="cls-6" d="M644.15,360.55H640.8v9.33H638v-9.33h-3.25V358.2h9.44Z"/><path class="cls-6" d="M856.82,369.88V358.2h4.8a4,4,0,0,1,2.54.74,2.83,2.83,0,0,1,.3,3.88,2.92,2.92,0,0,1-1.62.87,4.06,4.06,0,0,1,2,.78,2.46,2.46,0,0,1,.91,2.15,2.75,2.75,0,0,1-.61,1.83,3.75,3.75,0,0,1-1.59,1.08,6.45,6.45,0,0,1-2.14.35Zm2.67-6.9H861a1.18,1.18,0,0,0,1-.45,1.6,1.6,0,0,0,.32-.95,1.13,1.13,0,0,0-.37-.88,1.43,1.43,0,0,0-1-.34h-1.48Zm0,4.74h1.75a1.38,1.38,0,0,0,1.16-.44,1.68,1.68,0,0,0,.32-1,1.22,1.22,0,0,0-.36-.87,1.49,1.49,0,0,0-1.12-.38h-1.75Z"/><path class="cls-6" d="M872.93,370.07a6.16,6.16,0,0,1-3.2-.81,5.66,5.66,0,0,1-2.09-2.2,6.54,6.54,0,0,1-.74-3.1,6,6,0,0,1,.8-3.1,5.75,5.75,0,0,1,2.14-2.1,6,6,0,0,1,3-.75,6.37,6.37,0,0,1,3.12.75,5.52,5.52,0,0,1,2.16,2.1,6.07,6.07,0,0,1,.78,3.12,6.19,6.19,0,0,1-.82,3.24,5.8,5.8,0,0,1-2.18,2.11A6.05,6.05,0,0,1,872.93,370.07Zm.05-2.46a3.1,3.1,0,0,0,1.55-.39,2.87,2.87,0,0,0,1.12-1.19,4.35,4.35,0,0,0,.4-2,3.59,3.59,0,0,0-.44-1.83,2.94,2.94,0,0,0-1.18-1.19,3.34,3.34,0,0,0-1.67-.42,3.15,3.15,0,0,0-1.55.38,2.76,2.76,0,0,0-1.09,1.13,3.81,3.81,0,0,0-.4,1.83,4.38,4.38,0,0,0,.41,2,3.08,3.08,0,0,0,1.16,1.26A3.25,3.25,0,0,0,873,367.61Z"/><path class="cls-6" d="M888.61,369.88h-7.79V358.2h2.85v9.36h4.94Z"/><path class="cls-6" d="M890.15,369.88V358.2h4.35a5.94,5.94,0,0,1,4.49,1.58,5.78,5.78,0,0,1,1.51,4.16,6,6,0,0,1-1.61,4.21,6.15,6.15,0,0,1-4.71,1.73Zm2.85-2.19h1.18a2.88,2.88,0,0,0,2.57-1.14,4.43,4.43,0,0,0,.78-2.57,4.11,4.11,0,0,0-.79-2.6,2.79,2.79,0,0,0-2.33-1H893Z"/><path class="cls-6" d="M910.33,369.88h-7.88V358.2H910v2.3h-4.77V363h4.42v2.21h-4.42v2.37h5.08Z"/><path class="cls-6" d="M916.33,370.07a9.07,9.07,0,0,1-2.76-.38,6.3,6.3,0,0,1-2-1l1.48-2.26a5.75,5.75,0,0,0,1.4.92,4.41,4.41,0,0,0,2,.44,1.88,1.88,0,0,0,1-.24.78.78,0,0,0,.38-.69,1,1,0,0,0-.38-.76,5.82,5.82,0,0,0-1.61-.77,13.73,13.73,0,0,1-2.29-1,3.16,3.16,0,0,1-1.21-1.2,3.67,3.67,0,0,1-.37-1.76,2.82,2.82,0,0,1,1.19-2.41,5.22,5.22,0,0,1,3.15-.87,6.29,6.29,0,0,1,2.52.44,8.11,8.11,0,0,1,1.59.89l-1.3,2.32a9,9,0,0,0-1.4-.84,3.44,3.44,0,0,0-1.53-.36,1.92,1.92,0,0,0-1,.21.72.72,0,0,0-.33.63.92.92,0,0,0,.54.8,12.18,12.18,0,0,0,1.86.82,8.72,8.72,0,0,1,2.72,1.45,2.92,2.92,0,0,1,.84,2.28,2.84,2.84,0,0,1-1.35,2.54A5.65,5.65,0,0,1,916.33,370.07Z"/><path class="cls-6" d="M931.19,360.55h-3.34v9.33H925v-9.33h-3.25V358.2h9.44Z"/></g></g></svg>