<svg id="Layer_1" data-name="Layer 1" xmlns="http://www.w3.org/2000/svg" viewBox="0 0 1360 741.05"><defs><style>.cls-1,.cls-4{fill:#f1f1f2;}.cls-2{fill:#606060;}.cls-3{fill:#58595b;}.cls-4{stroke:#d0d2d3;stroke-width:0;}.cls-4,.cls-5{stroke-miterlimit:10;}.cls-5{fill:none;stroke:#606060;}</style></defs><title>VFBR2_Overview</title><rect class="cls-1" x="-3.06" width="1362.27" height="741.05"/><path class="cls-2" d="M380.31,590.52v-7.69a4.11,4.11,0,0,1-2.29.91v-2a4.64,4.64,0,0,0,3-1.71h1.46v10.54Z"/><path class="cls-2" d="M386.28,589.34l1.11-.87a11.58,11.58,0,0,0,2.35-2.38,3.45,3.45,0,0,1-2.17.88,3.26,3.26,0,0,1-3.52-3.52,3.77,3.77,0,0,1,3.95-3.64,3.89,3.89,0,0,1,4.08,4.21,7.46,7.46,0,0,1-3.84,6.28l-.83.58Zm1.81-4a1.77,1.77,0,0,0,1.86-1.78,1.79,1.79,0,0,0-1.85-1.9,1.74,1.74,0,0,0-1.8,1.83A1.72,1.72,0,0,0,388.09,585.33Z"/><path class="cls-2" d="M398.83,584.94a2.74,2.74,0,0,1,2,2.71c0,1.73-1.5,3-3.92,3s-3.85-1.3-3.85-3.07a2.76,2.76,0,0,1,2-2.67,2.67,2.67,0,0,1-1.69-2.31c0-1.64,1.41-2.82,3.52-2.82s3.56,1.11,3.58,2.7A2.75,2.75,0,0,1,398.83,584.94Zm-1.89,4c1.07,0,1.79-.59,1.79-1.51s-.74-1.4-1.79-1.4-1.76.49-1.76,1.41A1.56,1.56,0,0,0,396.94,588.9Zm0-4.6c.91,0,1.54-.52,1.54-1.27a1.55,1.55,0,0,0-3.06,0A1.35,1.35,0,0,0,396.94,584.3Z"/><path class="cls-2" d="M404,589.34l1.11-.87a11.66,11.66,0,0,0,2.36-2.38,3.45,3.45,0,0,1-2.18.88,3.26,3.26,0,0,1-3.52-3.52,3.77,3.77,0,0,1,4-3.64A3.89,3.89,0,0,1,409.8,584,7.48,7.48,0,0,1,406,590.3l-.84.58Zm1.81-4a1.77,1.77,0,0,0,1.86-1.78,1.79,1.79,0,0,0-1.85-1.9,1.74,1.74,0,0,0-1.8,1.83A1.72,1.72,0,0,0,405.81,585.33Z"/><rect class="cls-3" x="908.88" y="476.37" width="72.74" height="39.37"/><path class="cls-4" d="M925,501.55H923.7l-3.59-8.8h2.1l2.15,5.62,2.24-5.62h2Z"/><path class="cls-4" d="M931.5,494.34v2.06h3.14V498H931.5v3.55h-1.92v-8.76h5.24v1.59Z"/><path class="cls-3" d="M1001.62,500h-1.26l-3.58-8.79h2.1l2.14,5.62,2.25-5.62h2Z"/><path class="cls-3" d="M1011.4,500l-.62-1.57h-3.11l-.59,1.57h-1.9l3.55-8.78H1010l3.43,8.78Zm-2.18-6-1.14,3h2.29Z"/><path class="cls-3" d="M1014.42,491.21h3.32a2.52,2.52,0,0,1,2.77,2.45,2.29,2.29,0,0,1-1.84,2.41v.06l2.71,3.84h-2.22l-2.18-3.31h-.65V500h-1.9Zm2.94,4a1.17,1.17,0,0,0,1.23-1.27,1.14,1.14,0,0,0-1.2-1.21h-1.1v2.48Z"/><path class="cls-3" d="M1022.47,500v-8.76h1.92V500Z"/><path class="cls-3" d="M1031.63,500l-.62-1.57h-3.11l-.58,1.57h-1.91l3.55-8.78h1.28l3.43,8.78Zm-2.18-6-1.14,3h2.29Z"/><path class="cls-3" d="M1034.65,491.21H1038c1.6,0,2.59.77,2.59,2.13a1.94,1.94,0,0,1-1.68,2,2.16,2.16,0,0,1,2.15,2.2c0,1.59-1.45,2.42-3.18,2.42h-3.27Zm3,3.65a1.09,1.09,0,0,0,1.16-1.16,1,1,0,0,0-1.17-1h-1.15v2.18Zm.25,3.65a1.13,1.13,0,0,0,1.25-1.2c0-.57-.43-1.05-1.25-1.05h-1.38v2.25Z"/><path class="cls-3" d="M1042.56,500v-8.76h1.92v7.18h3.75V500Z"/><path class="cls-3" d="M1049.41,500v-8.76h5.52v1.59h-3.64v2.07h3.4v1.51h-3.4v2h3.86V500Z"/><path class="cls-3" d="M1062.14,492.8v2.06h3.14v1.56h-3.14V500h-1.92v-8.76h5.24v1.59Z"/><path class="cls-3" d="M1071,500.11a4.38,4.38,0,0,1-4.52-4.58,4.49,4.49,0,0,1,9,0A4.39,4.39,0,0,1,1071,500.11Zm0-1.65c1.4,0,2.51-1,2.51-2.87a2.63,2.63,0,0,0-2.71-2.77,2.42,2.42,0,0,0-2.47,2.7A2.67,2.67,0,0,0,1071,498.46Z"/><path class="cls-3" d="M1083,500l-4.3-5.5V500H1077v-8.76h1.46l4.24,5.38v-5.38h1.75V500Z"/><path class="cls-3" d="M1089.92,492.82V500H1088v-7.15h-2.46v-1.61h6.91v1.61Z"/><path class="cls-3" d="M1096.42,500.11a5.12,5.12,0,0,1-3.46-1.06l1-1.52a3.67,3.67,0,0,0,2.49,1c.71,0,1.2-.31,1.2-.81s-.32-.83-1.59-1.31c-2.12-.78-2.84-1.39-2.84-2.94s1.24-2.41,3.11-2.41a4.72,4.72,0,0,1,3,1l-.91,1.57a3.81,3.81,0,0,0-2.17-.87c-.71,0-1.1.26-1.1.73s.51.83,1.87,1.34c1.87.71,2.62,1.31,2.62,2.77C1099.68,499.21,1098.17,500.11,1096.42,500.11Z"/><path class="cls-3" d="M885.34,498.34v-.44l2.11-2.22a1.51,1.51,0,0,0,.48-.94c0-.37-.3-.64-.77-.64a.77.77,0,0,0-.8.81l-1-.09a1.75,1.75,0,0,1,2-1.68c1,0,1.72.57,1.72,1.39a2.14,2.14,0,0,1-.77,1.64l-1.24,1.25h2.11v.92Z"/><path class="cls-3" d="M891.45,498.42c-1.11,0-1.91-.84-1.91-2.61,0-1.48.65-2.67,2-2.67s1.92,1.07,1.92,2.61S892.77,498.42,891.45,498.42Zm0-.95c.57,0,.85-.52.85-1.65s-.27-1.73-.84-1.73-.83.5-.83,1.71S890.93,497.47,891.46,497.47Z"/><path class="cls-3" d="M895,498.34v-3.73a2.06,2.06,0,0,1-1.11.44v-1a2.23,2.23,0,0,0,1.48-.83h.7v5.12Z"/><path class="cls-3" d="M898.83,498.42a1.93,1.93,0,0,1-2-2.05,3.78,3.78,0,0,1,1.92-3.07l.52-.35.58.75-.57.41a5.52,5.52,0,0,0-1.24,1.13,1.41,1.41,0,0,1,1-.36,1.63,1.63,0,0,1,1.72,1.74A1.83,1.83,0,0,1,898.83,498.42Zm-.05-.91a.89.89,0,0,0,0-1.77.84.84,0,0,0-.89.86A.86.86,0,0,0,898.78,497.51Z"/><rect class="cls-3" x="893.24" y="429.67" width="88.38" height="39.37"/><path class="cls-1" d="M906.65,454.6a4.52,4.52,0,0,1,0-9,4.11,4.11,0,0,1,3.61,1.54l-1.41,1.17a2.61,2.61,0,0,0-2.16-1,2.36,2.36,0,0,0-2.45,2.67,2.6,2.6,0,0,0,2.63,2.93,2.42,2.42,0,0,0,2.18-1.15l1.39,1A4.23,4.23,0,0,1,906.65,454.6Z"/><path class="cls-1" d="M915.72,454.6A4.38,4.38,0,0,1,911.2,450a4.49,4.49,0,0,1,9,0A4.39,4.39,0,0,1,915.72,454.6Zm0-1.65c1.4,0,2.51-1,2.51-2.87a2.63,2.63,0,0,0-2.71-2.77,2.42,2.42,0,0,0-2.47,2.7A2.67,2.67,0,0,0,915.77,453Z"/><path class="cls-1" d="M921.69,454.46V445.7h1.92v7.17h3.75v1.59Z"/><path class="cls-1" d="M932.55,454.6A4.38,4.38,0,0,1,928,450a4.49,4.49,0,0,1,9,0A4.4,4.4,0,0,1,932.55,454.6Zm0-1.65c1.41,0,2.51-1,2.51-2.87a2.62,2.62,0,0,0-2.71-2.77,2.43,2.43,0,0,0-2.47,2.7A2.67,2.67,0,0,0,932.59,453Z"/><path class="cls-1" d="M938.51,445.7h3.32a2.51,2.51,0,0,1,2.77,2.45,2.28,2.28,0,0,1-1.83,2.41v.06l2.71,3.84h-2.22l-2.18-3.31h-.65v3.31h-1.91Zm2.94,3.95a1.18,1.18,0,0,0,1.24-1.27,1.15,1.15,0,0,0-1.2-1.22h-1.11v2.49Z"/><path class="cls-3" d="M1001.26,455.58a6,6,0,0,1-4-5.83,5.48,5.48,0,0,1,4-5.47v1.28c-.89.5-1.77,1.54-1.78,4.19,0,2.26.72,3.55,1.78,4.33Z"/><path class="cls-3" d="M1005.36,453.41a5.17,5.17,0,0,1-3.47-1.07l1.05-1.51a3.69,3.69,0,0,0,2.49,1c.71,0,1.2-.31,1.2-.81s-.32-.83-1.59-1.31c-2.13-.78-2.85-1.39-2.85-2.94s1.25-2.41,3.12-2.41a4.66,4.66,0,0,1,3,1l-.91,1.57a3.82,3.82,0,0,0-2.17-.88c-.71,0-1.11.27-1.11.73s.52.83,1.88,1.35c1.87.7,2.62,1.3,2.62,2.77C1008.62,452.51,1007.11,453.41,1005.36,453.41Z"/><path class="cls-3" d="M1014,453.3h-1.26l-3.58-8.79h2.1l2.14,5.61,2.24-5.61h2Z"/><path class="cls-3" d="M1026.6,448.57v2.86a4.67,4.67,0,0,1-4,2,4.24,4.24,0,0,1-4.51-4.53,4.6,4.6,0,0,1,7.84-3.19l-1.2,1.34a2.7,2.7,0,0,0-2.23-.9,2.39,2.39,0,0,0-2.52,2.67c0,2,1.13,3,2.67,3a2.3,2.3,0,0,0,2.17-1v-.67h-2.2v-1.56Z"/><path class="cls-3" d="M1028.71,453.26h-1.62l2.79-8.75h1.59Z"/><path class="cls-3" d="M1036.25,453.41a4.53,4.53,0,0,1,0-9.05,4.11,4.11,0,0,1,3.61,1.55l-1.42,1.16a2.6,2.6,0,0,0-2.15-1,2.37,2.37,0,0,0-2.45,2.68,2.59,2.59,0,0,0,2.63,2.92,2.43,2.43,0,0,0,2.18-1.15l1.39,1A4.22,4.22,0,0,1,1036.25,453.41Z"/><path class="cls-3" d="M1045.32,453.41a4.38,4.38,0,0,1-4.52-4.59,4.49,4.49,0,0,1,9,0A4.39,4.39,0,0,1,1045.32,453.41Zm0-1.66c1.4,0,2.5-1,2.5-2.87a2.62,2.62,0,0,0-2.71-2.77,2.43,2.43,0,0,0-2.47,2.7A2.66,2.66,0,0,0,1045.37,451.75Z"/><path class="cls-3" d="M1051.29,453.26v-8.75h1.91v7.17H1057v1.58Z"/><path class="cls-3" d="M1058.14,444.51h3.32a2.51,2.51,0,0,1,2.77,2.44,2.28,2.28,0,0,1-1.83,2.41l0,.06,2.71,3.84h-2.21l-2.19-3.31H1060v3.31h-1.9Zm2.94,3.94a1.17,1.17,0,0,0,1.23-1.27,1.14,1.14,0,0,0-1.2-1.21H1060v2.48Z"/><path class="cls-3" d="M1066.67,453.26h-1.62l2.78-8.75h1.6Z"/><path class="cls-3" d="M1073.22,453.41a5.17,5.17,0,0,1-3.47-1.07l1-1.51a3.69,3.69,0,0,0,2.49,1c.71,0,1.2-.31,1.2-.81s-.32-.83-1.59-1.31c-2.13-.78-2.85-1.39-2.85-2.94s1.25-2.41,3.12-2.41a4.66,4.66,0,0,1,3,1l-.91,1.57a3.82,3.82,0,0,0-2.17-.88c-.71,0-1.11.27-1.11.73s.52.83,1.88,1.35c1.87.7,2.62,1.3,2.62,2.77C1076.48,452.51,1075,453.41,1073.22,453.41Z"/><path class="cls-3" d="M1078.09,444.51h3.4c1.59,0,2.59.76,2.59,2.12a2,2,0,0,1-1.68,2,2.17,2.17,0,0,1,2.15,2.2c0,1.59-1.46,2.42-3.18,2.42h-3.28Zm3,3.64a1.09,1.09,0,0,0,1.16-1.16,1.06,1.06,0,0,0-1.18-1h-1.15v2.18Zm.25,3.65a1.12,1.12,0,0,0,1.24-1.2c0-.56-.43-1-1.24-1h-1.38v2.24Z"/><path class="cls-3" d="M1086.06,453.26v-8.75H1088v8.75Z"/><path class="cls-3" d="M1093,450.39l-1.83,2.87h-2l2.82-4.41-2.77-4.34h2.18l1.68,2.63,1.69-2.63h2l-2.69,4.19,2.9,4.56h-2.16Z"/><path class="cls-3" d="M1098.68,453.26h-1.61l2.78-8.75h1.59Z"/><path class="cls-3" d="M1106.22,453.41a4.53,4.53,0,0,1,0-9.05,4.1,4.1,0,0,1,3.61,1.55l-1.41,1.16a2.64,2.64,0,0,0-2.16-1,2.37,2.37,0,0,0-2.45,2.68,2.59,2.59,0,0,0,2.63,2.92,2.43,2.43,0,0,0,2.18-1.15l1.39,1A4.22,4.22,0,0,1,1106.22,453.41Z"/><path class="cls-3" d="M1111.28,444.51h3.4c1.59,0,2.59.76,2.59,2.12a1.94,1.94,0,0,1-1.68,2,2.17,2.17,0,0,1,2.15,2.2c0,1.59-1.45,2.42-3.18,2.42h-3.28Zm3,3.64a1.09,1.09,0,0,0,1.16-1.16,1.05,1.05,0,0,0-1.17-1h-1.16v2.18Zm.25,3.65a1.13,1.13,0,0,0,1.25-1.2c0-.56-.43-1-1.25-1h-1.38v2.24Z"/><path class="cls-3" d="M1119.19,444.51h3.12c3,0,4.52,1.71,4.52,4.28s-1.64,4.47-4.75,4.47h-2.89Zm2.89,7.26a2.67,2.67,0,0,0,2.76-3,2.5,2.5,0,0,0-2.59-2.82h-1.14v5.78Z"/><path class="cls-3" d="M1131.84,446.11v7.15h-1.92v-7.15h-2.46v-1.6h6.91v1.6Z"/><path class="cls-3" d="M1134.82,444.28a5.46,5.46,0,0,1,4,5.53,5.9,5.9,0,0,1-4,5.77v-1.5c1-.75,1.77-2,1.77-4.27,0-2.73-.92-3.79-1.77-4.25Z"/><path class="cls-3" d="M870,451.63v-.43l2.11-2.23a1.48,1.48,0,0,0,.48-.94.68.68,0,0,0-.77-.64.77.77,0,0,0-.8.82l-1-.09a1.75,1.75,0,0,1,2-1.69c1,0,1.72.57,1.72,1.39a2.17,2.17,0,0,1-.76,1.64l-1.25,1.25h2.11v.92Z"/><path class="cls-3" d="M876.08,451.72c-1.11,0-1.91-.84-1.91-2.62,0-1.48.65-2.67,2-2.67S878,447.51,878,449,877.4,451.72,876.08,451.72Zm0-1c.57,0,.85-.52.85-1.64s-.27-1.74-.84-1.74-.83.51-.83,1.72S875.56,450.76,876.09,450.76Z"/><path class="cls-3" d="M879.61,451.63V447.9a2,2,0,0,1-1.11.44v-1a2.29,2.29,0,0,0,1.48-.84h.7v5.12Z"/><path class="cls-3" d="M883.2,451.72a2.86,2.86,0,0,1-1.87-.64l.54-.79a2,2,0,0,0,1.25.5.85.85,0,0,0,.9-.9.79.79,0,0,0-.81-.83,1,1,0,0,0-.87.38l-.68-.15.23-2.77h2.77v.92h-2l-.07,1a1.46,1.46,0,0,1,.87-.29,1.59,1.59,0,0,1,1.66,1.68A1.81,1.81,0,0,1,883.2,451.72Z"/><rect class="cls-3" x="845.88" y="382.96" width="135.92" height="39.37"/><path class="cls-1" d="M866.34,408.14h-1.12l-1.78-5.54-1.89,5.54h-1.11l-2.65-8.79h2l1.54,5.28,1.65-5.28h1.11l1.69,5.3,1.52-5.3h1.78Z"/><path class="cls-1" d="M874.14,408.25a4.38,4.38,0,0,1-4.52-4.58,4.49,4.49,0,0,1,9,0A4.39,4.39,0,0,1,874.14,408.25Zm.05-1.65c1.4,0,2.5-1,2.5-2.87A2.62,2.62,0,0,0,874,401a2.43,2.43,0,0,0-2.47,2.7A2.67,2.67,0,0,0,874.19,406.6Z"/><path class="cls-1" d="M882,400.93V403h3.15v1.56H882v3.55h-1.91v-8.76h5.24v1.58Z"/><path class="cls-1" d="M888.78,400.93V403h3.14v1.56h-3.14v3.55h-1.92v-8.76h5.24v1.58Z"/><path class="cls-3" d="M821.82,404.93v-.44l2.11-2.23a1.46,1.46,0,0,0,.48-.93c0-.37-.3-.64-.77-.64a.76.76,0,0,0-.79.81l-1-.09a1.73,1.73,0,0,1,2-1.68c1,0,1.72.57,1.72,1.39a2.15,2.15,0,0,1-.76,1.63L823.54,404h2.11v.92Z"/><path class="cls-3" d="M827.93,405c-1.11,0-1.91-.84-1.91-2.61,0-1.49.65-2.67,2-2.67s1.92,1.07,1.92,2.6S829.25,405,827.93,405Zm0-.95c.57,0,.85-.52.85-1.65s-.27-1.74-.84-1.74-.83.51-.83,1.72S827.41,404.06,827.94,404.06Z"/><path class="cls-3" d="M831.46,404.93v-3.74a2,2,0,0,1-1.11.44v-1a2.23,2.23,0,0,0,1.48-.83h.7v5.12Z"/><path class="cls-3" d="M833.23,404.93v-.44l2.11-2.23a1.46,1.46,0,0,0,.48-.93c0-.37-.3-.64-.77-.64a.76.76,0,0,0-.79.81l-1-.09a1.73,1.73,0,0,1,2-1.68c1,0,1.72.57,1.72,1.39a2.15,2.15,0,0,1-.76,1.63L835,404h2.11v.92Z"/><rect class="cls-3" x="610.28" y="336.25" width="371.52" height="39.37"/><path class="cls-4" d="M627.28,361a4.38,4.38,0,0,1-4.52-4.58,4.49,4.49,0,0,1,9,0A4.39,4.39,0,0,1,627.28,361Zm.05-1.65c1.41,0,2.51-1,2.51-2.87a2.63,2.63,0,0,0-2.71-2.77,2.43,2.43,0,0,0-2.47,2.7A2.67,2.67,0,0,0,627.33,359.39Z"/><path class="cls-4" d="M633.25,352.14h3.55a2.68,2.68,0,0,1,2.9,2.77,2.77,2.77,0,0,1-3,2.87h-1.55v3.12h-1.92Zm3.27,4.15a1.21,1.21,0,0,0,1.25-1.38,1.2,1.2,0,0,0-1.33-1.26h-1.31v2.64Z"/><path class="cls-4" d="M641,360.9v-8.76h5.51v1.59h-3.63v2.07h3.4v1.51h-3.4v2h3.86v1.59Z"/><path class="cls-4" d="M654.52,360.9l-4.3-5.5v5.5h-1.79v-8.76h1.46l4.24,5.38v-5.38h1.75v8.76Z"/><path class="cls-4" d="M661.4,353.75v7.15h-1.92v-7.15H657v-1.61h6.91v1.61Z"/><path class="cls-4" d="M669.19,357.43v3.47h-1.92v-3.55L664,352.14h2.15l2.19,3.53,2.23-3.53h2Z"/><path class="cls-4" d="M673.52,352.14h3.55a2.68,2.68,0,0,1,2.9,2.77,2.77,2.77,0,0,1-3,2.87h-1.55v3.12h-1.92Zm3.28,4.15a1.21,1.21,0,0,0,1.24-1.38,1.2,1.2,0,0,0-1.33-1.26H675.4v2.64Z"/><path class="cls-4" d="M681.31,360.9v-8.76h5.52v1.59h-3.64v2.07h3.4v1.51h-3.4v2h3.86v1.59Z"/><path class="cls-3" d="M587.77,358.22v-3.74a2.06,2.06,0,0,1-1.11.45v-1a2.23,2.23,0,0,0,1.48-.83h.7v5.12Z"/><path class="cls-3" d="M590.67,357.64l.54-.42a5.56,5.56,0,0,0,1.14-1.15,1.67,1.67,0,0,1-1.06.42,1.57,1.57,0,0,1-1.7-1.7A1.83,1.83,0,0,1,591.5,353a1.9,1.9,0,0,1,2,2.05,3.63,3.63,0,0,1-1.87,3.05l-.4.28Zm.88-1.94a.86.86,0,0,0,.9-.87.87.87,0,0,0-.9-.92.9.9,0,0,0,0,1.79Z"/><path class="cls-3" d="M595,357.64l.54-.42a6.12,6.12,0,0,0,1.14-1.15,1.67,1.67,0,0,1-1.06.42,1.58,1.58,0,0,1-1.71-1.7,1.84,1.84,0,0,1,1.92-1.78,1.89,1.89,0,0,1,2,2.05,3.62,3.62,0,0,1-1.86,3.05l-.41.28Zm.87-1.94a.9.9,0,1,0,0-1.79.9.9,0,0,0,0,1.79Z"/><path class="cls-3" d="M600,358.3a2.81,2.81,0,0,1-1.87-.64l.53-.79a2,2,0,0,0,1.25.51.85.85,0,0,0,.9-.91.79.79,0,0,0-.81-.83,1,1,0,0,0-.86.39l-.69-.16.23-2.77h2.77V354h-2l-.06,1a1.34,1.34,0,0,1,.86-.29,1.59,1.59,0,0,1,1.67,1.67A1.81,1.81,0,0,1,600,358.3Z"/><rect class="cls-3" x="573.75" y="289.55" width="35.6" height="39.37"/><path class="cls-3" d="M625.17,307.85V315h-1.92v-7.14h-2.46v-1.61h6.91v1.61Z"/><path class="cls-3" d="M628.84,306.24h3.32a2.51,2.51,0,0,1,2.77,2.44,2.3,2.3,0,0,1-1.83,2.42l0,0L635.8,315h-2.22l-2.19-3.31h-.64V315h-1.91Zm2.94,3.94a1.17,1.17,0,0,0,1.23-1.27,1.14,1.14,0,0,0-1.2-1.21h-1.1v2.48Z"/><path class="cls-3" d="M644.2,311.8a3.42,3.42,0,0,1-3.72,3.34c-2,0-3.69-1.18-3.69-3.34v-5.56h1.86v5.48a1.84,1.84,0,0,0,3.67,0v-5.48h1.88Z"/><path class="cls-3" d="M646.2,315v-8.75h5.52v1.58h-3.63v2.08h3.39v1.51h-3.39v2H652V315Z"/><path class="cls-3" d="M657.07,307.85V315h-1.92v-7.14H652.7v-1.61h6.9v1.61Z"/><path class="cls-3" d="M664.86,311.53V315h-1.92v-3.55l-3.29-5.2h2.15l2.2,3.52,2.23-3.52h2Z"/><path class="cls-3" d="M669.2,306.24h3.54a2.67,2.67,0,0,1,2.91,2.77,2.78,2.78,0,0,1-3,2.87h-1.55V315H669.2Zm3.27,4.15a1.22,1.22,0,0,0,1.25-1.38,1.2,1.2,0,0,0-1.34-1.26h-1.3v2.64Z"/><path class="cls-3" d="M677,315v-8.75h5.52v1.58h-3.64v2.08h3.4v1.51h-3.4v2h3.87V315Z"/><path class="cls-3" d="M691.8,315.14a4.53,4.53,0,0,1-.1-9.05,4.33,4.33,0,0,1,4.55,4.48A4.39,4.39,0,0,1,691.8,315.14Zm.05-1.66c1.4,0,2.5-1,2.5-2.86a2.61,2.61,0,0,0-2.71-2.77,2.42,2.42,0,0,0-2.47,2.69A2.66,2.66,0,0,0,691.85,313.48Z"/><path class="cls-3" d="M697.77,306.24h3.55a2.67,2.67,0,0,1,2.9,2.77,2.78,2.78,0,0,1-3,2.87h-1.54V315h-1.92Zm3.27,4.15a1.22,1.22,0,0,0,1.25-1.38,1.2,1.2,0,0,0-1.33-1.26h-1.31v2.64Z"/><path class="cls-3" d="M705.55,315v-8.75h5.52v1.58h-3.63v2.08h3.39v1.51h-3.39v2h3.86V315Z"/><path class="cls-3" d="M719,315l-4.31-5.49V315H713v-8.75h1.46l4.23,5.37v-5.37h1.75V315Z"/><path class="cls-3" d="M540.51,311.51v-3.73a2,2,0,0,1-1.11.44v-1a2.21,2.21,0,0,0,1.47-.83h.71v5.12Z"/><path class="cls-3" d="M543.41,310.94l.54-.42a5.86,5.86,0,0,0,1.14-1.16,1.67,1.67,0,0,1-1.06.43,1.58,1.58,0,0,1-1.71-1.71,1.83,1.83,0,0,1,1.92-1.77,1.89,1.89,0,0,1,2,2,3.65,3.65,0,0,1-1.86,3.06l-.41.28Zm.87-1.95a.86.86,0,0,0,.91-.86.88.88,0,0,0-.9-.93.85.85,0,0,0-.88.89A.84.84,0,0,0,544.28,309Z"/><path class="cls-3" d="M547.73,310.94l.54-.42a5.35,5.35,0,0,0,1.14-1.16,1.67,1.67,0,0,1-1,.43,1.58,1.58,0,0,1-1.71-1.71,1.83,1.83,0,0,1,1.92-1.77,1.89,1.89,0,0,1,2,2,3.65,3.65,0,0,1-1.86,3.06l-.41.28Zm.88-1.95a.85.85,0,0,0,.9-.86.88.88,0,0,0-.9-.93.85.85,0,0,0-.87.89A.83.83,0,0,0,548.61,309Z"/><path class="cls-3" d="M554.14,310.27v1.24h-1v-1.24h-2.29v-.78l2.46-3.14h.83v3h.79v.87Zm-1-2.46-1.27,1.61h1.27Z"/><path class="cls-3" d="M555.2,310v-.9h2.7v.9Z"/><path class="cls-3" d="M559.44,310.94l.54-.42a5.35,5.35,0,0,0,1.14-1.16,1.64,1.64,0,0,1-1,.43,1.58,1.58,0,0,1-1.71-1.71,1.83,1.83,0,0,1,1.92-1.77,1.89,1.89,0,0,1,2,2,3.65,3.65,0,0,1-1.86,3.06l-.41.28Zm.88-1.95a.85.85,0,0,0,.9-.86.88.88,0,0,0-.89-.93.85.85,0,0,0-.88.89A.84.84,0,0,0,560.32,309Z"/><path class="cls-3" d="M564.46,311.6a2.86,2.86,0,0,1-1.87-.64l.54-.79a2,2,0,0,0,1.25.5.85.85,0,0,0,.9-.9.8.8,0,0,0-.81-.84,1,1,0,0,0-.87.39l-.68-.15.23-2.77h2.77v.92h-2l-.07,1a1.46,1.46,0,0,1,.87-.29,1.58,1.58,0,0,1,1.66,1.67A1.82,1.82,0,0,1,564.46,311.6Z"/><rect class="cls-3" x="528.37" y="242.84" width="453.43" height="39.37"/><path class="cls-1" d="M545.28,260.39v7.15h-1.92v-7.15h-2.45v-1.6h6.9v1.6Z"/><path class="cls-1" d="M549,258.79h3.32a2.51,2.51,0,0,1,2.77,2.44,2.28,2.28,0,0,1-1.84,2.41v.06l2.71,3.84h-2.22l-2.18-3.31h-.65v3.31H549Zm2.94,3.94a1.17,1.17,0,0,0,1.23-1.27,1.14,1.14,0,0,0-1.2-1.21h-1.1v2.48Z"/><path class="cls-1" d="M564.31,264.35a3.42,3.42,0,0,1-3.72,3.34,3.37,3.37,0,0,1-3.68-3.34v-5.56h1.86v5.48a1.84,1.84,0,0,0,3.67,0v-5.48h1.87Z"/><path class="cls-1" d="M566.32,267.54v-8.75h5.52v1.58H568.2v2.07h3.4V264h-3.4v2h3.87v1.58Z"/><path class="cls-1" d="M577.19,260.39v7.15h-1.92v-7.15h-2.46v-1.6h6.91v1.6Z"/><path class="cls-1" d="M585,264.08v3.46h-1.92V264l-3.29-5.2h2.15l2.19,3.52,2.24-3.52h2Z"/><path class="cls-1" d="M589.31,258.79h3.55a2.67,2.67,0,0,1,2.91,2.77,2.77,2.77,0,0,1-3,2.86h-1.55v3.12h-1.92Zm3.28,4.15a1.21,1.21,0,0,0,1.24-1.38,1.2,1.2,0,0,0-1.33-1.26h-1.3v2.64Z"/><path class="cls-1" d="M597.1,267.54v-8.75h5.52v1.58H599v2.07h3.4V264H599v2h3.86v1.58Z"/><path class="cls-1" d="M615.88,262.85v2.86a4.67,4.67,0,0,1-4,2,4.24,4.24,0,0,1-4.51-4.53,4.6,4.6,0,0,1,7.84-3.19l-1.2,1.34a2.7,2.7,0,0,0-2.23-.9,2.39,2.39,0,0,0-2.52,2.67c0,2,1.13,3,2.66,3a2.27,2.27,0,0,0,2.17-1v-.67h-2.19v-1.56Z"/><path class="cls-1" d="M620.41,264.68l-1.83,2.86h-2l2.82-4.41-2.77-4.34h2.18l1.68,2.64,1.69-2.64h2L621.49,263l2.91,4.56h-2.16Z"/><path class="cls-3" d="M503.33,264.81v-3.74a2,2,0,0,1-1.12.44v-1a2.27,2.27,0,0,0,1.48-.83h.71v5.12Z"/><path class="cls-3" d="M506.22,264.23l.54-.42a5.35,5.35,0,0,0,1.14-1.16,1.62,1.62,0,0,1-1,.43,1.58,1.58,0,0,1-1.71-1.71,1.84,1.84,0,0,1,1.92-1.77,1.89,1.89,0,0,1,2,2,3.64,3.64,0,0,1-1.86,3.05l-.41.28Zm.88-2a.85.85,0,0,0,.9-.86.86.86,0,0,0-.89-.92.85.85,0,0,0-.88.89A.83.83,0,0,0,507.1,262.28Z"/><path class="cls-3" d="M510.55,264.23l.54-.42a5.35,5.35,0,0,0,1.14-1.16,1.67,1.67,0,0,1-1.06.43,1.58,1.58,0,0,1-1.71-1.71,1.84,1.84,0,0,1,1.92-1.77,1.9,1.9,0,0,1,2,2,3.63,3.63,0,0,1-1.87,3.05l-.4.28Zm.88-2a.85.85,0,0,0,.9-.86.87.87,0,0,0-.9-.92.84.84,0,0,0-.87.89A.83.83,0,0,0,511.43,262.28Z"/><path class="cls-3" d="M517,263.57v1.24h-1v-1.24h-2.3v-.79l2.47-3.14H517v3.05h.79v.88Zm-1-2.47-1.26,1.62H516Z"/><rect class="cls-3" x="466.42" y="196.13" width="515.38" height="39.37"/><path class="cls-1" d="M483.41,214.33v7.15h-1.92v-7.15H479v-1.61h6.91v1.61Z"/><path class="cls-1" d="M487.08,212.72h3.32a2.52,2.52,0,0,1,2.77,2.45,2.29,2.29,0,0,1-1.83,2.41v.06l2.71,3.84h-2.22l-2.19-3.31H489v3.31h-1.91Zm2.94,3.95a1.17,1.17,0,0,0,1.23-1.27,1.14,1.14,0,0,0-1.2-1.21H489v2.48Z"/><path class="cls-1" d="M502.44,218.29c0,2.09-1.72,3.33-3.72,3.33s-3.68-1.17-3.68-3.33v-5.57h1.85v5.49a1.84,1.84,0,0,0,3.67,0v-5.49h1.88Z"/><path class="cls-1" d="M504.44,221.48v-8.76H510v1.59h-3.63v2.07h3.39v1.51h-3.39v2h3.86v1.58Z"/><path class="cls-1" d="M515.31,214.33v7.15h-1.92v-7.15h-2.45v-1.61h6.9v1.61Z"/><path class="cls-1" d="M523.1,218v3.47h-1.92v-3.55l-3.28-5.21H520l2.2,3.53,2.23-3.53h2Z"/><path class="cls-1" d="M527.44,212.72H531a2.68,2.68,0,0,1,2.9,2.77,2.77,2.77,0,0,1-3,2.87h-1.55v3.12h-1.91Zm3.27,4.15a1.22,1.22,0,0,0,1.25-1.38,1.2,1.2,0,0,0-1.33-1.26h-1.31v2.64Z"/><path class="cls-1" d="M535.22,221.48v-8.76h5.52v1.59h-3.63v2.07h3.39v1.51h-3.39v2H541v1.58Z"/><path class="cls-3" d="M440.65,218.1v-3.73a2,2,0,0,1-1.11.44v-1A2.23,2.23,0,0,0,441,213h.7v5.12Z"/><path class="cls-3" d="M443.55,217.53l.54-.42a5.58,5.58,0,0,0,1.14-1.16,1.67,1.67,0,0,1-1.06.43,1.58,1.58,0,0,1-1.7-1.71,1.82,1.82,0,0,1,1.91-1.77,1.89,1.89,0,0,1,2,2A3.63,3.63,0,0,1,444.5,218l-.4.28Zm.88-1.95a.85.85,0,0,0,.9-.86.87.87,0,0,0-.9-.93.85.85,0,0,0-.87.89A.83.83,0,0,0,444.43,215.58Z"/><path class="cls-3" d="M447.88,217.53l.54-.42a6.14,6.14,0,0,0,1.14-1.16,1.67,1.67,0,0,1-1.06.43,1.59,1.59,0,0,1-1.71-1.71,1.83,1.83,0,0,1,1.92-1.77,1.89,1.89,0,0,1,2,2,3.62,3.62,0,0,1-1.86,3.06l-.41.28Zm.87-1.95a.86.86,0,0,0,.91-.86.87.87,0,0,0-.9-.93.85.85,0,0,0-.88.89A.84.84,0,0,0,448.75,215.58Z"/><path class="cls-3" d="M452.25,218.1v-3.73a2,2,0,0,1-1.12.44v-1a2.23,2.23,0,0,0,1.48-.83h.71v5.12Z"/><rect class="cls-3" x="378.78" y="149.43" width="603.02" height="39.37"/><path class="cls-1" d="M393.06,175a5.17,5.17,0,0,1-3.47-1.07l1.05-1.51a3.72,3.72,0,0,0,2.49,1c.71,0,1.2-.31,1.2-.82s-.32-.82-1.59-1.3c-2.13-.78-2.85-1.4-2.85-2.94s1.25-2.41,3.12-2.41a4.66,4.66,0,0,1,3,1l-.91,1.57a3.81,3.81,0,0,0-2.17-.87c-.71,0-1.11.26-1.11.73s.52.82,1.88,1.34c1.87.71,2.62,1.31,2.62,2.77C396.32,174.06,394.81,175,393.06,175Z"/><path class="cls-1" d="M399.85,167.64v2.07H403v1.56h-3.14v3.55h-1.92v-8.76h5.24v1.58Z"/><path class="cls-1" d="M410.78,174.82l-4.3-5.5v5.5h-1.79v-8.76h1.46l4.24,5.37v-5.37h1.75v8.76Z"/><path class="cls-1" d="M417.66,167.67v7.15h-1.92v-7.15h-2.46v-1.61h6.91v1.61Z"/><path class="cls-3" d="M357.68,171.39v-3.73a2,2,0,0,1-1.11.44v-1a2.32,2.32,0,0,0,1.48-.83h.7v5.11Z"/><path class="cls-3" d="M360.58,170.82l.54-.42a5.59,5.59,0,0,0,1.14-1.16,1.67,1.67,0,0,1-1.06.43,1.58,1.58,0,0,1-1.71-1.71,1.84,1.84,0,0,1,1.92-1.77,1.89,1.89,0,0,1,2,2.05,3.62,3.62,0,0,1-1.86,3l-.4.28Zm.87-1.95a.85.85,0,0,0,.91-.86.87.87,0,0,0-.9-.92.84.84,0,0,0-.87.89A.83.83,0,0,0,361.45,168.87Z"/><path class="cls-3" d="M366.67,168.68a1.35,1.35,0,0,1,1,1.32c0,.84-.73,1.48-1.91,1.48s-1.87-.63-1.87-1.49a1.34,1.34,0,0,1,1-1.3,1.29,1.29,0,0,1-.82-1.12c0-.8.69-1.37,1.71-1.37s1.73.54,1.74,1.31A1.32,1.32,0,0,1,366.67,168.68Zm-.92,1.93c.52,0,.87-.29.87-.73s-.36-.68-.87-.68-.85.23-.85.68A.76.76,0,0,0,365.75,170.61Zm0-2.23a.64.64,0,1,0,0-1.26.64.64,0,1,0,0,1.26Z"/><path class="cls-3" d="M369.22,171.39v-3.73a2,2,0,0,1-1.11.44v-1a2.32,2.32,0,0,0,1.48-.83h.71v5.11Z"/><path class="cls-2" d="M453,590.52v-7.69a4.11,4.11,0,0,1-2.29.91v-2a4.66,4.66,0,0,0,3-1.71h1.46v10.54Z"/><path class="cls-2" d="M458.94,589.34l1.11-.87a11.58,11.58,0,0,0,2.35-2.38,3.45,3.45,0,0,1-2.18.88,3.26,3.26,0,0,1-3.52-3.52,3.77,3.77,0,0,1,4-3.64,3.9,3.9,0,0,1,4.08,4.21,7.46,7.46,0,0,1-3.84,6.28l-.84.58Zm1.8-4a1.76,1.76,0,0,0,1.86-1.78,1.79,1.79,0,0,0-1.84-1.9,1.75,1.75,0,0,0-1.81,1.83A1.72,1.72,0,0,0,460.74,585.33Z"/><path class="cls-2" d="M467.85,589.34l1.11-.87a11.58,11.58,0,0,0,2.35-2.38,3.45,3.45,0,0,1-2.18.88,3.26,3.26,0,0,1-3.51-3.52,3.76,3.76,0,0,1,3.95-3.64,3.9,3.9,0,0,1,4.08,4.21,7.46,7.46,0,0,1-3.84,6.28l-.83.58Zm1.8-4a1.76,1.76,0,0,0,1.86-1.78,1.79,1.79,0,0,0-1.84-1.9,1.74,1.74,0,0,0-1.8,1.83A1.71,1.71,0,0,0,469.65,585.33Z"/><path class="cls-2" d="M476.85,590.52v-7.69a4.11,4.11,0,0,1-2.29.91v-2a4.66,4.66,0,0,0,3-1.71h1.46v10.54Z"/><path class="cls-2" d="M523,590.52v-7.69a4.14,4.14,0,0,1-2.3.91v-2a4.66,4.66,0,0,0,3-1.71h1.45v10.54Z"/><path class="cls-2" d="M529,589.34l1.11-.87a11.85,11.85,0,0,0,2.35-2.38,3.45,3.45,0,0,1-2.18.88,3.26,3.26,0,0,1-3.52-3.52,3.77,3.77,0,0,1,3.95-3.64,3.89,3.89,0,0,1,4.08,4.21,7.48,7.48,0,0,1-3.83,6.28l-.84.58Zm1.8-4a1.77,1.77,0,0,0,1.86-1.78,1.79,1.79,0,0,0-1.85-1.9,1.74,1.74,0,0,0-1.8,1.83A1.72,1.72,0,0,0,530.77,585.33Z"/><path class="cls-2" d="M537.88,589.34l1.11-.87a11.58,11.58,0,0,0,2.35-2.38,3.45,3.45,0,0,1-2.18.88,3.26,3.26,0,0,1-3.52-3.52,3.77,3.77,0,0,1,4-3.64,3.89,3.89,0,0,1,4.08,4.21,7.48,7.48,0,0,1-3.83,6.28l-.84.58Zm1.8-4a1.76,1.76,0,0,0,1.86-1.78,1.79,1.79,0,0,0-1.85-1.9,1.74,1.74,0,0,0-1.8,1.83A1.72,1.72,0,0,0,539.68,585.33Z"/><path class="cls-2" d="M551.07,588v2.55H549V588h-4.73v-1.62l5.08-6.46h1.7v6.27h1.63V588Zm-2-5.08-2.6,3.33h2.6Z"/><path class="cls-2" d="M594.31,590.52v-7.69a4.11,4.11,0,0,1-2.29.91v-2a4.64,4.64,0,0,0,3-1.71h1.46v10.54Z"/><path class="cls-2" d="M600.28,589.34l1.11-.87a11.58,11.58,0,0,0,2.35-2.38,3.45,3.45,0,0,1-2.17.88,3.26,3.26,0,0,1-3.52-3.52,3.76,3.76,0,0,1,4-3.64,3.89,3.89,0,0,1,4.08,4.21,7.46,7.46,0,0,1-3.84,6.28l-.83.58Zm1.8-4a1.76,1.76,0,0,0,1.86-1.78,1.79,1.79,0,0,0-1.84-1.9,1.74,1.74,0,0,0-1.8,1.83A1.72,1.72,0,0,0,602.08,585.33Z"/><path class="cls-2" d="M609.19,589.34l1.11-.87a11.58,11.58,0,0,0,2.35-2.38,3.4,3.4,0,0,1-2.17.88,3.26,3.26,0,0,1-3.52-3.52,3.77,3.77,0,0,1,3.95-3.64A3.89,3.89,0,0,1,615,584a7.46,7.46,0,0,1-3.84,6.28l-.83.58Zm1.81-4a1.77,1.77,0,0,0,1.86-1.78,1.79,1.79,0,0,0-1.85-1.9,1.74,1.74,0,0,0-1.8,1.83A1.72,1.72,0,0,0,611,585.33Z"/><path class="cls-2" d="M619.53,590.69a5.81,5.81,0,0,1-3.85-1.31l1.1-1.63a4,4,0,0,0,2.58,1,1.74,1.74,0,0,0,1.85-1.86,1.63,1.63,0,0,0-1.66-1.72,2,2,0,0,0-1.79.8l-1.41-.32.47-5.7h5.71v1.9h-4.12l-.13,2.1a2.87,2.87,0,0,1,1.77-.6,3.27,3.27,0,0,1,3.43,3.45A3.73,3.73,0,0,1,619.53,590.69Z"/><path class="cls-2" d="M661.59,590.52v-.9L666,585a3.1,3.1,0,0,0,1-1.93c0-.75-.62-1.31-1.59-1.31a1.57,1.57,0,0,0-1.64,1.67l-2-.19c.12-2.09,1.53-3.46,4-3.46,2.18,0,3.55,1.17,3.55,2.85a4.42,4.42,0,0,1-1.58,3.38l-2.56,2.58h4.35v1.89Z"/><path class="cls-2" d="M674.18,590.69c-2.28,0-3.94-1.73-3.94-5.38,0-3,1.36-5.49,4-5.49s4,2.21,4,5.36C678.22,588.57,676.9,590.69,674.18,590.69Zm0-2c1.17,0,1.74-1.07,1.74-3.39s-.55-3.57-1.73-3.57-1.7,1-1.7,3.53S673.11,588.73,674.21,588.73Z"/><path class="cls-2" d="M683.22,590.69c-2.28,0-3.94-1.73-3.94-5.38,0-3,1.36-5.49,4-5.49s4,2.21,4,5.36C687.26,588.57,686,590.69,683.22,590.69Zm0-2c1.17,0,1.74-1.07,1.74-3.39s-.54-3.57-1.73-3.57-1.7,1-1.7,3.53S682.15,588.73,683.25,588.73Z"/><path class="cls-2" d="M692.26,590.69c-2.28,0-3.93-1.73-3.93-5.38,0-3,1.35-5.49,4-5.49s3.95,2.21,3.95,5.36C696.3,588.57,695,590.69,692.26,590.69Zm0-2c1.17,0,1.75-1.07,1.75-3.39s-.55-3.57-1.73-3.57-1.71,1-1.71,3.53S691.2,588.73,692.29,588.73Z"/><path class="cls-2" d="M733.14,590.52v-.9L737.5,585a3,3,0,0,0,1-1.93c0-.75-.62-1.31-1.58-1.31a1.57,1.57,0,0,0-1.65,1.67l-2-.19c.11-2.09,1.52-3.46,4-3.46,2.18,0,3.55,1.17,3.55,2.85a4.45,4.45,0,0,1-1.57,3.38l-2.57,2.58h4.36v1.89Z"/><path class="cls-2" d="M745.73,590.69c-2.28,0-3.93-1.73-3.93-5.38,0-3,1.35-5.49,4-5.49s3.95,2.21,3.95,5.36C749.77,588.57,748.46,590.69,745.73,590.69Zm0-2c1.17,0,1.75-1.07,1.75-3.39s-.55-3.57-1.73-3.57-1.71,1-1.71,3.53S744.67,588.73,745.76,588.73Z"/><path class="cls-2" d="M754.77,590.69c-2.27,0-3.93-1.73-3.93-5.38,0-3,1.35-5.49,4-5.49s3.95,2.21,3.95,5.36C758.81,588.57,757.5,590.69,754.77,590.69Zm0-2c1.17,0,1.75-1.07,1.75-3.39s-.55-3.57-1.73-3.57-1.7,1-1.7,3.53S753.71,588.73,754.8,588.73Z"/><path class="cls-2" d="M763.4,590.69a5.81,5.81,0,0,1-3.85-1.31l1.09-1.63a4.06,4.06,0,0,0,2.58,1,1.74,1.74,0,0,0,1.85-1.86,1.62,1.62,0,0,0-1.66-1.72,2,2,0,0,0-1.79.8l-1.41-.32.48-5.7h5.71v1.9h-4.13l-.13,2.1a2.93,2.93,0,0,1,1.78-.6,3.27,3.27,0,0,1,3.43,3.45A3.73,3.73,0,0,1,763.4,590.69Z"/><path class="cls-2" d="M805.64,590.52v-.9L810,585a3,3,0,0,0,1-1.93c0-.75-.62-1.31-1.58-1.31a1.57,1.57,0,0,0-1.65,1.67l-2-.19c.12-2.09,1.53-3.46,4-3.46,2.18,0,3.55,1.17,3.55,2.85a4.45,4.45,0,0,1-1.57,3.38l-2.57,2.58h4.35v1.89Z"/><path class="cls-2" d="M818.23,590.69c-2.28,0-3.94-1.73-3.94-5.38,0-3,1.36-5.49,4-5.49s3.95,2.21,3.95,5.36C822.27,588.57,821,590.69,818.23,590.69Zm0-2c1.17,0,1.74-1.07,1.74-3.39s-.54-3.57-1.73-3.57-1.7,1-1.7,3.53S817.16,588.73,818.26,588.73Z"/><path class="cls-2" d="M825.51,590.52v-7.69a4.08,4.08,0,0,1-2.29.91v-2a4.64,4.64,0,0,0,3-1.71h1.46v10.54Z"/><path class="cls-2" d="M833.33,590.69c-2.28,0-3.94-1.73-3.94-5.38,0-3,1.36-5.49,4-5.49s4,2.21,4,5.36C837.37,588.57,836.05,590.69,833.33,590.69Zm0-2c1.17,0,1.74-1.07,1.74-3.39s-.55-3.57-1.73-3.57-1.7,1-1.7,3.53S832.26,588.73,833.36,588.73Z"/><path class="cls-2" d="M877.2,590.52v-.9l4.35-4.58a3.06,3.06,0,0,0,1-1.93c0-.75-.62-1.31-1.59-1.31a1.57,1.57,0,0,0-1.64,1.67l-2-.19c.11-2.09,1.53-3.46,4-3.46,2.17,0,3.54,1.17,3.54,2.85a4.45,4.45,0,0,1-1.57,3.38l-2.57,2.58h4.36v1.89Z"/><path class="cls-2" d="M889.79,590.69c-2.28,0-3.94-1.73-3.94-5.38,0-3,1.35-5.49,4-5.49s4,2.21,4,5.36C893.82,588.57,892.51,590.69,889.79,590.69Zm0-2c1.17,0,1.75-1.07,1.75-3.39s-.55-3.57-1.73-3.57-1.7,1-1.7,3.53S888.72,588.73,889.81,588.73Z"/><path class="cls-2" d="M897.07,590.52v-7.69a4.11,4.11,0,0,1-2.29.91v-2a4.66,4.66,0,0,0,3-1.71h1.45v10.54Z"/><path class="cls-2" d="M904.47,590.69a5.84,5.84,0,0,1-3.86-1.31l1.1-1.63a4,4,0,0,0,2.58,1,1.74,1.74,0,0,0,1.85-1.86,1.63,1.63,0,0,0-1.66-1.72,2,2,0,0,0-1.79.8l-1.41-.32.47-5.7h5.71v1.9h-4.12l-.13,2.1a2.87,2.87,0,0,1,1.77-.6,3.28,3.28,0,0,1,3.44,3.45A3.73,3.73,0,0,1,904.47,590.69Z"/><path class="cls-2" d="M954.2,590.52,949,583.91v6.61h-2.15V580h1.76l5.09,6.46V580h2.1v10.53Z"/><path class="cls-2" d="M963.1,590.69a5.27,5.27,0,0,1-5.44-5.51,5.4,5.4,0,0,1,10.79,0A5.28,5.28,0,0,1,963.1,590.69Zm.06-2c1.68,0,3-1.17,3-3.44a3.16,3.16,0,0,0-3.26-3.34,2.92,2.92,0,0,0-3,3.25A3.2,3.2,0,0,0,963.16,588.7Z"/><path class="cls-2" d="M979.39,590.56h-1.34l-2.15-6.66-2.26,6.66H972.3L969.11,580h2.38l1.86,6.35,2-6.35h1.34l2,6.38,1.83-6.38h2.14Z"/><line class="cls-5" x1="981.36" y1="561.45" x2="379.77" y2="561.45"/><polygon class="cls-2" points="982.4 561.42 977.99 563.97 973.58 566.51 973.58 561.42 973.58 556.33 977.99 558.88 982.4 561.42"/><rect class="cls-2" x="378.51" y="558.56" width="5.52" height="5.52"/></svg>