<svg id="Layer_1" data-name="Layer 1" xmlns="http://www.w3.org/2000/svg" viewBox="0 0 1360 819.79"><defs><style>.cls-1{fill:#f1f1f2;}.cls-2{fill:#eb008b;}.cls-3{fill:#606060;}.cls-4{fill:none;stroke:#606060;stroke-miterlimit:10;}</style></defs><title>VFBR2_Overview</title><rect class="cls-1" width="1360" height="820.79"/><path class="cls-2" d="M409.68,163.19V153h3.22a5.51,5.51,0,0,1,4,1.36,4.73,4.73,0,0,1,1.41,3.59,5.34,5.34,0,0,1-1.42,3.76,5.46,5.46,0,0,1-4.18,1.52Zm1.61-1.43h1.36a3.75,3.75,0,0,0,3-1.11,4,4,0,0,0,1-2.69,3.42,3.42,0,0,0-1-2.55,3.76,3.76,0,0,0-2.76-1h-1.56Z"/><path class="cls-2" d="M424.83,163.19h-1.4v-.77a2.76,2.76,0,0,1-.76.64,2.32,2.32,0,0,1-1.24.29,2.26,2.26,0,0,1-1.71-.57,2,2,0,0,1-.55-1.44,1.81,1.81,0,0,1,.75-1.53,4,4,0,0,1,2.18-.63l1.27-.07V159a.78.78,0,0,0-.29-.66,1.47,1.47,0,0,0-.9-.23,2.75,2.75,0,0,0-1.09.21,3.9,3.9,0,0,0-.75.39l-.62-1a3.81,3.81,0,0,1,1-.51,4.43,4.43,0,0,1,1.62-.26,3,3,0,0,1,1.8.51,1.91,1.91,0,0,1,.71,1.64Zm-1.43-1.73v-1.23l-1.2.06a2.34,2.34,0,0,0-1.15.28.81.81,0,0,0-.41.7.75.75,0,0,0,.28.62,1.17,1.17,0,0,0,.75.22,2.47,2.47,0,0,0,1.07-.22A2.08,2.08,0,0,0,423.4,161.46Z"/><path class="cls-2" d="M429.2,162v1.25l-.23,0h-.44a3,3,0,0,1-.94-.15,1.7,1.7,0,0,1-.78-.54,1.58,1.58,0,0,1-.31-1.05v-3.12h-.8v-1.33h.8v-1.43l1.47-.18v1.61h1.14v1.33H428v2.8a.76.76,0,0,0,.23.65,1.24,1.24,0,0,0,.66.15h.2C429.15,162,429.2,162,429.2,162Z"/><path class="cls-2" d="M435.26,163.19h-1.4v-.77a2.76,2.76,0,0,1-.76.64,2.32,2.32,0,0,1-1.24.29,2.26,2.26,0,0,1-1.71-.57,2,2,0,0,1-.55-1.44,1.81,1.81,0,0,1,.75-1.53,4,4,0,0,1,2.18-.63l1.27-.07V159a.78.78,0,0,0-.29-.66,1.47,1.47,0,0,0-.9-.23,2.75,2.75,0,0,0-1.09.21,3.9,3.9,0,0,0-.75.39l-.62-1a3.81,3.81,0,0,1,1-.51,4.43,4.43,0,0,1,1.62-.26,3,3,0,0,1,1.8.51,1.88,1.88,0,0,1,.71,1.64Zm-1.43-1.73v-1.23l-1.2.06a2.34,2.34,0,0,0-1.15.28.81.81,0,0,0-.41.7.75.75,0,0,0,.28.62,1.17,1.17,0,0,0,.75.22,2.44,2.44,0,0,0,1.07-.22A2.08,2.08,0,0,0,433.83,161.46Z"/><path class="cls-2" d="M439.94,166v-8.91h1.4v1a2,2,0,0,1,.78-.77,2.7,2.7,0,0,1,1.44-.37,2.55,2.55,0,0,1,2,.88,3.19,3.19,0,0,1,.77,2.22,3.15,3.15,0,0,1-.9,2.41,2.69,2.69,0,0,1-1.85.85,2.9,2.9,0,0,1-1.4-.32,1.82,1.82,0,0,1-.79-.67V166Zm3.26-3.87a1.43,1.43,0,0,0,1.14-.52,2.22,2.22,0,0,0,.45-1.48,2.31,2.31,0,0,0-.44-1.46,1.49,1.49,0,0,0-1.26-.57,1.67,1.67,0,0,0-.85.23,1.64,1.64,0,0,0-.62.7,2.66,2.66,0,0,0-.23,1.16,1.85,1.85,0,0,0,.54,1.48A1.87,1.87,0,0,0,443.2,162.12Z"/><path class="cls-2" d="M450.39,163.34a3.45,3.45,0,0,1-1.56-.38,3.17,3.17,0,0,1-1.23-1.1,3,3,0,0,1-.48-1.71,3.1,3.1,0,0,1,.45-1.65,3.5,3.5,0,0,1,1.19-1.17,3.11,3.11,0,0,1,1.61-.43,3.82,3.82,0,0,1,1.67.38,3.17,3.17,0,0,1,1.25,1.07,2.78,2.78,0,0,1,.48,1.63,3.22,3.22,0,0,1-.46,1.73,3.27,3.27,0,0,1-1.22,1.2A3.41,3.41,0,0,1,450.39,163.34Zm.06-1.29a1.69,1.69,0,0,0,1.28-.53,2.09,2.09,0,0,0,.5-1.47,1.79,1.79,0,0,0-1.92-1.86,1.46,1.46,0,0,0-.83.23,1.61,1.61,0,0,0-.6.66,2.25,2.25,0,0,0-.22,1,2.27,2.27,0,0,0,.23,1.06,1.49,1.49,0,0,0,.64.65A1.87,1.87,0,0,0,450.45,162.05Z"/><path class="cls-2" d="M455.06,155.82v-1.51h1.54v1.51Zm0,7.37v-6.11h1.49v6.11Z"/><path class="cls-2" d="M464.18,163.19H462.7v-3.87a1.18,1.18,0,0,0-.35-.89,1.34,1.34,0,0,0-1-.34,1.77,1.77,0,0,0-.77.17,1.22,1.22,0,0,0-.56.52,1.7,1.7,0,0,0-.21.89v3.52h-1.49v-6.11h1.43V158a1.74,1.74,0,0,1,.82-.81,2.79,2.79,0,0,1,1.32-.31,2.33,2.33,0,0,1,1.67.59,2.06,2.06,0,0,1,.61,1.57Z"/><path class="cls-2" d="M468.55,162v1.25l-.23,0h-.44a3,3,0,0,1-.94-.15,1.67,1.67,0,0,1-.77-.54,1.53,1.53,0,0,1-.32-1.05v-3.12h-.8v-1.33h.8v-1.43l1.47-.18v1.61h1.15v1.33h-1.15v2.8a.73.73,0,0,0,.24.65,1.24,1.24,0,0,0,.66.15h.19C468.51,162,468.55,162,468.55,162Z"/><path class="cls-2" d="M471.59,163.35a4.87,4.87,0,0,1-1.51-.21,3,3,0,0,1-1.05-.58l.75-1a2.38,2.38,0,0,0,.79.42,3.68,3.68,0,0,0,1,.14,1,1,0,0,0,.63-.16.55.55,0,0,0,.21-.44.5.5,0,0,0-.33-.46,5.19,5.19,0,0,0-1-.35,4.34,4.34,0,0,1-1-.4,1.83,1.83,0,0,1-.67-.62,1.57,1.57,0,0,1-.24-.88,1.64,1.64,0,0,1,.64-1.35,2.53,2.53,0,0,1,1.63-.52,3.72,3.72,0,0,1,1.27.21,2.94,2.94,0,0,1,.89.48l-.72,1a3.06,3.06,0,0,0-.63-.32,2.48,2.48,0,0,0-.82-.14,2,2,0,0,0-.61.09.38.38,0,0,0-.28.36.4.4,0,0,0,.19.34,3.69,3.69,0,0,0,.95.36,4.58,4.58,0,0,1,1.52.72,1.6,1.6,0,0,1,.58,1.36,2.06,2.06,0,0,1-.27,1.08,1.84,1.84,0,0,1-.77.69A2.73,2.73,0,0,1,471.59,163.35Z"/><path class="cls-2" d="M483.91,154.42h-3.77v3h3.56v1.45h-3.56v4.32h-1.59V153h5.36Z"/><path class="cls-2" d="M485.74,163.19V153h3.49a3.31,3.31,0,0,1,2.32.81,2.87,2.87,0,0,1,.9,2.25,3.2,3.2,0,0,1-.87,2.29,3.07,3.07,0,0,1-2.34.91h-1.89v4Zm1.61-5.44H489a1.79,1.79,0,0,0,1.35-.48,1.73,1.73,0,0,0,.47-1.25,1.37,1.37,0,0,0-.55-1.19,2.34,2.34,0,0,0-1.38-.39h-1.53Z"/><path class="cls-2" d="M498.75,163.35a5.58,5.58,0,0,1-2.8-.68,4.75,4.75,0,0,1-1.83-1.89,5.81,5.81,0,0,1-.65-2.77,5.13,5.13,0,0,1,.69-2.65,5.32,5.32,0,0,1,1.87-1.87,5,5,0,0,1,2.61-.69,5.62,5.62,0,0,1,2.75.65,4.64,4.64,0,0,1,1.87,1.83,5.37,5.37,0,0,1,.68,2.75,5.28,5.28,0,0,1-.71,2.78,5.21,5.21,0,0,1-1.89,1.87A5.1,5.1,0,0,1,498.75,163.35Zm0-1.51a3.5,3.5,0,0,0,1.8-.46,3.36,3.36,0,0,0,1.27-1.32,4.33,4.33,0,0,0,.47-2.07,3.9,3.9,0,0,0-.46-1.92,3.35,3.35,0,0,0-1.28-1.28,3.75,3.75,0,0,0-1.85-.45,3.85,3.85,0,0,0-1.82.42A3.14,3.14,0,0,0,495.6,156a4.68,4.68,0,0,0,0,4.09,3.17,3.17,0,0,0,1.3,1.29A3.77,3.77,0,0,0,498.74,161.84Z"/><path class="cls-3" d="M372.12,139.56v2.55h-2.05v-2.55h-4.73V138l5.08-6.47h1.7v6.28h1.63v1.8Zm-2-5.08-2.59,3.34h2.59Z"/><path class="cls-3" d="M369.44,482.58c-2.27,0-3.93-1.73-3.93-5.38,0-3.05,1.35-5.49,4-5.49s4,2.21,4,5.37C373.48,480.46,372.17,482.58,369.44,482.58Zm0-2c1.17,0,1.75-1.06,1.75-3.39s-.55-3.57-1.73-3.57-1.7,1-1.7,3.53S368.38,480.62,369.47,480.62Z"/><path class="cls-3" d="M233,473.41h3.67a3,3,0,0,1,3.36,3.08,3.13,3.13,0,0,1-3.32,3.25h-2.27v4.19H233Zm3.51,5.16a2,2,0,1,0-.12-4h-2v4Z"/><path class="cls-3" d="M245.14,484.09a3.81,3.81,0,0,1-4.08-4,4,4,0,0,1,4-4.07c2.32,0,3.86,1.68,3.86,4.52h-6.5a2.51,2.51,0,0,0,2.67,2.39,3.13,3.13,0,0,0,2.59-1.12l.84.93A4.16,4.16,0,0,1,245.14,484.09Zm2.38-4.63a2.36,2.36,0,0,0-2.51-2.33,2.59,2.59,0,0,0-2.61,2.33Z"/><path class="cls-3" d="M254.17,484.09a3.9,3.9,0,0,1-4-4,4.08,4.08,0,0,1,4.05-4.1,3.86,3.86,0,0,1,4.1,3.9A4.11,4.11,0,0,1,254.17,484.09Zm.09-1.19a2.73,2.73,0,0,0,2.65-3,2.68,2.68,0,1,0-2.65,3Z"/><path class="cls-3" d="M260.2,476.15h1.22v2a2.85,2.85,0,0,1,2.94-2.14c2.11,0,3.52,1.47,3.52,3.93s-1.52,4.11-3.54,4.11a2.78,2.78,0,0,1-2.79-1.88v4.57H260.2ZM264,482.9c1.4,0,2.46-1.23,2.46-2.95s-.84-2.82-2.44-2.82-2.58.95-2.58,2.92S262.59,482.9,264,482.9Z"/><path class="cls-3" d="M269.67,472.4H271v9.31a1,1,0,0,0,1,1.1,2.48,2.48,0,0,0,.72-.09l0,1.19a5.24,5.24,0,0,1-1,.11,1.89,1.89,0,0,1-2.11-1.89Z"/><path class="cls-3" d="M277.67,484.09a3.81,3.81,0,0,1-4.08-4,4,4,0,0,1,4-4.07c2.32,0,3.86,1.68,3.86,4.52H275a2.51,2.51,0,0,0,2.67,2.39,3.13,3.13,0,0,0,2.59-1.12l.84.93A4.14,4.14,0,0,1,277.67,484.09Zm2.38-4.63a2.36,2.36,0,0,0-2.51-2.33,2.59,2.59,0,0,0-2.61,2.33Z"/><path class="cls-3" d="M287.24,472.89h1.44v1.51h-1.44Zm0,3.26h1.35v7.78h-1.35Z"/><path class="cls-3" d="M296.65,483.93V478.6c0-.94-.86-1.46-1.8-1.46a2.11,2.11,0,0,0-2.29,1.95v4.84H291.2v-7.78h1.17v1.68a2.92,2.92,0,0,1,2.91-1.86,2.46,2.46,0,0,1,2.71,2.21v5.75Z"/><path class="cls-3" d="M308.5,484a2.78,2.78,0,0,1-2.87-1.94v1.83h-1.29V472.4h1.22v5.67a2.85,2.85,0,0,1,3-2.07c2.07,0,3.48,1.52,3.48,3.88C312,482.48,310.41,484,308.5,484Zm-.34-1.14a2.64,2.64,0,0,0,2.46-2.92c0-1.68-.85-2.85-2.48-2.85-1.42,0-2.53.94-2.53,2.95C305.61,481.9,306.64,482.9,308.16,482.9Z"/><path class="cls-3" d="M313.88,472.89h1.45v1.51h-1.45Zm.05,3.26h1.35v7.78h-1.35Z"/><path class="cls-3" d="M317.75,472.4h1.35v9.31a1,1,0,0,0,1,1.1,2.39,2.39,0,0,0,.72-.09l0,1.19a5.15,5.15,0,0,1-1,.11,1.89,1.89,0,0,1-2.1-1.89Z"/><path class="cls-3" d="M322.22,472.4h1.35v9.31a1,1,0,0,0,1,1.1,2.39,2.39,0,0,0,.72-.09l0,1.19a5.15,5.15,0,0,1-1,.11,1.89,1.89,0,0,1-2.1-1.89Z"/><path class="cls-3" d="M326.77,472.89h1.45v1.51h-1.45Zm.05,3.26h1.35v7.78h-1.35Z"/><path class="cls-3" d="M334.1,484.09a3.9,3.9,0,0,1-4-4,4.08,4.08,0,0,1,4.05-4.1,3.86,3.86,0,0,1,4.1,3.9A4.11,4.11,0,0,1,334.1,484.09Zm.09-1.19a2.73,2.73,0,0,0,2.65-3,2.68,2.68,0,1,0-2.65,3Z"/><path class="cls-3" d="M345.58,483.93V478.6a1.61,1.61,0,0,0-1.8-1.46,2.12,2.12,0,0,0-2.3,1.95v4.84h-1.35v-7.78h1.17v1.68a2.92,2.92,0,0,1,2.91-1.86,2.46,2.46,0,0,1,2.71,2.21v5.75Z"/><path class="cls-3" d="M352,484.09a5.23,5.23,0,0,1-3.34-1l.6-.91A5.06,5.06,0,0,0,352,483c.84,0,1.5-.5,1.5-1.17s-.43-1-2-1.44c-1.86-.52-2.42-1.33-2.42-2.38,0-1.25,1.21-2,2.77-2a4.64,4.64,0,0,1,2.87.83l-.51,1a4.18,4.18,0,0,0-2.26-.76c-.79,0-1.5.39-1.5,1s.25.88,1.89,1.37c1.83.54,2.57,1.22,2.57,2.39C354.84,483.2,353.58,484.09,352,484.09Z"/><path class="cls-3" d="M444,704.24a1.63,1.63,0,0,0-.38,1.14,1.85,1.85,0,0,0,1.84,1.81h3.79v1.13h-6.48v-1h1.53A2.38,2.38,0,0,1,442.6,705a2.11,2.11,0,0,1,.34-1.3Z"/><path class="cls-3" d="M449.35,699.79a3.18,3.18,0,0,1-3.37,3.39,3.3,3.3,0,0,1-3.38-3.32c0-1.93,1.39-3.22,3.75-3.22v5.41a2.09,2.09,0,0,0,2-2.22,2.58,2.58,0,0,0-.94-2.15l.78-.7A3.42,3.42,0,0,1,449.35,699.79Zm-3.85-2a2,2,0,0,0-1.94,2.08,2.16,2.16,0,0,0,1.94,2.18Z"/><path class="cls-3" d="M439.62,695.15V694h7.75a.82.82,0,0,0,.91-.87,2.06,2.06,0,0,0-.07-.6l1,0a3.62,3.62,0,0,1,.1.86,1.57,1.57,0,0,1-1.57,1.75Z"/><path class="cls-3" d="M449.35,688.49a3.18,3.18,0,0,1-3.37,3.4,3.3,3.3,0,0,1-3.38-3.32c0-1.93,1.39-3.22,3.75-3.22v5.41a2.09,2.09,0,0,0,2-2.22,2.62,2.62,0,0,0-.94-2.16l.78-.69A3.41,3.41,0,0,1,449.35,688.49Zm-3.85-2a2,2,0,0,0-1.94,2.08,2.15,2.15,0,0,0,1.94,2.17Z"/><path class="cls-3" d="M449.22,679.66h-.89a3,3,0,0,1,1,2.41c0,1.41-.72,2.26-1.88,2.26-1.46,0-2.23-1.2-2.34-3.12l-.1-1.53h-.09c-.94,0-1.36.57-1.36,1.55a4.27,4.27,0,0,0,.72,2.21l-.81.47a4.82,4.82,0,0,1-.88-2.82c0-1.57.68-2.53,2.33-2.53h4.32Zm-3.36,0,.08,1.69c.06,1.06.48,1.8,1.36,1.8.7,0,1.14-.59,1.14-1.46a2.64,2.64,0,0,0-.94-2Z"/><path class="cls-3" d="M449.35,674.42a4.4,4.4,0,0,1-.84,2.78l-.76-.5a4.23,4.23,0,0,0,.7-2.22c0-.7-.42-1.25-1-1.25s-.83.36-1.2,1.68c-.43,1.55-1.11,2-2,2-1.05,0-1.7-1-1.7-2.31a3.84,3.84,0,0,1,.68-2.38l.85.42a3.42,3.42,0,0,0-.64,1.88c0,.66.33,1.25.82,1.25s.73-.21,1.14-1.58,1-2.13,2-2.13A2.08,2.08,0,0,1,449.35,674.42Z"/><path class="cls-3" d="M449.35,667.72a3.18,3.18,0,0,1-3.37,3.4,3.3,3.3,0,0,1-3.38-3.33c0-1.93,1.39-3.21,3.75-3.21V670a2.09,2.09,0,0,0,2-2.22,2.62,2.62,0,0,0-.94-2.16l.78-.69A3.41,3.41,0,0,1,449.35,667.72Zm-3.85-2a2,2,0,0,0-1.94,2.09A2.15,2.15,0,0,0,445.5,670Z"/><path class="cls-3" d="M449.35,657a3.25,3.25,0,0,1-3.35,3.33,3.38,3.38,0,0,1-3.4-3.37,3.2,3.2,0,0,1,3.23-3.4A3.42,3.42,0,0,1,449.35,657Zm-1-.07a2.27,2.27,0,0,0-2.46-2.21,2.23,2.23,0,1,0,2.46,2.21Z"/><path class="cls-3" d="M443.7,650.48h5.52v1.13H443.7v1.23h-1v-1.23h-1.18a1.86,1.86,0,0,1-2-1.83,2.44,2.44,0,0,1,.33-1.3l.92.3a2.17,2.17,0,0,0-.19.84c0,.5.53.86,1.16.86h.94v-1.63h1Z"/><path class="cls-3" d="M442.74,644.32v-1h1.65a2.35,2.35,0,0,1-1.77-2.44c0-1.75,1.22-2.93,3.26-2.93s3.42,1.27,3.42,3a2.29,2.29,0,0,1-1.56,2.31h3.8v1.13Zm5.61-3.19a2.2,2.2,0,0,0-2.44-2c-1.34,0-2.35.7-2.35,2s.79,2.15,2.43,2.15A2.07,2.07,0,0,0,448.35,641.13Z"/><path class="cls-3" d="M449.35,633.56a3.25,3.25,0,0,1-3.35,3.33,3.38,3.38,0,0,1-3.4-3.37,3.2,3.2,0,0,1,3.23-3.4A3.42,3.42,0,0,1,449.35,633.56Zm-1-.07a2.27,2.27,0,0,0-2.46-2.21,2.22,2.22,0,1,0,.12,4.44A2.18,2.18,0,0,0,448.35,633.49Z"/><path class="cls-3" d="M449.35,626.32a4.43,4.43,0,0,1-.84,2.79l-.76-.51a4.2,4.2,0,0,0,.7-2.22,1.12,1.12,0,0,0-1-1.24c-.47,0-.83.36-1.2,1.68-.43,1.54-1.11,2-2,2-1.05,0-1.7-1-1.7-2.3a3.9,3.9,0,0,1,.68-2.39l.85.42a3.44,3.44,0,0,0-.64,1.88c0,.66.33,1.25.82,1.25s.73-.2,1.14-1.57,1-2.14,2-2.14A2.09,2.09,0,0,1,449.35,626.32Z"/><path class="cls-3" d="M448.93,619.16a2.46,2.46,0,0,1,.36,1.39,1.7,1.7,0,0,1-1.92,1.81h-3.71v1h-.92v-1H441l-.14-1.11h1.86v-1.83h.92v1.83h3.65c.62,0,1-.29,1-.84a2.7,2.7,0,0,0-.27-1.06Z"/><path class="cls-3" d="M449.35,615.69a4.4,4.4,0,0,1-.84,2.78l-.76-.5a4.2,4.2,0,0,0,.7-2.22,1.13,1.13,0,0,0-1-1.25c-.47,0-.83.36-1.2,1.68-.43,1.55-1.11,2-2,2-1.05,0-1.7-1-1.7-2.3a3.88,3.88,0,0,1,.68-2.39l.85.42a3.44,3.44,0,0,0-.64,1.88c0,.66.33,1.25.82,1.25s.73-.2,1.14-1.57c.46-1.53,1-2.14,2-2.14A2.09,2.09,0,0,1,449.35,615.69Z"/><path class="cls-3" d="M447.79,606.18a3.23,3.23,0,0,1,1.56,2.88,3.19,3.19,0,0,1-3.36,3.33A3.29,3.29,0,0,1,442.6,609a2.77,2.77,0,0,1,1.7-2.78l.43,1a2,2,0,0,0-1.14,1.86,2.23,2.23,0,0,0,2.38,2.17,2.18,2.18,0,0,0,2.37-2.2,2.22,2.22,0,0,0-1.15-2Z"/><path class="cls-3" d="M444,600.69a1.64,1.64,0,0,0-.38,1.14,1.85,1.85,0,0,0,1.84,1.81h3.79v1.13h-6.48v-1h1.53a2.37,2.37,0,0,1-1.67-2.36,2.08,2.08,0,0,1,.34-1.29Z"/><path class="cls-3" d="M440,599.11v-1.2h1.26v1.2Zm2.71,0v-1.13h6.48v1.13Z"/><path class="cls-3" d="M442.74,595.81v-1h1.65a2.36,2.36,0,0,1-1.77-2.45c0-1.75,1.22-2.93,3.26-2.93s3.42,1.28,3.42,3a2.3,2.3,0,0,1-1.56,2.31h3.8v1.13Zm5.61-3.19a2.2,2.2,0,0,0-2.44-2c-1.34,0-2.35.69-2.35,2s.79,2.15,2.43,2.15A2.06,2.06,0,0,0,448.35,592.62Z"/><path class="cls-3" d="M448.93,584.52a2.44,2.44,0,0,1,.36,1.39,1.7,1.7,0,0,1-1.92,1.81h-3.71v1h-.92v-1H441l-.14-1.12h1.86v-1.82h.92v1.82h3.65c.62,0,1-.28,1-.84a2.64,2.64,0,0,0-.27-1Z"/><path class="cls-3" d="M390.14,509.48V501.8a4.1,4.1,0,0,1-2.29.9v-2a4.61,4.61,0,0,0,3-1.72h1.46v10.54Z"/><path class="cls-3" d="M396.11,508.3l1.11-.87a11.34,11.34,0,0,0,2.35-2.38,3.4,3.4,0,0,1-2.17.88,3.26,3.26,0,0,1-3.52-3.51,3.77,3.77,0,0,1,3.95-3.65,3.89,3.89,0,0,1,4.08,4.21,7.5,7.5,0,0,1-3.84,6.29l-.83.57Zm1.81-4a1.76,1.76,0,0,0,1.86-1.77,1.8,1.8,0,0,0-1.85-1.91,1.74,1.74,0,0,0-1.8,1.84A1.72,1.72,0,0,0,397.92,504.29Z"/><path class="cls-3" d="M405,508.3l1.11-.87a11.59,11.59,0,0,0,2.35-2.38,3.45,3.45,0,0,1-2.18.88,3.26,3.26,0,0,1-3.52-3.51,3.77,3.77,0,0,1,3.95-3.65,3.89,3.89,0,0,1,4.08,4.21,7.51,7.51,0,0,1-3.83,6.29l-.84.57Zm1.8-4a1.76,1.76,0,0,0,1.86-1.77,1.8,1.8,0,0,0-1.85-1.91,1.74,1.74,0,0,0-1.8,1.84A1.72,1.72,0,0,0,406.83,504.29Z"/><path class="cls-3" d="M415.78,509.65c-2.28,0-3.93-1.73-3.93-5.37,0-3.06,1.35-5.5,4-5.5s3.95,2.21,3.95,5.37C419.82,507.54,418.51,509.65,415.78,509.65Zm0-2c1.17,0,1.75-1.06,1.75-3.39s-.55-3.57-1.73-3.57-1.71,1-1.71,3.53S414.72,507.69,415.81,507.69Z"/><path class="cls-3" d="M485.52,509.48V501.8a4.1,4.1,0,0,1-2.29.9v-2a4.61,4.61,0,0,0,3-1.72h1.46v10.54Z"/><path class="cls-3" d="M491.49,508.3l1.11-.87a11.34,11.34,0,0,0,2.35-2.38,3.45,3.45,0,0,1-2.17.88,3.26,3.26,0,0,1-3.52-3.51,3.77,3.77,0,0,1,3.95-3.65,3.89,3.89,0,0,1,4.08,4.21,7.5,7.5,0,0,1-3.84,6.29l-.83.57Zm1.81-4a1.75,1.75,0,0,0,1.85-1.77,1.79,1.79,0,0,0-1.84-1.91,1.74,1.74,0,0,0-1.8,1.84A1.72,1.72,0,0,0,493.3,504.29Z"/><path class="cls-3" d="M500.4,508.3l1.11-.87a11.34,11.34,0,0,0,2.35-2.38,3.4,3.4,0,0,1-2.17.88,3.26,3.26,0,0,1-3.52-3.51,3.77,3.77,0,0,1,3.95-3.65A3.89,3.89,0,0,1,506.2,503a7.51,7.51,0,0,1-3.83,6.29l-.84.57Zm1.81-4a1.76,1.76,0,0,0,1.86-1.77,1.8,1.8,0,0,0-1.85-1.91,1.74,1.74,0,0,0-1.8,1.84A1.72,1.72,0,0,0,502.21,504.29Z"/><path class="cls-3" d="M510.74,509.65a5.81,5.81,0,0,1-3.85-1.31l1.1-1.63a4,4,0,0,0,2.58,1,1.74,1.74,0,0,0,1.85-1.86,1.63,1.63,0,0,0-1.66-1.72,2,2,0,0,0-1.79.8l-1.41-.32L508,499h5.71v1.91h-4.12l-.13,2.09a2.93,2.93,0,0,1,1.77-.59,3.26,3.26,0,0,1,3.43,3.44A3.72,3.72,0,0,1,510.74,509.65Z"/><path class="cls-3" d="M576.63,509.48v-.89L581,504a3,3,0,0,0,1-1.93c0-.75-.62-1.31-1.59-1.31a1.57,1.57,0,0,0-1.64,1.67l-2-.19c.11-2.09,1.53-3.46,4-3.46,2.18,0,3.55,1.17,3.55,2.86a4.44,4.44,0,0,1-1.57,3.37l-2.57,2.58h4.36v1.89Z"/><path class="cls-3" d="M589.21,509.65c-2.27,0-3.93-1.73-3.93-5.37,0-3.06,1.35-5.5,4-5.5s4,2.21,4,5.37C593.25,507.54,591.94,509.65,589.21,509.65Zm0-2c1.17,0,1.75-1.06,1.75-3.39s-.55-3.57-1.73-3.57-1.7,1-1.7,3.53S588.15,507.69,589.24,507.69Z"/><path class="cls-3" d="M598.26,509.65c-2.28,0-3.94-1.73-3.94-5.37,0-3.06,1.36-5.5,4-5.5s3.95,2.21,3.95,5.37C602.29,507.54,601,509.65,598.26,509.65Zm0-2c1.17,0,1.75-1.06,1.75-3.39s-.55-3.57-1.73-3.57-1.7,1-1.7,3.53S597.19,507.69,598.28,507.69Z"/><path class="cls-3" d="M607.3,509.65c-2.28,0-3.94-1.73-3.94-5.37,0-3.06,1.36-5.5,4-5.5s4,2.21,4,5.37C611.34,507.54,610,509.65,607.3,509.65Zm0-2c1.16,0,1.74-1.06,1.74-3.39s-.55-3.57-1.73-3.57-1.7,1-1.7,3.53S606.23,507.69,607.33,507.69Z"/><path class="cls-3" d="M672,509.48v-.89l4.35-4.59a3,3,0,0,0,1-1.93c0-.75-.62-1.31-1.59-1.31a1.57,1.57,0,0,0-1.64,1.67l-2-.19c.11-2.09,1.52-3.46,4-3.46,2.18,0,3.55,1.17,3.55,2.86a4.44,4.44,0,0,1-1.57,3.37l-2.57,2.58h4.36v1.89Z"/><path class="cls-3" d="M684.59,509.65c-2.27,0-3.93-1.73-3.93-5.37,0-3.06,1.35-5.5,4-5.5s4,2.21,4,5.37C688.63,507.54,687.32,509.65,684.59,509.65Zm0-2c1.17,0,1.75-1.06,1.75-3.39s-.55-3.57-1.73-3.57-1.7,1-1.7,3.53S683.53,507.69,684.62,507.69Z"/><path class="cls-3" d="M693.64,509.65c-2.28,0-3.94-1.73-3.94-5.37,0-3.06,1.35-5.5,4-5.5s3.95,2.21,3.95,5.37C697.67,507.54,696.36,509.65,693.64,509.65Zm0-2c1.17,0,1.75-1.06,1.75-3.39s-.55-3.57-1.73-3.57-1.7,1-1.7,3.53S692.57,507.69,693.66,507.69Z"/><path class="cls-3" d="M702.26,509.65a5.81,5.81,0,0,1-3.85-1.31l1.09-1.63a4.06,4.06,0,0,0,2.59,1,1.73,1.73,0,0,0,1.84-1.86,1.62,1.62,0,0,0-1.66-1.72,2,2,0,0,0-1.78.8l-1.42-.32.48-5.7h5.71v1.91h-4.13L701,503a3,3,0,0,1,1.78-.59,3.26,3.26,0,0,1,3.43,3.44A3.72,3.72,0,0,1,702.26,509.65Z"/><path class="cls-3" d="M768.33,509.48v-.89l4.35-4.59a3,3,0,0,0,1-1.93c0-.75-.62-1.31-1.59-1.31a1.57,1.57,0,0,0-1.64,1.67l-2-.19c.11-2.09,1.53-3.46,4-3.46,2.17,0,3.54,1.17,3.54,2.86a4.41,4.41,0,0,1-1.57,3.37l-2.56,2.58h4.35v1.89Z"/><path class="cls-3" d="M780.92,509.65c-2.28,0-3.94-1.73-3.94-5.37,0-3.06,1.36-5.5,4-5.5s4,2.21,4,5.37C785,507.54,783.64,509.65,780.92,509.65Zm0-2c1.16,0,1.74-1.06,1.74-3.39s-.55-3.57-1.73-3.57-1.7,1-1.7,3.53S779.85,507.69,781,507.69Z"/><path class="cls-3" d="M788.2,509.48V501.8a4.1,4.1,0,0,1-2.29.9v-2a4.64,4.64,0,0,0,3-1.72h1.46v10.54Z"/><path class="cls-3" d="M796,509.65c-2.27,0-3.93-1.73-3.93-5.37,0-3.06,1.35-5.5,4-5.5s3.95,2.21,3.95,5.37C800.05,507.54,798.74,509.65,796,509.65Zm0-2c1.17,0,1.75-1.06,1.75-3.39s-.55-3.57-1.73-3.57-1.7,1-1.7,3.53S795,507.69,796,507.69Z"/><path class="cls-3" d="M863.71,509.48v-.89l4.35-4.59a3,3,0,0,0,1-1.93c0-.75-.62-1.31-1.59-1.31a1.57,1.57,0,0,0-1.64,1.67l-2-.19c.11-2.09,1.53-3.46,4-3.46,2.17,0,3.54,1.17,3.54,2.86a4.44,4.44,0,0,1-1.57,3.37l-2.56,2.58h4.35v1.89Z"/><path class="cls-3" d="M876.3,509.65c-2.28,0-3.94-1.73-3.94-5.37,0-3.06,1.36-5.5,4-5.5s4,2.21,4,5.37C880.33,507.54,879,509.65,876.3,509.65Zm0-2c1.17,0,1.75-1.06,1.75-3.39s-.55-3.57-1.73-3.57-1.7,1-1.7,3.53S875.23,507.69,876.32,507.69Z"/><path class="cls-3" d="M883.58,509.48V501.8a4.1,4.1,0,0,1-2.29.9v-2a4.64,4.64,0,0,0,3-1.72h1.45v10.54Z"/><path class="cls-3" d="M891,509.65a5.81,5.81,0,0,1-3.85-1.31l1.09-1.63a4,4,0,0,0,2.58,1,1.74,1.74,0,0,0,1.85-1.86,1.63,1.63,0,0,0-1.66-1.72,2,2,0,0,0-1.79.8l-1.41-.32.48-5.7H894v1.91h-4.13l-.13,2.09a3,3,0,0,1,1.77-.59,3.26,3.26,0,0,1,3.44,3.44A3.72,3.72,0,0,1,891,509.65Z"/><path class="cls-3" d="M957.36,509.48v-.89l4.36-4.59a3,3,0,0,0,1-1.93c0-.75-.62-1.31-1.58-1.31a1.57,1.57,0,0,0-1.65,1.67l-2-.19c.12-2.09,1.53-3.46,4-3.46,2.18,0,3.55,1.17,3.55,2.86a4.44,4.44,0,0,1-1.57,3.37l-2.57,2.58h4.36v1.89Z"/><path class="cls-3" d="M970,509.65c-2.28,0-3.93-1.73-3.93-5.37,0-3.06,1.35-5.5,4-5.5s4,2.21,4,5.37C974,507.54,972.68,509.65,970,509.65Zm0-2c1.17,0,1.75-1.06,1.75-3.39s-.55-3.57-1.73-3.57-1.71,1-1.71,3.53S968.88,507.69,970,507.69Z"/><path class="cls-3" d="M974.81,509.48v-.89l4.36-4.59a3,3,0,0,0,1-1.93c0-.75-.62-1.31-1.58-1.31a1.57,1.57,0,0,0-1.65,1.67l-2-.19c.12-2.09,1.53-3.46,4-3.46,2.18,0,3.55,1.17,3.55,2.86a4.44,4.44,0,0,1-1.57,3.37l-2.57,2.58h4.35v1.89Z"/><path class="cls-3" d="M987.4,509.65c-2.28,0-3.94-1.73-3.94-5.37,0-3.06,1.36-5.5,4-5.5s4,2.21,4,5.37C991.44,507.54,990.13,509.65,987.4,509.65Zm0-2c1.17,0,1.74-1.06,1.74-3.39s-.54-3.57-1.73-3.57-1.7,1-1.7,3.53S986.33,507.69,987.43,507.69Z"/><rect class="cls-4" x="389.07" y="131.98" width="601.93" height="351.1"/><path class="cls-4" d="M389.07,483.07S991,423.47,991,132"/><path class="cls-4" d="M389.07,464.12s576.59-57,602-332.16"/><line class="cls-4" x1="384.15" y1="307.88" x2="394.4" y2="307.88"/><line class="cls-4" x1="384.15" y1="220.31" x2="394.4" y2="220.31"/><line class="cls-4" x1="384.15" y1="395.29" x2="394.4" y2="395.29"/><path class="cls-3" d="M374.36,385.94a5.28,5.28,0,0,1-10.56,0,4.81,4.81,0,0,1,1.81-4.21l1.36,1.65a3.05,3.05,0,0,0-1.12,2.52c0,1.88,1.27,2.86,3.12,2.86,2.38,0,3.42-1.49,3.42-3.07a2.85,2.85,0,0,0-1.35-2.55l1.12-1.62A5,5,0,0,1,374.36,385.94Z"/><path class="cls-3" d="M364,380v-3.88a2.93,2.93,0,0,1,2.86-3.23,2.66,2.66,0,0,1,2.81,2.14h.07l4.49-3.16v2.59l-3.87,2.55v.76h3.87V380Zm4.61-3.43a1.37,1.37,0,0,0-1.49-1.44,1.33,1.33,0,0,0-1.41,1.4v1.29h2.9Z"/><path class="cls-3" d="M374.2,370.71H364v-6.44h1.85v4.24h2.42v-4H370v4h2.34V364h1.85Z"/><path class="cls-3" d="M374.2,356.06l-1.84.73v3.63l1.84.68v2.23l-10.26-4.14v-1.5l10.26-4Zm-6.95,2.55,3.51,1.33v-2.67Z"/><path class="cls-3" d="M365.85,348.49h8.35v2.24h-8.35v2.87H364v-8.07h1.88Z"/><path class="cls-3" d="M374.36,339.53a5.28,5.28,0,0,1-10.56.11,5.06,5.06,0,0,1,5.23-5.31A5.13,5.13,0,0,1,374.36,339.53Zm-1.93-.06c0-1.64-1.13-2.93-3.35-2.93a3.07,3.07,0,0,0-3.23,3.17A2.83,2.83,0,0,0,369,342.6,3.12,3.12,0,0,0,372.43,339.47Z"/><path class="cls-3" d="M364,332.57v-3.88a2.93,2.93,0,0,1,2.86-3.23,2.66,2.66,0,0,1,2.81,2.14l.07,0,4.49-3.17V327l-3.87,2.55v.76h3.87v2.22Zm4.61-3.43a1.37,1.37,0,0,0-1.49-1.44,1.33,1.33,0,0,0-1.41,1.4v1.29h2.9Z"/><path class="cls-3" d="M374.36,319.94a6,6,0,0,1-1.24,4.05l-1.77-1.22a4.28,4.28,0,0,0,1.18-2.91c0-.83-.37-1.4-.95-1.4s-1,.38-1.53,1.86c-.91,2.48-1.63,3.32-3.43,3.32s-2.82-1.45-2.82-3.64a5.47,5.47,0,0,1,1.15-3.5l1.84,1.06a4.42,4.42,0,0,0-1,2.54c0,.82.31,1.29.86,1.29s1-.61,1.57-2.19c.82-2.18,1.52-3.07,3.23-3.07C373.31,316.13,374.36,317.9,374.36,319.94Z"/><path class="cls-3" d="M374.2,304.25l-1.84.73v3.63l1.84.68v2.23l-10.26-4.15v-1.5l10.26-4Zm-6.95,2.55,3.51,1.33v-2.68Z"/><path class="cls-3" d="M374.2,293.62l-6.42,5h6.42v2.09H364V299l6.28-4.95H364v-2H374.2Z"/><path class="cls-3" d="M364,289.66V286c0-3.44,2-5.28,5-5.28s5.23,1.92,5.23,5.55v3.37Zm8.49-3.37c0-2.26-1.64-3.22-3.46-3.22s-3.29,1.05-3.29,3v1.33h6.75Z"/><path class="cls-3" d="M370.47,266.38c2.44,0,3.89,2,3.89,4.34S373,275,370.47,275H364v-2.17h6.4a2.15,2.15,0,0,0,0-4.29H364v-2.18Z"/><path class="cls-3" d="M374.36,260.74a6,6,0,0,1-1.24,4.05l-1.77-1.22a4.32,4.32,0,0,0,1.18-2.92c0-.82-.37-1.4-.95-1.4s-1,.38-1.53,1.87c-.91,2.48-1.63,3.32-3.43,3.32s-2.82-1.46-2.82-3.65a5.5,5.5,0,0,1,1.15-3.5l1.84,1.07a4.39,4.39,0,0,0-1,2.53c0,.83.31,1.29.86,1.29s1-.6,1.57-2.18c.82-2.19,1.52-3.07,3.23-3.07C373.31,256.93,374.36,258.69,374.36,260.74Z"/><path class="cls-3" d="M374.2,255.06H364v-6.45h1.85v4.25h2.42v-4H370v4h2.34v-4.51h1.85Z"/><path class="cls-3" d="M364,246.43v-3.88a2.93,2.93,0,0,1,2.86-3.23,2.66,2.66,0,0,1,2.81,2.14h.07l4.49-3.16v2.59l-3.87,2.55v.75h3.87v2.23Zm4.61-3.43a1.37,1.37,0,0,0-1.49-1.44,1.33,1.33,0,0,0-1.41,1.4v1.29h2.9Z"/><path class="cls-3" d="M374.36,233.8a6,6,0,0,1-1.24,4l-1.77-1.22a4.32,4.32,0,0,0,1.18-2.91c0-.83-.37-1.4-.95-1.4s-1,.38-1.53,1.86c-.91,2.48-1.63,3.32-3.43,3.32s-2.82-1.46-2.82-3.64a5.47,5.47,0,0,1,1.15-3.5l1.84,1.06a4.42,4.42,0,0,0-1,2.54c0,.82.31,1.29.86,1.29s1-.61,1.57-2.19c.82-2.19,1.52-3.07,3.23-3.07C373.31,230,374.36,231.76,374.36,233.8Z"/><path class="cls-3" d="M506.31,423.6l3.19-.67a2.44,2.44,0,0,1,3.12,1.94,2.55,2.55,0,0,1-2.14,3.14l-1.39.29.58,2.8-1.72.36Zm3.72,3.11a1.12,1.12,0,0,0,.86-1.47,1.09,1.09,0,0,0-1.43-.88l-1.18.24.5,2.37Z"/><path class="cls-3" d="M518.56,429.38a4,4,0,0,1-4.92-3.27,4.12,4.12,0,0,1,8.06-1.67A4,4,0,0,1,518.56,429.38Zm-.27-1.5c1.26-.26,2.07-1.34,1.72-3a2.41,2.41,0,0,0-3-2,2.22,2.22,0,0,0-1.71,2.88A2.45,2.45,0,0,0,518.29,427.88Z"/><path class="cls-3" d="M525.67,421.06l1.34,6.42-1.72.36L524,421.42l-2.21.46-.3-1.44,6.2-1.3.3,1.45Z"/><path class="cls-3" d="M530.3,426.79l-1.64-7.86,5-1,.29,1.42-3.26.68.39,1.86,3.05-.63.28,1.35-3,.64.38,1.8,3.46-.73.3,1.42Z"/><path class="cls-3" d="M542.41,424.27l-4.9-4.13,1,4.93-1.6.34-1.64-7.86,1.31-.28,4.81,4-1-4.82,1.57-.33,1.64,7.86Z"/><path class="cls-3" d="M547.24,416.56l1.34,6.42-1.73.36-1.34-6.42-2.2.46-.31-1.44,6.21-1.3.3,1.45Z"/><path class="cls-3" d="M551.92,422.28l-1.64-7.86,1.73-.36,1.64,7.86Z"/><path class="cls-3" d="M560.15,420.56l-.85-1.29-2.79.58-.23,1.52-1.72.36,1.55-8.55,1.15-.24,4.72,7.24Zm-3.07-4.93-.46,2.92,2.06-.43Z"/><path class="cls-3" d="M562.85,420l-1.64-7.86,1.73-.36,1.34,6.44,3.37-.71.3,1.43Z"/><path class="cls-3" d="M578.09,413.83a3.14,3.14,0,0,1-2.72,3.69,3.1,3.1,0,0,1-3.93-2.3l-1-5,1.67-.35,1,4.92a1.69,1.69,0,0,0,3.3-.69l-1-4.92,1.68-.35Z"/><path class="cls-3" d="M583.05,415.92a4.73,4.73,0,0,1-3.31-.31l.65-1.55a3.45,3.45,0,0,0,2.43.43c.63-.13,1-.5.92-.95s-.44-.69-1.67-.88c-2.06-.3-2.82-.71-3.11-2.11s.67-2.39,2.35-2.74a4.29,4.29,0,0,1,2.88.32l-.53,1.58a3.44,3.44,0,0,0-2.11-.38c-.63.13-.94.44-.85.86s.62.65,1.93.86c1.81.28,2.6.68,2.88,2S584.62,415.59,583.05,415.92Z"/><path class="cls-3" d="M587.39,414.88,585.75,407l5-1,.29,1.42-3.26.68.39,1.87,3-.64.28,1.36-3.05.63.38,1.8,3.47-.72.29,1.42Z"/><path class="cls-3" d="M592.39,405.63l3-.62a2.31,2.31,0,0,1,3,1.67,2.11,2.11,0,0,1-1.2,2.51v.06l3.15,2.94-2,.41L595.7,410l-.58.12.62,3-1.71.36Zm3.37,3a1.07,1.07,0,0,0,.87-1.37,1,1,0,0,0-1.3-.86l-1,.2.47,2.23Z"/><path class="cls-3" d="M603.77,411.59a4.78,4.78,0,0,1-3.32-.3l.66-1.56a3.39,3.39,0,0,0,2.43.44c.63-.13,1-.51.92-1s-.44-.68-1.68-.87c-2-.3-2.81-.72-3.1-2.11s.67-2.4,2.35-2.75a4.3,4.3,0,0,1,2.88.32l-.53,1.58a3.51,3.51,0,0,0-2.11-.37c-.64.13-.94.44-.86.86s.62.65,1.94.85c1.81.29,2.6.69,2.87,2S605.34,411.27,603.77,411.59Z"/><path class="cls-3" d="M660.3,449.11l-3.15-2.33-.38,1,.76,2.23-1.66.57-2.59-7.6,1.66-.57,1.17,3.45,1.51-4.36,1.83-.62-1.5,4.29,4.43,3.19Z"/><path class="cls-3" d="M663.32,448.08l-2.59-7.6,1.67-.57,2.59,7.61Z"/><path class="cls-3" d="M672.09,445.1l-5.37-3.5,1.63,4.77-1.55.53-2.59-7.6,1.27-.44,5.26,3.42-1.59-4.67,1.52-.52,2.59,7.61Z"/><path class="cls-3" d="M675,444.09l-2.59-7.6,4.79-1.63.47,1.37-3.15,1.08.61,1.8,3-1,.44,1.31-2.94,1,.59,1.74,3.35-1.14.47,1.37Z"/><path class="cls-3" d="M682.35,434.67l2.12,6.21-1.67.57-2.11-6.21-2.14.73-.47-1.4,6-2,.48,1.39Z"/><path class="cls-3" d="M687.7,439.78l-2.59-7.61,1.67-.56,2.59,7.6Z"/><path class="cls-3" d="M694.54,437.59a4.15,4.15,0,0,1-2.67-7.86,3.75,3.75,0,0,1,3.59.28l-.88,1.43a2.37,2.37,0,0,0-2.16-.2,2.17,2.17,0,0,0-1.33,3.05,2.38,2.38,0,0,0,3.14,1.76,2.22,2.22,0,0,0,1.56-1.64l1.49.42A3.88,3.88,0,0,1,694.54,437.59Z"/><path class="cls-3" d="M707.3,430a3.13,3.13,0,0,1-2.24,4,3.09,3.09,0,0,1-4.18-1.8l-1.65-4.84,1.62-.55,1.62,4.76a1.55,1.55,0,0,0,2.08,1,1.57,1.57,0,0,0,1.11-2.05L704,425.73l1.63-.56Z"/><path class="cls-3" d="M712.49,431.47a4.69,4.69,0,0,1-3.33.1l.46-1.62a3.41,3.41,0,0,0,2.46.14c.62-.21.95-.63.8-1.07s-.52-.62-1.77-.66c-2.07-.05-2.88-.37-3.33-1.71s.37-2.46,2-3a4.33,4.33,0,0,1,2.89,0l-.32,1.63a3.54,3.54,0,0,0-2.15-.11c-.61.21-.88.55-.74,1s.69.56,2,.61c1.84.06,2.67.36,3.1,1.63S714,431,712.49,431.47Z"/><path class="cls-3" d="M716.67,429.91l-2.59-7.61,4.79-1.63.47,1.38-3.16,1.07.62,1.8,3-1,.44,1.31-2.94,1,.59,1.73,3.35-1.14.47,1.38Z"/><path class="cls-3" d="M720.5,420.12l2.88-1a2.31,2.31,0,0,1,3.13,1.3,2.11,2.11,0,0,1-.88,2.64v.05l3.49,2.53-1.93.66-2.88-2.23-.56.19,1,2.88-1.65.56Zm3.71,2.56a1.07,1.07,0,0,0,.7-1.47,1,1,0,0,0-1.4-.7l-1,.33.74,2.15Z"/><path class="cls-3" d="M732.52,424.65a4.77,4.77,0,0,1-3.32.1l.45-1.63a3.39,3.39,0,0,0,2.47.14c.61-.21,1-.63.8-1.06s-.53-.62-1.77-.66c-2.08-.05-2.88-.37-3.34-1.72s.37-2.46,2-3a4.24,4.24,0,0,1,2.9,0l-.33,1.63a3.51,3.51,0,0,0-2.14-.12c-.62.21-.88.56-.74,1s.69.57,2,.62c1.83.06,2.66.35,3.1,1.62S734,424.13,732.52,424.65Z"/><circle class="cls-3" cx="444.37" cy="482.46" r="6"/><line class="cls-4" x1="444.37" y1="484.46" x2="444.37" y2="569.46"/><path class="cls-3" d="M471,716a1.62,1.62,0,0,0-.38,1.13,1.86,1.86,0,0,0,1.84,1.82h3.79v1.12h-6.48v-1h1.53a2.39,2.39,0,0,1-1.67-2.37,2.08,2.08,0,0,1,.34-1.29Z"/><path class="cls-3" d="M476.35,711.58A3.18,3.18,0,0,1,473,715a3.3,3.3,0,0,1-3.38-3.33c0-1.93,1.39-3.21,3.75-3.21v5.41a2.09,2.09,0,0,0,2-2.22,2.62,2.62,0,0,0-.94-2.16l.78-.69A3.41,3.41,0,0,1,476.35,711.58Zm-3.85-2a2,2,0,0,0-1.94,2.09,2.15,2.15,0,0,0,1.94,2.17Z"/><path class="cls-3" d="M466.62,707v-1.13h7.75a.81.81,0,0,0,.91-.86,2,2,0,0,0-.07-.6l1,0a3.78,3.78,0,0,1,.1.87,1.57,1.57,0,0,1-1.57,1.75Z"/><path class="cls-3" d="M476.35,700.29a3.18,3.18,0,0,1-3.37,3.4,3.3,3.3,0,0,1-3.38-3.33c0-1.93,1.39-3.21,3.75-3.21v5.41a2.09,2.09,0,0,0,2-2.22,2.6,2.6,0,0,0-.94-2.16l.78-.7A3.44,3.44,0,0,1,476.35,700.29Zm-3.85-2a2,2,0,0,0-1.94,2.09,2.15,2.15,0,0,0,1.94,2.17Z"/><path class="cls-3" d="M476.22,691.46h-.89a3,3,0,0,1,1,2.41c0,1.4-.72,2.25-1.88,2.25-1.46,0-2.23-1.19-2.34-3.11l-.1-1.54h-.09c-.94,0-1.36.58-1.36,1.56a4.3,4.3,0,0,0,.72,2.21l-.81.46a4.81,4.81,0,0,1-.88-2.81c0-1.57.68-2.53,2.33-2.53h4.32Zm-3.36,0,.08,1.69c.06,1.05.48,1.8,1.36,1.8.7,0,1.14-.59,1.14-1.47a2.63,2.63,0,0,0-.94-2Z"/><path class="cls-3" d="M476.35,686.21a4.43,4.43,0,0,1-.84,2.79l-.76-.51a4.2,4.2,0,0,0,.7-2.22,1.12,1.12,0,0,0-1-1.24c-.47,0-.83.36-1.2,1.68-.43,1.54-1.11,2-2,2-1.05,0-1.7-1-1.7-2.3a3.9,3.9,0,0,1,.68-2.39l.85.42a3.44,3.44,0,0,0-.64,1.88c0,.66.33,1.25.82,1.25s.73-.2,1.14-1.57,1-2.13,2-2.13A2.08,2.08,0,0,1,476.35,686.21Z"/><path class="cls-3" d="M476.35,679.52a3.17,3.17,0,0,1-3.37,3.39,3.29,3.29,0,0,1-3.38-3.32c0-1.93,1.39-3.21,3.75-3.21v5.41a2.09,2.09,0,0,0,2-2.22,2.59,2.59,0,0,0-.94-2.16l.78-.7A3.42,3.42,0,0,1,476.35,679.52Zm-3.85-2a2,2,0,0,0-1.94,2.09,2.15,2.15,0,0,0,1.94,2.17Z"/><path class="cls-3" d="M476.35,668.75a3.25,3.25,0,0,1-3.35,3.34,3.38,3.38,0,0,1-3.4-3.37,3.21,3.21,0,0,1,3.23-3.41A3.43,3.43,0,0,1,476.35,668.75Zm-1-.07a2.27,2.27,0,0,0-2.46-2.2,2.22,2.22,0,1,0,.12,4.43A2.18,2.18,0,0,0,475.35,668.68Z"/><path class="cls-3" d="M470.7,662.27h5.52v1.13H470.7v1.24h-1V663.4h-1.18a1.86,1.86,0,0,1-2-1.82,2.48,2.48,0,0,1,.33-1.31l.92.3a2.26,2.26,0,0,0-.19.84c0,.5.53.86,1.16.86h.94v-1.63h1Z"/><path class="cls-3" d="M476.35,653.66c0,1.74-1.29,3-3.4,3a3.2,3.2,0,0,1-3.35-3.1,2.42,2.42,0,0,1,1.46-2.22h-4.44v-1.07h9.6v1h-1.55A2.6,2.6,0,0,1,476.35,653.66Zm-1-.22a2.2,2.2,0,0,0-2.47-2.1,2.12,2.12,0,0,0-2.39,2.06c0,1.28,1,2.09,2.43,2.09S475.4,654.74,475.4,653.44Z"/><path class="cls-3" d="M476.35,645.3a3.18,3.18,0,0,1-3.37,3.39,3.3,3.3,0,0,1-3.38-3.32c0-1.93,1.39-3.22,3.75-3.22v5.41a2.09,2.09,0,0,0,2-2.22,2.62,2.62,0,0,0-.94-2.16l.78-.69A3.42,3.42,0,0,1,476.35,645.3Zm-3.85-2a2,2,0,0,0-1.94,2.08,2.14,2.14,0,0,0,1.94,2.17Z"/><path class="cls-3" d="M476.35,638.36a4.4,4.4,0,0,1-.84,2.78l-.76-.5a4.23,4.23,0,0,0,.7-2.22c0-.7-.42-1.25-1-1.25s-.83.36-1.2,1.68c-.43,1.55-1.11,2-2,2-1.05,0-1.7-1-1.7-2.31a3.84,3.84,0,0,1,.68-2.38l.85.42a3.42,3.42,0,0,0-.64,1.88c0,.66.33,1.25.82,1.25s.73-.21,1.14-1.57c.46-1.53,1-2.14,2-2.14A2.08,2.08,0,0,1,476.35,638.36Z"/><path class="cls-3" d="M467,634.53v-1.2h1.26v1.2Zm2.71,0v-1.12h6.48v1.12Z"/><path class="cls-3" d="M476.16,628.78a3,3,0,0,1-3.23,3,3,3,0,0,1-3.31-3,2.38,2.38,0,0,1,1.52-2.35h-1.4v-1h5.55a3.31,3.31,0,0,1,3.35,3.51,4.26,4.26,0,0,1-.53,2.39l-.93-.51a3.42,3.42,0,0,0,.5-1.79,2.29,2.29,0,0,0-2.35-2.52h-.88A2.53,2.53,0,0,1,476.16,628.78Zm-.93-.28a2.13,2.13,0,0,0-2.38-2,2,2,0,0,0-2.24,2,2.13,2.13,0,0,0,2.39,2.12A2,2,0,0,0,475.23,628.5Z"/><path class="cls-3" d="M476.22,618.8h-4.44c-.78,0-1.21.72-1.21,1.5a1.76,1.76,0,0,0,1.62,1.91h4v1.12h-6.48v-1h1.4a2.42,2.42,0,0,1-1.54-2.42,2,2,0,0,1,1.83-2.25h4.79Z"/><path class="cls-3" d="M476.22,608.29h-.89a3,3,0,0,1,1,2.41c0,1.4-.72,2.25-1.88,2.25-1.46,0-2.23-1.2-2.34-3.11l-.1-1.54h-.09c-.94,0-1.36.58-1.36,1.56a4.3,4.3,0,0,0,.72,2.21l-.81.46a4.81,4.81,0,0,1-.88-2.81c0-1.58.68-2.53,2.33-2.53h4.32Zm-3.36,0,.08,1.69c.06,1,.48,1.8,1.36,1.8.7,0,1.14-.59,1.14-1.47a2.63,2.63,0,0,0-.94-2Z"/><path class="cls-3" d="M469.74,605.26v-1h1.65a2.35,2.35,0,0,1-1.77-2.44c0-1.75,1.22-2.93,3.26-2.93s3.42,1.27,3.42,3a2.29,2.29,0,0,1-1.56,2.31h3.8v1.13Zm5.61-3.19a2.2,2.2,0,0,0-2.44-2c-1.34,0-2.35.7-2.35,2s.79,2.15,2.43,2.15A2.07,2.07,0,0,0,475.35,602.07Z"/><path class="cls-3" d="M469.74,597.29v-1h1.65a2.37,2.37,0,0,1-1.77-2.45c0-1.75,1.22-2.93,3.26-2.93s3.42,1.27,3.42,3a2.31,2.31,0,0,1-1.56,2.32h3.8v1.12Zm5.61-3.19a2.19,2.19,0,0,0-2.44-2c-1.34,0-2.35.69-2.35,2s.79,2.15,2.43,2.15A2.07,2.07,0,0,0,475.35,594.1Z"/><path class="cls-3" d="M476.35,587.11a4.42,4.42,0,0,1-.84,2.78l-.76-.5a4.23,4.23,0,0,0,.7-2.22c0-.7-.42-1.25-1-1.25s-.83.36-1.2,1.68c-.43,1.55-1.11,2-2,2-1.05,0-1.7-1-1.7-2.31a3.84,3.84,0,0,1,.68-2.38l.85.42a3.39,3.39,0,0,0-.64,1.88c0,.66.33,1.25.82,1.25s.73-.21,1.14-1.58,1-2.13,2-2.13A2.08,2.08,0,0,1,476.35,587.11Z"/><circle class="cls-3" cx="472.37" cy="482.46" r="6"/><line class="cls-4" x1="471.87" y1="484.46" x2="471.87" y2="569.46"/><path class="cls-3" d="M544,639.93a1.64,1.64,0,0,0-.38,1.14,1.85,1.85,0,0,0,1.84,1.81h3.79V644h-6.48v-1h1.53a2.38,2.38,0,0,1-1.67-2.36,2.11,2.11,0,0,1,.34-1.3Z"/><path class="cls-3" d="M549.35,635.48a3.17,3.17,0,0,1-3.37,3.39,3.29,3.29,0,0,1-3.38-3.32c0-1.93,1.39-3.21,3.75-3.21v5.41a2.09,2.09,0,0,0,2-2.22,2.59,2.59,0,0,0-.94-2.16l.78-.7A3.44,3.44,0,0,1,549.35,635.48Zm-3.85-2a2,2,0,0,0-1.94,2.09,2.15,2.15,0,0,0,1.94,2.17Z"/><path class="cls-3" d="M539.62,630.85v-1.13h7.75a.81.81,0,0,0,.91-.86,2,2,0,0,0-.07-.6l1,0a3.71,3.71,0,0,1,.1.87,1.57,1.57,0,0,1-1.57,1.75Z"/><path class="cls-3" d="M549.35,624.19a3.17,3.17,0,0,1-3.37,3.39,3.29,3.29,0,0,1-3.38-3.32c0-1.93,1.39-3.21,3.75-3.21v5.4a2.08,2.08,0,0,0,2-2.21,2.59,2.59,0,0,0-.94-2.16l.78-.7A3.42,3.42,0,0,1,549.35,624.19Zm-3.85-2a2,2,0,0,0-1.94,2.09,2.15,2.15,0,0,0,1.94,2.17Z"/><path class="cls-3" d="M549.22,615.36h-.89a2.94,2.94,0,0,1,1,2.41c0,1.4-.72,2.25-1.88,2.25-1.46,0-2.23-1.2-2.34-3.12l-.1-1.53h-.09c-.94,0-1.36.57-1.36,1.56a4.27,4.27,0,0,0,.72,2.2l-.81.47a4.82,4.82,0,0,1-.88-2.82c0-1.57.68-2.53,2.33-2.53h4.32Zm-3.36,0,.08,1.7c.06,1.05.48,1.79,1.36,1.79.7,0,1.14-.58,1.14-1.46a2.65,2.65,0,0,0-.94-2Z"/><path class="cls-3" d="M549.35,610.11a4.4,4.4,0,0,1-.84,2.78l-.76-.5a4.2,4.2,0,0,0,.7-2.22,1.13,1.13,0,0,0-1-1.25c-.47,0-.83.36-1.2,1.68-.43,1.55-1.11,2-2,2-1,0-1.7-1-1.7-2.3a3.88,3.88,0,0,1,.68-2.39l.85.42a3.44,3.44,0,0,0-.64,1.88c0,.66.33,1.25.82,1.25s.73-.2,1.14-1.57c.46-1.53,1-2.14,2-2.14A2.09,2.09,0,0,1,549.35,610.11Z"/><path class="cls-3" d="M549.35,603.42a3.18,3.18,0,0,1-3.37,3.39,3.3,3.3,0,0,1-3.38-3.32c0-1.93,1.39-3.22,3.75-3.22v5.41a2.09,2.09,0,0,0,2-2.22,2.58,2.58,0,0,0-.94-2.15l.78-.7A3.42,3.42,0,0,1,549.35,603.42Zm-3.85-2a2,2,0,0,0-1.94,2.08,2.16,2.16,0,0,0,1.94,2.18Z"/><path class="cls-3" d="M549.35,592.65A3.25,3.25,0,0,1,546,596a3.38,3.38,0,0,1-3.4-3.37,3.21,3.21,0,0,1,3.23-3.41A3.43,3.43,0,0,1,549.35,592.65Zm-1-.07a2.27,2.27,0,0,0-2.46-2.21,2.22,2.22,0,1,0,.12,4.44A2.18,2.18,0,0,0,548.35,592.58Z"/><path class="cls-3" d="M543.7,586.17h5.52v1.13H543.7v1.23h-1V587.3h-1.18a1.86,1.86,0,0,1-2-1.82,2.48,2.48,0,0,1,.33-1.31l.92.3a2.21,2.21,0,0,0-.19.84c0,.5.53.86,1.16.86h.94v-1.63h1Z"/><circle class="cls-3" cx="545.37" cy="482.46" r="6"/><line class="cls-4" x1="544.87" y1="484.46" x2="544.87" y2="569.46"/><path class="cls-3" d="M657,639.93a1.64,1.64,0,0,0-.38,1.14,1.85,1.85,0,0,0,1.84,1.81h3.79V644h-6.48v-1h1.53a2.38,2.38,0,0,1-1.67-2.36,2.11,2.11,0,0,1,.34-1.3Z"/><path class="cls-3" d="M662.35,635.48a3.17,3.17,0,0,1-3.37,3.39,3.29,3.29,0,0,1-3.38-3.32c0-1.93,1.39-3.21,3.75-3.21v5.41a2.09,2.09,0,0,0,2-2.22,2.59,2.59,0,0,0-.94-2.16l.78-.7A3.44,3.44,0,0,1,662.35,635.48Zm-3.85-2a2,2,0,0,0-1.94,2.09,2.15,2.15,0,0,0,1.94,2.17Z"/><path class="cls-3" d="M652.62,630.85v-1.13h7.75a.81.81,0,0,0,.91-.86,2,2,0,0,0-.07-.6l1,0a3.71,3.71,0,0,1,.1.87,1.57,1.57,0,0,1-1.57,1.75Z"/><path class="cls-3" d="M662.35,624.19a3.17,3.17,0,0,1-3.37,3.39,3.29,3.29,0,0,1-3.38-3.32c0-1.93,1.39-3.21,3.75-3.21v5.4a2.08,2.08,0,0,0,2-2.21,2.59,2.59,0,0,0-.94-2.16l.78-.7A3.42,3.42,0,0,1,662.35,624.19Zm-3.85-2a2,2,0,0,0-1.94,2.09,2.15,2.15,0,0,0,1.94,2.17Z"/><path class="cls-3" d="M662.22,615.36h-.89a2.94,2.94,0,0,1,1,2.41c0,1.4-.72,2.25-1.88,2.25-1.46,0-2.23-1.2-2.34-3.12l-.1-1.53h-.09c-.94,0-1.36.57-1.36,1.56a4.27,4.27,0,0,0,.72,2.2l-.81.47a4.82,4.82,0,0,1-.88-2.82c0-1.57.68-2.53,2.33-2.53h4.32Zm-3.36,0,.08,1.7c.06,1.05.48,1.79,1.36,1.79.7,0,1.14-.58,1.14-1.46a2.65,2.65,0,0,0-.94-2Z"/><path class="cls-3" d="M662.35,610.11a4.4,4.4,0,0,1-.84,2.78l-.76-.5a4.2,4.2,0,0,0,.7-2.22,1.13,1.13,0,0,0-1-1.25c-.47,0-.83.36-1.2,1.68-.43,1.55-1.11,2-2,2-1,0-1.7-1-1.7-2.3a3.88,3.88,0,0,1,.68-2.39l.85.42a3.44,3.44,0,0,0-.64,1.88c0,.66.33,1.25.82,1.25s.73-.2,1.14-1.57c.46-1.53,1-2.14,2-2.14A2.09,2.09,0,0,1,662.35,610.11Z"/><path class="cls-3" d="M662.35,603.42a3.18,3.18,0,0,1-3.37,3.39,3.3,3.3,0,0,1-3.38-3.32c0-1.93,1.39-3.22,3.75-3.22v5.41a2.09,2.09,0,0,0,2-2.22,2.58,2.58,0,0,0-.94-2.15l.78-.7A3.42,3.42,0,0,1,662.35,603.42Zm-3.85-2a2,2,0,0,0-1.94,2.08,2.16,2.16,0,0,0,1.94,2.18Z"/><path class="cls-3" d="M662.35,592.65A3.25,3.25,0,0,1,659,596a3.38,3.38,0,0,1-3.4-3.37,3.21,3.21,0,0,1,3.23-3.41A3.43,3.43,0,0,1,662.35,592.65Zm-1-.07a2.27,2.27,0,0,0-2.46-2.21,2.22,2.22,0,1,0,.12,4.44A2.18,2.18,0,0,0,661.35,592.58Z"/><path class="cls-3" d="M656.7,586.17h5.52v1.13H656.7v1.23h-1V587.3h-1.18a1.86,1.86,0,0,1-2-1.82,2.48,2.48,0,0,1,.33-1.31l.92.3a2.21,2.21,0,0,0-.19.84c0,.5.53.86,1.16.86h.94v-1.63h1Z"/><circle class="cls-3" cx="658.37" cy="482.46" r="6"/><line class="cls-4" x1="657.87" y1="484.46" x2="657.87" y2="569.46"/><path class="cls-3" d="M919.29,664.26v.79l-8.83,3.56v-1.32l6.86-2.65-6.86-2.79V660.6Z"/><path class="cls-3" d="M911.5,658.24h2.8v-3.32h1v3.32h3.9v1.2h-8.76v-4.7h1Z"/><path class="cls-3" d="M919.35,647.1a3.25,3.25,0,0,1-3.35,3.33,3.39,3.39,0,0,1-3.41-3.37,3.21,3.21,0,0,1,3.24-3.41A3.43,3.43,0,0,1,919.35,647.1Zm-1-.08a2.27,2.27,0,0,0-2.46-2.2,2.22,2.22,0,1,0,.12,4.43A2.18,2.18,0,0,0,918.35,647Z"/><path class="cls-3" d="M919.22,637.54h-4.44c-.78,0-1.21.72-1.21,1.5a1.75,1.75,0,0,0,1.62,1.91h4v1.13h-6.48v-1h1.4a2.44,2.44,0,0,1-1.55-2.43,2,2,0,0,1,1.84-2.25h4.79Z"/><path class="cls-3" d="M918.93,627.82a2.5,2.5,0,0,1,.36,1.4,1.7,1.7,0,0,1-1.92,1.81h-3.71v1h-.92v-1H911l-.14-1.12h1.86v-1.82h.92v1.82h3.65c.62,0,1-.29,1-.84A2.64,2.64,0,0,0,918,628Z"/><path class="cls-3" d="M919.22,622h-4.38c-.81,0-1.27.67-1.27,1.52a1.72,1.72,0,0,0,1.6,1.89h4.05v1.12h-9.6v-1H914a2.28,2.28,0,0,1-1.41-2.36,2,2,0,0,1,1.91-2.26h4.72Z"/><path class="cls-3" d="M919.35,616a3.17,3.17,0,0,1-3.37,3.39,3.3,3.3,0,0,1-3.39-3.32c0-1.93,1.4-3.21,3.76-3.21v5.41a2.09,2.09,0,0,0,2-2.22,2.59,2.59,0,0,0-.94-2.16l.78-.7A3.44,3.44,0,0,1,919.35,616Zm-3.85-2a2,2,0,0,0-2,2.09,2.16,2.16,0,0,0,2,2.17Z"/><path class="cls-3" d="M915.22,604.4l4,1.74v.67l-6.51,2.27V607.9l4.78-1.58-3.95-1.61V604l3.92-1.46L912.74,601V599.9l6.51,2.27v.67Z"/><path class="cls-3" d="M919.35,595.94a3.17,3.17,0,0,1-3.37,3.39,3.3,3.3,0,0,1-3.39-3.32c0-1.93,1.4-3.21,3.76-3.21v5.41a2.09,2.09,0,0,0,2-2.22,2.59,2.59,0,0,0-.94-2.16l.78-.7A3.45,3.45,0,0,1,919.35,595.94Zm-3.85-2a2,2,0,0,0-2,2.09,2.16,2.16,0,0,0,2,2.17Z"/><path class="cls-3" d="M919.3,587.76a2.3,2.3,0,0,1-1.61,2.38h1.53v1.08h-9.6v-1h4.71a2.36,2.36,0,0,1-1.71-2.47c0-1.71,1.26-2.89,3.23-2.89C918,584.84,919.3,586.17,919.3,587.76Zm-.95.28a2.19,2.19,0,0,0-2.42-2c-1.4,0-2.38.71-2.38,2.07,0,1.18.78,2.11,2.46,2.11A2.07,2.07,0,0,0,918.35,588Z"/><circle class="cls-3" cx="915.37" cy="482.46" r="6"/><line class="cls-4" x1="914.87" y1="484.46" x2="914.87" y2="569.46"/><path class="cls-3" d="M952.35,594.34a3.25,3.25,0,0,1-3.35,3.34,3.38,3.38,0,0,1-3.4-3.37,3.21,3.21,0,0,1,3.23-3.41A3.43,3.43,0,0,1,952.35,594.34Zm-1-.07a2.26,2.26,0,0,0-2.46-2.2,2.22,2.22,0,1,0,.12,4.43A2.18,2.18,0,0,0,951.35,594.27Z"/><path class="cls-3" d="M952.35,587.11a4.42,4.42,0,0,1-.84,2.78l-.76-.5a4.23,4.23,0,0,0,.7-2.22c0-.7-.42-1.25-1-1.25s-.83.36-1.2,1.68c-.43,1.55-1.11,2-2,2-1,0-1.7-1-1.7-2.31a3.84,3.84,0,0,1,.68-2.38l.85.42a3.39,3.39,0,0,0-.64,1.88c0,.66.33,1.25.82,1.25s.73-.21,1.14-1.58,1-2.13,2-2.13A2.08,2.08,0,0,1,952.35,587.11Z"/><circle class="cls-3" cx="948.37" cy="482.46" r="6"/><line class="cls-4" x1="947.87" y1="484.46" x2="947.87" y2="569.46"/><path class="cls-3" d="M817,699.27a1.64,1.64,0,0,0-.38,1.14,1.85,1.85,0,0,0,1.84,1.81h3.79v1.13h-6.48v-1h1.53a2.39,2.39,0,0,1-1.68-2.36,2.11,2.11,0,0,1,.35-1.3Z"/><path class="cls-3" d="M822.35,694.82a3.17,3.17,0,0,1-3.37,3.39,3.3,3.3,0,0,1-3.39-3.32c0-1.93,1.4-3.21,3.76-3.21v5.41a2.09,2.09,0,0,0,2-2.22,2.59,2.59,0,0,0-.94-2.16l.78-.7A3.42,3.42,0,0,1,822.35,694.82Zm-3.85-2a2,2,0,0,0-2,2.09,2.16,2.16,0,0,0,2,2.17Z"/><path class="cls-3" d="M812.62,690.19v-1.13h7.75a.82.82,0,0,0,.91-.87,2.06,2.06,0,0,0-.07-.6l1,0a3.69,3.69,0,0,1,.1.86,1.57,1.57,0,0,1-1.57,1.76Z"/><path class="cls-3" d="M822.35,683.53a3.18,3.18,0,0,1-3.37,3.39,3.31,3.31,0,0,1-3.39-3.32c0-1.93,1.4-3.22,3.76-3.22v5.41a2.08,2.08,0,0,0,2-2.21,2.59,2.59,0,0,0-.94-2.16l.78-.7A3.42,3.42,0,0,1,822.35,683.53Zm-3.85-2a2,2,0,0,0-2,2.08,2.16,2.16,0,0,0,2,2.18Z"/><path class="cls-3" d="M822.22,674.7h-.89a2.94,2.94,0,0,1,1,2.41c0,1.4-.72,2.25-1.88,2.25-1.46,0-2.23-1.2-2.34-3.12l-.1-1.53h-.09c-.94,0-1.36.57-1.36,1.56a4.27,4.27,0,0,0,.72,2.2l-.81.47a4.82,4.82,0,0,1-.88-2.82c0-1.57.68-2.53,2.33-2.53h4.32Zm-3.36,0,.08,1.69c.06,1.06.48,1.8,1.36,1.8.7,0,1.14-.58,1.14-1.46a2.65,2.65,0,0,0-.94-2Z"/><path class="cls-3" d="M822.35,669.45a4.4,4.4,0,0,1-.84,2.78l-.76-.5a4.2,4.2,0,0,0,.7-2.22,1.13,1.13,0,0,0-1-1.25c-.47,0-.83.36-1.2,1.68-.43,1.55-1.11,2-2,2-1,0-1.71-1-1.71-2.31a3.86,3.86,0,0,1,.69-2.38l.85.42a3.44,3.44,0,0,0-.64,1.88c0,.66.33,1.25.82,1.25s.73-.21,1.14-1.57c.46-1.53,1-2.14,2-2.14A2.09,2.09,0,0,1,822.35,669.45Z"/><path class="cls-3" d="M822.35,662.76a3.18,3.18,0,0,1-3.37,3.39,3.31,3.31,0,0,1-3.39-3.32c0-1.93,1.4-3.22,3.76-3.22V665a2.09,2.09,0,0,0,2-2.22,2.62,2.62,0,0,0-.94-2.16l.78-.69A3.42,3.42,0,0,1,822.35,662.76Zm-3.85-2a2,2,0,0,0-2,2.08,2.16,2.16,0,0,0,2,2.17Z"/><path class="cls-3" d="M822.35,652a3.25,3.25,0,0,1-3.35,3.34,3.4,3.4,0,0,1-3.41-3.38,3.21,3.21,0,0,1,3.24-3.4A3.43,3.43,0,0,1,822.35,652Zm-1-.07a2.27,2.27,0,0,0-2.46-2.21,2.22,2.22,0,1,0,.12,4.44A2.18,2.18,0,0,0,821.35,651.92Z"/><path class="cls-3" d="M816.7,645.51h5.52v1.13H816.7v1.23h-1v-1.23h-1.18a1.86,1.86,0,0,1-2-1.82,2.48,2.48,0,0,1,.33-1.31l.92.3a2.21,2.21,0,0,0-.19.84c0,.5.53.86,1.16.86h.94v-1.63h1Z"/><path class="cls-3" d="M822.3,635.89a2.32,2.32,0,0,1-1.61,2.39h1.53v1.07h-9.6v-1h4.71a2.36,2.36,0,0,1-1.71-2.47c0-1.71,1.26-2.89,3.23-2.89C821,633,822.3,634.3,822.3,635.89Zm-.95.29a2.19,2.19,0,0,0-2.42-2.06c-1.4,0-2.38.71-2.38,2.07,0,1.18.78,2.11,2.46,2.11A2.07,2.07,0,0,0,821.35,636.18Z"/><path class="cls-3" d="M817,627.32a1.64,1.64,0,0,0-.38,1.14,1.85,1.85,0,0,0,1.84,1.81h3.79v1.13h-6.48v-1h1.53a2.39,2.39,0,0,1-1.68-2.36,2.11,2.11,0,0,1,.35-1.3Z"/><path class="cls-3" d="M822.35,622.93a3.25,3.25,0,0,1-3.35,3.33,3.39,3.39,0,0,1-3.41-3.37,3.21,3.21,0,0,1,3.24-3.4A3.42,3.42,0,0,1,822.35,622.93Zm-1-.07a2.27,2.27,0,0,0-2.46-2.21,2.23,2.23,0,1,0,2.46,2.21Z"/><path class="cls-3" d="M818.22,614.24l4,1.74v.67l-6.51,2.27v-1.18l4.78-1.58-3.95-1.61v-.72l3.92-1.46-4.75-1.55v-1.08l6.51,2.27v.67Z"/><path class="cls-3" d="M822.35,606.42a4.42,4.42,0,0,1-.84,2.78l-.76-.51a4.17,4.17,0,0,0,.7-2.21c0-.7-.42-1.25-1-1.25s-.83.36-1.2,1.68c-.43,1.54-1.11,2-2,2-1,0-1.71-1-1.71-2.3a3.89,3.89,0,0,1,.69-2.39l.85.42a3.45,3.45,0,0,0-.64,1.89c0,.66.33,1.24.82,1.24s.73-.2,1.14-1.57,1-2.13,2-2.13A2.08,2.08,0,0,1,822.35,606.42Z"/><path class="cls-3" d="M822.35,599.72a3.17,3.17,0,0,1-3.37,3.39,3.3,3.3,0,0,1-3.39-3.32c0-1.93,1.4-3.21,3.76-3.21V602a2.09,2.09,0,0,0,2-2.22,2.59,2.59,0,0,0-.94-2.16l.78-.7A3.44,3.44,0,0,1,822.35,599.72Zm-3.85-2a2,2,0,0,0-2,2.09,2.16,2.16,0,0,0,2,2.17Z"/><path class="cls-3" d="M817,590.92a1.66,1.66,0,0,0-.38,1.14,1.85,1.85,0,0,0,1.84,1.81h3.79V595h-6.48v-1h1.53a2.38,2.38,0,0,1-1.68-2.36,2.07,2.07,0,0,1,.35-1.29Z"/><path class="cls-3" d="M822.35,587.11a4.42,4.42,0,0,1-.84,2.78l-.76-.5a4.23,4.23,0,0,0,.7-2.22c0-.7-.42-1.25-1-1.25s-.83.36-1.2,1.68c-.43,1.55-1.11,2-2,2-1,0-1.71-1-1.71-2.31a3.83,3.83,0,0,1,.69-2.38l.85.42a3.39,3.39,0,0,0-.64,1.88c0,.66.33,1.25.82,1.25s.73-.21,1.14-1.58,1-2.13,2-2.13A2.08,2.08,0,0,1,822.35,587.11Z"/><circle class="cls-3" cx="818.37" cy="482.46" r="6"/><line class="cls-4" x1="817.87" y1="484.46" x2="817.87" y2="569.46"/></svg>