<?xml version="1.0" encoding="utf-8"?>
<!-- Generator: Adobe Illustrator 23.0.2, SVG Export Plug-In . SVG Version: 6.00 Build 0)  -->
<svg version="1.1" id="Layer_1" xmlns="http://www.w3.org/2000/svg" xmlns:xlink="http://www.w3.org/1999/xlink" x="0px" y="0px"
	 viewBox="0 0 340 192.58" style="enable-background:new 0 0 340 192.58;" xml:space="preserve">
<style type="text/css">
	.st0{fill:#231F20;}
	.st1{fill:none;stroke:#3366FF;stroke-width:0.75;stroke-miterlimit:10;}
</style>
<title>VFBR2019_WorkingContent</title>
<g>
	<g>
		<path class="st0" d="M25.61,60.2V27.95h86.98V60.2h-7.92l-2.52-23.76h-25.2l-1.37,1.44l-0.14,43.78l0.14,44.5l15.62,2.59v7.2
			H46.85v-7.2l15.77-2.59l0.14-44.5l-0.14-43.78l-0.65-1.44H36.05L33.53,60.2H25.61z"/>
		<path class="st0" d="M117.63,70.43v-6.48h30.53v6.48l-9.58,2.66L147,98.36l9.22,24.62l7.78-21.17l8.78-26.21l6.05,7.2l-8.86,23.26
			l-11.16,30.46h-8.5l-12.89-34.92l-11.3-28.66L117.63,70.43z M158.45,70.43v-6.48h30.02v6.48l-9.58,2.66l9.79,28.66l7.92,21.1
			l9.29-25.13l8.57-25.13l-9.86-2.16v-6.48h29.16v6.48l-10.66,2.52l-10.8,27.79l-12.67,35.78h-8.5l-11.66-31.68l-12.53-31.9
			L158.45,70.43z"/>
		<path class="st0" d="M239.09,99.95c0-10.42,3.43-19.28,10.29-26.6c6.86-7.32,15.86-10.98,27-10.98c11.18,0,20.24,3.42,27.18,10.26
			c6.94,6.84,10.4,15.8,10.4,26.89c0,10.37-3.41,19.3-10.22,26.78c-6.82,7.49-15.79,11.23-26.93,11.23
			c-11.18,0-20.27-3.47-27.25-10.4C242.58,120.19,239.09,111.13,239.09,99.95z M252.05,98.51c0.05,8.69,2.28,16.04,6.7,22.07
			c4.42,6.02,10.25,9.04,17.5,9.04c7.78,0,13.78-2.75,18-8.24c4.22-5.5,6.34-12.78,6.34-21.85c0-8.35-2.21-15.24-6.62-20.66
			c-4.42-5.42-10.27-8.14-17.57-8.14c-7.87,0-13.91,2.47-18.11,7.42C254.08,83.08,252,89.87,252.05,98.51z"/>
	</g>
	<rect x="25.32" y="27.42" class="st1" width="87.79" height="109.07"/>
	<rect x="238.81" y="62.1" class="st1" width="75.49" height="74.39"/>
	<rect x="117.24" y="63.61" class="st1" width="116.93" height="73.33"/>
</g>
<g>
	<path d="M98.02,168.26h-7.79v-11.68h2.85v9.36h4.94V168.26z"/>
	<path d="M107.43,168.26h-7.87v-11.68h7.57v2.3h-4.77v2.5h4.42v2.21h-4.42v2.37h5.07V168.26z"/>
	<path d="M117.83,158.93h-3.34v9.33h-2.85v-9.33h-3.25v-2.35h9.44V158.93z"/>
	<path d="M127.59,158.93h-3.34v9.33h-2.85v-9.33h-3.25v-2.35h9.44V158.93z"/>
	<path d="M136.93,168.26h-7.87v-11.68h7.57v2.3h-4.77v2.5h4.42v2.21h-4.42v2.37h5.07V168.26z"/>
	<path d="M139.04,168.26v-11.68h4.67c0.65,0,1.26,0.12,1.84,0.38c0.58,0.25,1.04,0.62,1.41,1.11c0.36,0.49,0.54,1.1,0.54,1.82
		c0,0.99-0.26,1.74-0.78,2.26c-0.52,0.51-1.06,0.82-1.62,0.93l-0.02,0.08l3.65,5.1h-3.28l-2.82-4.27h-0.77v4.27H139.04z
		 M141.81,161.8h1.39c0.35,0,0.68-0.12,0.98-0.37c0.3-0.25,0.46-0.64,0.46-1.2c0-0.54-0.16-0.93-0.47-1.16s-0.64-0.34-0.97-0.34
		h-1.39V161.8z"/>
	<path d="M154.52,168.26v-11.68h4.8c1.07,0,1.91,0.25,2.54,0.74c0.62,0.49,0.94,1.19,0.94,2.1c0,0.75-0.21,1.34-0.63,1.79
		c-0.42,0.45-0.96,0.74-1.62,0.86c0.71,0.08,1.37,0.35,1.98,0.78c0.6,0.44,0.9,1.15,0.9,2.14c0,0.74-0.2,1.35-0.61,1.83
		c-0.41,0.49-0.94,0.85-1.59,1.08c-0.66,0.23-1.37,0.35-2.14,0.35H154.52z M157.19,161.37h1.49c0.48,0,0.83-0.15,1.04-0.46
		c0.21-0.3,0.32-0.62,0.32-0.95c0-0.35-0.13-0.64-0.38-0.87c-0.25-0.23-0.58-0.34-1-0.34h-1.47V161.37z M157.24,166.1h1.74
		c0.55,0,0.94-0.15,1.16-0.44c0.22-0.29,0.33-0.63,0.33-1c0-0.33-0.12-0.62-0.36-0.87c-0.24-0.25-0.62-0.38-1.13-0.38h-1.74V166.1z"
		/>
	<path d="M170.63,168.46c-1.23,0-2.29-0.27-3.2-0.82c-0.91-0.54-1.61-1.28-2.1-2.2c-0.49-0.92-0.74-1.95-0.74-3.1
		c0-1.17,0.27-2.21,0.8-3.1c0.53-0.9,1.25-1.59,2.14-2.1c0.89-0.5,1.88-0.75,2.97-0.75c1.17,0,2.22,0.25,3.13,0.75
		c0.91,0.5,1.63,1.2,2.15,2.1c0.52,0.9,0.78,1.94,0.78,3.12c0,1.25-0.27,2.33-0.82,3.24c-0.55,0.91-1.27,1.62-2.18,2.11
		C172.66,168.21,171.68,168.46,170.63,168.46z M170.68,165.99c0.56,0,1.08-0.13,1.55-0.39c0.47-0.26,0.84-0.66,1.11-1.18
		s0.41-1.19,0.41-1.99c0-0.7-0.15-1.31-0.44-1.83s-0.69-0.91-1.18-1.19s-1.05-0.42-1.67-0.42c-0.58,0-1.09,0.13-1.55,0.38
		s-0.82,0.63-1.09,1.13s-0.4,1.11-0.4,1.83c0,0.77,0.14,1.42,0.42,1.97s0.66,0.96,1.15,1.26
		C169.47,165.84,170.04,165.99,170.68,165.99z"/>
	<path d="M188.52,156.58v7.42c0,0.93-0.23,1.73-0.7,2.39c-0.46,0.67-1.08,1.18-1.85,1.53c-0.77,0.35-1.6,0.53-2.5,0.53
		c-0.88,0-1.71-0.17-2.47-0.51c-0.76-0.34-1.38-0.84-1.84-1.5c-0.46-0.66-0.7-1.47-0.7-2.43v-7.42h2.77v7.28
		c0,0.67,0.22,1.19,0.65,1.55s0.96,0.54,1.58,0.54c0.64,0,1.18-0.18,1.62-0.53c0.44-0.35,0.66-0.87,0.66-1.57v-7.28H188.52z"/>
	<path d="M201.12,168.26h-2l-5.39-6.85v6.85h-2.64v-11.68h2.16l5.26,6.67v-6.67h2.61V168.26z"/>
	<path d="M203.75,168.26v-11.68h4.35c1.98,0,3.48,0.53,4.49,1.58c1.01,1.06,1.51,2.44,1.51,4.16c0,1.65-0.54,3.06-1.62,4.21
		c-1.08,1.15-2.64,1.73-4.7,1.73H203.75z M206.6,166.07h1.18c1.19,0,2.05-0.38,2.57-1.14c0.52-0.76,0.78-1.62,0.78-2.58
		c0-1.07-0.26-1.93-0.78-2.59c-0.52-0.66-1.3-0.99-2.34-0.99h-1.41V166.07z"/>
	<path d="M225.84,168.26h-3.02l-0.72-1.81h-3.95l-0.67,1.81h-2.82l4.74-11.7h1.89L225.84,168.26z M221.51,164.47l-1.39-3.71
		l-1.38,3.71H221.51z"/>
	<path d="M227.06,168.26v-11.68h4.67c0.65,0,1.26,0.12,1.84,0.38c0.58,0.25,1.04,0.62,1.41,1.11c0.36,0.49,0.54,1.1,0.54,1.82
		c0,0.99-0.26,1.74-0.78,2.26c-0.52,0.51-1.06,0.82-1.62,0.93l-0.02,0.08l3.65,5.1h-3.28l-2.82-4.27h-0.77v4.27H227.06z
		 M229.83,161.8h1.39c0.35,0,0.68-0.12,0.98-0.37c0.3-0.25,0.46-0.64,0.46-1.2c0-0.54-0.16-0.93-0.47-1.16s-0.64-0.34-0.97-0.34
		h-1.39V161.8z"/>
	<path d="M240.88,168.26h-2.85v-11.68h2.85V168.26z"/>
	<path d="M251.46,168.26h-7.87v-11.68h7.57v2.3h-4.77v2.5h4.42v2.21h-4.42v2.37h5.07V168.26z"/>
	<path d="M257.46,168.46c-1.06,0-1.98-0.13-2.76-0.38c-0.79-0.26-1.45-0.6-1.99-1.04l1.47-2.26c0.34,0.32,0.81,0.63,1.41,0.92
		c0.6,0.29,1.26,0.44,2,0.44c0.43,0,0.76-0.08,1.02-0.24c0.25-0.16,0.38-0.39,0.38-0.69s-0.12-0.55-0.38-0.77
		c-0.25-0.21-0.79-0.47-1.61-0.77c-0.96-0.35-1.72-0.7-2.29-1.04c-0.57-0.34-0.97-0.74-1.22-1.2c-0.25-0.46-0.37-1.04-0.37-1.76
		c0-1.02,0.4-1.83,1.19-2.41c0.79-0.58,1.84-0.87,3.14-0.87c1.02,0,1.87,0.15,2.53,0.44c0.66,0.29,1.19,0.59,1.58,0.89l-1.29,2.32
		c-0.44-0.32-0.9-0.6-1.4-0.84c-0.5-0.24-1.01-0.36-1.53-0.36c-0.44,0-0.77,0.07-0.99,0.22c-0.22,0.14-0.34,0.36-0.34,0.63
		c0,0.32,0.18,0.59,0.54,0.8c0.36,0.21,0.98,0.49,1.86,0.82c1.25,0.46,2.15,0.94,2.72,1.45s0.85,1.27,0.85,2.28
		c0,1.11-0.45,1.96-1.35,2.54S258.67,168.46,257.46,168.46z"/>
</g>
</svg>
