<?xml version="1.0" encoding="utf-8"?>
<!-- Generator: Adobe Illustrator 23.0.2, SVG Export Plug-In . SVG Version: 6.00 Build 0)  -->
<svg version="1.1" id="Layer_1" xmlns="http://www.w3.org/2000/svg" xmlns:xlink="http://www.w3.org/1999/xlink" x="0px" y="0px"
	 viewBox="0 0 340 146.76" style="enable-background:new 0 0 340 146.76;" xml:space="preserve">
<style type="text/css">
	.st0{fill:#939598;}
	.st1{fill:none;stroke:#231F20;stroke-width:2;stroke-miterlimit:10;}
	.st2{fill:#231F20;}
	.st3{fill:#1F30FF;}
	.st4{fill:#E6E7E8;}
	.st5{fill:none;stroke:#414042;stroke-miterlimit:10;}
	.st6{fill:#FFFFFF;}
	.st7{fill:none;stroke:#1F30FF;stroke-miterlimit:10;}
	.st8{fill:#FFFFFF;stroke:#414042;stroke-miterlimit:10;}
	.st9{fill:none;stroke:#3366FF;stroke-miterlimit:10;stroke-dasharray:3,3;}
	.st10{fill:none;stroke:#3366FF;stroke-width:0.75;stroke-miterlimit:10;}
	.st11{opacity:0.3;fill:#3366FF;}
	.st12{fill:#ED1C24;}
	.st13{fill:none;stroke:#ED1C24;stroke-width:2;stroke-miterlimit:10;}
</style>
<g>
	<g>
		<path class="st2" d="M37.92,52.17V19.91h86.98v32.26h-7.92l-2.52-23.76h-25.2l-1.37,1.44l-0.14,43.78l0.14,44.5l15.62,2.59v7.2
			H59.16v-7.2l15.77-2.59l0.14-44.5l-0.14-43.78l-0.65-1.44H48.36l-2.52,23.76H37.92z"/>
		<path class="st2" d="M116.97,62.39v-6.48h30.53v6.48l-9.58,2.66l8.42,25.27l9.22,24.62l7.78-21.17l8.78-26.21l6.05,7.2
			l-8.86,23.26l-11.16,30.46h-8.5l-12.89-34.92l-11.3-28.66L116.97,62.39z M157.79,62.39v-6.48h30.02v6.48l-9.58,2.66l9.79,28.66
			l7.92,21.1l9.29-25.13l8.57-25.13l-9.86-2.16v-6.48h29.16v6.48l-10.66,2.52l-10.8,27.79l-12.67,35.78h-8.5l-11.66-31.68
			l-12.53-31.9L157.79,62.39z"/>
		<path class="st2" d="M225.47,91.91c0-10.42,3.43-19.28,10.3-26.6c6.86-7.32,15.86-10.98,27-10.98c11.18,0,20.24,3.42,27.18,10.26
			c6.94,6.84,10.4,15.8,10.4,26.89c0,10.37-3.41,19.3-10.22,26.78c-6.82,7.49-15.79,11.23-26.93,11.23
			c-11.18,0-20.27-3.47-27.25-10.4C228.97,112.16,225.47,103.1,225.47,91.91z M238.43,90.47c0.05,8.69,2.28,16.04,6.7,22.07
			c4.42,6.02,10.25,9.04,17.5,9.04c7.78,0,13.78-2.75,18-8.24c4.22-5.5,6.34-12.78,6.34-21.85c0-8.35-2.21-15.24-6.62-20.66
			c-4.42-5.42-10.27-8.14-17.57-8.14c-7.87,0-13.91,2.47-18.11,7.42C240.46,75.04,238.39,81.83,238.43,90.47z"/>
	</g>
	<g>
		<path d="M170.88,142.04h-3.12v-1.48h3.12V142.04z"/>
		<path d="M174.15,144.23c-0.67,0-1.24-0.11-1.69-0.31c-0.46-0.21-0.8-0.41-1.02-0.6l0.82-1.24c0.17,0.16,0.43,0.32,0.75,0.46
			c0.33,0.15,0.66,0.23,1,0.23c0.34,0,0.62-0.1,0.83-0.31c0.21-0.2,0.31-0.48,0.31-0.83c0-0.32-0.1-0.58-0.31-0.77
			c-0.2-0.19-0.44-0.29-0.73-0.29c-0.28,0-0.51,0.04-0.7,0.12c-0.19,0.08-0.33,0.2-0.43,0.35l-1.08-0.25l0.33-3.99h3.98v1.44h-2.76
			l-0.07,1.26c0.1-0.08,0.25-0.15,0.46-0.22c0.21-0.07,0.42-0.11,0.65-0.11c0.74,0,1.33,0.23,1.76,0.68
			c0.43,0.45,0.65,1.02,0.65,1.71c0,0.77-0.25,1.4-0.76,1.91C175.64,143.97,174.97,144.23,174.15,144.23z"/>
		<path d="M180.36,144.23c-0.52,0-0.99-0.13-1.41-0.39c-0.42-0.26-0.75-0.66-1-1.21c-0.24-0.55-0.37-1.26-0.37-2.12
			c0-0.71,0.11-1.36,0.32-1.93c0.21-0.58,0.53-1.03,0.95-1.37c0.42-0.34,0.94-0.5,1.56-0.5c0.65,0,1.18,0.15,1.58,0.46
			c0.41,0.31,0.71,0.74,0.91,1.3c0.19,0.56,0.29,1.21,0.29,1.96c0,0.79-0.1,1.48-0.31,2.05c-0.21,0.57-0.52,1.01-0.94,1.31
			C181.53,144.07,181,144.23,180.36,144.23z M180.39,142.72c0.23,0,0.43-0.07,0.59-0.22s0.28-0.38,0.36-0.71
			c0.08-0.32,0.12-0.74,0.12-1.26c0-0.54-0.04-0.98-0.11-1.33c-0.08-0.34-0.2-0.6-0.36-0.76c-0.16-0.17-0.36-0.25-0.6-0.25
			c-0.22,0-0.41,0.07-0.56,0.22c-0.16,0.15-0.28,0.39-0.36,0.72c-0.08,0.33-0.12,0.79-0.12,1.36c0,0.55,0.04,0.99,0.12,1.31
			c0.08,0.33,0.2,0.57,0.35,0.71C179.97,142.65,180.16,142.72,180.39,142.72z"/>
	</g>
	<polyline class="st7" points="47.88,126.9 47.88,141.61 160.31,141.61 	"/>
	<polyline class="st7" points="299.64,126.9 299.64,141.61 190.6,141.61 	"/>
	<line class="st7" x1="47.88" y1="141.61" x2="160.31" y2="141.61"/>
</g>
</svg>
