<?xml version="1.0" encoding="utf-8"?>
<!-- Generator: Adobe Illustrator 23.0.2, SVG Export Plug-In . SVG Version: 6.00 Build 0)  -->
<svg version="1.1" id="Layer_1" xmlns="http://www.w3.org/2000/svg" xmlns:xlink="http://www.w3.org/1999/xlink" x="0px" y="0px"
	 viewBox="0 0 340 146.76" style="enable-background:new 0 0 340 146.76;" xml:space="preserve">
<style type="text/css">
	.st0{fill:#939598;}
	.st1{fill:none;stroke:#231F20;stroke-width:2;stroke-miterlimit:10;}
	.st2{fill:#231F20;}
	.st3{fill:#1F30FF;}
	.st4{fill:#E6E7E8;}
	.st5{fill:none;stroke:#414042;stroke-miterlimit:10;}
	.st6{fill:#FFFFFF;}
	.st7{fill:none;stroke:#1F30FF;stroke-miterlimit:10;}
	.st8{fill:#FFFFFF;stroke:#414042;stroke-miterlimit:10;}
	.st9{fill:none;stroke:#3366FF;stroke-miterlimit:10;stroke-dasharray:3,3;}
	.st10{fill:none;stroke:#3366FF;stroke-width:0.75;stroke-miterlimit:10;}
	.st11{opacity:0.3;fill:#3366FF;}
	.st12{fill:#ED1C24;}
	.st13{fill:none;stroke:#ED1C24;stroke-width:2;stroke-miterlimit:10;}
</style>
<g>
	<g>
		<path class="st2" d="M25.67,52.49V20.24h86.98v32.26h-7.92l-2.52-23.76h-25.2l-1.37,1.44L75.5,73.95l0.14,44.5l15.62,2.59v7.2
			H46.91v-7.2l15.77-2.59l0.14-44.5l-0.14-43.78l-0.65-1.44H36.11l-2.52,23.76H25.67z"/>
		<path class="st2" d="M117.69,62.72v-6.48h30.53v6.48l-9.58,2.66l8.42,25.27l9.22,24.62l7.78-21.17l8.78-26.21l6.05,7.2
			l-8.86,23.26l-11.16,30.46h-8.5l-12.89-34.92l-11.3-28.66L117.69,62.72z M158.51,62.72v-6.48h30.02v6.48l-9.58,2.66l9.79,28.66
			l7.92,21.1L205.96,90l8.57-25.13l-9.86-2.16v-6.48h29.16v6.48l-10.66,2.52l-10.8,27.79l-12.67,35.78h-8.5l-11.66-31.68
			l-12.53-31.9L158.51,62.72z"/>
		<path class="st2" d="M239.15,92.24c0-10.41,3.43-19.28,10.3-26.6c6.86-7.32,15.86-10.98,27-10.98c11.18,0,20.24,3.42,27.18,10.26
			c6.94,6.84,10.4,15.8,10.4,26.89c0,10.37-3.41,19.3-10.22,26.78c-6.82,7.49-15.79,11.23-26.93,11.23
			c-11.18,0-20.27-3.47-27.25-10.4C242.65,112.48,239.15,103.42,239.15,92.24z M252.11,90.8c0.05,8.69,2.28,16.04,6.7,22.07
			c4.42,6.02,10.25,9.04,17.5,9.04c7.78,0,13.78-2.75,18-8.24c4.22-5.49,6.34-12.78,6.34-21.85c0-8.35-2.21-15.24-6.62-20.66
			C289.6,65.72,283.74,63,276.45,63c-7.87,0-13.91,2.47-18.11,7.42C254.14,75.37,252.06,82.16,252.11,90.8z"/>
	</g>
	<rect x="25.38" y="19.71" class="st10" width="87.79" height="109.07"/>
	<rect x="238.87" y="54.39" class="st10" width="75.49" height="74.39"/>
	<rect x="117.3" y="55.9" class="st10" width="116.93" height="73.33"/>
</g>
</svg>
