<?xml version="1.0" encoding="utf-8"?>
<!-- Generator: Adobe Illustrator 23.0.2, SVG Export Plug-In . SVG Version: 6.00 Build 0)  -->
<svg version="1.1" id="Layer_1" xmlns="http://www.w3.org/2000/svg" xmlns:xlink="http://www.w3.org/1999/xlink" x="0px" y="0px"
	 viewBox="0 0 340 146.76" style="enable-background:new 0 0 340 146.76;" xml:space="preserve">
<style type="text/css">
	.st0{fill:#939598;}
	.st1{fill:none;stroke:#231F20;stroke-width:2;stroke-miterlimit:10;}
	.st2{fill:#231F20;}
	.st3{fill:#1F30FF;}
	.st4{fill:#E6E7E8;}
	.st5{fill:none;stroke:#414042;stroke-miterlimit:10;}
	.st6{fill:#FFFFFF;}
	.st7{fill:none;stroke:#1F30FF;stroke-miterlimit:10;}
	.st8{fill:#FFFFFF;stroke:#414042;stroke-miterlimit:10;}
	.st9{fill:none;stroke:#3366FF;stroke-miterlimit:10;stroke-dasharray:3,3;}
	.st10{fill:none;stroke:#3366FF;stroke-width:0.75;stroke-miterlimit:10;}
	.st11{opacity:0.3;fill:#3366FF;}
	.st12{fill:#ED1C24;}
	.st13{fill:none;stroke:#ED1C24;stroke-width:2;stroke-miterlimit:10;}
</style>
<rect x="100.58" y="13.11" class="st11" width="13.05" height="122.04"/>
<rect x="219.8" y="13.11" class="st11" width="10.03" height="122.04"/>
<g>
	<path class="st2" d="M29.32,52.17V19.91h86.98v32.26h-7.92l-2.52-23.76h-25.2l-1.37,1.44l-0.14,43.78l0.14,44.5l15.62,2.59v7.2
		H50.56v-7.2l15.77-2.59l0.14-44.5l-0.14-43.78l-0.65-1.44H39.76l-2.52,23.76H29.32z"/>
	<path class="st2" d="M111.26,62.39v-6.48h30.53v6.48l-9.58,2.66l8.42,25.27l9.22,24.62l7.78-21.17l8.78-26.21l6.05,7.2l-8.86,23.26
		l-11.16,30.46h-8.5l-12.89-34.92l-11.3-28.66L111.26,62.39z M152.08,62.39v-6.48h30.02v6.48l-9.58,2.66l9.79,28.66l7.92,21.1
		l9.29-25.13l8.57-25.13l-9.86-2.16v-6.48h29.16v6.48l-10.66,2.52l-10.8,27.79l-12.67,35.78h-8.5l-11.66-31.68l-12.53-31.9
		L152.08,62.39z"/>
	<path class="st2" d="M222.64,91.91c0-10.42,3.43-19.28,10.3-26.6c6.86-7.32,15.86-10.98,27-10.98c11.18,0,20.24,3.42,27.18,10.26
		c6.94,6.84,10.4,15.8,10.4,26.89c0,10.37-3.41,19.3-10.22,26.78c-6.82,7.49-15.79,11.23-26.93,11.23
		c-11.18,0-20.27-3.47-27.25-10.4C226.13,112.16,222.64,103.1,222.64,91.91z M235.6,90.47c0.05,8.69,2.28,16.04,6.7,22.07
		c4.42,6.02,10.25,9.04,17.5,9.04c7.78,0,13.78-2.75,18-8.24c4.22-5.5,6.34-12.78,6.34-21.85c0-8.35-2.21-15.24-6.62-20.66
		c-4.42-5.42-10.27-8.14-17.57-8.14c-7.87,0-13.91,2.47-18.11,7.42C237.63,75.04,235.55,81.83,235.6,90.47z"/>
</g>
<g>
	<path d="M220.27,142.69h-3.12v-1.48h3.12V142.69z"/>
	<path d="M223.54,144.88c-0.67,0-1.24-0.1-1.69-0.31c-0.46-0.21-0.8-0.41-1.02-0.6l0.82-1.24c0.17,0.16,0.43,0.31,0.75,0.46
		c0.33,0.15,0.66,0.22,1,0.22c0.34,0,0.62-0.1,0.83-0.3s0.31-0.48,0.31-0.83c0-0.32-0.1-0.58-0.31-0.77
		c-0.2-0.19-0.44-0.28-0.73-0.28c-0.28,0-0.51,0.04-0.7,0.12c-0.19,0.08-0.33,0.2-0.43,0.34l-1.08-0.25l0.33-3.99h3.98v1.44h-2.76
		l-0.07,1.26c0.1-0.08,0.25-0.16,0.46-0.23c0.21-0.07,0.42-0.1,0.65-0.1c0.74,0,1.33,0.23,1.76,0.68c0.43,0.45,0.65,1.02,0.65,1.71
		c0,0.77-0.25,1.4-0.76,1.91C225.04,144.63,224.37,144.88,223.54,144.88z"/>
	<path d="M229.75,144.88c-0.52,0-0.99-0.13-1.41-0.39c-0.42-0.26-0.75-0.67-1-1.21c-0.24-0.55-0.37-1.26-0.37-2.12
		c0-0.71,0.11-1.36,0.32-1.94c0.21-0.58,0.53-1.03,0.95-1.37c0.42-0.34,0.94-0.5,1.56-0.5c0.65,0,1.18,0.15,1.58,0.46
		c0.41,0.31,0.71,0.74,0.91,1.3c0.19,0.56,0.29,1.21,0.29,1.96c0,0.79-0.1,1.48-0.31,2.05c-0.21,0.57-0.52,1.01-0.94,1.31
		C230.92,144.73,230.39,144.88,229.75,144.88z M229.78,143.37c0.23,0,0.43-0.07,0.59-0.22s0.28-0.38,0.36-0.71s0.12-0.75,0.12-1.27
		c0-0.54-0.04-0.98-0.11-1.32c-0.08-0.34-0.2-0.6-0.36-0.77c-0.16-0.17-0.36-0.25-0.6-0.25c-0.22,0-0.41,0.07-0.56,0.22
		c-0.16,0.15-0.28,0.39-0.36,0.72c-0.08,0.33-0.12,0.79-0.12,1.36c0,0.55,0.04,0.99,0.12,1.32s0.2,0.56,0.35,0.71
		C229.37,143.3,229.56,143.37,229.78,143.37z"/>
</g>
<g>
	<path d="M102.39,142.69h-3.12v-1.48h3.12V142.69z"/>
	<path d="M105.66,144.88c-0.67,0-1.24-0.11-1.69-0.32c-0.46-0.21-0.8-0.41-1.02-0.59l0.82-1.24c0.17,0.16,0.43,0.32,0.75,0.46
		c0.33,0.15,0.66,0.23,1,0.23c0.34,0,0.62-0.1,0.83-0.31c0.21-0.2,0.31-0.48,0.31-0.83c0-0.32-0.1-0.58-0.31-0.76
		c-0.2-0.19-0.44-0.29-0.73-0.29c-0.28,0-0.51,0.04-0.7,0.12c-0.19,0.08-0.33,0.2-0.43,0.34l-1.08-0.25l0.33-3.99h3.98v1.44h-2.76
		l-0.07,1.26c0.1-0.08,0.25-0.15,0.46-0.22c0.21-0.07,0.42-0.11,0.65-0.11c0.74,0,1.33,0.23,1.76,0.68s0.65,1.02,0.65,1.71
		c0,0.77-0.25,1.4-0.76,1.91C107.16,144.63,106.49,144.88,105.66,144.88z"/>
	<path d="M111.87,144.88c-0.52,0-0.99-0.13-1.41-0.39c-0.42-0.26-0.75-0.67-1-1.21c-0.24-0.55-0.37-1.26-0.37-2.12
		c0-0.71,0.11-1.36,0.32-1.93c0.21-0.58,0.53-1.03,0.95-1.37s0.94-0.5,1.56-0.5c0.65,0,1.18,0.15,1.58,0.46
		c0.41,0.31,0.71,0.74,0.91,1.3c0.19,0.56,0.29,1.21,0.29,1.96c0,0.79-0.1,1.48-0.31,2.05c-0.21,0.57-0.52,1.01-0.94,1.32
		C113.04,144.73,112.51,144.88,111.87,144.88z M111.9,143.37c0.23,0,0.43-0.07,0.59-0.22s0.28-0.38,0.36-0.71s0.12-0.75,0.12-1.26
		c0-0.54-0.04-0.98-0.11-1.33c-0.08-0.34-0.2-0.6-0.36-0.76c-0.16-0.17-0.36-0.25-0.6-0.25c-0.22,0-0.41,0.07-0.56,0.22
		c-0.16,0.15-0.28,0.39-0.36,0.72c-0.08,0.33-0.12,0.79-0.12,1.36c0,0.55,0.04,0.99,0.12,1.31c0.08,0.33,0.2,0.57,0.35,0.71
		C111.49,143.3,111.68,143.37,111.9,143.37z"/>
</g>
</svg>
