<svg id="Layer_1" data-name="Layer 1" xmlns="http://www.w3.org/2000/svg" viewBox="0 0 340 192.58"><defs><style>.cls-1{fill:#231f20;}.cls-2{fill:none;stroke:#36f;stroke-miterlimit:10;stroke-dasharray:3 3;}</style></defs><title>VFBR2019_WorkingContent</title><path class="cls-1" d="M28.94,60.18V27.92h87V60.18H108l-2.52-23.76H80.28l-1.37,1.44-.14,43.78.14,44.49,15.62,2.59v7.2H50.18v-7.2L66,126.13l.14-44.49L66,37.86l-.65-1.44H39.38L36.86,60.18Z"/><path class="cls-1" d="M118.08,70.4V63.92h30.53V70.4L139,73.07l8.42,25.27L156.67,123l7.78-21.16,8.78-26.21,6.05,7.2L170.42,106,159.26,136.5h-8.49l-12.89-34.92L126.57,72.92Zm40.82,0V63.92h30V70.4l-9.58,2.67,9.79,28.65,7.92,21.1,9.29-25.13,8.57-25.13-9.87-2.16V63.92h29.16V70.4l-10.65,2.52-10.8,27.8L200.09,136.5h-8.5l-11.66-31.68L167.4,72.92Z"/><path class="cls-1" d="M236.66,99.92A37.46,37.46,0,0,1,247,73.32q10.29-11,27-11T301.14,72.6q10.39,10.26,10.4,26.89a38.47,38.47,0,0,1-10.22,26.79q-10.23,11.22-26.93,11.23T247.14,127.1Q236.66,116.71,236.66,99.92Zm13-1.44q.07,13,6.7,22.07t17.49,9q11.67,0,18-8.25t6.34-21.85q0-12.52-6.62-20.66A21.53,21.53,0,0,0,274,70.69q-11.81,0-18.11,7.42T249.62,98.48Z"/><rect class="cls-2" x="26.24" y="27.24" width="287.47" height="109.62"/><line class="cls-2" x1="118.58" y1="29.64" x2="118.58" y2="134.72"/><line class="cls-2" x1="232.14" y1="29.64" x2="232.14" y2="134.72"/><path d="M100.44,168.2V156.52h4.36a5.92,5.92,0,0,1,4.48,1.58,5.79,5.79,0,0,1,1.52,4.16,5.92,5.92,0,0,1-1.62,4.21,6.15,6.15,0,0,1-4.7,1.73Zm2.85-2.19h1.19a2.86,2.86,0,0,0,2.56-1.14,4.43,4.43,0,0,0,.78-2.57,4.11,4.11,0,0,0-.78-2.6,2.82,2.82,0,0,0-2.34-1h-1.41Z"/><path d="M120.62,168.2h-7.87V156.52h7.57v2.3h-4.77v2.5H120v2.21h-4.41v2.37h5.07Z"/><path d="M130,158.82h-4.37v2.5h4.13v2.29h-4.13v4.59h-2.85V156.52H130Z"/><path d="M141.68,168.2h-3l-.72-1.81h-4l-.67,1.81h-2.82l4.74-11.7h1.89Zm-4.34-3.79L136,160.7l-1.38,3.71Z"/><path d="M152.89,156.52v7.42a4.14,4.14,0,0,1-.69,2.4,4.52,4.52,0,0,1-1.85,1.52,5.81,5.81,0,0,1-2.5.53,6,6,0,0,1-2.47-.51,4.37,4.37,0,0,1-1.84-1.5,4.2,4.2,0,0,1-.7-2.44v-7.42h2.77v7.28a1.92,1.92,0,0,0,.65,1.55,2.39,2.39,0,0,0,1.58.55,2.52,2.52,0,0,0,1.62-.53,1.89,1.89,0,0,0,.66-1.57v-7.28Z"/><path d="M163.26,168.2h-7.79V156.52h2.85v9.36h4.94Z"/><path d="M173.08,158.87h-3.34v9.33h-2.85v-9.33h-3.25v-2.35h9.44Z"/><path d="M183,168.39a9.07,9.07,0,0,1-2.76-.38,6.25,6.25,0,0,1-2-1l1.47-2.26a5.64,5.64,0,0,0,1.41.92,4.38,4.38,0,0,0,2,.44,1.86,1.86,0,0,0,1-.24.78.78,0,0,0,.38-.69,1,1,0,0,0-.38-.76,5.72,5.72,0,0,0-1.6-.77,13.36,13.36,0,0,1-2.29-1,3.2,3.2,0,0,1-1.22-1.2,3.8,3.8,0,0,1-.37-1.76,2.81,2.81,0,0,1,1.2-2.41,5.19,5.19,0,0,1,3.14-.87,6.17,6.17,0,0,1,2.53.44,7.72,7.72,0,0,1,1.58.89L185.84,160a9.44,9.44,0,0,0-1.4-.84,3.5,3.5,0,0,0-1.53-.36,1.87,1.87,0,0,0-1,.21.71.71,0,0,0-.34.63.92.92,0,0,0,.54.8,12.66,12.66,0,0,0,1.86.82,8.6,8.6,0,0,1,2.72,1.45,2.89,2.89,0,0,1,.85,2.28,2.84,2.84,0,0,1-1.35,2.54A5.69,5.69,0,0,1,183,168.39Z"/><path d="M189.6,168.2V156.52h4.94a4,4,0,0,1,2.82,1,3.61,3.61,0,0,1,1.1,2.76,3.71,3.71,0,0,1-1.13,2.82,4.11,4.11,0,0,1-3,1.06h-1.94v4Zm2.8-6.19h1.69a1.37,1.37,0,0,0,1.11-.47,1.9,1.9,0,0,0,.38-1.23,1.46,1.46,0,0,0-.45-1.17,1.6,1.6,0,0,0-1.12-.4H192.4Z"/><path d="M210,168.2h-3l-.72-1.81h-3.95l-.67,1.81h-2.82l4.74-11.7h1.89Zm-4.34-3.79-1.39-3.71-1.38,3.71Z"/><path d="M216.27,168.39a6,6,0,0,1-3-.73,5.47,5.47,0,0,1-2.07-2.09,7.07,7.07,0,0,1,0-6.38,5.52,5.52,0,0,1,2.07-2.11,5.87,5.87,0,0,1,3-.75,7.94,7.94,0,0,1,2.82.47,4.47,4.47,0,0,1,2.05,1.62l-2.08,1.72a3.64,3.64,0,0,0-1.11-.89,3.49,3.49,0,0,0-1.61-.33,3.07,3.07,0,0,0-1.67.42,2.65,2.65,0,0,0-1,1.17,4.82,4.82,0,0,0,.14,3.83,2.92,2.92,0,0,0,1.21,1.18,3.45,3.45,0,0,0,1.59.38,3,3,0,0,0,1.62-.4,3.16,3.16,0,0,0,1.1-1.08l2,1.41a5.14,5.14,0,0,1-1.91,1.81A6.25,6.25,0,0,1,216.27,168.39Z"/><path d="M225.88,168.2H223V156.52h2.84Z"/><path d="M238.62,168.2h-2l-5.39-6.85v6.85h-2.64V156.52h2.16l5.26,6.67v-6.67h2.61Z"/><path d="M246.62,161.83H252v3.92a5.41,5.41,0,0,1-2.11,1.87,6.58,6.58,0,0,1-3.24.77,6.7,6.7,0,0,1-3.12-.71,5.15,5.15,0,0,1-2.13-2.06,6.37,6.37,0,0,1-.78-3.26,6.12,6.12,0,0,1,.81-3.23,5.46,5.46,0,0,1,2.17-2.07,6.3,6.3,0,0,1,3-.73,6.8,6.8,0,0,1,2.06.28,5.21,5.21,0,0,1,1.48.69,4.85,4.85,0,0,1,1,.82l-1.77,2a3.87,3.87,0,0,0-1-.8,3.69,3.69,0,0,0-1.82-.35,3.51,3.51,0,0,0-1.57.34,2.44,2.44,0,0,0-1.1,1.08,3.9,3.9,0,0,0-.4,1.89,5,5,0,0,0,.41,2.12,2.88,2.88,0,0,0,1.16,1.27,3.44,3.44,0,0,0,1.71.42,4.16,4.16,0,0,0,1.7-.32,1.89,1.89,0,0,0,1-.9v-.72h-2.73Z"/></svg>