<?xml version="1.0" encoding="utf-8"?>
<!-- Generator: Adobe Illustrator 23.0.2, SVG Export Plug-In . SVG Version: 6.00 Build 0)  -->
<svg version="1.1" id="Layer_1" xmlns="http://www.w3.org/2000/svg" xmlns:xlink="http://www.w3.org/1999/xlink" x="0px" y="0px"
	 viewBox="0 0 340 192.58" style="enable-background:new 0 0 340 192.58;" xml:space="preserve">
<style type="text/css">
	.st0{opacity:0.3;fill:#3366FF;}
	.st1{fill:#231F20;}
</style>
<title>VFBR2019_WorkingContent</title>
<rect x="100.58" y="19.72" class="st0" width="13.05" height="122.04"/>
<rect x="219.8" y="19.72" class="st0" width="10.03" height="122.04"/>
<g>
	<path class="st1" d="M29.32,58.78V26.52h86.98v32.26h-7.92l-2.52-23.76h-25.2l-1.37,1.44l-0.14,43.78l0.14,44.5l15.62,2.59v7.2
		H50.56v-7.2l15.77-2.59l0.14-44.5l-0.14-43.78l-0.65-1.44H39.76l-2.52,23.76H29.32z"/>
	<path class="st1" d="M111.26,69v-6.48h30.53V69l-9.58,2.66l8.42,25.27l9.22,24.62l7.78-21.17l8.78-26.21l6.05,7.2l-8.86,23.26
		l-11.16,30.46h-8.5l-12.89-34.92l-11.3-28.66L111.26,69z M152.08,69v-6.48h30.02V69l-9.58,2.66l9.79,28.66l7.92,21.1l9.29-25.13
		l8.57-25.13L198.23,69v-6.48h29.16V69l-10.66,2.52l-10.8,27.79l-12.67,35.78h-8.5l-11.66-31.68l-12.53-31.9L152.08,69z"/>
	<path class="st1" d="M222.64,98.52c0-10.42,3.43-19.28,10.3-26.6c6.86-7.32,15.86-10.98,27-10.98c11.18,0,20.24,3.42,27.18,10.26
		c6.94,6.84,10.4,15.8,10.4,26.89c0,10.37-3.41,19.3-10.22,26.78c-6.82,7.49-15.79,11.23-26.93,11.23
		c-11.18,0-20.27-3.47-27.25-10.4C226.13,118.77,222.64,109.71,222.64,98.52z M235.6,97.08c0.05,8.69,2.28,16.04,6.7,22.07
		c4.42,6.02,10.25,9.04,17.5,9.04c7.78,0,13.78-2.75,18-8.24c4.22-5.5,6.34-12.78,6.34-21.85c0-8.35-2.21-15.24-6.62-20.66
		c-4.42-5.42-10.27-8.14-17.57-8.14c-7.87,0-13.91,2.47-18.11,7.42C237.63,81.65,235.55,88.44,235.6,97.08z"/>
</g>
<g>
	<path d="M140.97,175.33h-3.58l-3.07-4.46l-0.8,0.99v3.47h-2.83v-11.68h2.83v4.93l3.82-4.93h3.14l-4.11,5.23L140.97,175.33z"/>
	<path d="M150.08,175.33h-7.87v-11.68h7.57v2.3h-4.77v2.5h4.42v2.21h-4.42v2.37h5.07V175.33z"/>
	<path d="M152.19,175.33v-11.68h4.67c0.65,0,1.26,0.13,1.84,0.38c0.58,0.25,1.04,0.62,1.41,1.11c0.36,0.49,0.54,1.1,0.54,1.82
		c0,0.99-0.26,1.74-0.78,2.26c-0.52,0.51-1.06,0.82-1.62,0.93l-0.02,0.08l3.65,5.1h-3.28l-2.82-4.27h-0.77v4.27H152.19z
		 M154.96,168.87h1.39c0.35,0,0.68-0.12,0.98-0.37c0.3-0.25,0.46-0.65,0.46-1.2c0-0.54-0.16-0.93-0.47-1.16s-0.64-0.34-0.97-0.34
		h-1.39V168.87z"/>
	<path d="M173.12,175.33h-2l-5.39-6.85v6.85h-2.64v-11.68h2.16l5.26,6.67v-6.67h2.61V175.33z"/>
	<path d="M178.67,175.33h-2.85v-11.68h2.85V175.33z"/>
	<path d="M191.41,175.33h-2l-5.39-6.85v6.85h-2.64v-11.68h2.16l5.26,6.67v-6.67h2.61V175.33z"/>
	<path d="M199.4,168.97h5.33v3.92c-0.46,0.74-1.16,1.36-2.1,1.87c-0.94,0.51-2.02,0.77-3.24,0.77c-1.17,0-2.21-0.24-3.12-0.71
		c-0.91-0.47-1.62-1.16-2.14-2.06c-0.52-0.9-0.78-1.98-0.78-3.26c0-1.26,0.27-2.34,0.81-3.23c0.54-0.9,1.26-1.59,2.18-2.07
		s1.92-0.73,3.02-0.73c0.78,0,1.46,0.09,2.06,0.28c0.59,0.19,1.09,0.42,1.49,0.69c0.4,0.27,0.72,0.55,0.97,0.82l-1.78,1.97
		c-0.27-0.3-0.61-0.57-1.02-0.8s-1.02-0.35-1.82-0.35c-0.58,0-1.1,0.12-1.57,0.34c-0.47,0.23-0.84,0.59-1.1,1.08
		c-0.27,0.49-0.4,1.12-0.4,1.89c0,0.84,0.14,1.55,0.42,2.12s0.66,0.99,1.16,1.27c0.5,0.28,1.06,0.42,1.7,0.42
		c0.66,0,1.23-0.11,1.7-0.32c0.47-0.21,0.8-0.51,0.98-0.9v-0.72h-2.74V168.97z"/>
</g>
<g>
	<path d="M220.27,149.3h-3.12v-1.48h3.12V149.3z"/>
	<path d="M223.54,151.49c-0.67,0-1.24-0.11-1.7-0.32s-0.79-0.41-1.01-0.59l0.82-1.24c0.17,0.16,0.43,0.32,0.75,0.46
		c0.33,0.15,0.66,0.23,1,0.23c0.34,0,0.62-0.1,0.83-0.31c0.21-0.2,0.32-0.48,0.32-0.83c0-0.32-0.1-0.58-0.31-0.76
		c-0.2-0.19-0.44-0.29-0.72-0.29s-0.51,0.04-0.71,0.12s-0.33,0.2-0.42,0.34l-1.08-0.25l0.33-3.99h3.98v1.44h-2.76l-0.07,1.26
		c0.1-0.08,0.25-0.15,0.46-0.22c0.21-0.07,0.42-0.11,0.65-0.11c0.74,0,1.33,0.23,1.76,0.68s0.65,1.02,0.65,1.71
		c0,0.77-0.25,1.4-0.76,1.91C225.04,151.24,224.37,151.49,223.54,151.49z"/>
	<path d="M229.75,151.49c-0.52,0-0.99-0.13-1.41-0.39c-0.42-0.26-0.75-0.67-1-1.21s-0.37-1.26-0.37-2.12c0-0.71,0.11-1.36,0.32-1.93
		c0.21-0.58,0.53-1.03,0.95-1.37s0.94-0.5,1.56-0.5c0.65,0,1.18,0.15,1.58,0.46c0.41,0.31,0.71,0.74,0.91,1.3
		c0.19,0.56,0.29,1.21,0.29,1.96c0,0.79-0.1,1.48-0.31,2.05c-0.21,0.57-0.52,1.01-0.94,1.32
		C230.92,151.34,230.39,151.49,229.75,151.49z M229.78,149.98c0.23,0,0.43-0.07,0.59-0.22s0.28-0.38,0.36-0.71s0.12-0.75,0.12-1.26
		c0-0.54-0.04-0.98-0.11-1.33c-0.08-0.34-0.2-0.6-0.36-0.76c-0.16-0.17-0.36-0.25-0.6-0.25c-0.22,0-0.41,0.07-0.57,0.22
		s-0.28,0.39-0.36,0.72c-0.08,0.33-0.12,0.79-0.12,1.36c0,0.55,0.04,0.99,0.12,1.31c0.08,0.33,0.2,0.57,0.36,0.71
		C229.37,149.91,229.56,149.98,229.78,149.98z"/>
</g>
<g>
	<path d="M102.39,149.3h-3.12v-1.48h3.12V149.3z"/>
	<path d="M105.66,151.49c-0.67,0-1.24-0.1-1.69-0.31c-0.46-0.21-0.8-0.41-1.02-0.6l0.82-1.24c0.17,0.16,0.43,0.31,0.75,0.46
		c0.33,0.15,0.66,0.22,1,0.22c0.34,0,0.62-0.1,0.83-0.3s0.31-0.48,0.31-0.83c0-0.32-0.1-0.58-0.31-0.77
		c-0.2-0.19-0.44-0.28-0.73-0.28c-0.28,0-0.51,0.04-0.7,0.12c-0.19,0.08-0.33,0.2-0.43,0.34l-1.08-0.25l0.33-3.99h3.98v1.44h-2.76
		l-0.07,1.26c0.1-0.08,0.25-0.16,0.46-0.23c0.21-0.07,0.42-0.1,0.65-0.1c0.74,0,1.33,0.23,1.76,0.68c0.43,0.45,0.65,1.02,0.65,1.71
		c0,0.77-0.25,1.4-0.76,1.91C107.16,151.24,106.49,151.49,105.66,151.49z"/>
	<path d="M111.87,151.49c-0.52,0-0.99-0.13-1.41-0.39c-0.42-0.26-0.75-0.67-1-1.21c-0.24-0.55-0.37-1.26-0.37-2.12
		c0-0.71,0.11-1.36,0.32-1.94c0.21-0.58,0.53-1.03,0.95-1.37c0.42-0.34,0.94-0.5,1.56-0.5c0.65,0,1.18,0.15,1.58,0.46
		c0.41,0.31,0.71,0.74,0.91,1.3c0.19,0.56,0.29,1.21,0.29,1.96c0,0.79-0.1,1.48-0.31,2.05c-0.21,0.57-0.52,1.01-0.94,1.31
		C113.04,151.34,112.51,151.49,111.87,151.49z M111.9,149.98c0.23,0,0.43-0.07,0.59-0.22s0.28-0.38,0.36-0.71s0.12-0.75,0.12-1.27
		c0-0.54-0.04-0.98-0.11-1.32c-0.08-0.34-0.2-0.6-0.36-0.77c-0.16-0.17-0.36-0.25-0.6-0.25c-0.22,0-0.41,0.07-0.56,0.22
		c-0.16,0.15-0.28,0.39-0.36,0.72c-0.08,0.33-0.12,0.79-0.12,1.36c0,0.55,0.04,0.99,0.12,1.32s0.2,0.56,0.35,0.71
		C111.49,149.91,111.68,149.98,111.9,149.98z"/>
</g>
</svg>
