<svg id="Layer_1" data-name="Layer 1" xmlns="http://www.w3.org/2000/svg" viewBox="0 0 340 192.58"><defs><style>.cls-1{fill:#231f20;}.cls-2{fill:none;stroke:#1f30ff;stroke-miterlimit:10;}</style></defs><title>VFBR2019_WorkingContent</title><path d="M58.14,176.37H50.35V164.69h2.84v9.36h5Z"/><path d="M67.55,176.37H59.67V164.69h7.57V167H62.47v2.49h4.42v2.21H62.47v2.37h5.08Z"/><path d="M78,167.05H74.6v9.32H71.75v-9.32H68.51v-2.36H78Z"/><path d="M87.71,167.05H84.36v9.32H81.51v-9.32H78.27v-2.36h9.44Z"/><path d="M97.05,176.37H89.18V164.69h7.56V167H92v2.49h4.41v2.21H92v2.37h5.07Z"/><path d="M99.16,176.37V164.69h4.67a4.56,4.56,0,0,1,1.84.38,3.37,3.37,0,0,1,1.41,1.11,3.53,3.53,0,0,1-.23,4.08,3.21,3.21,0,0,1-1.63.93v.08l3.65,5.1h-3.28l-2.82-4.27H102v4.27Zm2.77-6.46h1.39a1.5,1.5,0,0,0,1-.37,1.42,1.42,0,0,0,.46-1.2,1.36,1.36,0,0,0-.47-1.16,1.64,1.64,0,0,0-1-.34h-1.39Z"/><path d="M113.94,176.57a8.84,8.84,0,0,1-2.76-.39,6.16,6.16,0,0,1-2-1l1.47-2.25a6.37,6.37,0,0,0,1.41.92,4.55,4.55,0,0,0,2,.44,1.88,1.88,0,0,0,1-.24.77.77,0,0,0,.37-.69,1,1,0,0,0-.37-.77,6.13,6.13,0,0,0-1.61-.77,13.73,13.73,0,0,1-2.29-1,3.16,3.16,0,0,1-1.21-1.2,3.65,3.65,0,0,1-.37-1.76,2.85,2.85,0,0,1,1.19-2.41,5.21,5.21,0,0,1,3.14-.87,6.31,6.31,0,0,1,2.53.44,8.66,8.66,0,0,1,1.59.89l-1.3,2.32a9,9,0,0,0-1.4-.84,3.5,3.5,0,0,0-1.53-.36,1.77,1.77,0,0,0-1,.22.71.71,0,0,0-.34.63,1,1,0,0,0,.55.8,13.86,13.86,0,0,0,1.85.81,8.69,8.69,0,0,1,2.72,1.45,2.9,2.9,0,0,1,.85,2.28,2.87,2.87,0,0,1-1.35,2.55A5.75,5.75,0,0,1,113.94,176.57Z"/><path d="M120.52,176.37V164.69h4.94a4,4,0,0,1,2.83,1,3.58,3.58,0,0,1,1.09,2.75,3.7,3.7,0,0,1-1.12,2.82,4.15,4.15,0,0,1-3,1.07h-1.93v4Zm2.8-6.19H125a1.34,1.34,0,0,0,1.1-.46,1.85,1.85,0,0,0,.38-1.23,1.5,1.5,0,0,0-.44-1.18,1.66,1.66,0,0,0-1.12-.39h-1.62Z"/><path d="M140.87,176.37h-3l-.72-1.8h-3.95l-.68,1.8h-2.81l4.73-11.69h1.89Zm-4.33-3.79-1.4-3.71-1.37,3.71Z"/><path d="M147.19,176.57a5.89,5.89,0,0,1-2.94-.74,5.27,5.27,0,0,1-2.07-2.09,6.41,6.41,0,0,1-.76-3.21,6.32,6.32,0,0,1,.76-3.16,5.35,5.35,0,0,1,2.07-2.12,5.84,5.84,0,0,1,3-.75A7.92,7.92,0,0,1,150,165a4.39,4.39,0,0,1,2,1.63L150,168.31a3.79,3.79,0,0,0-1.11-.89,3.47,3.47,0,0,0-1.61-.33,3.07,3.07,0,0,0-1.67.43,2.58,2.58,0,0,0-1,1.17,4.13,4.13,0,0,0-.33,1.7,4.35,4.35,0,0,0,.46,2.12,2.92,2.92,0,0,0,1.21,1.18,3.51,3.51,0,0,0,1.59.38,3.17,3.17,0,0,0,1.63-.39,3.13,3.13,0,0,0,1.09-1.08l2.05,1.41a5.17,5.17,0,0,1-1.9,1.8A6.21,6.21,0,0,1,147.19,176.57Z"/><path d="M161.75,176.37h-7.87V164.69h7.57V167h-4.77v2.49h4.42v2.21h-4.42v2.37h5.07Z"/><path d="M182.33,164.69l-3.63,11.72h-1.65l-2.29-7-2.38,7h-1.65l-3.55-11.72h2.94l1.94,6.61,2-6.61h1.65l2.1,6.63,1.88-6.63Z"/><path d="M186.62,176.37h-2.85V164.69h2.85Z"/><path d="M197.61,167.05h-3.35v9.32h-2.84v-9.32h-3.25v-2.36h9.44Z"/><path d="M209,176.37h-2.85v-4.54h-4.25v4.54h-2.85V164.69h2.85v4.74h4.25v-4.74H209Z"/><path d="M226.52,176.37h-3.58l-3.08-4.46-.8,1v3.47h-2.83V164.69h2.83v4.93l3.83-4.93H226l-4.11,5.24Z"/><path d="M235.62,176.37h-7.87V164.69h7.57V167h-4.77v2.49H235v2.21h-4.42v2.37h5.07Z"/><path d="M237.74,176.37V164.69h4.67a4.59,4.59,0,0,1,1.84.38,3.5,3.5,0,0,1,1.41,1.11,3.51,3.51,0,0,1-.24,4.08,3.19,3.19,0,0,1-1.62.93l0,.08,3.65,5.1h-3.28l-2.81-4.27h-.77v4.27Zm2.76-6.46h1.4a1.5,1.5,0,0,0,1-.37,1.45,1.45,0,0,0,.46-1.2,1.34,1.34,0,0,0-.48-1.16,1.59,1.59,0,0,0-1-.34h-1.4Z"/><path d="M258.66,176.37h-2l-5.39-6.84v6.84h-2.64V164.69h2.16l5.27,6.68v-6.68h2.6Z"/><path d="M264.22,176.37h-2.85V164.69h2.85Z"/><path d="M277,176.37h-2l-5.39-6.84v6.84h-2.64V164.69h2.16l5.26,6.68v-6.68H277Z"/><path d="M285,170h5.33v3.92a5.49,5.49,0,0,1-2.11,1.87,6.69,6.69,0,0,1-3.24.77,6.59,6.59,0,0,1-3.12-.72,5.25,5.25,0,0,1-2.13-2,6.43,6.43,0,0,1-.78-3.27,6.17,6.17,0,0,1,.81-3.23,5.49,5.49,0,0,1,2.18-2.07,6.23,6.23,0,0,1,3-.73,7.08,7.08,0,0,1,2.06.28,5.9,5.9,0,0,1,1.49.69,5.11,5.11,0,0,1,1,.82l-1.77,2a4.08,4.08,0,0,0-1-.8,3.81,3.81,0,0,0-1.82-.35,3.51,3.51,0,0,0-1.57.34,2.49,2.49,0,0,0-1.1,1.08,3.9,3.9,0,0,0-.4,1.89,5,5,0,0,0,.41,2.12,2.82,2.82,0,0,0,1.16,1.27,3.44,3.44,0,0,0,1.71.42,4.16,4.16,0,0,0,1.7-.32,1.84,1.84,0,0,0,1-.9v-.72H285Z"/><path class="cls-1" d="M37.92,59.82V27.56h87V59.82H117l-2.52-23.76H89.25L87.88,37.5l-.14,43.77.14,44.5,15.63,2.59v7.2H59.16v-7.2l15.76-2.59.15-44.5L74.92,37.5l-.64-1.44H48.36L45.84,59.82Z"/><path class="cls-1" d="M117,70V63.56H147.5V70l-9.58,2.66L146.35,98l9.21,24.62,7.78-21.17,8.78-26.21,6,7.2-8.86,23.26-11.16,30.46h-8.49l-12.89-34.92-11.3-28.66Zm40.82,0V63.56h30V70l-9.58,2.66L188,101.36l7.93,21.1,9.28-25.13,8.57-25.13L204,70V63.56h29.16V70l-10.66,2.52-10.8,27.79L199,136.14h-8.5l-11.66-31.68-12.53-31.9Z"/><path class="cls-1" d="M225.47,99.56A37.49,37.49,0,0,1,235.77,73q10.29-11,27-11T290,72.24q10.41,10.26,10.4,26.89a38.4,38.4,0,0,1-10.22,26.78q-10.23,11.24-26.93,11.23T236,126.74Q225.48,116.33,225.47,99.56Zm13-1.44q.07,13,6.7,22.07t17.5,9q11.65,0,18-8.24T287,99.13q0-12.52-6.62-20.67t-17.57-8.13q-11.8,0-18.11,7.41T238.43,98.12Z"/><path d="M170.88,149.68h-3.12V148.2h3.12Z"/><path d="M174.15,151.87a4.07,4.07,0,0,1-1.7-.31,4.3,4.3,0,0,1-1-.6l.82-1.24a2.78,2.78,0,0,0,.75.47,2.38,2.38,0,0,0,1,.22,1.13,1.13,0,0,0,.82-.3,1.11,1.11,0,0,0,.32-.84,1,1,0,0,0-.31-.76,1,1,0,0,0-.72-.29,1.84,1.84,0,0,0-.71.13.91.91,0,0,0-.42.34l-1.08-.25.33-4h4v1.44h-2.76l-.07,1.26a1.52,1.52,0,0,1,.46-.22,2,2,0,0,1,.65-.11,2.34,2.34,0,0,1,1.76.68,2.41,2.41,0,0,1,.65,1.71,2.6,2.6,0,0,1-.76,1.91A2.74,2.74,0,0,1,174.15,151.87Z"/><path d="M180.36,151.87a2.62,2.62,0,0,1-1.41-.39,2.59,2.59,0,0,1-1-1.21,6.23,6.23,0,0,1,0-4.06,3,3,0,0,1,1-1.37,2.4,2.4,0,0,1,1.56-.51,2.62,2.62,0,0,1,1.58.46,2.72,2.72,0,0,1,.91,1.3,6.85,6.85,0,0,1,0,4,2.47,2.47,0,0,1-2.53,1.77Zm0-1.51a.83.83,0,0,0,.59-.22,1.36,1.36,0,0,0,.36-.7,5.46,5.46,0,0,0,.12-1.27,5.94,5.94,0,0,0-.12-1.32,1.67,1.67,0,0,0-.35-.77.82.82,0,0,0-.6-.25.85.85,0,0,0-.57.22,1.43,1.43,0,0,0-.36.72,6.15,6.15,0,0,0-.12,1.36,5.81,5.81,0,0,0,.12,1.32,1.32,1.32,0,0,0,.36.7A.8.8,0,0,0,180.39,150.36Z"/><polyline class="cls-2" points="47.88 134.55 47.88 149.25 160.31 149.25"/><polyline class="cls-2" points="299.64 134.55 299.64 149.25 190.6 149.25"/><line class="cls-2" x1="47.88" y1="149.25" x2="160.31" y2="149.25"/></svg>