<svg id="Layer_1" data-name="Layer 1" xmlns="http://www.w3.org/2000/svg" viewBox="0 0 340 192.58"><defs><style>.cls-1{fill:#231f20;}.cls-2{fill:#fff;}</style></defs><title>VFBR2019_WorkingContent</title><path d="M58.65,168.2H55.8V156.52h2.85Z"/><path d="M71.38,168.2h-2L64,161.35v6.85H61.35V156.52h2.16l5.27,6.67v-6.67h2.6Z"/><path d="M77.9,168.39a9.07,9.07,0,0,1-2.76-.38,6.51,6.51,0,0,1-2-1l1.48-2.26a5.75,5.75,0,0,0,1.4.92,4.55,4.55,0,0,0,2,.44,1.88,1.88,0,0,0,1-.24.78.78,0,0,0,.38-.69,1,1,0,0,0-.38-.77,6.2,6.2,0,0,0-1.61-.76,14.59,14.59,0,0,1-2.29-1,3.16,3.16,0,0,1-1.21-1.2,3.67,3.67,0,0,1-.37-1.76,2.82,2.82,0,0,1,1.19-2.41,5.22,5.22,0,0,1,3.15-.87,6.12,6.12,0,0,1,2.52.44,8.11,8.11,0,0,1,1.59.89L80.71,160a9.79,9.79,0,0,0-1.4-.84,3.43,3.43,0,0,0-1.53-.35,1.89,1.89,0,0,0-1,.21.72.72,0,0,0-.34.63.94.94,0,0,0,.55.8,12.18,12.18,0,0,0,1.86.82,8.53,8.53,0,0,1,2.71,1.45,3.24,3.24,0,0,1-.5,4.82A5.65,5.65,0,0,1,77.9,168.39Z"/><path d="M87.4,168.2H84.55V156.52H87.4Z"/><path d="M90.1,168.2V156.52h4.35a5.94,5.94,0,0,1,4.49,1.58,5.78,5.78,0,0,1,1.51,4.16,5.91,5.91,0,0,1-1.61,4.21,6.15,6.15,0,0,1-4.7,1.73ZM93,166h1.19a2.86,2.86,0,0,0,2.56-1.14,4.46,4.46,0,0,0,.78-2.58,4,4,0,0,0-.79-2.59,2.79,2.79,0,0,0-2.33-1H93Z"/><path d="M110.28,168.2h-7.87V156.52H110v2.3h-4.76v2.5h4.41v2.21h-4.41v2.36h5.07Z"/><path d="M116.81,164.89h-5v-2.37h5Z"/><path d="M124.21,168.39a6.16,6.16,0,0,1-3.2-.81,5.62,5.62,0,0,1-2.09-2.21,6.47,6.47,0,0,1-.74-3.09,6,6,0,0,1,.8-3.11,5.79,5.79,0,0,1,2.14-2.09,6,6,0,0,1,3-.75,6.37,6.37,0,0,1,3.12.75,5.56,5.56,0,0,1,2.16,2.09,6.12,6.12,0,0,1,.78,3.12,6.2,6.2,0,0,1-.82,3.25,5.8,5.8,0,0,1-2.18,2.11A6.05,6.05,0,0,1,124.21,168.39Zm.05-2.46a3.1,3.1,0,0,0,1.55-.39,2.87,2.87,0,0,0,1.12-1.19,4.35,4.35,0,0,0,.4-2,3.57,3.57,0,0,0-.44-1.83,3,3,0,0,0-1.18-1.2,3.44,3.44,0,0,0-1.67-.41,3.18,3.18,0,0,0-1.55.38,2.76,2.76,0,0,0-1.09,1.13,3.81,3.81,0,0,0-.4,1.83,4.38,4.38,0,0,0,.41,2,3.08,3.08,0,0,0,1.16,1.26A3.25,3.25,0,0,0,124.26,165.93Z"/><path d="M139.32,158.82H135v2.5h4.13v2.29H135v4.59H132.1V156.52h7.22Z"/><path d="M145.67,164.89h-5v-2.37h5Z"/><path d="M155.51,168.2h-7.79V156.52h2.85v9.36h4.94Z"/><path d="M164.92,168.2h-7.87V156.52h7.56v2.3h-4.76v2.5h4.41v2.21h-4.41v2.36h5.07Z"/><path d="M175.32,158.87H172v9.33h-2.84v-9.33h-3.25v-2.35h9.44Z"/><path d="M185.08,158.87h-3.35v9.33h-2.84v-9.33h-3.25v-2.35h9.44Z"/><path d="M194.42,168.2h-7.87V156.52h7.57v2.3h-4.77v2.5h4.41v2.21h-4.41v2.36h5.07Z"/><path d="M196.53,168.2V156.52h4.67a4.6,4.6,0,0,1,1.85.37,3.51,3.51,0,0,1,1.4,1.12,2.94,2.94,0,0,1,.55,1.82,3,3,0,0,1-.78,2.26,3.13,3.13,0,0,1-1.62.92l0,.08,3.65,5.11H203l-2.82-4.27h-.76v4.27Zm2.77-6.46h1.39a1.58,1.58,0,0,0,1-.37,1.48,1.48,0,0,0,.45-1.2,1.32,1.32,0,0,0-.47-1.16,1.63,1.63,0,0,0-1-.35H199.3Z"/><path d="M211.32,168.39a9.07,9.07,0,0,1-2.76-.38,6.34,6.34,0,0,1-2-1l1.47-2.26a5.64,5.64,0,0,0,1.41.92,4.49,4.49,0,0,0,2,.44,1.86,1.86,0,0,0,1-.24.78.78,0,0,0,.38-.69,1,1,0,0,0-.38-.77,6.2,6.2,0,0,0-1.61-.76,14,14,0,0,1-2.28-1,3.13,3.13,0,0,1-1.22-1.2,3.67,3.67,0,0,1-.37-1.76,2.82,2.82,0,0,1,1.19-2.41,5.25,5.25,0,0,1,3.15-.87,6.2,6.2,0,0,1,2.53.44,8,8,0,0,1,1.58.89l-1.3,2.31a9.27,9.27,0,0,0-1.4-.84,3.43,3.43,0,0,0-1.53-.35,1.92,1.92,0,0,0-1,.21.71.71,0,0,0-.33.63.92.92,0,0,0,.54.8,12.18,12.18,0,0,0,1.86.82,8.6,8.6,0,0,1,2.72,1.45,2.91,2.91,0,0,1,.85,2.28,2.86,2.86,0,0,1-1.36,2.54A5.65,5.65,0,0,1,211.32,168.39Z"/><path d="M226.36,168.39a9.07,9.07,0,0,1-2.76-.38,6.51,6.51,0,0,1-2-1l1.48-2.26a5.75,5.75,0,0,0,1.4.92,4.55,4.55,0,0,0,2,.44,1.88,1.88,0,0,0,1-.24.78.78,0,0,0,.38-.69,1,1,0,0,0-.38-.77,6.2,6.2,0,0,0-1.61-.76,14.59,14.59,0,0,1-2.29-1,3.16,3.16,0,0,1-1.21-1.2,3.67,3.67,0,0,1-.37-1.76,2.82,2.82,0,0,1,1.19-2.41,5.22,5.22,0,0,1,3.15-.87,6.12,6.12,0,0,1,2.52.44,7.83,7.83,0,0,1,1.59.89l-1.3,2.31a9.27,9.27,0,0,0-1.4-.84,3.43,3.43,0,0,0-1.53-.35,1.92,1.92,0,0,0-1,.21.71.71,0,0,0-.33.63.92.92,0,0,0,.54.8,12.18,12.18,0,0,0,1.86.82,8.72,8.72,0,0,1,2.72,1.45,2.9,2.9,0,0,1,.84,2.28,2.85,2.85,0,0,1-1.35,2.54A5.65,5.65,0,0,1,226.36,168.39Z"/><path d="M232.93,168.2V156.52h4.95a4,4,0,0,1,2.82,1,3.6,3.6,0,0,1,1.1,2.75,3.71,3.71,0,0,1-1.13,2.83,4.12,4.12,0,0,1-2.95,1.06h-1.94v4Zm2.8-6.19h1.7a1.34,1.34,0,0,0,1.1-.47,1.85,1.85,0,0,0,.39-1.23,1.5,1.5,0,0,0-.45-1.18,1.64,1.64,0,0,0-1.12-.39h-1.62Z"/><path d="M253.28,168.2h-3l-.72-1.81h-3.95l-.67,1.81H242.1l4.74-11.7h1.88ZM249,164.41l-1.39-3.71-1.38,3.71Z"/><path d="M259.6,168.39a5.91,5.91,0,0,1-2.94-.73,5.33,5.33,0,0,1-2.07-2.09,7.07,7.07,0,0,1,0-6.38,5.32,5.32,0,0,1,2.07-2.11,5.84,5.84,0,0,1,3-.75,7.76,7.76,0,0,1,2.82.47,4.39,4.39,0,0,1,2,1.62l-2.08,1.71a3.76,3.76,0,0,0-1.11-.88,3.47,3.47,0,0,0-1.61-.33,3.07,3.07,0,0,0-1.67.42,2.64,2.64,0,0,0-1,1.17,4.8,4.8,0,0,0,.14,3.82,2.92,2.92,0,0,0,1.2,1.19,3.51,3.51,0,0,0,1.6.37,3.13,3.13,0,0,0,1.62-.39,3.24,3.24,0,0,0,1.1-1.08l2,1.41a5.11,5.11,0,0,1-1.9,1.81A6.29,6.29,0,0,1,259.6,168.39Z"/><path d="M274.16,168.2h-7.87V156.52h7.57v2.3h-4.77v2.5h4.42v2.21h-4.42v2.36h5.07Z"/><path d="M280.16,168.39a9.16,9.16,0,0,1-2.76-.38,6.57,6.57,0,0,1-2-1l1.47-2.26a5.64,5.64,0,0,0,1.41.92,4.55,4.55,0,0,0,2,.44,1.88,1.88,0,0,0,1-.24.77.77,0,0,0,.37-.69,1,1,0,0,0-.37-.77,6.2,6.2,0,0,0-1.61-.76,14.59,14.59,0,0,1-2.29-1,3.16,3.16,0,0,1-1.21-1.2,3.67,3.67,0,0,1-.37-1.76A2.8,2.8,0,0,1,277,157.2a5.19,5.19,0,0,1,3.14-.87,6.14,6.14,0,0,1,2.53.44,8.11,8.11,0,0,1,1.59.89L283,160a9.79,9.79,0,0,0-1.4-.84,3.49,3.49,0,0,0-1.53-.35,1.87,1.87,0,0,0-1,.21.72.72,0,0,0-.34.63.94.94,0,0,0,.55.8,12.43,12.43,0,0,0,1.85.82,8.49,8.49,0,0,1,2.72,1.45,3.24,3.24,0,0,1-.5,4.82A5.67,5.67,0,0,1,280.16,168.39Z"/><ellipse class="cls-1" cx="274.86" cy="99.52" rx="32.26" ry="31.69"/><polygon class="cls-1" points="148.69 64.11 208.03 64.11 220.68 64.11 197.4 136.59 154.61 136.59 132.33 68.88 148.69 64.11"/><rect class="cls-1" x="29.26" y="28.29" width="84.68" height="31.73"/><rect class="cls-1" x="30.11" y="71.52" width="84.68" height="44.22" transform="translate(166.09 21.18) rotate(90)"/><path class="cls-2" d="M29,60.27V28h87V60.27h-7.92l-2.52-23.76H80.37L79,38l-.14,43.78L79,126.22l15.62,2.6V136H50.27v-7.2L66,126.22l.14-44.49L66,38l-.65-1.44H39.47L37,60.27Z"/><path class="cls-2" d="M236.75,100a37.47,37.47,0,0,1,10.3-26.61q10.29-11,27-11t27.18,10.26Q311.63,83,311.63,99.58a38.47,38.47,0,0,1-10.22,26.79q-10.23,11.24-26.93,11.23t-27.25-10.41Q236.75,116.8,236.75,100Zm13-1.45q.07,13,6.7,22.07t17.49,9q11.67,0,18-8.24t6.34-21.86q0-12.52-6.63-20.66a21.52,21.52,0,0,0-17.56-8.14q-11.82,0-18.11,7.42T249.71,98.57Z"/><path class="cls-2" d="M118.17,70.5V64h30.52V70.5l-9.57,2.66,8.42,25.27,9.22,24.63,7.77-21.17,8.79-26.21,6.05,7.2-8.86,23.26-11.16,30.45h-8.5L138,101.67,126.66,73Zm40.82,0V64h30V70.5l-9.57,2.66,9.79,28.66,7.92,21.09,9.29-25.13L215,72.65l-9.87-2.15V64H234.3V70.5L223.65,73l-10.8,27.79-12.68,35.78h-8.49L180,104.91,167.49,73Z"/></svg>