<svg id="Layer_1" data-name="Layer 1" xmlns="http://www.w3.org/2000/svg" viewBox="0 0 2202 943.49"><defs><style>.cls-1{fill:#f1f1f2;}.cls-11,.cls-16,.cls-2,.cls-4,.cls-6,.cls-7,.cls-8{fill:none;stroke-miterlimit:10;}.cls-2,.cls-4,.cls-6,.cls-8{stroke:#6d6e70;}.cls-2,.cls-7{stroke-width:2px;}.cls-3{fill:#6d6e70;}.cls-4{stroke-width:1.75px;}.cls-5{fill:#58595b;}.cls-6{stroke-width:0.75px;}.cls-11,.cls-7{stroke:#58595b;}.cls-7{stroke-linecap:round;}.cls-9{fill:#bcbec0;}.cls-10{fill:#606060;}.cls-11{stroke-width:0.3px;}.cls-12{fill:#bababa;}.cls-13,.cls-15{fill:#fff;}.cls-13{opacity:0.8;}.cls-14{fill:#424242;opacity:0.2;}.cls-15{opacity:0.6;}.cls-16{stroke:#404041;}</style></defs><title>VFBR2_Overview</title><rect class="cls-1" x="3.28" y="-0.03" width="2201" height="943.56"/><line class="cls-2" x1="371.21" y1="254.36" x2="371.21" y2="218.47"/><path class="cls-3" d="M365.41,253.2l2.87,2.92,2.87,2.93,2.87-2.93,2.87-2.92Z"/><line class="cls-2" x1="371.21" y1="382.05" x2="371.21" y2="346.16"/><path class="cls-3" d="M365.41,380.89l2.87,2.93,2.87,2.93,2.87-2.93,2.87-2.93Z"/><line class="cls-2" x1="371.21" y1="511.08" x2="371.21" y2="475.19"/><path class="cls-3" d="M365.41,509.92l2.87,2.93,2.87,2.93,2.87-2.93,2.87-2.93Z"/><line class="cls-2" x1="371.21" y1="635.45" x2="371.21" y2="599.56"/><path class="cls-3" d="M365.41,634.29l2.87,2.93,2.87,2.93,2.87-2.93,2.87-2.93Z"/><line class="cls-2" x1="371.21" y1="759.15" x2="371.21" y2="723.26"/><path class="cls-3" d="M365.41,758l2.87,2.93,2.87,2.93,2.87-2.93,2.87-2.93Z"/><rect class="cls-4" x="156.3" y="269.87" width="445.36" height="61.07" rx="4.87"/><line class="cls-4" x1="210.92" y1="269.79" x2="210.92" y2="330.96"/><path class="cls-3" d="M172,311.79l6,4.6,6,4.59,6-4.59,6-4.6S172,312.53,172,311.79Z"/><polyline class="cls-4" points="587.02 296.63 581.01 301.23 575 305.83 568.99 301.23 562.98 296.63"/><polyline class="cls-4" points="226.63 288.89 231.23 294.9 235.83 300.91 231.23 306.92 226.63 312.93"/><path class="cls-3" d="M248.87,292.46v6.89h7.82v2.13h-7.82v9.24h-2.52V290.28h10.76v2.18Z"/><path class="cls-3" d="M270.52,310.72v-2.13a6.9,6.9,0,0,1-5.66,2.35c-3.25,0-5.23-1.68-5.23-4.36,0-3.39,2.77-5.13,7.08-5.38l3.78-.22v-.28c0-2.3-1.4-3.34-3.75-3.34a10,10,0,0,0-5.13,1.68l-1-1.73a11.15,11.15,0,0,1,6.42-2c3.55,0,5.79,1.59,5.79,5.35v10.05Zm0-7.92-4.12.19c-2.52.14-4.31,1.18-4.31,3.31,0,1.73,1.45,2.79,3.58,2.79a6.25,6.25,0,0,0,4.85-2.23Z"/><path class="cls-3" d="M277.41,295.71h2.1V299c.67-2.21,3.13-3.58,5.57-3.58s4.65,1.34,4.9,3.5h.11c.48-2.08,2.91-3.5,5.32-3.5,3,0,5.32,1.56,5.32,4.45v10.89h-2.35V300.5c0-2.1-1.68-3.08-3.7-3.08s-4.42,1.34-4.42,3.92v9.38h-2.35V300.33c0-1.71-1.63-2.91-3.73-2.91a4.16,4.16,0,0,0-4.42,4.06v9.24h-2.35Z"/><path class="cls-3" d="M305.52,289.49H308v2.69h-2.52Zm.05,6.22H308v15h-2.38Z"/><path class="cls-3" d="M312.85,288.32h2.38v18.31a1.88,1.88,0,0,0,2,2.13,4.73,4.73,0,0,0,1.37-.17l.09,2.07a8.15,8.15,0,0,1-2,.23c-2,0-3.87-1.12-3.87-3.5Z"/><path class="cls-3" d="M326.21,312.9c-1.26,2.69-3.17,3.42-4.76,3.42a4.86,4.86,0,0,1-1.76-.37l.75-2.1a2.55,2.55,0,0,0,1.18.29c1,0,1.79-.62,2.63-2.27l1-2-6.39-14.14h2.55l5.12,11.51,5.24-11.51h2.47Z"/><path class="cls-3" d="M349.92,311.06c-3.3,0-5.65-1-7.16-2.53l1.65-1.95A7.5,7.5,0,0,0,350,309c2.18,0,3.95-1.28,3.95-3.13s-1.07-2.94-4.48-4.37c-4.65-1.85-6.11-3.13-6.11-6.38s2.47-5.13,6.19-5.13a9.07,9.07,0,0,1,6.13,2.24l-1.43,2.07a7.66,7.66,0,0,0-4.92-2c-2.1,0-3.5,1.09-3.5,2.8,0,1.93,1.34,2.83,4.9,4.34,4.36,1.76,5.74,3.27,5.74,6.18C356.48,309,353.48,311.06,349.92,311.06Z"/><path class="cls-3" d="M367.2,311c-4.51,0-7.84-2.86-7.84-7.81a7.67,7.67,0,0,1,7.7-7.84c4.42,0,7.42,3.19,7.45,8.59h-12.8a5.09,5.09,0,0,0,5.41,4.93,6.33,6.33,0,0,0,5.15-2.21l1.48,1.62A8,8,0,0,1,367.2,311Zm4.84-8.85a4.82,4.82,0,0,0-5.09-4.79,5.24,5.24,0,0,0-5.24,4.79Z"/><path class="cls-3" d="M378,288.32h2.38v18.31a1.87,1.87,0,0,0,2,2.13,4.8,4.8,0,0,0,1.38-.17l.08,2.07a8.08,8.08,0,0,1-2,.23c-2,0-3.86-1.12-3.86-3.5Z"/><path class="cls-3" d="M393.24,311c-4.51,0-7.84-2.86-7.84-7.81a7.67,7.67,0,0,1,7.7-7.84c4.42,0,7.42,3.19,7.45,8.59h-12.8a5.09,5.09,0,0,0,5.41,4.93,6.33,6.33,0,0,0,5.15-2.21l1.48,1.62A8,8,0,0,1,393.24,311Zm4.84-8.85a4.82,4.82,0,0,0-5.09-4.79,5.24,5.24,0,0,0-5.24,4.79Z"/><path class="cls-3" d="M417.35,307.41A7.79,7.79,0,0,1,403,303.24a7.65,7.65,0,0,1,7.81-7.86c3.65,0,5.69,2,6.42,3.89l-2,.92a4.7,4.7,0,0,0-4.45-2.71,5.4,5.4,0,0,0-5.29,5.71c0,3.27,2.07,5.71,5.35,5.71a5.23,5.23,0,0,0,4.73-2.74Z"/><path class="cls-3" d="M428.07,310.1a5.59,5.59,0,0,1-3.08.79c-2.21,0-4-1.26-4-4.31v-8.94h-2.38v-1.93H421v-4l2.35-.31v4.34h4.2v1.93h-4.2v8.85c0,1.46.7,2.33,2,2.33a5.48,5.48,0,0,0,2.35-.62Z"/><path class="cls-3" d="M431.07,289.49h2.52v2.69h-2.52Zm.05,6.22h2.38v15h-2.38Z"/><path class="cls-3" d="M445,311a7.53,7.53,0,0,1-7.7-7.76,7.83,7.83,0,0,1,7.78-7.89c4.43,0,7.87,3,7.87,7.5A7.91,7.91,0,0,1,445,311Zm.17-2.1c3.16,0,5.35-2.58,5.35-5.88A5.36,5.36,0,0,0,445,297.5c-3.05,0-5.21,2.52-5.21,5.8A5.3,5.3,0,0,0,445.18,308.93Z"/><path class="cls-3" d="M467.35,310.72V300.36c0-1.88-1.76-2.94-3.66-2.94s-4.62,1.23-4.62,3.95v9.35h-2.36v-15h2.05V299a5.68,5.68,0,0,1,5.68-3.66c2.75,0,5.27,1.65,5.27,4.25v11.09Z"/><path class="cls-3" d="M488.44,316a15,15,0,0,1-8.15-13.44,13.94,13.94,0,0,1,8.15-12.76v1.79c-2.75,1.68-5.27,5.32-5.29,11,0,4.93,2.07,9.22,5.29,11.4Z"/><path class="cls-3" d="M501.6,305.4v5.32h-2.27V305.4h-10v-1.79l10.41-13.7h1.88v13.53h3.5v2Zm-2.24-11.93-7.42,10h7.42Z"/><path class="cls-3" d="M518,305.4v5.32h-2.27V305.4h-10v-1.79l10.41-13.7H518v13.53h3.5v2Zm-2.24-11.93-7.42,10h7.42Z"/><path class="cls-3" d="M522,289.75c4.06,1.62,8.15,6.44,8.15,13.05A14.59,14.59,0,0,1,522,316v-2.07a13.48,13.48,0,0,0,5.29-11.08c0-6.05-2.77-9.78-5.29-11.32Z"/><line class="cls-4" x1="545.07" y1="269.79" x2="545.07" y2="330.96"/><circle class="cls-4" cx="187.32" cy="290.48" r="8.49"/><line class="cls-4" x1="171.84" y1="305.35" x2="180.99" y2="296.2"/><rect class="cls-4" x="156.79" y="401.03" width="444.54" height="61.07" rx="4.87"/><polyline class="cls-4" points="582.13 427.8 576.12 432.39 570.11 436.99 564.1 432.39 558.1 427.8"/><path class="cls-3" d="M181.18,443.37c-3.93,0-6.75-1-8.67-2.67l2.61-3.78a9.24,9.24,0,0,0,6.24,2.53c1.77,0,3-.79,3-2s-.81-2.08-4-3.27c-5.31-1.95-7.11-3.48-7.11-7.36s3.12-6,7.8-6a11.73,11.73,0,0,1,7.5,2.46l-2.28,3.93a9.55,9.55,0,0,0-5.43-2.19c-1.77,0-2.76.66-2.76,1.82,0,1.38,1.29,2.08,4.68,3.37,4.68,1.76,6.57,3.26,6.57,6.93C189.34,441.12,185.56,443.37,181.18,443.37Z"/><path class="cls-3" d="M203.08,442.35a8.29,8.29,0,0,1-3.75.85c-3.51,0-6-2-6-6v-7.38h-2.28v-3.72h2.28v-4.2l4.47-.51v4.71h4.44v3.72h-4.44v7c0,1.47.6,2.36,2.07,2.36a5.94,5.94,0,0,0,2.46-.54Z"/><path class="cls-3" d="M212.62,444.91A7.1,7.1,0,0,1,206,449a6.18,6.18,0,0,1-2.55-.57l1.29-3.6a3.36,3.36,0,0,0,1.44.33c1.05,0,1.8-.59,2.55-1.95l1.05-1.94L203,426.13h4.83l4.41,10.11,4.5-10.11h4.65Z"/><path class="cls-3" d="M223.24,419h4.5v17.85a2.14,2.14,0,0,0,2.31,2.37,6.07,6.07,0,0,0,1.59-.19l0,3.94a17.16,17.16,0,0,1-2.61.21c-2.94,0-5.82-1.54-5.82-4.92Z"/><path class="cls-3" d="M241.93,443.34c-5.22,0-8.88-3.12-8.88-8.67a8.59,8.59,0,0,1,8.76-8.93c5.22,0,8.37,3.66,8.4,10.22H237.58c.12,1.74,1.5,3.54,4.32,3.54a5.62,5.62,0,0,0,4.59-1.92l2.67,2.85C247.6,442.12,245.59,443.34,241.93,443.34Zm3.6-10.38a3.63,3.63,0,0,0-3.87-3.47,4,4,0,0,0-4,3.47Z"/><path class="cls-3" d="M269.5,443.37c-3.93,0-6.75-1-8.67-2.67l2.61-3.78a9.24,9.24,0,0,0,6.24,2.53c1.77,0,3-.79,3-2s-.81-2.08-4-3.27c-5.31-1.95-7.11-3.48-7.11-7.36s3.12-6,7.8-6a11.73,11.73,0,0,1,7.5,2.46l-2.28,3.93a9.55,9.55,0,0,0-5.43-2.19c-1.77,0-2.76.66-2.76,1.82,0,1.38,1.29,2.08,4.68,3.37,4.68,1.76,6.57,3.26,6.57,6.93C277.66,441.12,273.88,443.37,269.5,443.37Z"/><path class="cls-3" d="M289.15,443.34c-5.22,0-8.88-3.12-8.88-8.67a8.59,8.59,0,0,1,8.76-8.93c5.22,0,8.37,3.66,8.4,10.22H284.8c.12,1.74,1.5,3.54,4.32,3.54a5.62,5.62,0,0,0,4.59-1.92l2.67,2.85C294.82,442.12,292.81,443.34,289.15,443.34Zm3.6-10.38a3.63,3.63,0,0,0-3.87-3.47,4,4,0,0,0-4.05,3.47Z"/><path class="cls-3" d="M300.61,419h4.5v17.85a2.14,2.14,0,0,0,2.31,2.37,6.07,6.07,0,0,0,1.59-.19l0,3.94a17.16,17.16,0,0,1-2.61.21c-2.94,0-5.82-1.54-5.82-4.92Z"/><path class="cls-3" d="M319.3,443.34c-5.22,0-8.88-3.12-8.88-8.67a8.59,8.59,0,0,1,8.76-8.93c5.22,0,8.37,3.66,8.4,10.22H315c.12,1.74,1.5,3.54,4.32,3.54a5.62,5.62,0,0,0,4.59-1.92l2.67,2.85C325,442.12,323,443.34,319.3,443.34ZM322.9,433a3.63,3.63,0,0,0-3.87-3.47,4,4,0,0,0-4,3.47Z"/><path class="cls-3" d="M346.27,439.29a8.5,8.5,0,0,1-7.74,4c-4.86,0-8.7-3.09-8.7-8.76a8.48,8.48,0,0,1,8.88-8.84c4.29,0,6.69,2.34,7.47,4.83l-3.9,1.71a3.74,3.74,0,0,0-3.72-2.52c-2.52,0-4.08,1.94-4.08,4.77,0,3.17,1.62,4.8,4.23,4.8a4.32,4.32,0,0,0,4-2.46Z"/><path class="cls-3" d="M359.23,442.35a8.29,8.29,0,0,1-3.75.85c-3.51,0-6-2-6-6v-7.38h-2.28v-3.72h2.28v-4.2l4.47-.51v4.71h4.44v3.72H354v7c0,1.47.6,2.36,2.07,2.36a5.94,5.94,0,0,0,2.46-.54Z"/><path class="cls-3" d="M361.69,419.41h4.68v4.17h-4.68Zm.06,6.72h4.56V443h-4.56Z"/><path class="cls-3" d="M378.7,443.34c-4.56,0-8.85-3-8.85-8.72a8.87,8.87,0,0,1,8.85-8.88c5,0,9.09,3.06,9.09,8.4A9,9,0,0,1,378.7,443.34Zm.09-4c2.7,0,4.35-2,4.35-5a4.17,4.17,0,0,0-4.47-4.53c-2.58,0-4.14,1.95-4.14,4.8C374.53,437.74,376.39,439.36,378.79,439.36Z"/><path class="cls-3" d="M402.1,443v-11.1c0-1.5-1.2-2.27-2.7-2.27-1.83,0-3.66,1.05-3.66,3.06V443h-4.53V426.13h4v3c.69-2,2.76-3.36,5.7-3.36,3.12,0,5.73,1.92,5.73,4.71V443Z"/><line class="cls-4" x1="541.01" y1="400.95" x2="541.01" y2="462.13"/><path class="cls-3" d="M292.54,205.66c-3.34,0-5.71-1-7.23-2.54l1.66-2a7.56,7.56,0,0,0,5.65,2.4c2.2,0,4-1.3,4-3.16s-1.07-3-4.52-4.41c-4.68-1.86-6.15-3.16-6.15-6.44s2.48-5.17,6.24-5.17a9.15,9.15,0,0,1,6.18,2.26l-1.44,2.09a7.76,7.76,0,0,0-5-2c-2.12,0-3.53,1.1-3.53,2.82,0,1.95,1.36,2.85,4.95,4.38,4.4,1.78,5.79,3.3,5.79,6.24C299.15,203.54,296.12,205.66,292.54,205.66Z"/><path class="cls-3" d="M316.54,202a7.86,7.86,0,0,1-14.49-4.21,7.73,7.73,0,0,1,7.88-7.94c3.68,0,5.74,2,6.47,3.93l-2.06.93a4.74,4.74,0,0,0-4.49-2.74,5.46,5.46,0,0,0-5.34,5.76c0,3.31,2.09,5.76,5.4,5.76a5.27,5.27,0,0,0,4.77-2.76Z"/><path class="cls-3" d="M329.42,192.83a3.87,3.87,0,0,0-2.68-.87,4.55,4.55,0,0,0-4.44,4.49v8.87h-2.37V190.18h2.15v3.73a5.61,5.61,0,0,1,5.59-4.07,4.76,4.76,0,0,1,3,.82Z"/><path class="cls-3" d="M333.12,183.91h2.54v2.71h-2.54Zm.06,6.27h2.4v15.14h-2.4Z"/><path class="cls-3" d="M340.72,190.18h2.17v4a5.62,5.62,0,0,1,5.82-4.32c4.12,0,6.86,2.91,6.86,7.62s-3,8-6.89,8a5.53,5.53,0,0,1-5.59-3.84v9.12h-2.37Zm7.43,13.33c2.85,0,5-2.51,5-5.9s-1.73-5.74-4.95-5.74c-3,0-5.22,1.93-5.22,5.94S345.24,203.51,348.15,203.51Z"/><path class="cls-3" d="M366.79,204.7a5.68,5.68,0,0,1-3.11.79c-2.23,0-4-1.27-4-4.35v-9h-2.4v-1.95h2.4v-4.07l2.37-.31v4.38h4.24v1.95H362v8.92c0,1.47.71,2.35,2,2.35a5.54,5.54,0,0,0,2.37-.62Z"/><path class="cls-3" d="M386.25,205.66c-5.43,0-10.2-4.1-10.2-10.65,0-6.24,4.35-10.65,10.22-10.65,3.73,0,6.36,1.13,8.17,3.42l-1.92,1.58a7.67,7.67,0,0,0-6.19-2.65c-4.72,0-7.71,3.27-7.71,8.22,0,5.48,3.93,8.44,7.91,8.44a7.63,7.63,0,0,0,6.49-3.19l1.9,1.35A10.33,10.33,0,0,1,386.25,205.66Z"/><path class="cls-3" d="M409.18,205.32V195c0-2-1.7-3.14-3.79-3.14s-4.6,1.27-4.6,3.93v9.49h-2.37v-22.6h2.17v10.51c.51-2,2.77-3.39,5.6-3.39s5.33,1.56,5.33,4.49v11Z"/><path class="cls-3" d="M422.85,205.63a7.6,7.6,0,0,1-7.77-7.82,7.9,7.9,0,0,1,7.85-8c4.47,0,7.94,3,7.94,7.57A8,8,0,0,1,422.85,205.63Zm.17-2.12c3.19,0,5.39-2.6,5.39-5.93a5.4,5.4,0,0,0-5.59-5.59c-3.08,0-5.25,2.54-5.25,5.84A5.34,5.34,0,0,0,423,203.51Z"/><path class="cls-3" d="M434.63,183.91h2.54v2.71h-2.54Zm.05,6.27h2.4v15.14h-2.4Z"/><path class="cls-3" d="M455.41,202a7.86,7.86,0,0,1-14.49-4.21,7.73,7.73,0,0,1,7.88-7.94c3.67,0,5.74,2,6.47,3.93l-2.06.93a4.74,4.74,0,0,0-4.49-2.74,5.46,5.46,0,0,0-5.34,5.76c0,3.31,2.09,5.76,5.39,5.76a5.28,5.28,0,0,0,4.78-2.76Z"/><path class="cls-3" d="M465.41,205.63c-4.55,0-7.91-2.88-7.91-7.88a7.74,7.74,0,0,1,7.77-7.91c4.46,0,7.48,3.22,7.51,8.67H459.87a5.15,5.15,0,0,0,5.46,5,6.33,6.33,0,0,0,5.19-2.23l1.5,1.64A8.13,8.13,0,0,1,465.41,205.63Zm4.89-8.93a4.88,4.88,0,0,0-5.14-4.83,5.29,5.29,0,0,0-5.29,4.83Z"/><path class="cls-3" d="M308.75,150l-2.41-6h-8.87l-2.29,6h-2.64l8.69-21.53H303L311.57,150Zm-6.84-17.65L298.12,142h7.61Z"/><path class="cls-3" d="M324.35,150V147.8a7.27,7.27,0,0,1-5.94,2.47c-3.41,0-5.49-1.77-5.49-4.59,0-3.55,2.91-5.37,7.43-5.64l4-.23v-.29c0-2.41-1.47-3.5-3.94-3.5a10.37,10.37,0,0,0-5.38,1.76L314,136a11.73,11.73,0,0,1,6.72-2.08c3.73,0,6.08,1.67,6.08,5.61V150Zm0-8.31-4.31.2c-2.65.15-4.53,1.24-4.53,3.47,0,1.82,1.53,2.94,3.76,2.94a6.53,6.53,0,0,0,5.08-2.35Z"/><path class="cls-3" d="M390.66,138.81c0,5.52-4.35,9.58-10.11,9.58v2.05h-2.64v-2.05c-5.76,0-10.1-4.06-10.1-9.58s4.34-9.57,10.1-9.57v-2.06h2.64v2.06C386.31,129.24,390.66,133.29,390.66,138.81Zm-12.75-7.11a7.12,7.12,0,1,0,0,14.22ZM388,138.81a7.09,7.09,0,0,0-7.44-7.11v14.22A7.09,7.09,0,0,0,388,138.81Z"/><path class="cls-3" d="M448.89,126a124.79,124.79,0,0,1-1.41,13.12q-1.19,7.78-12.45,12.52l-.62-1q8.86-4.6,10.65-11.15a54,54,0,0,0,1.68-14.9l3.45.35a1.08,1.08,0,0,1-.43.75A1.59,1.59,0,0,1,448.89,126Zm11.86,8.31H435.19l-.41-1.44h22.68l-.72.63,1.9-2.36c1.51,1.22,2.54,2.08,3.08,2.58a.63.63,0,0,1-.28.41A1.16,1.16,0,0,1,460.75,134.26Zm-12.61-.54h1.13a24.85,24.85,0,0,0,3.49,8.54q2.67,4.2,9.17,7.18l-.06.33a2.94,2.94,0,0,0-1.29.43,2,2,0,0,0-.74,1.18,19.89,19.89,0,0,1-8.56-8.22A31.18,31.18,0,0,1,448.14,133.72Z"/><rect class="cls-4" x="417.37" y="108.08" width="61.67" height="60.89" rx="4.87"/><rect class="cls-4" x="348.4" y="108.08" width="61.67" height="60.89" rx="4.87"/><rect class="cls-4" x="279.82" y="108.08" width="61.67" height="60.89" rx="4.87"/><path class="cls-5" d="M816.39,684.74a11,11,0,0,1-11.31-11.46,10.88,10.88,0,0,1,11.07-11.16c6.69,0,11.37,4.74,11.37,11.25A11.07,11.07,0,0,1,816.39,684.74Zm.18-2.31c4.65,0,8.28-3.45,8.28-9a8.62,8.62,0,0,0-8.85-8.88c-4.74,0-8.22,3.39-8.22,8.7C807.78,678.83,811.8,682.43,816.57,682.43Z"/><path class="cls-5" d="M833.94,668.3v10.11c0,3.12,1.92,4.17,4.38,4.17a4.28,4.28,0,0,0,4.5-4.26v-10h2.55v16.08h-2.31V681c-.51,1.92-2.61,3.78-5.73,3.78s-5.91-1.65-5.91-5.34V668.3Z"/><path class="cls-5" d="M858.63,683.72a6,6,0,0,1-3.3.84c-2.37,0-4.29-1.35-4.29-4.62v-9.57h-2.55V668.3H851V664l2.52-.33v4.65h4.5v2.07h-4.5v9.48c0,1.56.75,2.49,2.1,2.49a5.83,5.83,0,0,0,2.52-.66Z"/><path class="cls-5" d="M861.87,668.3h2.31v4.29a6,6,0,0,1,6.18-4.59c4.38,0,7.29,3.09,7.29,8.1s-3.15,8.49-7.32,8.49a5.87,5.87,0,0,1-5.94-4.08v9.69h-2.52Zm7.89,14.16c3,0,5.28-2.67,5.28-6.27s-1.83-6.09-5.25-6.09c-3.18,0-5.55,2-5.55,6.3S866.67,682.46,869.76,682.46Z"/><path class="cls-5" d="M884,668.3v10.11c0,3.12,1.92,4.17,4.38,4.17a4.28,4.28,0,0,0,4.5-4.26v-10h2.55v16.08h-2.31V681c-.51,1.92-2.61,3.78-5.73,3.78s-5.91-1.65-5.91-5.34V668.3Z"/><path class="cls-5" d="M908.64,683.72a6,6,0,0,1-3.3.84c-2.37,0-4.29-1.35-4.29-4.62v-9.57H898.5V668.3h2.55V664l2.52-.33v4.65h4.5v2.07h-4.5v9.48c0,1.56.75,2.49,2.1,2.49a5.83,5.83,0,0,0,2.52-.66Z"/><rect class="cls-3" x="456.62" y="784.95" width="4.29" height="4.29"/><rect class="cls-3" x="297.94" y="784.95" width="4.29" height="4.29"/><rect class="cls-6" x="299.96" y="787.03" width="158.73" height="39.46"/><rect class="cls-3" x="304.41" y="814.94" width="2.59" height="2.59"/><line class="cls-6" x1="306.61" y1="816.27" x2="451.17" y2="816.27"/><rect class="cls-3" x="451.19" y="815.02" width="2.59" height="2.59"/><rect class="cls-3" x="456.62" y="824.24" width="4.29" height="4.29"/><rect class="cls-3" x="297.94" y="824.24" width="4.29" height="4.29"/><path class="cls-3" d="M310,794.05h6.45c3.72,0,6.36,2.22,6.36,5.79a5.77,5.77,0,0,1-5.07,6.09l-.09.09,6.78,9.93h-3.21l-6.18-9.36h-2.37V816H310Zm5.67,10.35c2.52,0,4.41-1.47,4.41-4.23a3.76,3.76,0,0,0-4.11-4h-3.33v8.19Z"/><path class="cls-3" d="M335.09,816.28c-4.83,0-8.4-3.06-8.4-8.37a8.22,8.22,0,0,1,8.25-8.4c4.74,0,7.94,3.42,8,9.21H329.21A5.46,5.46,0,0,0,335,814a6.76,6.76,0,0,0,5.52-2.37l1.59,1.74A8.62,8.62,0,0,1,335.09,816.28Zm5.18-9.48a5.16,5.16,0,0,0-5.45-5.13,5.61,5.61,0,0,0-5.61,5.13Z"/><path class="cls-3" d="M352.21,816.28a10.37,10.37,0,0,1-6.75-2.1l1.15-1.71a9.87,9.87,0,0,0,5.48,1.8c1.8,0,3.27-1.14,3.27-2.58,0-1.26-.9-2.19-4.25-3.15-3.88-1.11-5-2.76-5-4.89,0-2.52,2.48-4.14,5.6-4.14a9.45,9.45,0,0,1,5.82,1.68l-1,1.92a8.54,8.54,0,0,0-4.65-1.59c-1.73,0-3.23.87-3.23,2.16s.48,2,4,3c3.84,1.14,5.28,2.55,5.28,4.92C357.94,814.45,355.36,816.28,352.21,816.28Z"/><path class="cls-3" d="M361.78,799.87h2.31v4.29a6,6,0,0,1,6.18-4.59c4.38,0,7.29,3.09,7.29,8.1s-3.15,8.49-7.32,8.49a5.87,5.87,0,0,1-5.94-4.08v9.69h-2.52ZM369.67,814c3,0,5.28-2.67,5.28-6.27s-1.83-6.09-5.25-6.09c-3.18,0-5.55,2-5.55,6.3S366.58,814,369.67,814Z"/><path class="cls-3" d="M388.45,816.28A8.07,8.07,0,0,1,380.2,808a8.39,8.39,0,0,1,8.34-8.46c4.74,0,8.43,3.24,8.43,8A8.47,8.47,0,0,1,388.45,816.28Zm.18-2.25c3.39,0,5.73-2.76,5.73-6.3a5.74,5.74,0,0,0-5.94-5.94c-3.27,0-5.58,2.7-5.58,6.21A5.67,5.67,0,0,0,388.63,814Z"/><path class="cls-3" d="M412.39,816v-11.1c0-2-1.89-3.15-3.93-3.15s-4.95,1.32-4.95,4.23v10H401V799.87h2.19v3.57c.75-2.37,3.15-3.93,6.09-3.93s5.64,1.77,5.64,4.56V816Z"/><path class="cls-3" d="M425.38,816.28a10.35,10.35,0,0,1-6.75-2.1l1.14-1.71a9.91,9.91,0,0,0,5.49,1.8c1.8,0,3.27-1.14,3.27-2.58,0-1.26-.9-2.19-4.26-3.15-3.87-1.11-5-2.76-5-4.89,0-2.52,2.49-4.14,5.61-4.14a9.45,9.45,0,0,1,5.82,1.68l-1,1.92a8.54,8.54,0,0,0-4.65-1.59c-1.74,0-3.24.87-3.24,2.16s.48,2,4,3c3.84,1.14,5.28,2.55,5.28,4.92C431.11,814.45,428.53,816.28,425.38,816.28Z"/><path class="cls-3" d="M442,816.28c-4.83,0-8.4-3.06-8.4-8.37a8.22,8.22,0,0,1,8.25-8.4c4.74,0,7.95,3.42,8,9.21H436.09a5.46,5.46,0,0,0,5.79,5.28,6.76,6.76,0,0,0,5.52-2.37l1.59,1.74A8.62,8.62,0,0,1,442,816.28Zm5.19-9.48a5.17,5.17,0,0,0-5.46-5.13,5.61,5.61,0,0,0-5.61,5.13Z"/><rect class="cls-4" x="268.07" y="775.93" width="221.82" height="61.07" rx="4.87"/><rect class="cls-4" x="156.79" y="528.77" width="444.47" height="61.07" rx="4.87"/><path class="cls-3" d="M181.27,551.19v19.56h-2.7V551.19h-6.42v-2.34h15.72v2.34Z"/><path class="cls-3" d="M201,557.49a4.06,4.06,0,0,0-2.85-.93,4.83,4.83,0,0,0-4.71,4.77v9.42h-2.52V554.67h2.28v4a6,6,0,0,1,5.94-4.32,5.07,5.07,0,0,1,3.21.87Z"/><path class="cls-3" d="M211.93,571.08c-4.83,0-8.4-3.06-8.4-8.37a8.22,8.22,0,0,1,8.25-8.4c4.74,0,7.95,3.42,8,9.21H206.05a5.46,5.46,0,0,0,5.79,5.28,6.76,6.76,0,0,0,5.52-2.37l1.59,1.74A8.62,8.62,0,0,1,211.93,571.08Zm5.19-9.48a5.17,5.17,0,0,0-5.46-5.13,5.61,5.61,0,0,0-5.61,5.13Z"/><path class="cls-3" d="M234,570.75v-2.28A7.41,7.41,0,0,1,228,571c-3.48,0-5.61-1.8-5.61-4.68,0-3.63,3-5.49,7.59-5.76l4-.24V560c0-2.46-1.5-3.57-4-3.57a10.58,10.58,0,0,0-5.49,1.8l-1.05-1.86a12,12,0,0,1,6.87-2.13c3.81,0,6.21,1.71,6.21,5.73v10.77Zm0-8.49-4.41.21c-2.7.15-4.62,1.26-4.62,3.54,0,1.86,1.56,3,3.84,3a6.69,6.69,0,0,0,5.19-2.4Z"/><path class="cls-3" d="M249.31,570.09a6,6,0,0,1-3.3.84c-2.37,0-4.29-1.35-4.29-4.62v-9.57h-2.55v-2.07h2.55v-4.32l2.52-.33v4.65h4.5v2.07h-4.5v9.48c0,1.56.75,2.49,2.1,2.49a5.83,5.83,0,0,0,2.52-.66Z"/><path class="cls-3" d="M252.55,554.67h2.25v3.48c.72-2.37,3.36-3.84,6-3.84s5,1.44,5.25,3.75h.12c.51-2.22,3.12-3.75,5.7-3.75,3.21,0,5.7,1.68,5.7,4.77v11.67H275v-11c0-2.25-1.8-3.3-4-3.3s-4.74,1.44-4.74,4.2v10H263.8V559.62c0-1.83-1.74-3.12-4-3.12a4.47,4.47,0,0,0-4.74,4.35v9.9h-2.52Z"/><path class="cls-3" d="M289.72,571.08c-4.83,0-8.4-3.06-8.4-8.37a8.22,8.22,0,0,1,8.25-8.4c4.74,0,7.95,3.42,8,9.21H283.84a5.46,5.46,0,0,0,5.79,5.28,6.76,6.76,0,0,0,5.52-2.37l1.59,1.74A8.62,8.62,0,0,1,289.72,571.08Zm5.19-9.48a5.17,5.17,0,0,0-5.46-5.13,5.61,5.61,0,0,0-5.61,5.13Z"/><path class="cls-3" d="M312.94,570.75v-11.1c0-2-1.89-3.15-3.93-3.15s-4.95,1.32-4.95,4.23v10h-2.52V554.67h2.19v3.57c.75-2.37,3.15-3.93,6.09-3.93s5.64,1.77,5.64,4.56v11.88Z"/><path class="cls-3" d="M328.51,570.09a6,6,0,0,1-3.3.84c-2.37,0-4.29-1.35-4.29-4.62v-9.57h-2.55v-2.07h2.55v-4.32l2.52-.33v4.65h4.5v2.07h-4.5v9.48c0,1.56.75,2.49,2.1,2.49a5.83,5.83,0,0,0,2.52-.66Z"/><path class="cls-3" d="M337.06,571.08a10.35,10.35,0,0,1-6.75-2.1l1.14-1.71a9.91,9.91,0,0,0,5.49,1.8c1.8,0,3.27-1.14,3.27-2.58,0-1.26-.9-2.19-4.26-3.15-3.87-1.11-5-2.76-5-4.89,0-2.52,2.49-4.14,5.61-4.14A9.45,9.45,0,0,1,342.4,556l-1,1.92a8.54,8.54,0,0,0-4.65-1.59c-1.74,0-3.24.87-3.24,2.16s.48,1.95,4,3c3.84,1.14,5.28,2.55,5.28,4.92C342.79,569.25,340.21,571.08,337.06,571.08Z"/><line class="cls-4" x1="543.78" y1="528.68" x2="543.78" y2="589.86"/><path class="cls-3" d="M518.93,553.47l-1.36-3.36h-5.85l-1.26,3.36h-2.71L514,538.1h1.8l6.06,15.37Zm-4.28-11.35-2.33,6H517Z"/><path class="cls-3" d="M518.93,575l-1.36-3.35h-5.85L510.46,575h-2.71L514,559.67h1.8L521.82,575Zm-4.28-11.34-2.33,6H517Z"/><polyline class="cls-7" points="562.81 551.69 567.6 548.03 572.39 544.36 577.18 548.03 581.97 551.69"/><polyline class="cls-7" points="581.97 568.03 577.18 571.7 572.39 575.36 567.6 571.7 562.81 568.03"/><path class="cls-3" d="M435.82,556.42V574.8H432V556.42h-6.21v-3.3h16.46v3.3Z"/><path class="cls-3" d="M451.61,548.53V574.8H446.1V548.53h-8.87v-4.71h23.51v4.71Z"/><line class="cls-8" x1="506.19" y1="555.5" x2="523.47" y2="555.5"/><line class="cls-8" x1="506.19" y1="577.3" x2="523.47" y2="577.3"/><path class="cls-3" d="M503.19,561.37l-1.66-1.7-1.67-1.7-1.67,1.7-1.67,1.7Z"/><path class="cls-3" d="M496.52,574.05l1.67,1.7,1.67,1.7,1.67-1.7,1.66-1.7Z"/><line class="cls-8" x1="499.86" y1="561.35" x2="499.86" y2="575.36"/><line class="cls-4" x1="409.83" y1="528.79" x2="409.83" y2="589.96"/><line class="cls-4" x1="477.67" y1="528.79" x2="477.67" y2="589.96"/><rect class="cls-4" x="268.07" y="652.26" width="221.82" height="61.07" rx="4.87"/><path class="cls-3" d="M296.54,693.47c-3.54,0-6.06-1.08-7.68-2.7l1.77-2.1a8,8,0,0,0,6,2.55c2.34,0,4.23-1.38,4.23-3.36s-1.14-3.15-4.8-4.68c-5-2-6.54-3.36-6.54-6.84s2.64-5.49,6.63-5.49a9.7,9.7,0,0,1,6.57,2.4l-1.53,2.22a8.24,8.24,0,0,0-5.28-2.13c-2.25,0-3.75,1.17-3.75,3,0,2.07,1.44,3,5.25,4.65,4.68,1.89,6.15,3.51,6.15,6.63C303.56,691.22,300.35,693.47,296.54,693.47Z"/><path class="cls-3" d="M310.31,677v10.11c0,3.12,1.92,4.17,4.38,4.17a4.28,4.28,0,0,0,4.5-4.26V677h2.55v16.08h-2.31v-3.42c-.51,1.92-2.61,3.78-5.73,3.78s-5.91-1.65-5.91-5.34V677Z"/><path class="cls-3" d="M333.17,693c-4.35,0-7.41-3.3-7.41-8s3.09-8.25,7.5-8.25a6,6,0,0,1,5.94,4V677h2.31V690.8c0,5.85-4.68,8.37-8.7,8.37a10.93,10.93,0,0,1-5.76-1.23l1.17-2.13a8.06,8.06,0,0,0,4.38,1.2c3.48,0,6.48-2,6.48-6.15v-2.28A6.45,6.45,0,0,1,333.17,693Zm.63-2.1c2.55,0,5.28-2,5.28-6.18,0-3.6-2.31-5.76-5.22-5.76-3.27,0-5.49,2.43-5.49,6.18S330.41,690.92,333.8,690.92Z"/><path class="cls-3" d="M352.79,693c-4.35,0-7.41-3.3-7.41-8s3.09-8.25,7.5-8.25a6,6,0,0,1,5.94,4V677h2.31V690.8c0,5.85-4.68,8.37-8.7,8.37a10.93,10.93,0,0,1-5.76-1.23l1.17-2.13a8.06,8.06,0,0,0,4.38,1.2c3.48,0,6.48-2,6.48-6.15v-2.28A6.45,6.45,0,0,1,352.79,693Zm.63-2.1c2.55,0,5.28-2,5.28-6.18,0-3.6-2.31-5.76-5.22-5.76-3.27,0-5.49,2.43-5.49,6.18S350,690.92,353.42,690.92Z"/><path class="cls-3" d="M373.37,693.44c-4.83,0-8.4-3.06-8.4-8.37a8.22,8.22,0,0,1,8.25-8.4c4.74,0,7.94,3.42,8,9.21h-13.7a5.45,5.45,0,0,0,5.78,5.28,6.74,6.74,0,0,0,5.52-2.37l1.59,1.74A8.6,8.6,0,0,1,373.37,693.44Zm5.18-9.48a5.16,5.16,0,0,0-5.45-5.13,5.61,5.61,0,0,0-5.61,5.13Z"/><path class="cls-3" d="M390.5,693.44a10.35,10.35,0,0,1-6.75-2.1l1.14-1.71a9.91,9.91,0,0,0,5.49,1.8c1.79,0,3.27-1.14,3.27-2.58,0-1.26-.9-2.19-4.26-3.15-3.87-1.11-5-2.76-5-4.89,0-2.52,2.49-4.14,5.61-4.14a9.41,9.41,0,0,1,5.81,1.68l-.95,1.92a8.6,8.6,0,0,0-4.65-1.59c-1.75,0-3.24.87-3.24,2.16s.48,1.95,3.95,3c3.84,1.14,5.28,2.55,5.28,4.92C396.22,691.61,393.65,693.44,390.5,693.44Z"/><path class="cls-3" d="M408,692.45a6,6,0,0,1-3.3.84c-2.36,0-4.28-1.35-4.28-4.62V679.1h-2.55V677h2.55v-4.32l2.52-.33V677h4.49v2.07h-4.49v9.48c0,1.56.74,2.49,2.09,2.49a5.83,5.83,0,0,0,2.52-.66Z"/><path class="cls-3" d="M411.16,670.37h2.7v2.88h-2.7Zm.06,6.66h2.55v16.08h-2.55Z"/><path class="cls-3" d="M426.1,693.44a8.07,8.07,0,0,1-8.25-8.31,8.39,8.39,0,0,1,8.34-8.46c4.74,0,8.43,3.24,8.43,8A8.47,8.47,0,0,1,426.1,693.44Zm.18-2.25c3.39,0,5.73-2.76,5.73-6.3a5.74,5.74,0,0,0-5.94-5.94c-3.27,0-5.58,2.7-5.58,6.21A5.67,5.67,0,0,0,426.28,691.19Z"/><path class="cls-3" d="M450,693.11V682c0-2-1.89-3.15-3.93-3.15s-4.95,1.32-4.95,4.23v10h-2.52V677h2.19v3.57c.75-2.37,3.15-3.93,6.09-3.93s5.64,1.77,5.64,4.56v11.88Z"/><path class="cls-3" d="M463,693.44a10.35,10.35,0,0,1-6.75-2.1l1.14-1.71a9.91,9.91,0,0,0,5.49,1.8c1.8,0,3.27-1.14,3.27-2.58,0-1.26-.9-2.19-4.26-3.15-3.87-1.11-5-2.76-5-4.89,0-2.52,2.49-4.14,5.61-4.14a9.45,9.45,0,0,1,5.82,1.68l-1,1.92a8.54,8.54,0,0,0-4.65-1.59c-1.74,0-3.24.87-3.24,2.16s.48,1.95,4,3c3.84,1.14,5.28,2.55,5.28,4.92C468.76,691.61,466.18,693.44,463,693.44Z"/><polyline class="cls-4" points="490.14 807.51 641.49 807.51 641.49 494.25 686.71 494.25"/><path class="cls-3" d="M686,500l2.93-2.87,2.93-2.87-2.93-2.87L686,488.48Z"/><rect class="cls-4" x="732.73" y="284.58" width="250.96" height="355.6"/><rect class="cls-9" x="763.15" y="369.31" width="190.6" height="8.58"/><rect class="cls-9" x="763.15" y="382.66" width="190.6" height="8.58"/><rect class="cls-9" x="763.15" y="395.84" width="190.6" height="8.58"/><rect class="cls-9" x="826.73" y="420.93" width="59.03" height="162.71"/><rect class="cls-9" x="894.45" y="438.05" width="59.03" height="108.64"/><rect class="cls-9" x="894.44" y="420.93" width="37.49" height="12.16"/><rect class="cls-9" x="762.99" y="588.24" width="122.88" height="16.28"/><rect class="cls-9" x="762.99" y="420.93" width="59.03" height="162.71"/><path class="cls-10" d="M776.77,347.86v-8.22h-7v8.22h-6V326h6v8.64h7V326h6v21.9Z"/><path class="cls-10" d="M795.34,348.22c-5.43,0-9.15-3.18-9.15-8.85,0-5.46,3.81-9.27,9.06-9.27,5.46,0,8.58,3.75,8.64,10.74h-12c.09,1.2,1,2.7,3.51,2.7a5.07,5.07,0,0,0,4-1.62l3.27,3.36C801.1,347,799,348.22,795.34,348.22ZM798,337.3a2.73,2.73,0,0,0-2.94-2.55A3.07,3.07,0,0,0,792,337.3Z"/><path class="cls-10" d="M817.15,347.86v-1.74c-1.14,1.35-2.67,2-5.76,2-3.78,0-5.76-2-5.76-4.92,0-4.08,3.3-6,9.72-6.33l1.77-.09v-.36c-.06-1-.66-1.8-2.55-1.8a13.38,13.38,0,0,0-6.18,1.92l-2.19-3.72a15.36,15.36,0,0,1,9.15-2.79c4.8,0,7.23,1.86,7.23,6.51v11.34Zm.06-7.71-2.46,0c-2,0-3.21.78-3.21,2.1,0,.9.75,1.44,1.92,1.44a4.89,4.89,0,0,0,3.75-1.71Z"/><path class="cls-10" d="M833.47,348.19c-4.23,0-7.92-2.85-7.92-9.15a8.8,8.8,0,0,1,8.37-8.85,7.28,7.28,0,0,1,4.2,1.44v-7.77h5.4v24h-5.1V346A6.91,6.91,0,0,1,833.47,348.19Zm1.14-4.74c2.52,0,3.48-1.53,3.48-4.35,0-3.18-1.23-4.17-3.33-4.17-2.28,0-3.39,1.47-3.39,4.17S832.51,343.45,834.61,343.45Z"/><path class="cls-10" d="M847.39,323.86H853v16.83a2.21,2.21,0,0,0,2.43,2.4,13.29,13.29,0,0,0,1.65-.12v4.89a21.84,21.84,0,0,1-2.91.18c-3.39,0-6.81-1.74-6.81-5.58Z"/><path class="cls-10" d="M859.45,324h5.79v4.77h-5.79Zm.06,6.54h5.67v17.34h-5.67Z"/><path class="cls-10" d="M880.06,347.86V336.73c0-1.17-.81-1.74-2-1.74-1.65,0-2.94.9-2.94,2.37v10.5h-5.64V330.52h5v2.55c.66-1.68,2.49-3,5.43-3,3.24,0,5.76,2,5.76,4.8v13Z"/><path class="cls-10" d="M897.79,348.22c-5.43,0-9.15-3.18-9.15-8.85,0-5.46,3.81-9.27,9.06-9.27,5.46,0,8.58,3.75,8.63,10.74h-12c.09,1.2,1.05,2.7,3.51,2.7a5.07,5.07,0,0,0,4-1.62l3.27,3.36C903.55,347,901.48,348.22,897.79,348.22Zm2.67-10.92a2.73,2.73,0,0,0-2.94-2.55,3.07,3.07,0,0,0-3.12,2.55Z"/><line class="cls-11" x1="889.9" y1="420.99" x2="890.5" y2="604.63"/><line class="cls-2" x1="1480.22" y1="271.24" x2="1480.22" y2="235.35"/><path class="cls-3" d="M1474.41,270.08l2.87,2.93,2.87,2.93L1483,273l2.88-2.93Z"/><line class="cls-2" x1="1480.22" y1="398.93" x2="1480.22" y2="363.04"/><path class="cls-3" d="M1474.41,397.77l2.87,2.93,2.87,2.93,2.87-2.93,2.88-2.93Z"/><line class="cls-2" x1="1480.22" y1="616.96" x2="1480.22" y2="581.07"/><path class="cls-3" d="M1474.41,615.8l2.87,2.93,2.87,2.93,2.87-2.93,2.88-2.93Z"/><line class="cls-2" x1="1480.22" y1="740.66" x2="1480.22" y2="704.77"/><path class="cls-3" d="M1474.41,739.5l2.87,2.93,2.87,2.93,2.87-2.93,2.88-2.93Z"/><rect class="cls-4" x="1265.31" y="286.75" width="445.36" height="61.07" rx="4.87"/><line class="cls-4" x1="1319.92" y1="286.67" x2="1319.92" y2="347.85"/><path class="cls-3" d="M1281,328.67l6,4.6,6,4.6,6-4.6,6-4.6S1281,329.41,1281,328.67Z"/><polyline class="cls-4" points="1696.02 313.51 1690.01 318.11 1684 322.71 1677.99 318.11 1671.98 313.51"/><polyline class="cls-4" points="1335.64 305.77 1340.23 311.78 1344.83 317.79 1340.23 323.8 1335.64 329.81"/><path class="cls-3" d="M1357.88,309.35v6.88h7.81v2.13h-7.81v9.24h-2.52V307.16h10.75v2.19Z"/><path class="cls-3" d="M1379.52,327.6v-2.13a6.9,6.9,0,0,1-5.65,2.36c-3.25,0-5.24-1.68-5.24-4.37,0-3.39,2.77-5.13,7.08-5.38l3.78-.22v-.28c0-2.3-1.4-3.33-3.75-3.33a9.82,9.82,0,0,0-5.12,1.68l-1-1.74a11.19,11.19,0,0,1,6.41-2c3.56,0,5.8,1.6,5.8,5.35V327.6Zm0-7.92-4.12.19c-2.52.14-4.31,1.18-4.31,3.31,0,1.73,1.46,2.8,3.59,2.8a6.26,6.26,0,0,0,4.84-2.24Z"/><path class="cls-3" d="M1386.41,312.59h2.1v3.25c.67-2.21,3.14-3.58,5.57-3.58s4.65,1.34,4.9,3.5h.11c.48-2.07,2.92-3.5,5.32-3.5,3,0,5.32,1.57,5.32,4.45V327.6h-2.35V317.38c0-2.1-1.68-3.08-3.69-3.08s-4.43,1.35-4.43,3.92v9.38h-2.35V317.21c0-1.7-1.62-2.91-3.72-2.91a4.17,4.17,0,0,0-4.43,4.06v9.24h-2.35Z"/><path class="cls-3" d="M1414.52,306.38H1417v2.69h-2.52Zm.06,6.21H1417v15h-2.38Z"/><path class="cls-3" d="M1421.86,305.2h2.38v18.31a1.88,1.88,0,0,0,2,2.13,4.45,4.45,0,0,0,1.37-.17l.08,2.08a8.7,8.7,0,0,1-2,.22c-2,0-3.86-1.12-3.86-3.5Z"/><path class="cls-3" d="M1435.21,329.79c-1.26,2.68-3.16,3.41-4.76,3.41a5.21,5.21,0,0,1-1.76-.36l.76-2.1a2.65,2.65,0,0,0,1.17.28c1,0,1.79-.62,2.63-2.27l1-2-6.38-14.14h2.54l5.13,11.51,5.24-11.51h2.46Z"/><path class="cls-3" d="M1458.93,327.94c-3.31,0-5.66-1-7.17-2.52l1.65-2a7.49,7.49,0,0,0,5.6,2.38c2.19,0,4-1.29,4-3.14s-1.06-2.94-4.48-4.37c-4.65-1.84-6.1-3.13-6.1-6.38s2.46-5.12,6.18-5.12a9.07,9.07,0,0,1,6.14,2.24l-1.43,2.07a7.67,7.67,0,0,0-4.93-2c-2.1,0-3.5,1.09-3.5,2.8,0,1.93,1.34,2.83,4.9,4.34,4.37,1.76,5.74,3.28,5.74,6.19C1465.48,325.84,1462.48,327.94,1458.93,327.94Z"/><path class="cls-3" d="M1476.2,327.91c-4.5,0-7.84-2.86-7.84-7.81a7.68,7.68,0,0,1,7.7-7.84c4.43,0,7.42,3.19,7.45,8.59h-12.79a5.09,5.09,0,0,0,5.4,4.93,6.31,6.31,0,0,0,5.15-2.21l1.49,1.62A8.05,8.05,0,0,1,1476.2,327.91Zm4.85-8.85a4.84,4.84,0,0,0-5.1-4.79,5.23,5.23,0,0,0-5.23,4.79Z"/><path class="cls-3" d="M1487,305.2h2.38v18.31a1.88,1.88,0,0,0,2,2.13,4.45,4.45,0,0,0,1.37-.17l.08,2.08a8.7,8.7,0,0,1-2,.22c-2,0-3.86-1.12-3.86-3.5Z"/><path class="cls-3" d="M1502.24,327.91c-4.5,0-7.84-2.86-7.84-7.81a7.68,7.68,0,0,1,7.7-7.84c4.43,0,7.42,3.19,7.45,8.59h-12.79a5.09,5.09,0,0,0,5.4,4.93,6.31,6.31,0,0,0,5.15-2.21l1.49,1.62A8.05,8.05,0,0,1,1502.24,327.91Zm4.85-8.85a4.84,4.84,0,0,0-5.1-4.79,5.23,5.23,0,0,0-5.23,4.79Z"/><path class="cls-3" d="M1526.35,324.3a7.79,7.79,0,0,1-14.36-4.17,7.65,7.65,0,0,1,7.81-7.87c3.64,0,5.68,2,6.41,3.89l-2,.92a4.7,4.7,0,0,0-4.45-2.71,5.41,5.41,0,0,0-5.3,5.71c0,3.28,2.08,5.71,5.35,5.71a5.22,5.22,0,0,0,4.73-2.74Z"/><path class="cls-3" d="M1537.07,327a5.62,5.62,0,0,1-3.07.78c-2.22,0-4-1.26-4-4.31v-8.93h-2.38v-1.94H1530v-4l2.35-.31v4.34h4.2v1.94h-4.2v8.84c0,1.46.7,2.33,2,2.33a5.3,5.3,0,0,0,2.35-.62Z"/><path class="cls-3" d="M1540.07,306.38h2.52v2.69h-2.52Zm.06,6.21h2.38v15h-2.38Z"/><path class="cls-3" d="M1554,327.91a7.53,7.53,0,0,1-7.7-7.76,7.83,7.83,0,0,1,7.79-7.89c4.42,0,7.87,3,7.87,7.5A7.91,7.91,0,0,1,1554,327.91Zm.17-2.1c3.17,0,5.35-2.58,5.35-5.88a5.35,5.35,0,0,0-5.54-5.54c-3.06,0-5.21,2.52-5.21,5.79A5.29,5.29,0,0,0,1554.18,325.81Z"/><path class="cls-3" d="M1576.36,327.6V317.24c0-1.87-1.77-2.94-3.67-2.94s-4.62,1.23-4.62,3.95v9.35h-2.35v-15h2v3.34c.7-2.22,2.94-3.67,5.69-3.67s5.26,1.65,5.26,4.25V327.6Z"/><path class="cls-3" d="M1597.44,332.84a15,15,0,0,1-8.15-13.44,14,14,0,0,1,8.15-12.77v1.79c-2.74,1.68-5.26,5.32-5.29,11,0,4.93,2.07,9.21,5.29,11.39Z"/><path class="cls-3" d="M1610.6,322.28v5.32h-2.27v-5.32h-10v-1.79l10.42-13.69h1.87v13.52h3.5v2Zm-2.24-11.93-7.42,10h7.42Z"/><path class="cls-3" d="M1627,322.28v5.32h-2.26v-5.32h-10v-1.79l10.42-13.69H1627v13.52h3.5v2Zm-2.24-11.93-7.42,10h7.42Z"/><path class="cls-3" d="M1631,306.63c4.06,1.62,8.15,6.44,8.15,13.05a14.6,14.6,0,0,1-8.15,13.16v-2.07a13.49,13.49,0,0,0,5.29-11.09c0-6.05-2.77-9.77-5.29-11.31Z"/><line class="cls-4" x1="1654.07" y1="286.67" x2="1654.07" y2="347.85"/><circle class="cls-4" cx="1296.32" cy="307.36" r="8.49"/><line class="cls-4" x1="1280.85" y1="322.23" x2="1289.99" y2="313.09"/><rect class="cls-4" x="1265.79" y="417.92" width="444.54" height="61.07" rx="4.87"/><polyline class="cls-4" points="1691.14 444.68 1685.13 449.28 1679.12 453.87 1673.11 449.28 1667.1 444.68"/><path class="cls-3" d="M1290.19,460.26c-3.93,0-6.75-1-8.67-2.67l2.61-3.78a9.29,9.29,0,0,0,6.24,2.52c1.77,0,3-.78,3-2s-.81-2.07-4-3.27c-5.31-1.95-7.11-3.48-7.11-7.35s3.12-6,7.8-6a11.73,11.73,0,0,1,7.5,2.46l-2.28,3.93a9.55,9.55,0,0,0-5.43-2.19c-1.77,0-2.76.66-2.76,1.83,0,1.38,1.29,2.07,4.68,3.36,4.68,1.77,6.57,3.27,6.57,6.93C1298.35,458,1294.57,460.26,1290.19,460.26Z"/><path class="cls-3" d="M1312.09,459.24a8.29,8.29,0,0,1-3.75.84c-3.51,0-6-1.95-6-6v-7.38h-2.28V443h2.28v-4.2l4.47-.51V443h4.44v3.72h-4.44v7c0,1.47.6,2.37,2.07,2.37a6.1,6.1,0,0,0,2.46-.54Z"/><path class="cls-3" d="M1321.63,461.79a7.1,7.1,0,0,1-6.6,4.11,6.18,6.18,0,0,1-2.55-.57l1.29-3.6a3.36,3.36,0,0,0,1.44.33c1,0,1.8-.6,2.55-1.95l1-1.95L1312,443h4.83l4.41,10.11,4.5-10.11h4.65Z"/><path class="cls-3" d="M1332.25,435.9h4.5v17.85a2.14,2.14,0,0,0,2.31,2.37,6.11,6.11,0,0,0,1.59-.18l0,3.93a17.16,17.16,0,0,1-2.61.21c-2.94,0-5.82-1.53-5.82-4.92Z"/><path class="cls-3" d="M1350.94,460.23c-5.22,0-8.88-3.12-8.88-8.67a8.59,8.59,0,0,1,8.76-8.94c5.22,0,8.37,3.66,8.4,10.23h-12.63c.12,1.74,1.5,3.54,4.32,3.54a5.65,5.65,0,0,0,4.59-1.92l2.67,2.85C1356.61,459,1354.6,460.23,1350.94,460.23Zm3.6-10.38a3.64,3.64,0,0,0-3.87-3.48,4,4,0,0,0-4.05,3.48Z"/><path class="cls-3" d="M1378.51,460.26c-3.93,0-6.75-1-8.67-2.67l2.61-3.78a9.29,9.29,0,0,0,6.24,2.52c1.77,0,3-.78,3-2s-.81-2.07-4-3.27c-5.31-1.95-7.11-3.48-7.11-7.35s3.12-6,7.8-6a11.73,11.73,0,0,1,7.5,2.46l-2.28,3.93a9.55,9.55,0,0,0-5.43-2.19c-1.77,0-2.76.66-2.76,1.83,0,1.38,1.29,2.07,4.68,3.36,4.68,1.77,6.57,3.27,6.57,6.93C1386.67,458,1382.89,460.26,1378.51,460.26Z"/><path class="cls-3" d="M1398.16,460.23c-5.22,0-8.88-3.12-8.88-8.67a8.59,8.59,0,0,1,8.76-8.94c5.22,0,8.37,3.66,8.4,10.23h-12.63c.12,1.74,1.5,3.54,4.32,3.54a5.65,5.65,0,0,0,4.59-1.92l2.67,2.85C1403.83,459,1401.82,460.23,1398.16,460.23Zm3.6-10.38a3.64,3.64,0,0,0-3.87-3.48,4,4,0,0,0-4.05,3.48Z"/><path class="cls-3" d="M1409.62,435.9h4.5v17.85a2.14,2.14,0,0,0,2.31,2.37,6.11,6.11,0,0,0,1.59-.18l0,3.93a17.16,17.16,0,0,1-2.61.21c-2.94,0-5.82-1.53-5.82-4.92Z"/><path class="cls-3" d="M1428.31,460.23c-5.22,0-8.88-3.12-8.88-8.67a8.59,8.59,0,0,1,8.76-8.94c5.22,0,8.36,3.66,8.39,10.23H1424c.12,1.74,1.5,3.54,4.32,3.54a5.65,5.65,0,0,0,4.59-1.92l2.67,2.85A9,9,0,0,1,1428.31,460.23Zm3.6-10.38a3.64,3.64,0,0,0-3.87-3.48,4,4,0,0,0-4,3.48Z"/><path class="cls-3" d="M1455.27,456.18a8.5,8.5,0,0,1-7.73,4.05c-4.86,0-8.7-3.09-8.7-8.76a8.48,8.48,0,0,1,8.87-8.85c4.29,0,6.69,2.34,7.47,4.83l-3.9,1.71a3.75,3.75,0,0,0-3.72-2.52c-2.52,0-4.08,1.95-4.08,4.77,0,3.18,1.63,4.8,4.23,4.8a4.3,4.3,0,0,0,4-2.46Z"/><path class="cls-3" d="M1468.23,459.24a8.29,8.29,0,0,1-3.75.84c-3.51,0-6-1.95-6-6v-7.38h-2.28V443h2.28v-4.2l4.47-.51V443h4.44v3.72H1463v7c0,1.47.6,2.37,2.07,2.37a6.1,6.1,0,0,0,2.46-.54Z"/><path class="cls-3" d="M1470.69,436.29h4.68v4.17h-4.68Zm.06,6.72h4.56V459.9h-4.56Z"/><path class="cls-3" d="M1487.7,460.23c-4.56,0-8.84-3-8.84-8.73a8.86,8.86,0,0,1,8.84-8.88c5,0,9.09,3.06,9.09,8.4A9,9,0,0,1,1487.7,460.23Zm.09-4c2.7,0,4.35-2,4.35-5a4.18,4.18,0,0,0-4.47-4.53c-2.58,0-4.14,1.95-4.14,4.8C1483.53,454.62,1485.39,456.24,1487.79,456.24Z"/><path class="cls-3" d="M1511.1,459.9V448.8c0-1.5-1.2-2.28-2.7-2.28-1.83,0-3.66,1.05-3.66,3.06V459.9h-4.53V443h4v3c.69-2,2.76-3.36,5.7-3.36,3.12,0,5.73,1.92,5.73,4.71V459.9Z"/><line class="cls-4" x1="1650.02" y1="417.84" x2="1650.02" y2="479.01"/><path class="cls-3" d="M1401.54,222.54c-3.33,0-5.71-1-7.23-2.54l1.67-2a7.53,7.53,0,0,0,5.65,2.4c2.2,0,4-1.3,4-3.16s-1.08-3-4.52-4.41c-4.69-1.86-6.16-3.16-6.16-6.44s2.49-5.17,6.24-5.17a9.17,9.17,0,0,1,6.19,2.26l-1.44,2.09a7.78,7.78,0,0,0-5-2c-2.12,0-3.53,1.1-3.53,2.82,0,2,1.35,2.86,4.94,4.38,4.41,1.78,5.79,3.31,5.79,6.24C1408.15,220.42,1405.13,222.54,1401.54,222.54Z"/><path class="cls-3" d="M1425.55,218.87a7.57,7.57,0,0,1-6.7,3.64,7.49,7.49,0,0,1-7.79-7.85,7.72,7.72,0,0,1,7.88-7.94c3.67,0,5.73,2,6.47,3.93l-2.07.93a4.73,4.73,0,0,0-4.49-2.74,5.45,5.45,0,0,0-5.33,5.76c0,3.31,2.09,5.77,5.39,5.77a5.28,5.28,0,0,0,4.77-2.77Z"/><path class="cls-3" d="M1438.43,209.72a3.85,3.85,0,0,0-2.69-.88,4.54,4.54,0,0,0-4.43,4.49v8.87h-2.37V207.06h2.14v3.73a5.62,5.62,0,0,1,5.59-4.07,4.8,4.8,0,0,1,3,.82Z"/><path class="cls-3" d="M1442.13,200.79h2.54v2.71h-2.54Zm0,6.27h2.4V222.2h-2.4Z"/><path class="cls-3" d="M1449.72,207.06h2.18v4a5.61,5.61,0,0,1,5.81-4.32c4.13,0,6.87,2.91,6.87,7.63s-3,8-6.89,8a5.55,5.55,0,0,1-5.6-3.84v9.12h-2.37Zm7.43,13.33c2.85,0,5-2.51,5-5.9s-1.72-5.73-4.94-5.73c-3,0-5.23,1.92-5.23,5.93S1454.24,220.39,1457.15,220.39Z"/><path class="cls-3" d="M1475.79,221.58a5.65,5.65,0,0,1-3.11.79c-2.23,0-4-1.27-4-4.35v-9h-2.4v-1.95h2.4V203l2.38-.31v4.38h4.23V209H1471v8.93c0,1.47.7,2.34,2,2.34a5.45,5.45,0,0,0,2.38-.62Z"/><path class="cls-3" d="M1495.25,222.54c-5.42,0-10.2-4.09-10.2-10.65,0-6.24,4.35-10.65,10.23-10.65,3.73,0,6.35,1.13,8.16,3.42l-1.92,1.58a7.67,7.67,0,0,0-6.19-2.65c-4.71,0-7.71,3.28-7.71,8.22,0,5.48,3.93,8.44,7.91,8.44a7.65,7.65,0,0,0,6.5-3.19l1.89,1.36A10.32,10.32,0,0,1,1495.25,222.54Z"/><path class="cls-3" d="M1518.18,222.2V211.92c0-2-1.69-3.13-3.78-3.13s-4.61,1.27-4.61,3.92v9.49h-2.37V199.61h2.18v10.5c.51-2,2.77-3.39,5.59-3.39s5.34,1.56,5.34,4.49v11Z"/><path class="cls-3" d="M1531.85,222.51a7.6,7.6,0,0,1-7.77-7.82,7.9,7.9,0,0,1,7.86-8c4.46,0,7.93,3.05,7.93,7.57A8,8,0,0,1,1531.85,222.51Zm.17-2.12c3.19,0,5.4-2.59,5.4-5.93a5.4,5.4,0,0,0-5.6-5.59c-3.07,0-5.25,2.54-5.25,5.85A5.34,5.34,0,0,0,1532,220.39Z"/><path class="cls-3" d="M1543.63,200.79h2.54v2.71h-2.54Zm.06,6.27h2.4V222.2h-2.4Z"/><path class="cls-3" d="M1564.42,218.87a7.57,7.57,0,0,1-6.7,3.64,7.49,7.49,0,0,1-7.79-7.85,7.72,7.72,0,0,1,7.88-7.94c3.67,0,5.73,2,6.47,3.93l-2.07.93a4.73,4.73,0,0,0-4.49-2.74,5.46,5.46,0,0,0-5.34,5.76c0,3.31,2.09,5.77,5.4,5.77a5.28,5.28,0,0,0,4.77-2.77Z"/><path class="cls-3" d="M1574.41,222.51c-4.54,0-7.9-2.88-7.9-7.88a7.74,7.74,0,0,1,7.76-7.91c4.47,0,7.49,3.22,7.52,8.67h-12.91a5.14,5.14,0,0,0,5.45,5,6.37,6.37,0,0,0,5.2-2.24l1.49,1.64A8.11,8.11,0,0,1,1574.41,222.51Zm4.89-8.92a4.87,4.87,0,0,0-5.14-4.83,5.26,5.26,0,0,0-5.28,4.83Z"/><path class="cls-3" d="M1417.76,166.91l-2.41-6h-8.87l-2.29,6h-2.65l8.7-21.53H1412l8.58,21.53Zm-6.85-17.65-3.79,9.64h7.61Z"/><path class="cls-3" d="M1433.35,166.91v-2.23a7.25,7.25,0,0,1-5.93,2.47c-3.41,0-5.5-1.76-5.5-4.58,0-3.56,2.91-5.38,7.43-5.64l4-.24v-.29c0-2.41-1.47-3.5-3.94-3.5a10.46,10.46,0,0,0-5.37,1.76l-1-1.82a11.79,11.79,0,0,1,6.73-2.08c3.73,0,6.08,1.67,6.08,5.61v10.54Zm0-8.31-4.32.21c-2.64.14-4.52,1.23-4.52,3.46,0,1.82,1.52,2.94,3.76,2.94a6.56,6.56,0,0,0,5.08-2.35Z"/><path class="cls-3" d="M1499.66,155.69c0,5.53-4.34,9.58-10.1,9.58v2.06h-2.65v-2.06c-5.75,0-10.1-4.05-10.1-9.58s4.35-9.57,10.1-9.57v-2.06h2.65v2.06C1495.32,146.12,1499.66,150.17,1499.66,155.69Zm-12.75-7.11a7.12,7.12,0,1,0,0,14.22Zm10.08,7.11a7.09,7.09,0,0,0-7.43-7.11V162.8A7.08,7.08,0,0,0,1497,155.69Z"/><path class="cls-3" d="M1557.89,142.83a119.38,119.38,0,0,1-1.41,13.12q-1.18,7.8-12.45,12.52l-.62-1q8.88-4.6,10.66-11.14a54.15,54.15,0,0,0,1.68-14.91l3.45.36a1.12,1.12,0,0,1-.43.74A1.62,1.62,0,0,1,1557.89,142.83Zm11.87,8.31h-25.57l-.41-1.44h22.69l-.72.64,1.89-2.37c1.52,1.23,2.55,2.09,3.09,2.59a.7.7,0,0,1-.29.41A1.2,1.2,0,0,1,1569.76,151.14Zm-12.62-.54h1.13a24.88,24.88,0,0,0,3.5,8.54q2.65,4.2,9.16,7.19l-.06.32a2.9,2.9,0,0,0-1.28.43,1.91,1.91,0,0,0-.74,1.18q-6.11-3.34-8.56-8.22A30.85,30.85,0,0,1,1557.14,150.6Z"/><rect class="cls-4" x="1526.38" y="124.97" width="61.67" height="60.89" rx="4.87"/><rect class="cls-4" x="1457.4" y="124.97" width="61.67" height="60.89" rx="4.87"/><rect class="cls-4" x="1388.83" y="124.97" width="61.67" height="60.89" rx="4.87"/><path class="cls-5" d="M1917.89,701.62a11,11,0,0,1-11.31-11.46A10.88,10.88,0,0,1,1917.65,679c6.69,0,11.37,4.74,11.37,11.25A11.07,11.07,0,0,1,1917.89,701.62Zm.18-2.31c4.65,0,8.28-3.45,8.28-9a8.62,8.62,0,0,0-8.85-8.88c-4.74,0-8.22,3.39-8.22,8.7C1909.28,695.71,1913.3,699.31,1918.07,699.31Z"/><path class="cls-5" d="M1935.44,685.18v10.11c0,3.12,1.92,4.17,4.38,4.17a4.28,4.28,0,0,0,4.5-4.26v-10h2.55v16.08h-2.31v-3.42c-.51,1.92-2.61,3.78-5.73,3.78s-5.91-1.65-5.91-5.34v-11.1Z"/><path class="cls-5" d="M1960.13,700.6a6,6,0,0,1-3.3.84c-2.37,0-4.29-1.35-4.29-4.62v-9.57H1950v-2.07h2.55v-4.32l2.52-.33v4.65h4.5v2.07h-4.5v9.48c0,1.56.75,2.49,2.1,2.49a5.83,5.83,0,0,0,2.52-.66Z"/><path class="cls-5" d="M1963.37,685.18h2.31v4.29a6,6,0,0,1,6.18-4.59c4.38,0,7.29,3.09,7.29,8.1s-3.15,8.49-7.32,8.49a5.87,5.87,0,0,1-5.94-4.08v9.69h-2.52Zm7.89,14.16c3,0,5.28-2.67,5.28-6.27s-1.83-6.09-5.25-6.09c-3.18,0-5.55,2-5.55,6.3S1968.17,699.34,1971.26,699.34Z"/><path class="cls-5" d="M1985.45,685.18v10.11c0,3.12,1.92,4.17,4.38,4.17a4.28,4.28,0,0,0,4.5-4.26v-10h2.55v16.08h-2.31v-3.42c-.51,1.92-2.61,3.78-5.73,3.78s-5.91-1.65-5.91-5.34v-11.1Z"/><path class="cls-5" d="M2010.14,700.6a6,6,0,0,1-3.3.84c-2.37,0-4.29-1.35-4.29-4.62v-9.57H2000v-2.07h2.55v-4.32l2.52-.33v4.65h4.5v2.07h-4.5v9.48c0,1.56.75,2.49,2.1,2.49a5.83,5.83,0,0,0,2.52-.66Z"/><rect class="cls-3" x="1565.62" y="766.46" width="4.29" height="4.29"/><rect class="cls-3" x="1406.94" y="766.46" width="4.29" height="4.29"/><rect class="cls-6" x="1408.96" y="768.54" width="158.73" height="39.46"/><rect class="cls-3" x="1413.41" y="796.45" width="2.59" height="2.59"/><line class="cls-6" x1="1415.61" y1="797.78" x2="1560.17" y2="797.78"/><rect class="cls-3" x="1560.19" y="796.53" width="2.59" height="2.59"/><rect class="cls-3" x="1565.62" y="805.75" width="4.29" height="4.29"/><rect class="cls-3" x="1406.94" y="805.75" width="4.29" height="4.29"/><path class="cls-3" d="M1419,775.56h6.45c3.72,0,6.36,2.22,6.36,5.79a5.77,5.77,0,0,1-5.07,6.09l-.09.09,6.78,9.93h-3.21l-6.18-9.36h-2.37v9.36H1419Zm5.67,10.35c2.52,0,4.41-1.47,4.41-4.23a3.76,3.76,0,0,0-4.11-4h-3.33v8.19Z"/><path class="cls-3" d="M1444.09,797.79c-4.83,0-8.4-3.06-8.4-8.37a8.22,8.22,0,0,1,8.25-8.4c4.74,0,8,3.42,8,9.21h-13.71a5.46,5.46,0,0,0,5.79,5.28,6.76,6.76,0,0,0,5.52-2.37l1.59,1.74A8.62,8.62,0,0,1,1444.09,797.79Zm5.19-9.48a5.17,5.17,0,0,0-5.46-5.13,5.61,5.61,0,0,0-5.61,5.13Z"/><path class="cls-3" d="M1461.22,797.79a10.35,10.35,0,0,1-6.75-2.1l1.14-1.71a9.91,9.91,0,0,0,5.49,1.8c1.8,0,3.27-1.14,3.27-2.58,0-1.26-.9-2.19-4.26-3.15-3.87-1.11-5-2.76-5-4.89,0-2.52,2.49-4.14,5.61-4.14a9.45,9.45,0,0,1,5.82,1.68l-1,1.92A8.54,8.54,0,0,0,1461,783c-1.74,0-3.24.87-3.24,2.16s.48,1.95,4,3c3.84,1.14,5.28,2.55,5.28,4.92C1467,796,1464.37,797.79,1461.22,797.79Z"/><path class="cls-3" d="M1470.79,781.38h2.31v4.29a6,6,0,0,1,6.18-4.59c4.38,0,7.29,3.09,7.29,8.1s-3.15,8.49-7.32,8.49a5.87,5.87,0,0,1-5.94-4.08v9.69h-2.52Zm7.89,14.16c3,0,5.28-2.67,5.28-6.27,0-3.45-1.83-6.09-5.25-6.09-3.18,0-5.55,2-5.55,6.3S1475.59,795.54,1478.68,795.54Z"/><path class="cls-3" d="M1497.46,797.79a8.07,8.07,0,0,1-8.25-8.31,8.39,8.39,0,0,1,8.34-8.46c4.74,0,8.43,3.24,8.43,8A8.47,8.47,0,0,1,1497.46,797.79Zm.18-2.25c3.39,0,5.73-2.76,5.73-6.3a5.74,5.74,0,0,0-5.94-5.94c-3.27,0-5.58,2.7-5.58,6.21A5.67,5.67,0,0,0,1497.64,795.54Z"/><path class="cls-3" d="M1521.4,797.46v-11.1c0-2-1.89-3.15-3.93-3.15s-5,1.32-5,4.23v10H1510V781.38h2.19V785c.75-2.37,3.15-3.93,6.09-3.93s5.64,1.77,5.64,4.56v11.88Z"/><path class="cls-3" d="M1534.39,797.79a10.35,10.35,0,0,1-6.75-2.1l1.14-1.71a9.91,9.91,0,0,0,5.49,1.8c1.8,0,3.27-1.14,3.27-2.58,0-1.26-.9-2.19-4.26-3.15-3.87-1.11-5-2.76-5-4.89,0-2.52,2.49-4.14,5.61-4.14a9.45,9.45,0,0,1,5.82,1.68l-1,1.92a8.54,8.54,0,0,0-4.65-1.59c-1.74,0-3.24.87-3.24,2.16s.48,1.95,4,3c3.84,1.14,5.28,2.55,5.28,4.92C1540.12,796,1537.54,797.79,1534.39,797.79Z"/><path class="cls-3" d="M1551,797.79c-4.83,0-8.4-3.06-8.4-8.37a8.22,8.22,0,0,1,8.25-8.4c4.74,0,8,3.42,8,9.21H1545.1a5.46,5.46,0,0,0,5.79,5.28,6.76,6.76,0,0,0,5.52-2.37l1.59,1.74A8.62,8.62,0,0,1,1551,797.79Zm5.19-9.48a5.17,5.17,0,0,0-5.46-5.13,5.61,5.61,0,0,0-5.61,5.13Z"/><rect class="cls-4" x="1377.08" y="757.45" width="221.82" height="61.07" rx="4.87"/><rect class="cls-4" x="1265.79" y="500.59" width="444.47" height="61.07" rx="4.87"/><path class="cls-3" d="M1290.28,523v19.56h-2.7V523h-6.42v-2.34h15.72V523Z"/><path class="cls-3" d="M1310,529.31a4.06,4.06,0,0,0-2.85-.93,4.83,4.83,0,0,0-4.71,4.77v9.42h-2.52V526.49h2.28v4a6,6,0,0,1,5.94-4.32,5.07,5.07,0,0,1,3.21.87Z"/><path class="cls-3" d="M1320.94,542.9c-4.83,0-8.4-3.06-8.4-8.37a8.22,8.22,0,0,1,8.25-8.4c4.73,0,7.94,3.42,8,9.21h-13.7a5.45,5.45,0,0,0,5.78,5.28,6.74,6.74,0,0,0,5.52-2.37L1328,540A8.61,8.61,0,0,1,1320.94,542.9Zm5.18-9.48a5.17,5.17,0,0,0-5.45-5.13,5.61,5.61,0,0,0-5.61,5.13Z"/><path class="cls-3" d="M1343,542.57v-2.28a7.41,7.41,0,0,1-6.06,2.52c-3.48,0-5.6-1.8-5.6-4.68,0-3.63,3-5.49,7.58-5.76l4-.24v-.3c0-2.46-1.5-3.57-4-3.57a10.58,10.58,0,0,0-5.49,1.8l-1-1.86a12,12,0,0,1,6.86-2.13c3.81,0,6.21,1.71,6.21,5.73v10.77Zm0-8.49-4.4.21c-2.71.15-4.63,1.26-4.63,3.54,0,1.86,1.57,3,3.84,3a6.69,6.69,0,0,0,5.19-2.4Z"/><path class="cls-3" d="M1358.31,541.91a6,6,0,0,1-3.3.84c-2.37,0-4.29-1.35-4.29-4.62v-9.57h-2.55v-2.07h2.55v-4.32l2.52-.33v4.65h4.5v2.07h-4.5V538c0,1.56.75,2.49,2.1,2.49a5.83,5.83,0,0,0,2.52-.66Z"/><path class="cls-3" d="M1361.55,526.49h2.25V530c.72-2.37,3.36-3.84,6-3.84s5,1.44,5.25,3.75h.12c.51-2.22,3.12-3.75,5.7-3.75,3.21,0,5.7,1.68,5.7,4.77v11.67H1384v-11c0-2.25-1.8-3.3-4-3.3s-4.74,1.44-4.74,4.2v10.05h-2.52V531.44c0-1.83-1.74-3.12-4-3.12a4.47,4.47,0,0,0-4.74,4.35v9.9h-2.52Z"/><path class="cls-3" d="M1398.72,542.9c-4.83,0-8.4-3.06-8.4-8.37a8.22,8.22,0,0,1,8.25-8.4c4.74,0,8,3.42,8,9.21h-13.71a5.46,5.46,0,0,0,5.79,5.28,6.76,6.76,0,0,0,5.52-2.37l1.59,1.74A8.62,8.62,0,0,1,1398.72,542.9Zm5.19-9.48a5.17,5.17,0,0,0-5.46-5.13,5.61,5.61,0,0,0-5.61,5.13Z"/><path class="cls-3" d="M1421.94,542.57v-11.1c0-2-1.89-3.15-3.93-3.15s-5,1.32-5,4.23v10h-2.52V526.49h2.19v3.57c.75-2.37,3.15-3.93,6.09-3.93s5.64,1.77,5.64,4.56v11.88Z"/><path class="cls-3" d="M1437.51,541.91a6,6,0,0,1-3.3.84c-2.37,0-4.29-1.35-4.29-4.62v-9.57h-2.55v-2.07h2.55v-4.32l2.52-.33v4.65h4.5v2.07h-4.5V538c0,1.56.75,2.49,2.1,2.49a5.83,5.83,0,0,0,2.52-.66Z"/><path class="cls-3" d="M1446.06,542.9a10.35,10.35,0,0,1-6.75-2.1l1.14-1.71a9.91,9.91,0,0,0,5.49,1.8c1.8,0,3.27-1.14,3.27-2.58,0-1.26-.9-2.19-4.26-3.15-3.87-1.11-5-2.76-5-4.89,0-2.52,2.49-4.14,5.61-4.14a9.45,9.45,0,0,1,5.82,1.68l-1,1.92a8.54,8.54,0,0,0-4.65-1.59c-1.74,0-3.24.87-3.24,2.16s.48,2,4,3c3.84,1.14,5.28,2.55,5.28,4.92C1451.79,541.07,1449.21,542.9,1446.06,542.9Z"/><line class="cls-4" x1="1652.78" y1="500.51" x2="1652.78" y2="561.68"/><path class="cls-3" d="M1627.93,525.29l-1.36-3.35h-5.85l-1.26,3.35h-2.7l6.2-15.37h1.81l6.06,15.37ZM1623.66,514l-2.33,5.95H1626Z"/><path class="cls-3" d="M1627.93,546.86l-1.36-3.36h-5.85l-1.26,3.36h-2.7l6.2-15.37h1.81l6.06,15.37Zm-4.27-11.34-2.33,6H1626Z"/><polyline class="cls-7" points="1671.81 523.52 1676.6 519.85 1681.39 516.19 1686.18 519.85 1690.97 523.52"/><polyline class="cls-7" points="1690.97 539.86 1686.18 543.52 1681.39 547.19 1676.6 543.52 1671.81 539.86"/><path class="cls-3" d="M1544.83,528.24v18.38H1541V528.24h-6.21V525h16.45v3.29Z"/><path class="cls-3" d="M1560.62,520.36v26.26h-5.52V520.36h-8.87v-4.71h23.51v4.71Z"/><line class="cls-8" x1="1615.19" y1="527.32" x2="1632.48" y2="527.32"/><line class="cls-8" x1="1615.19" y1="549.13" x2="1632.48" y2="549.13"/><path class="cls-3" d="M1612.2,533.2l-1.67-1.71-1.67-1.7-1.67,1.7-1.67,1.71Z"/><path class="cls-3" d="M1605.52,545.87l1.67,1.7,1.67,1.7,1.67-1.7,1.67-1.7Z"/><line class="cls-8" x1="1608.86" y1="533.18" x2="1608.86" y2="547.18"/><line class="cls-4" x1="1518.84" y1="500.61" x2="1518.84" y2="561.79"/><line class="cls-4" x1="1586.68" y1="500.61" x2="1586.68" y2="561.79"/><rect class="cls-4" x="1377.08" y="633.78" width="221.82" height="61.07" rx="4.87"/><path class="cls-3" d="M1405.54,675c-3.54,0-6.06-1.08-7.68-2.7l1.77-2.1a8,8,0,0,0,6,2.55c2.34,0,4.23-1.38,4.23-3.36s-1.14-3.15-4.8-4.68c-5-2-6.54-3.36-6.54-6.84s2.64-5.49,6.63-5.49a9.7,9.7,0,0,1,6.57,2.4l-1.53,2.22a8.24,8.24,0,0,0-5.28-2.13c-2.25,0-3.75,1.17-3.75,3,0,2.07,1.44,3,5.25,4.65,4.68,1.89,6.15,3.51,6.15,6.63C1412.56,672.73,1409.35,675,1405.54,675Z"/><path class="cls-3" d="M1419.31,658.54v10.11c0,3.12,1.92,4.17,4.38,4.17a4.28,4.28,0,0,0,4.5-4.26v-10h2.55v16.08h-2.31V671.2c-.51,1.92-2.61,3.78-5.73,3.78s-5.91-1.65-5.91-5.34v-11.1Z"/><path class="cls-3" d="M1442.17,674.53c-4.35,0-7.41-3.3-7.41-8s3.09-8.25,7.5-8.25a6,6,0,0,1,5.94,4v-3.72h2.31v13.77c0,5.85-4.68,8.37-8.7,8.37a10.93,10.93,0,0,1-5.76-1.23l1.17-2.13a8.06,8.06,0,0,0,4.38,1.2c3.48,0,6.48-2,6.48-6.15v-2.28A6.45,6.45,0,0,1,1442.17,674.53Zm.63-2.1c2.55,0,5.28-2,5.28-6.18,0-3.6-2.31-5.76-5.22-5.76-3.27,0-5.49,2.43-5.49,6.18S1439.41,672.43,1442.8,672.43Z"/><path class="cls-3" d="M1461.79,674.53c-4.35,0-7.41-3.3-7.41-8s3.09-8.25,7.5-8.25a6,6,0,0,1,5.94,4v-3.72h2.31v13.77c0,5.85-4.68,8.37-8.7,8.37a10.93,10.93,0,0,1-5.76-1.23l1.17-2.13a8.06,8.06,0,0,0,4.38,1.2c3.48,0,6.48-2,6.48-6.15v-2.28A6.45,6.45,0,0,1,1461.79,674.53Zm.63-2.1c2.55,0,5.28-2,5.28-6.18,0-3.6-2.31-5.76-5.22-5.76-3.27,0-5.49,2.43-5.49,6.18S1459,672.43,1462.42,672.43Z"/><path class="cls-3" d="M1482.37,675c-4.83,0-8.4-3.06-8.4-8.37a8.22,8.22,0,0,1,8.25-8.4c4.74,0,8,3.42,8,9.21h-13.71a5.46,5.46,0,0,0,5.79,5.28,6.76,6.76,0,0,0,5.52-2.37l1.59,1.74A8.62,8.62,0,0,1,1482.37,675Zm5.19-9.48a5.17,5.17,0,0,0-5.46-5.13,5.61,5.61,0,0,0-5.61,5.13Z"/><path class="cls-3" d="M1499.5,675a10.35,10.35,0,0,1-6.75-2.1l1.14-1.71a9.91,9.91,0,0,0,5.49,1.8c1.8,0,3.27-1.14,3.27-2.58,0-1.26-.9-2.19-4.26-3.15-3.87-1.11-5-2.76-5-4.89,0-2.52,2.49-4.14,5.61-4.14a9.45,9.45,0,0,1,5.82,1.68l-1,1.92a8.54,8.54,0,0,0-4.65-1.59c-1.74,0-3.24.87-3.24,2.16s.48,1.95,4,3c3.84,1.14,5.28,2.55,5.28,4.92C1505.23,673.12,1502.65,675,1499.5,675Z"/><path class="cls-3" d="M1517,674a6,6,0,0,1-3.3.84c-2.37,0-4.29-1.35-4.29-4.62v-9.57h-2.55v-2.07h2.55v-4.32l2.52-.33v4.65h4.5v2.07h-4.5v9.48c0,1.56.75,2.49,2.1,2.49a5.83,5.83,0,0,0,2.52-.66Z"/><path class="cls-3" d="M1520.17,651.88h2.7v2.88h-2.7Zm.06,6.66h2.55v16.08h-2.55Z"/><path class="cls-3" d="M1535.11,675a8.07,8.07,0,0,1-8.25-8.31,8.39,8.39,0,0,1,8.34-8.46c4.74,0,8.43,3.24,8.43,8A8.47,8.47,0,0,1,1535.11,675Zm.18-2.25c3.39,0,5.73-2.76,5.73-6.3a5.74,5.74,0,0,0-5.94-5.94c-3.27,0-5.58,2.7-5.58,6.21A5.67,5.67,0,0,0,1535.29,672.7Z"/><path class="cls-3" d="M1559.05,674.62v-11.1c0-2-1.89-3.15-3.93-3.15s-4.95,1.32-4.95,4.23v10h-2.52V658.54h2.19v3.57c.75-2.37,3.15-3.93,6.09-3.93s5.64,1.77,5.64,4.56v11.88Z"/><path class="cls-3" d="M1572,675a10.35,10.35,0,0,1-6.75-2.1l1.14-1.71a9.91,9.91,0,0,0,5.49,1.8c1.8,0,3.27-1.14,3.27-2.58,0-1.26-.9-2.19-4.26-3.15-3.87-1.11-5-2.76-5-4.89,0-2.52,2.49-4.14,5.61-4.14a9.45,9.45,0,0,1,5.82,1.68l-1,1.92a8.54,8.54,0,0,0-4.65-1.59c-1.74,0-3.24.87-3.24,2.16s.48,1.95,4,3c3.84,1.14,5.28,2.55,5.28,4.92C1577.77,673.12,1575.19,675,1572,675Z"/><polyline class="cls-4" points="1599.14 789.07 1750.49 789.07 1750.49 511.14 1795.72 511.14"/><path class="cls-3" d="M1795,516.85l2.93-2.87,2.92-2.88-2.92-2.87-2.93-2.87Z"/><rect class="cls-12" x="1866.15" y="285.4" width="189.71" height="372.06" rx="6.62"/><rect class="cls-13" x="1879.62" y="323.67" width="162.77" height="292.82"/><rect class="cls-14" x="1879.62" y="323.67" width="162.77" height="61.43"/><rect class="cls-14" x="1879.62" y="487.9" width="162.77" height="72.82"/><rect class="cls-14" x="1927.68" y="408.1" width="66.65" height="12.64"/><rect class="cls-14" x="1927.68" y="579.18" width="66.65" height="12.64"/><rect class="cls-14" x="1898.54" y="428.31" width="124.92" height="37.44"/><rect class="cls-14" x="1898.54" y="598.44" width="124.92" height="18.05"/><circle class="cls-15" cx="1961" cy="635.9" r="10.26"/><rect class="cls-15" x="1935.02" y="302.99" width="51.96" height="5.13" rx="0.67"/><path class="cls-10" d="M1932,362.62h-2L1926.55,352l-3.64,10.62h-2l-5.28-17h3.94l3,9.76,3.18-9.78h2l3.23,9.81,2.84-9.79h3.63Z"/><path class="cls-10" d="M1944.68,362.78c-3.65,0-6.25-2.17-6.25-6a6,6,0,0,1,6.21-6.19c3.69,0,5.91,2.71,5.93,7.09H1942c.07,1.06.93,2.19,2.8,2.19a3.75,3.75,0,0,0,3-1.17l2,2A6.22,6.22,0,0,1,1944.68,362.78Zm2.22-7.37a2.18,2.18,0,0,0-2.35-2,2.41,2.41,0,0,0-2.5,2Z"/><path class="cls-10" d="M1959.79,362.62a3.82,3.82,0,0,1-3.61-1.8v1.68h-3.44V344.84h3.37v7.78a4,4,0,0,1,3.74-1.92c2.82,0,5.08,2.1,5.08,5.75C1964.93,360.42,1962.44,362.62,1959.79,362.62Zm-1.07-2.77c1.55,0,2.47-1.28,2.47-3.19s-.81-3.07-2.47-3.07-2.47,1-2.47,3.12S1957.13,359.85,1958.72,359.85Z"/><path class="cls-10" d="M1972,362.78a9.67,9.67,0,0,1-5.45-1.46l1.55-2.4a8.27,8.27,0,0,0,3.81,1.13c.76,0,1.22-.34,1.22-.85s-.74-.86-2.29-1.25c-2.35-.62-3.92-1.7-3.92-3.81s2-3.51,4.76-3.51a8.3,8.3,0,0,1,4.73,1.3l-1.29,2.52a6.41,6.41,0,0,0-3.28-1.11c-.76,0-1.43.23-1.43.73s.34.67,2.31,1.23c2.33.67,3.87,1.52,3.87,3.65C1976.57,361.3,1974.63,362.78,1972,362.78Z"/><path class="cls-10" d="M1978.91,345.9h3.74v3.4h-3.74Zm0,5h3.68V362.5H1979Z"/><path class="cls-10" d="M1992.6,362.29a5,5,0,0,1-2.08.35c-2.38,0-4.55-1.2-4.55-4.18v-4.57h-1.38v-3H1986v-2.88l3.65-.42v3.3h2.56v3h-2.56v4c0,1.13.46,1.59,1.55,1.59a4,4,0,0,0,1.15-.18Z"/><path class="cls-10" d="M2000,362.78c-3.65,0-6.26-2.17-6.26-6a6,6,0,0,1,6.22-6.19c3.69,0,5.91,2.71,5.93,7.09h-8.59c.07,1.06.93,2.19,2.8,2.19a3.75,3.75,0,0,0,3-1.17l2,2A6.22,6.22,0,0,1,2000,362.78Zm2.22-7.37a2.18,2.18,0,0,0-2.36-2,2.4,2.4,0,0,0-2.49,2Z"/><path class="cls-16" d="M1124-11.36V954.85"/></svg>