<svg id="Layer_1" data-name="Layer 1" xmlns="http://www.w3.org/2000/svg" viewBox="0 0 1360 440"><defs><style>.cls-1{fill:#f1f1f2;stroke:#d0d2d3;stroke-width:0;}.cls-1,.cls-3{stroke-miterlimit:10;}.cls-2{fill:gray;}.cls-3{fill:none;stroke:#929497;}</style></defs><title>VFBR2_Overview</title><rect class="cls-1" y="-0.07" width="1360" height="440"/><path class="cls-2" d="M1180.81,99.28l-.73-1.83h-3.63l-.69,1.83h-2.22L1177.68,89h1.5l4,10.25Zm-2.55-7-1.33,3.52h2.67Z"/><path class="cls-2" d="M1187.62,99.45a6,6,0,0,1-4-1.25l1.21-1.76a4.37,4.37,0,0,0,2.92,1.18c.82,0,1.4-.37,1.4-1s-.38-1-1.86-1.52c-2.48-.92-3.32-1.63-3.32-3.44s1.45-2.81,3.64-2.81a5.44,5.44,0,0,1,3.5,1.15L1190,91.87a4.42,4.42,0,0,0-2.53-1c-.83,0-1.29.31-1.29.85s.6,1,2.19,1.57c2.18.83,3.06,1.53,3.06,3.24C1191.43,98.4,1189.67,99.45,1187.62,99.45Z"/><path class="cls-2" d="M1197.76,99.45a5.28,5.28,0,0,1,0-10.56A4.79,4.79,0,0,1,1202,90.7l-1.65,1.35a3.07,3.07,0,0,0-2.52-1.12c-1.88,0-2.86,1.28-2.86,3.13,0,2.38,1.48,3.41,3.07,3.41a2.84,2.84,0,0,0,2.55-1.34l1.62,1.12A5,5,0,0,1,1197.76,99.45Z"/><path class="cls-2" d="M1203.67,99.28V89.06h6.44v1.85h-4.25v2.42h4v1.76h-4v2.34h4.52v1.85Z"/><path class="cls-2" d="M1219.41,99.28l-5-6.41v6.41h-2.09V89.06H1214l4.94,6.27V89.06h2V99.28Z"/><path class="cls-2" d="M1223.36,89.06H1227c3.44,0,5.28,2,5.28,5s-1.92,5.22-5.55,5.22h-3.38Zm3.38,8.49c2.25,0,3.22-1.64,3.22-3.46,0-2-1-3.3-3-3.3h-1.33v6.76Z"/><path class="cls-2" d="M1234.06,99.28V89.06h6.44v1.85h-4.24v2.42h4v1.76h-4v2.34h4.51v1.85Z"/><path class="cls-2" d="M1242.68,89.06h3.88c1.7,0,3.24,1,3.24,2.85a2.68,2.68,0,0,1-2.14,2.82l0,.07,3.17,4.48h-2.59l-2.55-3.86h-.76v3.86h-2.23Zm3.44,4.6a1.36,1.36,0,0,0,1.44-1.48,1.33,1.33,0,0,0-1.4-1.41h-1.29v2.89Z"/><path class="cls-2" d="M1256,99.28V89.06h2.24v8.37h4.38v1.85Z"/><path class="cls-2" d="M1264.06,99.28V89.06h2.24V99.28Z"/><path class="cls-2" d="M1275.85,99.28l-5-6.41v6.41h-2.08V89.06h1.71l4.94,6.27V89.06h2V99.28Z"/><path class="cls-2" d="M1279.81,99.28V89.06h6.44v1.85H1282v2.42h4v1.76h-4v2.34h4.51v1.85Z"/><path class="cls-2" d="M1223.38,188.49l-2.14,3.35h-2.31l3.29-5.15-3.24-5.07h2.55l2,3.08,2-3.08h2.31l-3.14,4.9,3.39,5.32h-2.52Z"/><path class="cls-2" d="M1228.78,188.89V187H1233v1.87Z"/><path class="cls-2" d="M1241.16,191.84v-4.07h-4.07v4.07h-2.24V181.62h2.24v4.24h4.07v-4.24h2.24v10.22Z"/><path class="cls-2" d="M1245.78,191.84V181.62h6.44v1.84H1248v2.43h4v1.76h-4V190h4.51v1.85Z"/><path class="cls-2" d="M1254.47,191.84V181.62h2.24v10.22Z"/><path class="cls-2" d="M1268.45,186.37v3.33a5.41,5.41,0,0,1-4.64,2.31,5,5,0,0,1-5.26-5.28,5.38,5.38,0,0,1,9.16-3.73l-1.4,1.56a3.21,3.21,0,0,0-2.61-1.05,2.78,2.78,0,0,0-2.94,3.12c0,2.31,1.32,3.53,3.11,3.53a2.66,2.66,0,0,0,2.53-1.19v-.78h-2.56v-1.82Z"/><path class="cls-2" d="M1276.6,191.84v-4.07h-4.08v4.07h-2.24V181.62h2.24v4.24h4.08v-4.24h2.24v10.22Z"/><path class="cls-2" d="M1285.28,183.49v8.35H1283v-8.35h-2.87v-1.87h8.07v1.87Z"/><path class="cls-2" d="M1205.21,133.18a5.28,5.28,0,0,1,0-10.56,4.8,4.8,0,0,1,4.22,1.81l-1.66,1.35a3,3,0,0,0-2.52-1.12c-1.88,0-2.86,1.28-2.86,3.13,0,2.38,1.49,3.42,3.07,3.42a2.83,2.83,0,0,0,2.55-1.35l1.63,1.12A5,5,0,0,1,1205.21,133.18Z"/><path class="cls-2" d="M1217.13,133l-.72-1.83h-3.63l-.69,1.83h-2.23l4.15-10.25h1.5l4,10.25Zm-2.55-6.95-1.33,3.52h2.68Z"/><path class="cls-2" d="M1220.65,122.79h4.14a3.12,3.12,0,0,1,3.39,3.23,3.24,3.24,0,0,1-3.49,3.35h-1.8V133h-2.24Zm3.82,4.84a1.42,1.42,0,0,0,1.46-1.61,1.4,1.4,0,0,0-1.56-1.47h-1.53v3.08Z"/><path class="cls-2" d="M1240,133v-4.07H1236V133h-2.24V122.79H1236V127H1240v-4.24h2.24V133Z"/><path class="cls-2" d="M1244.65,133V122.79h6.45v1.84h-4.25v2.43h4v1.76h-4v2.34h4.51V133Z"/><path class="cls-2" d="M1253.35,133V122.79h2.24V133Z"/><path class="cls-2" d="M1267.32,127.54v3.33a5.39,5.39,0,0,1-4.63,2.31,5,5,0,0,1-5.27-5.28,5.38,5.38,0,0,1,9.16-3.73l-1.4,1.56a3.17,3.17,0,0,0-2.6-1,2.78,2.78,0,0,0-2.94,3.12c0,2.31,1.31,3.53,3.1,3.53a2.67,2.67,0,0,0,2.54-1.19v-.78h-2.56v-1.82Z"/><path class="cls-2" d="M1275.47,133v-4.07h-4.07V133h-2.25V122.79h2.25V127h4.07v-4.24h2.24V133Z"/><path class="cls-2" d="M1284.15,124.66V133h-2.24v-8.35H1279v-1.87h8.07v1.87Z"/><path class="cls-2" d="M1213.85,258.7h4c1.86,0,3,.89,3,2.48a2.28,2.28,0,0,1-2,2.35,2.53,2.53,0,0,1,2.51,2.56c0,1.87-1.7,2.83-3.71,2.83h-3.83Zm3.46,4.26a1.28,1.28,0,0,0,1.36-1.36,1.23,1.23,0,0,0-1.37-1.19H1216V263Zm.3,4.25a1.3,1.3,0,0,0,1.45-1.4c0-.66-.5-1.22-1.45-1.22H1216v2.62Z"/><path class="cls-2" d="M1229.1,268.92l-.73-1.83h-3.63l-.68,1.83h-2.23l4.15-10.25h1.5l4,10.25Zm-2.55-6.95-1.33,3.52h2.68Z"/><path class="cls-2" d="M1235.92,269.09a6,6,0,0,1-4.05-1.25l1.22-1.76a4.36,4.36,0,0,0,2.91,1.17c.83,0,1.4-.36,1.4-.95s-.37-1-1.86-1.52c-2.48-.91-3.32-1.63-3.32-3.44s1.46-2.81,3.64-2.81a5.42,5.42,0,0,1,3.5,1.15l-1.06,1.83a4.47,4.47,0,0,0-2.54-1c-.82,0-1.28.31-1.28.85s.6,1,2.18,1.57c2.19.83,3.07,1.53,3.07,3.24C1239.73,268,1238,269.09,1235.92,269.09Z"/><path class="cls-2" d="M1241.6,268.92V258.7H1248v1.85h-4.24V263h4v1.76h-4v2.34h4.51v1.85Z"/><path class="cls-2" d="M1250.22,268.92V258.7h2.25v8.37h4.38v1.85Z"/><path class="cls-2" d="M1258.29,268.92V258.7h2.24v10.22Z"/><path class="cls-2" d="M1270.08,268.92l-5-6.41v6.41H1263V258.7h1.71l4.95,6.27V258.7h2v10.22Z"/><path class="cls-2" d="M1274,268.92V258.7h6.44v1.85h-4.24V263h4v1.76h-4v2.34h4.51v1.85Z"/><path class="cls-2" d="M1159.43,311.71h3.64c3.44,0,5.28,2,5.28,5s-1.92,5.23-5.55,5.23h-3.37Zm3.37,8.49c2.26,0,3.22-1.64,3.22-3.46s-1-3.29-3-3.29h-1.33v6.75Z"/><path class="cls-2" d="M1170.12,321.94V311.71h6.45v1.85h-4.25V316h4v1.77h-4v2.34h4.51v1.85Z"/><path class="cls-2" d="M1182.05,322.11a6,6,0,0,1-4-1.25l1.22-1.77a4.32,4.32,0,0,0,2.92,1.18c.82,0,1.4-.36,1.4-.95s-.38-1-1.87-1.53c-2.48-.91-3.32-1.62-3.32-3.43s1.46-2.81,3.64-2.81a5.51,5.51,0,0,1,3.51,1.14l-1.07,1.84a4.44,4.44,0,0,0-2.53-1c-.83,0-1.29.3-1.29.85s.6,1,2.18,1.57c2.19.83,3.07,1.53,3.07,3.23C1185.86,321.06,1184.1,322.11,1182.05,322.11Z"/><path class="cls-2" d="M1192.19,322.11a5.28,5.28,0,0,1,0-10.56,4.81,4.81,0,0,1,4.22,1.8l-1.65,1.36a3.07,3.07,0,0,0-2.53-1.12c-1.87,0-2.85,1.27-2.85,3.12,0,2.38,1.48,3.42,3.06,3.42a2.84,2.84,0,0,0,2.55-1.34l1.63,1.12A5,5,0,0,1,1192.19,322.11Z"/><path class="cls-2" d="M1198.09,321.94V311.71h6.45v1.85h-4.25V316h4v1.77h-4v2.34h4.51v1.85Z"/><path class="cls-2" d="M1213.83,321.94l-5-6.42v6.42h-2.08V311.71h1.71l4.94,6.28v-6.28h2.05v10.23Z"/><path class="cls-2" d="M1217.79,311.71h3.64c3.45,0,5.28,2,5.28,5s-1.92,5.23-5.54,5.23h-3.38Zm3.38,8.49c2.25,0,3.22-1.64,3.22-3.46s-1.05-3.29-3-3.29H1220v6.75Z"/><path class="cls-2" d="M1228.49,321.94V311.71h6.44v1.85h-4.24V316h4v1.77h-4v2.34h4.51v1.85Z"/><path class="cls-2" d="M1237.11,311.71H1241a2.94,2.94,0,0,1,3.24,2.86,2.68,2.68,0,0,1-2.15,2.82v.07l3.17,4.48h-2.6l-2.55-3.87h-.75v3.87h-2.23Zm3.43,4.61a1.37,1.37,0,0,0,1.45-1.48,1.34,1.34,0,0,0-1.41-1.42h-1.28v2.9Z"/><path class="cls-2" d="M1250.42,321.94V311.71h2.25v8.38h4.38v1.85Z"/><path class="cls-2" d="M1258.49,321.94V311.71h2.24v10.23Z"/><path class="cls-2" d="M1270.28,321.94l-5-6.42v6.42h-2.09V311.71h1.71l5,6.28v-6.28h2v10.23Z"/><path class="cls-2" d="M1274.24,321.94V311.71h6.44v1.85h-4.24V316h4v1.77h-4v2.34H1281v1.85Z"/><line class="cls-3" x1="66.46" y1="277.75" x2="1287.45" y2="277.75"/><line class="cls-3" x1="66.46" y1="168.33" x2="1287.45" y2="168.33"/><line class="cls-3" x1="66.46" y1="114.44" x2="1287.45" y2="114.44"/><line class="cls-3" x1="66.46" y1="109.5" x2="1287.45" y2="109.5"/><line class="cls-3" x1="66.46" y1="329.99" x2="1287.45" y2="329.99"/><path d="M221.66,220.13A156.62,156.62,0,0,1,199.52,264,97.53,97.53,0,0,1,161,295.85l-4.79-6.2a110.74,110.74,0,0,0,34.65-36.34q12.57-21.54,16.92-43l22.19,5.44a5.78,5.78,0,0,1-2.67,3.27A10.27,10.27,0,0,1,221.66,220.13ZM266,281.92l-14.57-2V203H162.59l-3-10.66H330.66L325.33,196l12.73-16.1q15.22,12.63,20.56,17.63a6.37,6.37,0,0,1-2.45,3.86,7.31,7.31,0,0,1-4.63,1.58H266v27h43.52l-5.23,2.62,12.19-15.89q15.44,13.07,20.77,18.06a8,8,0,0,1-2.5,4.08,7.39,7.39,0,0,1-5.22,1.8H266ZM213.61,174.23v7c0,.65-1.27,1.58-3.81,2.77a18.86,18.86,0,0,1-8.16,1.8h-2.17v-85.5l15.23,7h88.55l7.83-8.7,17.62,13.27a11.67,11.67,0,0,1-3.59,2.61,22.07,22.07,0,0,1-5.55,2V179q-.1,1-4.35,2.89a19.27,19.27,0,0,1-7.83,1.9H305.2v-9.57Zm-6.31,70.49,5.44-5.88q10.33,20.46,25.18,28.83t49.88,8.38q12.18,0,35.57-.06t36-.38v3.27a8.14,8.14,0,0,0-6,3.42,12.44,12.44,0,0,0-2.23,7h-64q-29.92,0-49.12-7.61T207.3,244.72Zm97.9-126.84H213.61v17.19H305.2Zm-91.59,45.47H305.2V145.51H213.61Z"/><path d="M374.82,277.57l-3.26-10L462.5,129,461,127.23h-65.7l-3.92,35.25H378.09V114.4H487v9.9L395.17,264.08l1.52,1.74h74.95l8.27-29.37h12l-4.35,41.12Z"/><path d="M500.9,223.18q0-23.61,14.41-40.2T552.9,166.4q21.21,0,33.29,12.45t14.25,34.76v6.52h-82.9V209.69h64.62q-1.95-15.12-9.95-23T552,178.8q-15,0-23.28,11.31T520.59,221q.1,21.87,10.88,33.35A35,35,0,0,0,558,265.82q13.28,0,20.62-2.34a36.52,36.52,0,0,0,12.23-6.36l5.55,6.53q-5.11,6.84-14.68,11.58T557.9,280q-26.43,0-41.72-14.74T500.9,223.18Zm84.31-100.73c0,3.41-.73,5.87-2.18,7.4a42.82,42.82,0,0,1-6.63,5.33l-33,22.51-8-8.26,23-24.7a70.43,70.43,0,0,1,8.16-7.39q4.35-3.37,8.37-3.38a12,12,0,0,1,7,2.34A7.2,7.2,0,0,1,585.21,122.45Z"/><path d="M610.12,329.79v-8.71l15.55-3.8.22-86.16L625.67,186l-16.1-3.27V172.49l28.07-3.7,3.81,2.94,2.71,12.07a40.77,40.77,0,0,1,14.64-12.4q9.18-4.78,22-4.79,19.8,0,32.69,14.47t12.89,38.84q0,26.54-13.38,42.75t-35.89,16.21a55.07,55.07,0,0,1-19.69-3.27A42,42,0,0,1,644,267.89l.21,49.39,16.54,3.8v8.71ZM644,251.57q3.69,6.52,11.75,11.31a36.22,36.22,0,0,0,18.92,4.79q14.8,0,23.28-12.07t8.49-33q0-19.9-8.43-31.12t-22.79-11.2q-10.77,0-18.6,4.62a37.15,37.15,0,0,0-12.51,11.81l-.33,34.37Z"/><path d="M742.07,277.57v-8.7l15.44-3.81.22-44.82-.22-92.35-18-3.27V114.4l30-3.7H773l3,3.48-.11,70.6a44.83,44.83,0,0,1,16.42-13.27,47.77,47.77,0,0,1,21.43-5.11q16.75,0,25.19,8.1t8.43,22.25q0,8-.55,23.49l.55,44.82,16.1,3.81v8.7H811.69v-8.7l17.19-3.81.21-44.82V201.1A18.8,18.8,0,0,0,823.55,188q-5.55-5.93-15.89-5.93a40.78,40.78,0,0,0-17.4,4.13,35.37,35.37,0,0,0-14.47,12.51v21.54l.22,44.82,15,3.81v8.7Z"/><path d="M869.56,178.58v-9.79h46.12v9.79l-14.47,4,13.28,36.77,13.92,35.47L942,219.05l13.16-37.21-14.9-3.26v-9.79h45.25v9.79l-16.1,3.81-16.1,41.12-31.55,85.28q-4.56,12.07-12.29,17.19a30.81,30.81,0,0,1-17.4,5.11l-17.19-3.48v-9.79h11q5.86,0,13.87-3.37t12.56-15.67l7.51-20.34-20.24-53.19L882.4,182.39Z"/><path d="M990.52,277.57v-8.7l16.1-3.81.22-44.82-.22-34.26-16.1-3.27V172.49l28.07-3.7,3.8,2.94,2.72,11a53.45,53.45,0,0,1,15.45-9.79q9.46-4.12,22.19-4.13h10.66v28.28h-11.75L1058,183.26a48.54,48.54,0,0,0-17.19,3.42,42.15,42.15,0,0,0-15.88,10.72v22.84l.21,44.82,17.19,3.81v8.7Z"/><path d="M1083.09,223.18q0-23.61,14.42-40.2t37.58-16.58q21.21,0,33.29,12.45t14.25,34.76v6.52h-82.89V209.69h64.61q-1.95-15.12-9.95-23t-20.18-7.88q-15,0-23.28,11.31T1102.78,221q.1,21.87,10.88,33.35a35,35,0,0,0,26.54,11.47q13.27,0,20.62-2.34a36.67,36.67,0,0,0,12.24-6.36l5.54,6.53q-5.11,6.84-14.68,11.58T1140.09,280q-26.43,0-41.71-14.74T1083.09,223.18Z"/></svg>