<svg id="Layer_1" data-name="Layer 1" xmlns="http://www.w3.org/2000/svg" viewBox="0 0 1360 440"><defs><style>.cls-1{fill:#f1f1f2;}.cls-2{fill:gray;}.cls-3{fill:#00adee;}.cls-4,.cls-5,.cls-6{fill:none;stroke-miterlimit:10;}.cls-4{stroke:#929497;}.cls-5{stroke:#00adee;}.cls-5,.cls-6{stroke-width:1.5px;}.cls-6{stroke:#eb008b;}.cls-7{fill:#eb008b;}</style></defs><title>VFBR2_Overview</title><rect class="cls-1" width="1360" height="440"/><path class="cls-2" d="M1181.09,96.76l-.73-1.84h-3.62l-.69,1.84h-2.23L1178,86.51h1.5l4,10.25Zm-2.55-7-1.33,3.52h2.68Z"/><path class="cls-2" d="M1187.91,96.93a6,6,0,0,1-4.05-1.25l1.22-1.76a4.36,4.36,0,0,0,2.91,1.17c.83,0,1.4-.36,1.4-1s-.38-1-1.86-1.53c-2.48-.91-3.32-1.62-3.32-3.43s1.46-2.81,3.64-2.81a5.45,5.45,0,0,1,3.5,1.14l-1.06,1.84a4.47,4.47,0,0,0-2.54-1c-.82,0-1.29.3-1.29.85s.61,1,2.19,1.57c2.19.83,3.07,1.53,3.07,3.24C1191.72,95.88,1190,96.93,1187.91,96.93Z"/><path class="cls-2" d="M1198,96.93a5.28,5.28,0,0,1,0-10.56,4.79,4.79,0,0,1,4.21,1.8l-1.65,1.36a3,3,0,0,0-2.52-1.12c-1.88,0-2.86,1.28-2.86,3.12,0,2.39,1.49,3.42,3.07,3.42a2.85,2.85,0,0,0,2.55-1.34l1.63,1.12A5,5,0,0,1,1198,96.93Z"/><path class="cls-2" d="M1204,96.76V86.53h6.44v1.85h-4.24v2.43h4v1.76h-4v2.34h4.51v1.85Z"/><path class="cls-2" d="M1219.69,96.76l-5-6.42v6.42h-2.09V86.53h1.71l5,6.28V86.53h2V96.76Z"/><path class="cls-2" d="M1223.65,86.53h3.64c3.45,0,5.28,2,5.28,5s-1.92,5.23-5.55,5.23h-3.37ZM1227,95c2.26,0,3.23-1.64,3.23-3.46s-1.06-3.29-3-3.29h-1.33V95Z"/><path class="cls-2" d="M1234.34,96.76V86.53h6.45v1.85h-4.25v2.43h4v1.76h-4v2.34h4.51v1.85Z"/><path class="cls-2" d="M1243,86.53h3.88a2.94,2.94,0,0,1,3.23,2.86,2.68,2.68,0,0,1-2.14,2.82v.07l3.16,4.48h-2.59L1246,92.89h-.76v3.87H1243Zm3.43,4.61a1.37,1.37,0,0,0,1.44-1.48,1.34,1.34,0,0,0-1.4-1.42h-1.29v2.9Z"/><path class="cls-2" d="M1256.28,96.76V86.53h2.24v8.38h4.39v1.85Z"/><path class="cls-2" d="M1264.34,96.76V86.53h2.25V96.76Z"/><path class="cls-2" d="M1276.14,96.76l-5-6.42v6.42H1269V86.53h1.71l4.94,6.28V86.53h2V96.76Z"/><path class="cls-2" d="M1280.09,96.76V86.53h6.45v1.85h-4.25v2.43h4v1.76h-4v2.34h4.51v1.85Z"/><path class="cls-3" d="M108.19,200.18v4H106v-4.15L102.11,194h2.51l2.56,4.12,2.61-4.12h2.34Z"/><path class="cls-3" d="M117.3,195.88v8.35h-2.24v-8.35h-2.87V194h8.07v1.88Z"/><path class="cls-3" d="M126,204.4a5.28,5.28,0,0,1,0-10.56,4.81,4.81,0,0,1,4.22,1.8L128.62,197a3.07,3.07,0,0,0-2.52-1.12c-1.88,0-2.86,1.28-2.86,3.13,0,2.38,1.48,3.41,3.07,3.41a2.87,2.87,0,0,0,2.55-1.34l1.62,1.12A5,5,0,0,1,126,204.4Z"/><path class="cls-3" d="M138.26,204.23v-4.08h-4.07v4.08H132V194h2.24v4.25h4.07V194h2.24v10.23Z"/><path class="cls-2" d="M1223.67,186l-2.15,3.35h-2.31l3.29-5.16-3.23-5.07h2.55l2,3.08,2-3.08h2.31l-3.13,4.91,3.39,5.32h-2.53Z"/><path class="cls-2" d="M1229.07,186.36V184.5h4.23v1.86Z"/><path class="cls-2" d="M1241.45,189.32v-4.08h-4.08v4.08h-2.24V179.09h2.24v4.25h4.08v-4.25h2.24v10.23Z"/><path class="cls-2" d="M1246.06,189.32V179.09h6.45v1.85h-4.25v2.43h4v1.76h-4v2.34h4.51v1.85Z"/><path class="cls-2" d="M1254.76,189.32V179.09H1257v10.23Z"/><path class="cls-2" d="M1268.73,183.84v3.34a5.43,5.43,0,0,1-4.63,2.31,5,5,0,0,1-5.27-5.28,5.38,5.38,0,0,1,9.16-3.73l-1.4,1.56A3.15,3.15,0,0,0,1264,181a2.8,2.8,0,0,0-3,3.13c0,2.31,1.32,3.53,3.11,3.53a2.69,2.69,0,0,0,2.54-1.19v-.79h-2.56v-1.82Z"/><path class="cls-2" d="M1276.88,189.32v-4.08h-4.08v4.08h-2.24V179.09h2.24v4.25h4.08v-4.25h2.24v10.23Z"/><path class="cls-2" d="M1285.56,181v8.35h-2.24V181h-2.87v-1.88h8.06V181Z"/><path class="cls-2" d="M1205.49,130.66a5.28,5.28,0,0,1,0-10.56,4.81,4.81,0,0,1,4.22,1.8l-1.65,1.36a3.07,3.07,0,0,0-2.52-1.12c-1.88,0-2.86,1.28-2.86,3.12,0,2.38,1.48,3.42,3.07,3.42a2.87,2.87,0,0,0,2.55-1.34l1.62,1.12A5,5,0,0,1,1205.49,130.66Z"/><path class="cls-2" d="M1217.42,130.49l-.73-1.84h-3.63l-.68,1.84h-2.23l4.14-10.25h1.5l4,10.25Zm-2.55-7-1.33,3.52h2.67Z"/><path class="cls-2" d="M1220.93,120.26h4.15a3.12,3.12,0,0,1,3.38,3.24,3.24,3.24,0,0,1-3.48,3.35h-1.81v3.64h-2.24Zm3.82,4.85a1.42,1.42,0,0,0,1.46-1.61,1.4,1.4,0,0,0-1.55-1.47h-1.53v3.08Z"/><path class="cls-2" d="M1240.32,130.49v-4.08h-4.07v4.08H1234V120.26h2.25v4.25h4.07v-4.25h2.24v10.23Z"/><path class="cls-2" d="M1244.94,130.49V120.26h6.44v1.85h-4.24v2.43h4v1.76h-4v2.34h4.51v1.85Z"/><path class="cls-2" d="M1253.63,130.49V120.26h2.24v10.23Z"/><path class="cls-2" d="M1267.61,125v3.34a5.43,5.43,0,0,1-4.64,2.31,5,5,0,0,1-5.26-5.28,5.38,5.38,0,0,1,9.16-3.73l-1.4,1.56a3.18,3.18,0,0,0-2.61-1.06,2.79,2.79,0,0,0-2.94,3.13c0,2.31,1.32,3.53,3.11,3.53a2.68,2.68,0,0,0,2.53-1.19v-.79H1263V125Z"/><path class="cls-2" d="M1275.76,130.49v-4.08h-4.08v4.08h-2.24V120.26h2.24v4.25h4.08v-4.25H1278v10.23Z"/><path class="cls-2" d="M1284.43,122.14v8.35h-2.24v-8.35h-2.87v-1.88h8.07v1.88Z"/><path class="cls-2" d="M1214.14,256.17h4c1.86,0,3,.9,3,2.48a2.28,2.28,0,0,1-2,2.36,2.52,2.52,0,0,1,2.5,2.56c0,1.86-1.69,2.83-3.71,2.83h-3.82Zm3.46,4.26a1.28,1.28,0,0,0,1.36-1.36,1.24,1.24,0,0,0-1.38-1.19h-1.34v2.55Zm.29,4.26a1.31,1.31,0,0,0,1.46-1.4c0-.66-.51-1.22-1.46-1.22h-1.61v2.62Z"/><path class="cls-2" d="M1229.39,266.4l-.73-1.84H1225l-.69,1.84h-2.22l4.14-10.25h1.5l4,10.25Zm-2.55-6.95-1.33,3.52h2.67Z"/><path class="cls-2" d="M1236.2,266.57a6,6,0,0,1-4-1.25l1.22-1.77a4.32,4.32,0,0,0,2.92,1.18c.82,0,1.4-.36,1.4-1s-.38-1-1.87-1.53c-2.48-.91-3.32-1.62-3.32-3.43s1.46-2.81,3.65-2.81a5.5,5.5,0,0,1,3.5,1.14l-1.07,1.84a4.44,4.44,0,0,0-2.53-1c-.83,0-1.29.3-1.29.85s.6,1,2.19,1.57c2.18.83,3.06,1.53,3.06,3.24C1240,265.52,1238.25,266.57,1236.2,266.57Z"/><path class="cls-2" d="M1241.88,266.4V256.17h6.45V258h-4.25v2.43h4v1.76h-4v2.34h4.51v1.85Z"/><path class="cls-2" d="M1250.51,266.4V256.17h2.24v8.38h4.38v1.85Z"/><path class="cls-2" d="M1258.57,266.4V256.17h2.24V266.4Z"/><path class="cls-2" d="M1270.36,266.4l-5-6.42v6.42h-2.09V256.17H1265l4.94,6.28v-6.28h2V266.4Z"/><path class="cls-2" d="M1274.32,266.4V256.17h6.45V258h-4.25v2.43h4v1.76h-4v2.34H1281v1.85Z"/><line class="cls-4" x1="66.74" y1="275.23" x2="1287.74" y2="275.23"/><line class="cls-4" x1="66.74" y1="165.81" x2="1287.74" y2="165.81"/><line class="cls-4" x1="66.74" y1="111.92" x2="1287.74" y2="111.92"/><line class="cls-4" x1="66.74" y1="106.98" x2="1287.74" y2="106.98"/><line class="cls-4" x1="66.74" y1="327.47" x2="1287.74" y2="327.47"/><path d="M221.94,217.61a156.8,156.8,0,0,1-22.13,43.89,97.41,97.41,0,0,1-38.57,31.82l-4.78-6.2a110.48,110.48,0,0,0,34.64-36.33q12.57-21.54,16.92-43l22.19,5.44a5.67,5.67,0,0,1-2.66,3.26A10.4,10.4,0,0,1,221.94,217.61Zm44.39,61.79-14.58-2v-77H162.88l-3-10.66H330.94l-5.33,3.7,12.73-16.1Q353.57,190,358.9,195a6.32,6.32,0,0,1-2.45,3.87,7.28,7.28,0,0,1-4.62,1.57h-85.5v27h43.51L304.62,230l12.18-15.88q15.45,13.05,20.78,18.06a8.05,8.05,0,0,1-2.5,4.08,7.47,7.47,0,0,1-5.22,1.79H266.33ZM213.89,171.71v7q0,1-3.8,2.77a18.86,18.86,0,0,1-8.16,1.8h-2.18V97.73l15.23,7h88.55L311.36,96,329,109.26a11.92,11.92,0,0,1-3.59,2.62,21.67,21.67,0,0,1-5.55,2v62.66c-.08.65-1.52,1.62-4.35,2.88a19.3,19.3,0,0,1-7.84,1.91h-2.17v-9.57Zm-6.3,70.49,5.43-5.88q10.33,20.46,25.19,28.83t49.87,8.38q12.18,0,35.58-.06t36-.38v3.26a8.14,8.14,0,0,0-6,3.43,12.49,12.49,0,0,0-2.23,7h-64q-29.91,0-49.11-7.62T207.59,242.2Zm97.9-126.84h-91.6v17.18h91.6Zm-91.6,45.47h91.6V143h-91.6Z"/><path d="M375.11,275.05l-3.26-10,90.94-138.59-1.53-1.74h-65.7L391.64,160H378.37V111.88H487.26v9.89L395.45,261.56,397,263.3h74.95l8.27-29.37h12l-4.35,41.12Z"/><path d="M501.19,220.66q0-23.61,14.41-40.2t37.58-16.59q21.23,0,33.29,12.46t14.25,34.75v6.53H517.83V207.17h64.62q-2-15.12-10-23t-20.18-7.89q-15,0-23.28,11.32t-8.15,30.89q.11,21.87,10.87,33.34A35,35,0,0,0,558.3,263.3q13.26,0,20.61-2.34a36.57,36.57,0,0,0,12.24-6.36l5.55,6.52Q591.58,268,582,272.71t-23.82,4.73q-26.45,0-41.72-14.74T501.19,220.66Zm84.3-100.74q0,5.11-2.17,7.4a42.88,42.88,0,0,1-6.64,5.33l-33,22.52-8.05-8.27,23-24.69a72.29,72.29,0,0,1,8.16-7.4c2.9-2.24,5.69-3.37,8.38-3.37a12,12,0,0,1,7,2.34A7.2,7.2,0,0,1,585.49,119.92Z"/><path d="M610.4,327.26v-8.7L626,314.75l.21-86.15L626,183.45l-16.1-3.26V170l28.06-3.7,3.81,2.93,2.72,12.08a40.55,40.55,0,0,1,14.63-12.4q9.2-4.78,22-4.79,19.8,0,32.69,14.47t12.89,38.83q0,26.55-13.38,42.75t-35.9,16.21a55.11,55.11,0,0,1-19.69-3.26,42.28,42.28,0,0,1-13.49-7.72l.22,49.38L661,318.56v8.7Zm33.83-78.21q3.71,6.52,11.75,11.31a36.38,36.38,0,0,0,18.93,4.79q14.79,0,23.28-12.08t8.48-33q0-19.91-8.43-31.11t-22.79-11.2q-10.77,0-18.6,4.62a37.31,37.31,0,0,0-12.51,11.8L644,228.6Z"/><path d="M742.35,275.05v-8.7l15.45-3.81.22-44.82-.22-92.36-18.06-3.26V111.88l30-3.7h3.49l3,3.48-.11,70.6A44.77,44.77,0,0,1,792.61,169,47.75,47.75,0,0,1,814,163.87q16.76,0,25.18,8.11t8.43,22.24q0,8.06-.54,23.5l.54,44.82,16.1,3.81v8.7H812v-8.7l17.19-3.81.22-44.82V198.57a18.76,18.76,0,0,0-5.55-13.1q-5.55-5.94-15.88-5.93a40.86,40.86,0,0,0-17.41,4.13,35.43,35.43,0,0,0-14.47,12.51v21.54l.22,44.82,15,3.81v8.7Z"/><path d="M869.84,176.06v-9.79H916v9.79l-14.47,4,13.27,36.77,13.92,35.46,13.6-35.79,13.17-37.2-14.91-3.26v-9.79h45.26v9.79l-16.1,3.8L953.61,221l-31.55,85.29q-4.57,12.08-12.29,17.19a30.9,30.9,0,0,1-17.41,5.11l-17.19-3.48V315.3h11q5.88,0,13.87-3.38t12.56-15.66l7.51-20.34-20.23-53.2-17.19-42.86Z"/><path d="M990.81,275.05v-8.7l16.1-3.81.21-44.82-.21-34.27-16.1-3.26V170l28.06-3.7,3.81,2.93,2.72,11a53.45,53.45,0,0,1,15.45-9.79q9.47-4.14,22.19-4.13h10.66v28.28H1062l-3.7-13.82a48.56,48.56,0,0,0-17.19,3.43,42.15,42.15,0,0,0-15.88,10.72v22.84l.22,44.82,17.19,3.81v8.7Z"/><path d="M1083.38,220.66q0-23.61,14.41-40.2t37.59-16.59q21.21,0,33.28,12.46t14.25,34.75v6.53H1100V207.17h64.62q-2-15.12-10-23t-20.18-7.89q-15,0-23.27,11.32t-8.16,30.89q.11,21.87,10.88,33.34a35,35,0,0,0,26.54,11.48q13.27,0,20.61-2.34a36.48,36.48,0,0,0,12.24-6.36l5.55,6.52q-5.12,6.86-14.69,11.59t-23.82,4.73q-26.43,0-41.72-14.74T1083.38,220.66Z"/><line class="cls-5" x1="66.46" y1="294.12" x2="360.07" y2="293.79"/><line class="cls-5" x1="66.46" y1="95.72" x2="360.42" y2="95.72"/><line class="cls-6" x1="156.4" y1="388.36" x2="156.4" y2="95.63"/><line class="cls-6" x1="360.12" y1="388.36" x2="360.12" y2="95.63"/><path class="cls-7" d="M243.57,311.89l-2.14,3.35h-2.31l3.29-5.16L239.17,305h2.55l2,3.08,2-3.08H248l-3.14,4.9,3.39,5.33H245.7Z"/><path class="cls-7" d="M253.6,306.89v8.35h-2.24v-8.35h-2.88V305h8.07v1.88Z"/><path class="cls-7" d="M262.33,315.4a5.28,5.28,0,0,1,0-10.56,4.8,4.8,0,0,1,4.21,1.81L264.91,308a3,3,0,0,0-2.52-1.12c-1.88,0-2.86,1.27-2.86,3.12,0,2.38,1.49,3.42,3.07,3.42a2.85,2.85,0,0,0,2.55-1.34l1.62,1.12A4.94,4.94,0,0,1,262.33,315.4Z"/><path class="cls-7" d="M274.56,315.24v-4.08h-4.08v4.08h-2.24V305h2.24v4.25h4.08V305h2.24v10.23Z"/><path class="cls-2" d="M1164.75,309.79h3.64c3.44,0,5.28,2,5.28,5s-1.92,5.22-5.55,5.22h-3.37Zm3.37,8.49c2.26,0,3.22-1.64,3.22-3.46s-1-3.3-3-3.3H1167v6.76Z"/><path class="cls-2" d="M1175.44,320V309.79h6.45v1.85h-4.25v2.42h4v1.76h-4v2.34h4.51V320Z"/><path class="cls-2" d="M1187.37,320.18a6,6,0,0,1-4-1.25l1.22-1.76a4.37,4.37,0,0,0,2.92,1.18c.82,0,1.4-.37,1.4-1s-.38-1-1.87-1.52c-2.48-.91-3.32-1.63-3.32-3.44s1.46-2.81,3.65-2.81a5.44,5.44,0,0,1,3.5,1.15l-1.07,1.83a4.44,4.44,0,0,0-2.53-1c-.83,0-1.29.31-1.29.85s.6,1,2.18,1.57c2.19.83,3.07,1.53,3.07,3.24C1191.18,319.13,1189.42,320.18,1187.37,320.18Z"/><path class="cls-2" d="M1197.51,320.18a5.28,5.28,0,0,1,0-10.56,4.79,4.79,0,0,1,4.22,1.81l-1.65,1.35a3.07,3.07,0,0,0-2.53-1.12c-1.87,0-2.85,1.28-2.85,3.13,0,2.38,1.48,3.42,3.06,3.42a2.83,2.83,0,0,0,2.55-1.35L1202,318A5,5,0,0,1,1197.51,320.18Z"/><path class="cls-2" d="M1203.41,320V309.79h6.45v1.85h-4.25v2.42h4v1.76h-4v2.34h4.51V320Z"/><path class="cls-2" d="M1219.15,320l-5-6.41V320H1212V309.79h1.71l4.94,6.27v-6.27h2V320Z"/><path class="cls-2" d="M1223.11,309.79h3.64c3.45,0,5.28,2,5.28,5s-1.91,5.22-5.54,5.22h-3.38Zm3.38,8.49c2.25,0,3.22-1.64,3.22-3.46s-1-3.3-3-3.3h-1.33v6.76Z"/><path class="cls-2" d="M1233.81,320V309.79h6.44v1.85H1236v2.42h4v1.76h-4v2.34h4.51V320Z"/><path class="cls-2" d="M1242.43,309.79h3.88c1.7,0,3.24,1,3.24,2.85a2.68,2.68,0,0,1-2.15,2.82v.07l3.17,4.48H1248l-2.54-3.86h-.76V320h-2.23Zm3.43,4.6a1.36,1.36,0,0,0,1.45-1.48,1.33,1.33,0,0,0-1.4-1.41h-1.29v2.89Z"/><path class="cls-2" d="M1255.75,320V309.79H1258v8.37h4.38V320Z"/><path class="cls-2" d="M1263.81,320V309.79h2.24V320Z"/><path class="cls-2" d="M1275.6,320l-5-6.41V320h-2.08V309.79h1.7l5,6.27v-6.27h2V320Z"/><path class="cls-2" d="M1279.56,320V309.79H1286v1.85h-4.24v2.42h4v1.76h-4v2.34h4.51V320Z"/></svg>